<svg width="40" height="41" viewBox="0 0 40 41" fill="none" xmlns="http://www.w3.org/2000/svg">
    <g clip-path="url(#clip0_60_369)">
        <circle cx="20" cy="20.4841" r="20" fill="#DD7840"/>
        <path d="M25.1851 20.484C24.4444 20.484 22.9629 21.9655 19.9999 21.9655C17.037 21.9655 15.5555 20.484 14.8147 20.484C13.997 20.484 13.3333 21.1477 13.3333 21.9655C13.3333 22.7063 13.754 23.0626 14.074 23.25C14.9518 23.7633 17.7777 24.9285 17.7777 24.9285L14.6295 28.9566C14.6295 28.9566 14.074 29.6492 14.074 30.1137C14.074 30.9314 14.7377 31.5951 15.5555 31.5951C16.3118 31.5951 16.6547 31.1092 16.6547 31.1092C16.6547 31.1092 19.9947 27.1455 19.9999 27.1507C20.0051 27.1455 23.3451 31.1092 23.3451 31.1092C23.3451 31.1092 23.6881 31.5951 24.4444 31.5951C25.2621 31.5951 25.9258 30.9314 25.9258 30.1137C25.9258 29.6492 25.3703 28.9566 25.3703 28.9566L22.2221 24.9285C22.2221 24.9285 25.0481 23.7633 25.9258 23.25C26.2458 23.0626 26.6666 22.7063 26.6666 21.9655C26.6666 21.1477 26.0029 20.484 25.1851 20.484Z" fill="white"/>
        <path d="M19.9983 9.37292C17.1346 9.37292 14.8131 11.6944 14.8131 14.5581C14.8131 17.4218 17.1346 19.7433 19.9983 19.7433C22.8612 19.7433 25.1835 17.4218 25.1835 14.5581C25.1835 11.6944 22.8612 9.37292 19.9983 9.37292ZM19.9983 17.1507C18.5664 17.1507 17.4057 15.9907 17.4057 14.5581C17.4057 13.1263 18.5664 11.9655 19.9983 11.9655C21.4294 11.9655 22.5909 13.1263 22.5909 14.5581C22.5909 15.9907 21.4294 17.1507 19.9983 17.1507Z" fill="white"/>
    </g>
    <defs>
        <clipPath id="clip0_60_369">
            <rect width="40" height="40" fill="white" transform="translate(0 0.484131)"/>
        </clipPath>
    </defs>
</svg>
