<svg width="40" height="41" viewBox="0 0 40 41" fill="none" xmlns="http://www.w3.org/2000/svg">
    <g clip-path="url(#clip0_60_359)">
        <circle cx="20" cy="20.4841" r="20" fill="#4AAAE7"/>
        <path fill-rule="evenodd" clip-rule="evenodd" d="M9.70827 19.2918C15.077 17.0965 18.6569 15.6493 20.4482 14.9501C25.5626 12.9536 26.6253 12.6068 27.318 12.5953C27.4703 12.5928 27.8109 12.6283 28.0316 12.7963C28.2179 12.9382 28.2692 13.1298 28.2937 13.2644C28.3182 13.3989 28.3488 13.7053 28.3245 13.9448C28.0473 16.6778 26.8481 23.31 26.238 26.3711C25.9799 27.6663 25.4715 28.1006 24.9794 28.1431C23.91 28.2354 23.0979 27.4797 22.062 26.8425C20.4412 25.8453 19.5255 25.2246 17.9522 24.2515C16.1339 23.127 17.3126 22.5089 18.3488 21.4988C18.62 21.2345 23.3321 17.212 23.4233 16.8471C23.4347 16.8014 23.4453 16.6313 23.3376 16.5415C23.2299 16.4517 23.071 16.4824 22.9563 16.5068C22.7937 16.5415 20.2044 18.1477 15.1882 21.3256C14.4533 21.7992 13.7875 22.03 13.1911 22.0179C12.5335 22.0046 11.2687 21.669 10.3284 21.3821C9.17503 21.0303 8.2584 20.8442 8.33822 20.2467C8.37979 19.9355 8.83648 19.6171 9.70827 19.2918Z" fill="white"/>
    </g>
    <defs>
        <clipPath id="clip0_60_359">
            <rect width="40" height="40" fill="white" transform="translate(0 0.484131)"/>
        </clipPath>
    </defs>
</svg>
