<svg width="40" height="41" viewBox="0 0 40 41" fill="none" xmlns="http://www.w3.org/2000/svg">
    <g clip-path="url(#clip0_60_364)">
        <circle cx="20" cy="20.4841" r="20" fill="#2E79F6"/>
        <path d="M26.1123 22.2104C26.3206 21.8086 27.0582 20.6568 27.6135 19.7996C29.2796 17.2639 29.5833 16.7282 29.5833 16.4068C29.5833 16.1602 29.3891 15.9604 29.1495 15.9604H25.2445C25.0356 15.9612 24.8569 16.115 24.8193 16.3264C24.6024 17.5586 21.7909 21.0943 21.3483 21.3175C21.1661 21.3175 20.9144 20.8532 20.9144 19.9782V16.2104C20.9626 15.9157 20.8869 15.6139 20.7062 15.38C20.4111 15.0675 19.9686 15.0675 18.7363 15.0675C16.4975 15.0675 15.6992 15.755 15.6992 16.4068C15.6895 16.5202 15.7261 16.6327 15.8001 16.7173C15.8742 16.802 15.979 16.8512 16.0897 16.8532C16.0897 16.8532 16.5669 17.1746 16.5669 19.0854C16.5915 19.8314 16.5537 20.5781 16.4541 21.3175C15.3521 21.1121 13.8248 18.2818 13.0959 16.2461C13.0278 16.0632 12.8519 15.9474 12.662 15.9604H9.19098C9.061 15.9582 8.93692 16.0161 8.85288 16.1181C8.76883 16.2201 8.73368 16.3556 8.7571 16.4871C9.24305 19.1836 14.7533 27.5675 18.3025 27.5675H20.038C20.9578 27.5675 21.0272 26.5407 21.0793 25.8621C21.1314 25.1836 21.1747 24.8889 21.3396 24.8889C21.8776 24.8889 22.9797 25.8711 23.6999 26.5139C24.4202 27.1568 24.8888 27.5675 25.2445 27.5675H27.4139C28.5333 27.5675 29.5833 27.5675 29.5833 26.6746C29.5833 26.3354 29.297 25.9425 27.6482 23.9961C27.1015 23.38 26.3639 22.5318 26.1123 22.2104Z" fill="white"/>
    </g>
    <defs>
        <clipPath id="clip0_60_364">
            <rect width="40" height="40" fill="white" transform="translate(0 0.484131)"/>
        </clipPath>
    </defs>
</svg>
