<svg width="40" height="40" viewBox="0 0 40 40" fill="none" xmlns="http://www.w3.org/2000/svg">
    <g clip-path="url(#clip0_60_452)">
        <circle cx="20" cy="20" r="20" fill="#DFDFDF"/>
        <path fill-rule="evenodd" clip-rule="evenodd" d="M17.4765 10.2672C15.751 10.3005 14.5839 10.4152 13.675 10.6411C12.7808 10.8633 12.0718 11.2301 11.6235 11.7023C11.0082 12.3506 10.6223 13.3825 10.4351 14.88C10.3187 15.8119 10.2765 16.7164 10.2606 18.6205L10.25 19.8836H10.3796C10.7017 19.8836 12.26 19.819 12.944 19.7773C14.5741 19.6778 15.6099 19.5033 16.4286 19.19C17.1445 18.9161 17.8206 18.4611 18.2708 17.9504C19.2409 16.85 19.6233 15.5801 19.7826 12.9305C19.8227 12.2633 19.8889 10.6681 19.8889 10.3688V10.25L18.9914 10.2527C18.4977 10.2541 17.816 10.2607 17.4765 10.2672ZM20.1164 10.3759C20.1165 10.712 20.1824 12.3191 20.2231 12.9793C20.3868 15.633 20.7781 16.8919 21.7864 18.0093C22.1115 18.3694 22.6118 18.7348 23.1299 18.9904C24.088 19.463 25.2003 19.6735 27.37 19.7932C28.0262 19.8293 29.3766 19.8833 29.6322 19.8835L29.75 19.8836L29.7497 19.1404C29.7487 16.6855 29.6565 15.149 29.4474 14.1002C29.1573 12.6454 28.6479 11.7579 27.8032 11.2354C26.8859 10.668 25.6753 10.4012 23.5523 10.2986C23.0511 10.2743 21.7278 10.2505 20.8677 10.2502L20.1164 10.25L20.1164 10.3759ZM10.2606 21.3717C10.2765 23.2784 10.3186 24.1824 10.4351 25.1147C10.6511 26.8428 11.1332 27.9564 11.9298 28.567C12.8351 29.2609 14.1444 29.5877 16.453 29.6959C16.9765 29.7205 18.2763 29.7439 19.1376 29.7443L19.8889 29.7447L19.8888 29.6188C19.8886 29.3618 19.8352 28.0117 19.7988 27.3403C19.6819 25.1888 19.4573 24.028 18.9729 23.0726C18.5052 22.1501 17.8155 21.4687 16.8754 21.0004C15.7337 20.4316 14.2782 20.226 10.6223 20.1172L10.25 20.1061L10.2606 21.3717ZM29.0027 20.1285C26.0756 20.2378 25.0365 20.3513 23.9395 20.6813C22.9917 20.9665 22.1761 21.498 21.5922 22.211C20.8145 23.1608 20.44 24.3387 20.2716 26.3656C20.2128 27.0732 20.1164 29.1007 20.1164 29.6288V29.75L21.4038 29.7393C22.7361 29.7283 23.2963 29.7134 23.9907 29.6709C25.5742 29.5737 26.5954 29.3654 27.4025 28.9746C27.6712 28.8446 27.8529 28.7367 28.0379 28.5975C28.906 27.9441 29.3931 26.7737 29.6022 24.8385C29.6991 23.9427 29.749 22.5943 29.7497 20.8543L29.75 20.1111L29.5429 20.1136C29.4289 20.1149 29.1859 20.1216 29.0027 20.1285Z" fill="#262526"/>
    </g>
    <defs>
        <clipPath id="clip0_60_452">
            <rect width="40" height="40" fill="white"/>
        </clipPath>
    </defs>
</svg>
