<svg width="40" height="41" viewBox="0 0 40 41" fill="none" xmlns="http://www.w3.org/2000/svg">
    <g clip-path="url(#clip0_60_458)">
        <circle cx="20" cy="20.4841" r="20" fill="#B80303"/>
        <path d="M29.543 14.9821C30 16.7641 30 20.4841 30 20.4841C30 20.4841 30 24.2041 29.543 25.9861C29.289 26.9711 28.546 27.7461 27.605 28.0081C25.896 28.4841 20 28.4841 20 28.4841C20 28.4841 14.107 28.4841 12.395 28.0081C11.45 27.7421 10.708 26.9681 10.457 25.9861C10 24.2041 10 20.4841 10 20.4841C10 20.4841 10 16.7641 10.457 14.9821C10.711 13.9971 11.454 13.2221 12.395 12.9601C14.107 12.4841 20 12.4841 20 12.4841C20 12.4841 25.896 12.4841 27.605 12.9601C28.55 13.2261 29.292 14.0001 29.543 14.9821ZM18 23.9841L24 20.4841L18 16.9841V23.9841Z" fill="white"/>
    </g>
    <defs>
        <clipPath id="clip0_60_458">
            <rect width="40" height="40" fill="white" transform="translate(0 0.484131)"/>
        </clipPath>
    </defs>
</svg>
