<svg width="37" height="37" viewBox="0 0 37 37" fill="none" xmlns="http://www.w3.org/2000/svg">
    <rect y="0.428711" width="36.4286" height="36.4286" rx="18.2143" fill="#D3E8F3"/>
    <path d="M35.046 19.4634C35.046 22.8274 34.1579 26.2155 32.4537 29.0028C31.8537 29.988 31.2776 30.7329 30.6535 31.3096C27.8932 33.9528 24.2689 35.6829 20.4284 36.2115C16.396 36.7641 12.5076 35.8751 9.48326 33.7125C8.35514 32.9195 7.32303 31.9343 6.41093 30.829C4.15469 28.0417 2.71453 24.4854 2.33049 20.5447C2.06646 18.0457 1.89844 14.8018 2.93055 11.9664C3.89066 9.27513 5.04278 6.48778 7.58705 4.97396C9.53126 3.79655 12.4356 2.21065 15.0999 1.97036C18.1722 1.68201 21.3165 2.11453 24.1728 3.19583C26.5011 4.0849 28.3973 5.04605 30.0535 6.82419C31.7097 8.60232 33.0058 10.6688 33.8939 12.9756C34.662 15.018 35.046 17.2287 35.046 19.4634ZM2.54651 17.1806C2.54651 18.358 2.64252 19.4874 2.73853 20.4966C3.12257 24.3653 4.51472 27.8494 6.74696 30.5647C7.63506 31.646 8.64317 32.6072 9.74729 33.3761C12.6756 35.4666 16.468 36.3316 20.3804 35.803C24.1488 35.2984 27.6772 33.5923 30.3895 30.9972C30.9656 30.4446 31.5176 29.7237 32.1177 28.7625C34.878 24.2451 35.4301 18.1178 33.5098 13.1438C32.6458 10.8851 31.3736 8.86664 29.7414 7.13656C28.1333 5.43051 26.2851 4.49339 24.0048 3.60432C21.1965 2.52302 18.1242 2.11453 15.1239 2.40288C12.5316 2.64317 9.69928 4.20504 7.77907 5.35843C5.35481 6.80016 4.25069 9.49139 3.31459 12.1346C2.71453 13.7445 2.54651 15.4986 2.54651 17.1806Z" fill="#2D2F33"/>
    <path fill-rule="evenodd" clip-rule="evenodd" d="M19.7036 15.1937C19.8699 15.0344 20.1347 15.0344 20.3011 15.1936L20.3011 15.1937L23.5953 18.3456L23.5953 18.3456L23.5965 18.3468C23.6767 18.4244 23.7256 18.5327 23.7256 18.6498C23.7256 18.7669 23.6767 18.8752 23.5965 18.9528L23.5954 18.9539L20.3014 22.1074L20.3014 22.1074L20.3003 22.1085C20.2163 22.1881 20.1081 22.2268 20.0025 22.2268C19.8967 22.2268 19.788 22.188 19.7036 22.1072C19.5299 21.9409 19.5299 21.6655 19.7036 21.4992L22.478 18.8434L12.9229 18.8434L12.9229 18.4577L22.4793 18.4577L19.7036 15.8017L19.7036 15.8016C19.5299 15.6354 19.5299 15.3599 19.7036 15.1937Z" fill="black"/>
</svg>
