<svg width="37" height="37" viewBox="0 0 37 37" fill="none" xmlns="http://www.w3.org/2000/svg">
    <rect width="36.4286" height="36.4286" rx="18.2143" fill="#E4F6D3"/>
    <path d="M35.046 19.0347C35.046 22.3987 34.1579 25.7868 32.4537 28.5741C31.8537 29.5593 31.2776 30.3042 30.6535 30.8809C27.8932 33.5241 24.2689 35.2541 20.4284 35.7828C16.396 36.3354 12.5076 35.4464 9.48326 33.2838C8.35514 32.4908 7.32303 31.5056 6.41093 30.4003C4.15469 27.613 2.71453 24.0567 2.33049 20.116C2.06646 17.617 1.89844 14.3731 2.93055 11.5377C3.89066 8.84642 5.04278 6.05907 7.58705 4.54525C9.53126 3.36784 12.4356 1.78194 15.0999 1.54164C18.1722 1.2533 21.3165 1.68582 24.1728 2.76712C26.5011 3.65619 28.3973 4.61734 30.0535 6.39547C31.7097 8.17361 33.0058 10.2401 33.8939 12.5469C34.662 14.5893 35.046 16.8 35.046 19.0347ZM2.54651 16.7519C2.54651 17.9293 2.64252 19.0587 2.73853 20.0679C3.12257 23.9365 4.51472 27.4207 6.74696 30.136C7.63506 31.2173 8.64317 32.1784 9.74729 32.9474C12.6756 35.0379 16.468 35.9029 20.3804 35.3743C24.1488 34.8697 27.6772 33.1636 30.3895 30.5685C30.9656 30.0158 31.5176 29.295 32.1177 28.3338C34.878 23.8164 35.4301 17.689 33.5098 12.7151C32.6458 10.4564 31.3736 8.43793 29.7414 6.70785C28.1333 5.0018 26.2851 4.06468 24.0048 3.17561C21.1965 2.09431 18.1242 1.68582 15.1239 1.97417C12.5316 2.21445 9.69928 3.77633 7.77907 4.92972C5.35481 6.37145 4.25069 9.06268 3.31459 11.7059C2.71453 13.3158 2.54651 15.0699 2.54651 16.7519Z" fill="#2D2F33"/>
    <path fill-rule="evenodd" clip-rule="evenodd" d="M19.7036 14.765C19.8699 14.6057 20.1347 14.6057 20.3011 14.7649L20.3011 14.765L23.5953 17.9169L23.5953 17.9169L23.5965 17.9181C23.6767 17.9957 23.7256 18.104 23.7256 18.2211C23.7256 18.3382 23.6767 18.4465 23.5965 18.5241L23.5954 18.5252L20.3014 21.6787L20.3014 21.6787L20.3003 21.6798C20.2163 21.7594 20.1081 21.7981 20.0025 21.7981C19.8967 21.7981 19.788 21.7593 19.7036 21.6785C19.5299 21.5122 19.5299 21.2368 19.7036 21.0705L22.478 18.4147L12.9229 18.4147L12.9229 18.0289L22.4793 18.0289L19.7036 15.373L19.7036 15.3729C19.5299 15.2066 19.5299 14.9312 19.7036 14.765Z" fill="black"/>
</svg>
