<svg width="62" height="88" viewBox="0 0 62 88" fill="none" xmlns="http://www.w3.org/2000/svg">
    <path d="M61.022 24.5706L60.9533 55.4003L60.9361 63.9584L60.9017 88L59.1488 87.9656L54.3714 87.897L33.784 87.5704L26.2055 87.4502L0.978027 87.0377L1.21864 64.4396L1.30454 56.4658L1.64826 26.0142L25.329 25.447L34.1964 25.2236L46.0712 24.9316L51.0376 24.8112L61.022 24.5706Z" fill="#BFA060"/>
    <path d="M9.98288 31.3071C9.98288 32.5444 8.98612 33.5412 7.74881 33.5412C6.5115 33.5412 5.5148 32.5444 5.5148 31.3071C5.5148 30.0698 6.5115 29.073 7.74881 29.073C8.98612 29.073 9.98288 30.0698 9.98288 31.3071Z" fill="white"/>
    <path d="M22.579 47.5467C22.579 48.8356 21.5308 49.8838 20.2419 49.8838C18.953 49.8838 17.9047 48.8356 17.9047 47.5467C17.9047 46.2578 18.953 45.2096 20.2419 45.2096C21.5308 45.2268 22.579 46.2578 22.579 47.5467Z" fill="white"/>
    <path d="M9.57029 48.9904C9.57029 50.2965 8.50487 51.3619 7.19882 51.3619C5.89277 51.3619 4.8273 50.2965 4.8273 48.9904C4.8273 47.6844 5.89277 46.6189 7.19882 46.6189C8.50487 46.6189 9.57029 47.6844 9.57029 48.9904Z" fill="white"/>
    <path d="M41.7399 44.4708C41.7399 45.5878 40.8464 46.4813 39.7293 46.4813C38.6123 46.4813 37.7187 45.5878 37.7187 44.4708C37.7187 43.3538 38.6123 42.4601 39.7293 42.4601C40.8464 42.4601 41.7399 43.371 41.7399 44.4708Z" fill="white"/>
    <path d="M16.3753 56.0706C16.3753 57.1877 15.4816 58.0811 14.3646 58.0811C13.2476 58.0811 12.354 57.1877 12.354 56.0706C12.354 54.9536 13.2476 54.0599 14.3646 54.0599C15.4816 54.0599 16.3753 54.9536 16.3753 56.0706Z" fill="white"/>
    <path d="M51.3296 49.9526C51.3296 51.0868 50.4016 52.0149 49.2674 52.0149C48.1332 52.0149 47.2052 51.0868 47.2052 49.9526C47.2052 48.8184 48.1332 47.8905 49.2674 47.8905C50.4016 47.8905 51.3296 48.8184 51.3296 49.9526Z" fill="white"/>
    <path d="M59.9733 35.7751C59.9733 37.3389 58.7016 38.6107 57.1378 38.6107C55.574 38.6107 54.3022 37.3389 54.3022 35.7751C54.3022 34.2113 55.574 32.9396 57.1378 32.9396C58.7016 32.9396 59.9733 34.2113 59.9733 35.7751Z" fill="white"/>
    <path d="M45.4008 35.7751C45.4008 37.3389 44.1292 38.6107 42.5654 38.6107C41.0015 38.6107 39.7299 37.3389 39.7299 35.7751C39.7299 34.2113 41.0015 32.9396 42.5654 32.9396C44.112 32.9396 45.4008 34.2113 45.4008 35.7751Z" fill="white"/>
    <path d="M51.0376 24.88C51.0376 26.2548 49.9207 27.3717 48.5459 27.3717C47.1883 27.3717 46.0884 26.2892 46.054 24.9488L51.0205 24.8284C51.0377 24.8284 51.0376 24.8628 51.0376 24.88Z" fill="white"/>
    <path d="M25.8103 40.8448C27.3004 40.8448 28.5084 39.6367 28.5084 38.1467C28.5084 36.6566 27.3004 35.4487 25.8103 35.4487C24.3203 35.4487 23.1123 36.6566 23.1123 38.1467C23.1123 39.6367 24.3203 40.8448 25.8103 40.8448Z" fill="white"/>
    <path d="M39.988 58.339C41.4021 58.339 42.5485 57.1926 42.5485 55.7784C42.5485 54.3643 41.4021 53.2179 39.988 53.2179C38.5738 53.2179 37.4275 54.3643 37.4275 55.7784C37.4275 57.1926 38.5738 58.339 39.988 58.339Z" fill="white"/>
    <path d="M56.3645 63.46C56.3645 64.7316 55.3334 65.7457 54.079 65.7457C52.8073 65.7457 51.7933 64.7144 51.7933 63.46C51.7933 62.1883 52.8245 61.1744 54.079 61.1744C55.3506 61.1744 56.3645 62.1883 56.3645 63.46Z" fill="white"/>
    <path d="M53.0481 77.6203C54.4623 77.6203 55.6086 76.4739 55.6086 75.0598C55.6086 73.6456 54.4623 72.4993 53.0481 72.4993C51.634 72.4993 50.4876 73.6456 50.4876 75.0598C50.4876 76.4739 51.634 77.6203 53.0481 77.6203Z" fill="white"/>
    <path d="M43.7511 72.1557C43.7511 73.3586 42.7716 74.3382 41.5686 74.3382C40.3657 74.3382 39.3861 73.3586 39.3861 72.1557C39.3861 70.9527 40.3657 69.9731 41.5686 69.9731C42.7887 69.9903 43.7511 70.9527 43.7511 72.1557Z" fill="white"/>
    <path d="M45.418 84.1678C46.6613 84.1678 47.6692 83.1598 47.6692 81.9165C47.6692 80.6732 46.6613 79.6654 45.418 79.6654C44.1747 79.6654 43.1668 80.6732 43.1668 81.9165C43.1668 83.1598 44.1747 84.1678 45.418 84.1678Z" fill="white"/>
    <path d="M59.3034 87.1235C59.3034 87.4157 59.2518 87.6906 59.1659 87.9655L54.3885 87.897C54.3198 87.6564 54.2682 87.3985 54.2682 87.1407C54.2682 85.7487 55.4024 84.6318 56.7772 84.6318C58.1692 84.6146 59.3034 85.7487 59.3034 87.1235Z" fill="white"/>
    <path d="M22.4072 79.1842C22.4072 80.4559 21.3762 81.4697 20.1217 81.4697C18.8672 81.4697 17.8361 80.4387 17.8361 79.1842C17.8361 77.9297 18.8672 76.8987 20.1217 76.8987C21.3762 76.8987 22.4072 77.9297 22.4072 79.1842Z" fill="white"/>
    <path d="M28.5599 69.0278C28.5599 70.5917 27.2882 71.8806 25.7072 71.8806C24.1434 71.8806 22.8545 70.6088 22.8545 69.0278C22.8545 67.464 24.1262 66.1753 25.7072 66.1753C27.2882 66.1753 28.5599 67.4468 28.5599 69.0278Z" fill="white"/>
    <path d="M19.0909 70.8839C19.0909 72.1727 18.0426 73.2038 16.7709 73.2038C15.4821 73.2038 14.4338 72.1556 14.4338 70.8839C14.4338 69.595 15.4821 68.5468 16.7709 68.5468C18.0426 68.5468 19.0909 69.595 19.0909 70.8839Z" fill="white"/>
    <path d="M8.57358 68.3061C8.57358 69.595 7.52533 70.6432 6.23646 70.6432C4.9476 70.6432 3.89929 69.595 3.89929 68.3061C3.89929 67.0172 4.9476 65.969 6.23646 65.969C7.52533 65.969 8.57358 67.0172 8.57358 68.3061Z" fill="white"/>
    <path d="M8.88293 81.6759C8.88293 82.9647 7.85182 83.996 6.56296 83.996C5.27409 83.996 4.24304 82.9647 4.24304 81.6759C4.24304 80.387 5.27409 79.356 6.56296 79.356C7.85182 79.356 8.88293 80.4042 8.88293 81.6759Z" fill="white"/>
    <path d="M34.1962 24.5706L33.99 55.5549L33.9384 63.924L33.7837 87.5704L26.2052 87.4502L25.8787 63.9928L25.7584 55.6923L25.3288 24.794L34.1962 24.5706Z" fill="#960B04"/>
    <path d="M60.9532 55.4004L60.936 63.9584L33.9385 64.1818L25.8788 64.2334L1.21854 64.4397L1.30444 56.4658L25.7585 56.0362L33.9901 55.8816L60.9532 55.4004Z" fill="#960B04"/>
    <path d="M10.4642 5.92504C0.290724 9.01831 5.80708 13.916 6.82098 17.0952C7.83489 20.2744 1.4593 25.9283 14.9838 26.8219C25.7243 26.8219 30.158 23.4537 30.158 23.4537C30.158 23.4537 23.9027 1.90378 10.4642 5.92504ZM10.2064 23.3677C9.84552 22.8866 10.0002 22.0959 10.3095 20.893C10.5845 19.8103 10.8766 18.5732 10.4985 17.3702C10.2751 16.6656 9.89704 15.9783 9.51897 15.2565C8.83157 13.9848 8.127 12.6788 8.50507 11.7851C8.88314 10.8743 10.3782 9.99798 12.7497 9.27621C13.5918 9.01844 14.4511 8.89799 15.2588 8.89799C22.6139 8.89799 26.9444 19.3292 28.2161 22.9037C26.5836 23.6942 22.8201 25.0862 16.4445 25.0862C11.8733 24.7425 10.5673 23.8661 10.2064 23.3677Z" fill="#960B04"/>
    <path d="M28.2333 23.4879C26.7382 23.6598 13.3855 40.501 10.2923 39.9168L11.9249 44.6426C11.9249 44.6426 22.2701 37.4937 30.1752 24.8456L28.2333 23.4879Z" fill="#960B04"/>
    <path d="M31.3092 24.0208C31.3092 24.0208 42.5997 31.3586 45.2633 39.8308L41.2936 42.3571C41.2936 42.3571 35.4336 29.0559 30.1922 24.8972L31.3092 24.0208Z" fill="#960B04"/>
    <path opacity="0.2" d="M28.2333 23.4879C26.7382 23.6598 13.3855 40.501 10.2923 39.9168L11.9249 44.6426C11.9249 44.6426 22.2701 37.4937 30.1752 24.8456L28.2333 23.4879Z" fill="#11574F"/>
    <path opacity="0.2" d="M31.3092 24.0208C31.3092 24.0208 42.5997 31.3586 45.2633 39.8308L41.2936 42.3571C41.2936 42.3571 35.4336 29.0559 30.1922 24.8972L31.3092 24.0208Z" fill="#11574F"/>
    <path d="M55.9698 11.5274C54.4919 6.44063 60.0942 2.48812 51.1753 0.150974C42.2563 -2.18617 29.7458 23.385 29.7458 23.385C29.7458 23.385 31.7736 26.1173 46.6213 26.7875C61.4519 27.4577 57.4477 16.6313 55.9698 11.5274ZM51.1409 22.9725C50.1785 24.2614 48.1679 24.9144 45.1606 24.9144C44.8341 24.9144 44.5076 24.9144 44.1467 24.8972C37.7883 24.6051 34.3857 23.8833 32.6328 23.3162C32.2376 23.1959 31.9282 23.0756 31.6877 22.9553C35.4683 15.583 42.4282 5.11743 46.9306 5.11743C47.154 5.11743 47.3602 5.13449 47.5665 5.20323C49.8177 5.78751 50.5395 6.42348 50.7457 6.83592C50.9863 7.31709 50.8316 8.14186 50.6426 9.08702C50.3848 10.4103 50.0583 12.0257 50.591 13.8473C50.6598 14.0707 50.7285 14.3113 50.7972 14.5691C51.5705 17.0781 52.7047 20.8932 51.1409 22.9725Z" fill="#960B04"/>
    <path d="M32.0826 23.007C32.1513 22.7149 31.9966 22.3195 31.6014 22.268C30.6906 22.1648 29.1955 21.8212 28.3535 22.3196C27.7348 22.6804 27.013 23.2476 27.2708 24.0552C27.5458 24.9489 28.7316 24.9145 29.4877 24.8973C30.0376 24.8973 30.5875 24.8284 31.1202 24.7597C31.5155 24.7081 31.9108 24.6911 32.117 24.2959C32.3232 23.9006 32.3403 23.3507 32.0826 23.007Z" fill="#960B04"/>
    <path opacity="0.2" d="M32.0826 23.007C32.1513 22.7149 31.9966 22.3195 31.6014 22.268C30.6906 22.1648 29.1955 21.8212 28.3535 22.3196C27.7348 22.6804 27.013 23.2476 27.2708 24.0552C27.5458 24.9489 28.7316 24.9145 29.4877 24.8973C30.0376 24.8973 30.5875 24.8284 31.1202 24.7597C31.5155 24.7081 31.9108 24.6911 32.117 24.2959C32.3232 23.9006 32.3403 23.3507 32.0826 23.007Z" fill="#11574F"/>
</svg>
