<svg width="320" height="1868" viewBox="0 0 320 1868" fill="none" xmlns="http://www.w3.org/2000/svg">
    <path d="M282.384 10.5591H258.137V71.7996H282.384V10.5591Z" fill="#CAEDEF"/>
    <path d="M283.954 10.5591H256.583V17.2115H283.954V10.5591Z" fill="#BE443E"/>
    <path d="M4.88208 68.9977L4.88208 1868H315.897V68.9977C315.897 68.9977 264.505 63.5141 242.189 34.5349C242.189 34.5349 193.423 41.5876 157.889 3.20215C157.889 3.20215 128.964 45.1099 73.5899 34.5349C73.5899 34.5349 44.1401 67.8289 4.88208 68.9977Z" fill="#CAEDEF"/>
    <g opacity="0.5">
        <path d="M33.0002 65L33.0001 3065" stroke="#409983" stroke-miterlimit="10"/>
        <path d="M17.0002 67L17.0001 3067" stroke="#409983" stroke-miterlimit="10"/>
        <path d="M49.0002 58L49.0008 3058" stroke="#409983" stroke-miterlimit="10"/>
        <path d="M63.0002 51L63.0008 3051" stroke="#409983" stroke-miterlimit="10"/>
        <path d="M78.0002 37L78.0008 3037" stroke="#409983" stroke-miterlimit="10"/>
        <path d="M93.0002 34L93.0008 3034" stroke="#409983" stroke-miterlimit="10"/>
        <path d="M107 36L107.001 3036" stroke="#409983" stroke-miterlimit="10"/>
        <path d="M121 34L121.001 3034" stroke="#409983" stroke-miterlimit="10"/>
        <path d="M135 28L135.001 3028" stroke="#409983" stroke-miterlimit="10"/>
        <path d="M149 18L149.001 3018" stroke="#409983" stroke-miterlimit="10"/>
        <path d="M163 9L163.001 3009" stroke="#409983" stroke-miterlimit="10"/>
        <path d="M177 17L177.001 3017" stroke="#409983" stroke-miterlimit="10"/>
        <path d="M191 25L191.001 3025" stroke="#409983" stroke-miterlimit="10"/>
        <path d="M205 31L205.001 3031" stroke="#409983" stroke-miterlimit="10"/>
        <path d="M219 34L219.001 3034" stroke="#409983" stroke-miterlimit="10"/>
        <path d="M233 36L233.001 3036" stroke="#409983" stroke-miterlimit="10"/>
        <path d="M247 34L247.001 3034" stroke="#409983" stroke-miterlimit="10"/>
        <path d="M261 48L261.001 3048" stroke="#409983" stroke-miterlimit="10"/>
        <path d="M275 58V3058" stroke="#409983" stroke-miterlimit="10"/>
        <path d="M289 61L289.001 3061" stroke="#409983" stroke-miterlimit="10"/>
        <path d="M303 66L303.001 3066" stroke="#409983" stroke-miterlimit="10"/>
    </g>
    <path d="M3.20417 71.9517C1.52203 71.9517 0.112232 70.6388 0.00809957 68.9417C-0.0960332 67.1725 1.24968 65.6595 3.01193 65.5554C28.8208 64.0024 46.4834 55.1725 56.7524 48.0398C67.8947 40.3067 73.0052 32.8217 73.0532 32.7497C73.7421 31.725 74.9677 31.1887 76.1852 31.3648C98.1092 34.647 118.415 30.6123 136.55 19.3728C150.152 10.9433 157.369 1.38492 157.441 1.28885C158.05 0.480318 159.003 0 160.012 0C160.012 0 160.012 0 160.02 0C161.037 0 161.991 0.480318 162.591 1.29686C162.663 1.38492 169.873 10.9432 183.482 19.3808C201.617 30.6203 221.923 34.655 243.847 31.3728C245.073 31.1887 246.298 31.733 246.987 32.7657C247.187 33.0539 267.637 62.5775 316.988 65.5634C318.759 65.6675 320.096 67.1885 319.992 68.9497C319.888 70.7188 318.366 72.0637 316.604 71.9517C270.217 69.1498 248.108 44.6936 242.878 37.9772C214.474 41.6996 192.99 32.8618 179.869 24.6723C170.033 18.5323 163.392 11.9439 160.028 8.19743C156.664 11.9519 150.023 18.5403 140.187 24.6723C127.066 32.8618 105.583 41.6996 77.1785 37.9772C71.9398 44.7016 49.8236 69.1658 3.41244 71.9517C3.33234 71.9517 3.26826 71.9517 3.20417 71.9517Z" fill="#BE443E"/>
</svg>
