<svg width="1261" height="1426" viewBox="0 0 1261 1426" fill="none" xmlns="http://www.w3.org/2000/svg">
    <path d="M1112.77 41.609H1017.22V282.935H1112.77V41.609Z" fill="#CAEDEF"/>
    <path d="M1118.96 41.609H1011.1V67.8236H1118.96V41.609Z" fill="#BE443E"/>
    <path d="M31.0602 271.894V1426H1213.3V271.894C1213.3 271.894 1042.32 250.285 954.375 136.089C954.375 136.089 762.206 163.881 622.183 12.6184C622.183 12.6184 508.2 177.761 289.99 136.089C289.99 136.089 185.761 267.288 31.0602 271.894Z" fill="#CAEDEF"/>
    <g opacity="0.5">
        <path d="M107 265L107 1306" stroke="#409983" stroke-miterlimit="10"/>
        <path d="M66.9999 265L67 1362" stroke="#409983" stroke-miterlimit="10"/>
        <path d="M152 242L152 1306" stroke="#409983" stroke-miterlimit="10"/>
        <path d="M208 214L208 1306" stroke="#409983" stroke-miterlimit="10"/>
        <path d="M265 173L265 1306" stroke="#409983" stroke-miterlimit="10"/>
        <path d="M321 134L321 1306" stroke="#409983" stroke-miterlimit="10"/>
        <path d="M377 142L377 1306" stroke="#409983" stroke-miterlimit="10"/>
        <path d="M434 134L434 1306" stroke="#409983" stroke-miterlimit="10"/>
        <path d="M490 112L490 1306" stroke="#409983" stroke-miterlimit="10"/>
        <path d="M546 91L546 1306" stroke="#409983" stroke-miterlimit="10"/>
        <path d="M602 35L602 1306" stroke="#409983" stroke-miterlimit="10"/>
        <path d="M659 42L659 1306" stroke="#409983" stroke-miterlimit="10"/>
        <path d="M715 84L715 1306" stroke="#409983" stroke-miterlimit="10"/>
        <path d="M771 112L771 1306" stroke="#409983" stroke-miterlimit="10"/>
        <path d="M828 134L828 1306" stroke="#409983" stroke-miterlimit="10"/>
        <path d="M884 142L884 1306" stroke="#409983" stroke-miterlimit="10"/>
        <path d="M940 134L940 1306" stroke="#409983" stroke-miterlimit="10"/>
        <path d="M996 168L996 1306" stroke="#409983" stroke-miterlimit="10"/>
        <path d="M1053 227V1306" stroke="#409983" stroke-miterlimit="10"/>
        <path d="M1110 240L1110 1306" stroke="#409983" stroke-miterlimit="10"/>
        <path d="M1165 261L1165 1376" stroke="#409983" stroke-miterlimit="10"/>
    </g>
    <path d="M12.626 283.535C5.99734 283.535 0.441861 278.361 0.031513 271.673C-0.378835 264.702 4.92413 258.739 11.8685 258.329C113.572 252.209 183.173 217.414 223.64 189.307C267.547 158.834 287.686 129.338 287.875 129.054C290.59 125.016 295.419 122.903 300.217 123.597C386.611 136.531 466.629 120.632 538.093 76.3411C591.69 43.1232 620.131 5.45744 620.415 5.07889C622.814 1.89275 626.57 0 630.547 0C630.547 0 630.547 0 630.579 0C634.588 0 638.344 1.89275 640.711 5.11044C640.995 5.45744 669.404 43.1232 723.034 76.3726C794.497 120.663 874.515 136.562 960.909 123.628C965.739 122.903 970.568 125.048 973.283 129.117C974.072 130.253 1054.66 246.594 1249.13 258.361C1256.11 258.771 1261.38 264.765 1260.97 271.705C1260.56 278.676 1254.56 283.976 1247.62 283.535C1064.82 272.493 977.702 176.121 957.09 149.654C845.159 164.323 760.501 129.496 708.798 97.2244C670.035 73.0287 643.868 47.0665 630.61 32.303C617.353 47.098 591.185 73.0603 552.423 97.2244C500.719 129.496 416.061 164.323 304.131 149.654C283.487 176.152 196.336 272.557 13.4467 283.535C13.1311 283.535 12.8786 283.535 12.626 283.535Z" fill="#BE443E"/>
</svg>
