<svg width="768" height="1254" viewBox="0 0 768 1254" fill="none" xmlns="http://www.w3.org/2000/svg">
    <path d="M677.722 25.3418H619.529V172.319H677.722V25.3418Z" fill="#CAEDEF"/>
    <path d="M681.49 25.3418H615.8V41.3076H681.49V25.3418Z" fill="#BE443E"/>
    <path d="M18.9169 165.594L18.9169 1254H738.952V165.594C738.952 165.594 634.813 152.434 581.253 82.8837C581.253 82.8837 464.214 99.8101 378.934 7.68506C378.934 7.68506 309.515 108.264 176.616 82.8837C176.616 82.8837 113.136 162.789 18.9169 165.594Z" fill="#CAEDEF"/>
    <g opacity="0.5">
        <path d="M82 161.396L82.0001 1551.4" stroke="#409983" stroke-miterlimit="10"/>
        <path d="M48.8057 161.396L48.8058 1551.4" stroke="#409983" stroke-miterlimit="10"/>
        <path d="M115 147.388L115 1537.39" stroke="#409983" stroke-miterlimit="10"/>
        <path d="M148 130.335L148 1520.34" stroke="#409983" stroke-miterlimit="10"/>
        <path d="M181 105.364L181 1495.36" stroke="#409983" stroke-miterlimit="10"/>
        <path d="M214 81.6113L214 1471.61" stroke="#409983" stroke-miterlimit="10"/>
        <path d="M247 86.4834L247 1476.48" stroke="#409983" stroke-miterlimit="10"/>
        <path d="M280 81.6113L280 1471.61" stroke="#409983" stroke-miterlimit="10"/>
        <path d="M313 68.2124L313 1458.21" stroke="#409983" stroke-miterlimit="10"/>
        <path d="M346 55.4229L346 1445.42" stroke="#409983" stroke-miterlimit="10"/>
        <path d="M379 21.3164L379 1411.32" stroke="#409983" stroke-miterlimit="10"/>
        <path d="M412 25.5796L412 1415.58" stroke="#409983" stroke-miterlimit="10"/>
        <path d="M445 51.1592L445 1441.16" stroke="#409983" stroke-miterlimit="10"/>
        <path d="M478 68.2124L478 1458.21" stroke="#409983" stroke-miterlimit="10"/>
        <path d="M511 81.6113L511 1471.61" stroke="#409983" stroke-miterlimit="10"/>
        <path d="M544 86.4834L544 1476.48" stroke="#409983" stroke-miterlimit="10"/>
        <path d="M577 81.6113L577 1471.61" stroke="#409983" stroke-miterlimit="10"/>
        <path d="M610 102.319L610 1492.32" stroke="#409983" stroke-miterlimit="10"/>
        <path d="M643 138.252V1528.25" stroke="#409983" stroke-miterlimit="10"/>
        <path d="M676 146.17L676 1536.17" stroke="#409983" stroke-miterlimit="10"/>
        <path d="M709 158.959L709 1548.96" stroke="#409983" stroke-miterlimit="10"/>
    </g>
    <path d="M7.68977 172.684C3.65263 172.684 0.269113 169.533 0.0191948 165.46C-0.230724 161.214 2.99899 157.583 7.22839 157.333C69.1698 153.606 111.56 132.414 136.206 115.296C162.947 96.7361 175.212 78.7722 175.327 78.5993C176.981 76.14 179.922 74.8528 182.844 75.2755C235.462 83.1527 284.196 73.4695 327.72 46.4948C360.363 26.2638 377.685 3.3238 377.858 3.09325C379.319 1.15276 381.607 0 384.029 0C384.029 0 384.029 0 384.048 0C386.49 0 388.777 1.15276 390.219 3.11246C390.392 3.3238 407.694 26.2638 440.357 46.514C483.881 73.4887 532.615 83.1719 585.233 75.2947C588.174 74.8528 591.115 76.1593 592.769 78.6377C593.249 79.3294 642.329 150.186 760.772 157.352C765.02 157.602 768.231 161.252 767.981 165.479C767.731 169.725 764.078 172.953 759.849 172.684C648.52 165.96 595.46 107.265 582.906 91.1452C514.736 100.079 463.176 78.8682 431.686 59.2136C408.079 44.4775 392.142 28.6654 384.067 19.6738C375.993 28.6846 360.056 44.4967 336.448 59.2136C304.958 78.8682 253.398 100.079 185.228 91.1452C172.655 107.284 119.576 165.998 8.18961 172.684C7.99737 172.684 7.84357 172.684 7.68977 172.684Z" fill="#BE443E"/>
</svg>
