<svg width="1366" height="192" viewBox="0 0 1366 192" fill="none" xmlns="http://www.w3.org/2000/svg">
    <path d="M-53 44.7833C-24.6295 21.788 17.5143 15.8405 54.0369 16.8121C90.5595 17.7543 126.994 24.2318 163.428 21.4053C191.504 19.2265 219.816 11.5712 247.451 17.1066C269.406 21.5231 289.683 34.1248 312.079 34.3309C331.209 34.5076 349.279 25.5568 368.29 23.4663C391.805 20.8753 415.467 28.8839 439.04 26.7345C459.67 24.8796 478.741 15.3988 498.518 9.12741C532.274 -1.58997 568.974 -2.91491 603.436 5.35866C625.244 10.5996 646.168 19.5504 668.329 22.9658C721.391 31.1216 774.895 6.68361 828.34 11.7479C861.979 14.9572 894.94 29.7966 928.373 24.9679C944.235 22.7008 959.863 16.0172 975.725 18.2254C987.909 19.9331 998.857 26.7345 1010.89 29.2961C1038.62 35.1848 1065.6 18.0782 1093.56 13.5734C1131.35 7.47858 1169.96 24.644 1207.81 18.932C1230.41 15.5166 1251.45 4.0926 1274.26 2.79709C1308.73 0.853832 1340.07 22.053 1374.03 28.1772C1388.89 30.8566 1404.29 30.5916 1419.06 27.4117V192.029H-53V44.7833Z" fill="#FDFFFA"/>
</svg>
