<svg width="200" height="200" viewBox="0 0 200 200" fill="none" xmlns="http://www.w3.org/2000/svg">
    <g clip-path="url(#clip0_30_3967)">
        <path d="M200 0H0V200H200V0Z" fill="#D3B77B"/>
        <path d="M172.95 97.2699C171.79 97.2699 170.8 97.9899 170.4 99.0099H156.14L162.91 92.2399C163.3 91.8499 163.3 91.2199 162.91 90.8299C162.52 90.4399 161.89 90.4399 161.5 90.8299L153.32 99.0099H145.46L156.99 87.4799C157.38 87.0899 157.38 86.4599 156.99 86.0699C156.6 85.6799 155.97 85.6799 155.58 86.0699L142.64 99.0099H134.78L151.18 82.5899C151.57 82.1999 151.57 81.5699 151.18 81.1799C150.79 80.7899 150.16 80.7899 149.77 81.1799L131.94 99.0099H124.08L137.68 85.4099C137.68 85.4099 137.68 85.3999 137.69 85.3999C137.73 85.3599 137.77 85.3099 137.81 85.2599C137.83 85.2299 137.84 85.2099 137.85 85.1799C137.87 85.1499 137.88 85.1199 137.9 85.0899C137.91 85.0599 137.92 85.0199 137.93 84.9899C137.94 84.9599 137.95 84.9399 137.95 84.9099C137.98 84.7799 137.98 84.6499 137.95 84.5199C137.94 84.4899 137.93 84.4699 137.93 84.4399C137.92 84.4099 137.91 84.3699 137.9 84.3399C137.89 84.3099 137.87 84.2799 137.85 84.2499C137.84 84.2199 137.82 84.1999 137.81 84.1699C137.78 84.1199 137.74 84.0699 137.69 84.0299C137.69 84.0299 137.69 84.0199 137.68 84.0199C137.68 84.0199 137.67 84.0199 137.67 84.0099C137.63 83.9699 137.58 83.9299 137.53 83.8899C137.51 83.8699 137.48 83.8599 137.45 83.8499C137.42 83.8299 137.39 83.8099 137.36 83.7999C137.33 83.7899 137.29 83.7799 137.26 83.7699C137.23 83.7599 137.2 83.7499 137.17 83.7399C137.11 83.7299 137.05 83.7199 136.98 83.7199H136.97H117.73L123.29 78.1599H148.51C149.06 78.1599 149.51 77.7099 149.51 77.1599C149.51 76.6099 149.06 76.1599 148.51 76.1599H125.29L130.85 70.5999H149.15C149.7 70.5999 150.15 70.1499 150.15 69.5999C150.15 69.0499 149.7 68.5999 149.15 68.5999H132.85L138.41 63.0399H149.98C150.53 63.0399 150.98 62.5899 150.98 62.0399C150.98 61.4899 150.53 61.0399 149.98 61.0399H140.41L150.49 50.9599C150.84 51.1099 151.21 51.1899 151.58 51.1899C152.28 51.1899 152.98 50.9199 153.52 50.3899C154.59 49.3199 154.59 47.5799 153.52 46.5199C152.45 45.4499 150.71 45.4499 149.65 46.5199C148.83 47.3399 148.64 48.5499 149.08 49.5499L139 59.6299V50.0599C139 49.5099 138.55 49.0599 138 49.0599C137.45 49.0599 137 49.5099 137 50.0599V61.6299L131.44 67.1899V50.8899C131.44 50.3399 130.99 49.8899 130.44 49.8899C129.89 49.8899 129.44 50.3399 129.44 50.8899V69.1899L123.88 74.7499V51.5299C123.88 50.9799 123.43 50.5299 122.88 50.5299C122.33 50.5299 121.88 50.9799 121.88 51.5299V76.7499L116.32 82.3099V63.0699C116.32 62.9999 116.31 62.9399 116.3 62.8699C116.29 62.8399 116.28 62.8199 116.28 62.7899C116.27 62.7499 116.26 62.7199 116.25 62.6899C116.24 62.6599 116.22 62.6299 116.2 62.5999C116.19 62.5699 116.17 62.5499 116.16 62.5199C116.13 62.4699 116.09 62.4199 116.04 62.3799C116.04 62.3799 116.04 62.3699 116.03 62.3699C116.03 62.3699 116.02 62.3699 116.02 62.3599C115.98 62.3199 115.93 62.2799 115.88 62.2399C115.86 62.2199 115.83 62.2099 115.8 62.1999C115.77 62.1799 115.74 62.1599 115.71 62.1499C115.68 62.1399 115.64 62.1299 115.61 62.1199C115.58 62.1099 115.55 62.0999 115.52 62.0899C115.46 62.0799 115.4 62.0699 115.33 62.0699H115.32H115.31C115.25 62.0699 115.19 62.0799 115.12 62.0899C115.09 62.0999 115.06 62.1099 115.03 62.1199C115 62.1299 114.96 62.1399 114.93 62.1499C114.9 62.1599 114.87 62.1799 114.83 62.1999C114.8 62.2099 114.78 62.2299 114.75 62.2399C114.7 62.2699 114.65 62.3099 114.61 62.3599C114.61 62.3599 114.6 62.3599 114.6 62.3699L100.99 75.9799V68.1199L118.82 50.2899C119.21 49.8999 119.21 49.2699 118.82 48.8799C118.43 48.4899 117.8 48.4899 117.41 48.8799L100.99 65.2999V57.4399L113.93 44.4999C114.32 44.1099 114.32 43.4799 113.93 43.0899C113.54 42.6999 112.91 42.6999 112.52 43.0899L100.99 54.6199V46.7599L109.17 38.5799C109.56 38.1899 109.56 37.5599 109.17 37.1699C108.78 36.7799 108.15 36.7799 107.76 37.1699L100.99 43.9399V29.6799C102.01 29.2799 102.73 28.2899 102.73 27.1299C102.73 25.6199 101.5 24.3899 99.9901 24.3899C98.4801 24.3899 97.2501 25.6199 97.2501 27.1299C97.2501 28.2899 97.9701 29.2799 98.9901 29.6799V43.9399L92.2201 37.1699C91.8301 36.7799 91.2001 36.7799 90.8101 37.1699C90.4201 37.5599 90.4201 38.1899 90.8101 38.5799L98.9901 46.7599V54.6199L87.4601 43.0899C87.0701 42.6999 86.4401 42.6999 86.0501 43.0899C85.6601 43.4799 85.6601 44.1099 86.0501 44.4999L98.9901 57.4399V65.2999L82.5701 48.8799C82.1801 48.4899 81.5501 48.4899 81.1601 48.8799C80.7701 49.2699 80.7701 49.8999 81.1601 50.2899L98.9901 68.1199V75.9799L85.3801 62.3599C85.3301 62.3199 85.2801 62.2699 85.2301 62.2399C85.2001 62.2199 85.1801 62.2099 85.1501 62.1999C85.1201 62.1799 85.0901 62.1599 85.0601 62.1499C85.0301 62.1399 84.9901 62.1299 84.9601 62.1199C84.9301 62.1099 84.9101 62.0999 84.8801 62.0999C84.7501 62.0699 84.6201 62.0699 84.4901 62.0999C84.4601 62.1099 84.4401 62.1199 84.4101 62.1199C84.3701 62.1299 84.3401 62.1399 84.3001 62.1499C84.2701 62.1599 84.2401 62.1799 84.2101 62.1999C84.1801 62.2199 84.1501 62.2299 84.1301 62.2499C84.0801 62.2799 84.0301 62.3199 83.9901 62.3599L83.9801 62.3699C83.9401 62.4199 83.8901 62.4599 83.8601 62.5199C83.8401 62.5499 83.8301 62.5699 83.8201 62.5999C83.8001 62.6299 83.7801 62.6599 83.7701 62.6899C83.7601 62.7199 83.7501 62.7599 83.7401 62.7899C83.7301 62.8199 83.7201 62.8399 83.7201 62.8699C83.7101 62.9299 83.7001 62.9999 83.7001 63.0699V82.3199L78.1401 76.7699V51.5499C78.1401 50.9999 77.6901 50.5499 77.1401 50.5499C76.5901 50.5499 76.1401 50.9999 76.1401 51.5499V74.7699L70.5801 69.2099V50.9099C70.5801 50.3599 70.1301 49.9099 69.5801 49.9099C69.0301 49.9099 68.5801 50.3599 68.5801 50.9099V67.2099L63.0201 61.6499V50.0799C63.0201 49.5299 62.5701 49.0799 62.0201 49.0799C61.4701 49.0799 61.0201 49.5299 61.0201 50.0799V59.6499L50.9401 49.5699C51.3801 48.5699 51.1901 47.3599 50.3701 46.5399C49.3001 45.4699 47.5701 45.4699 46.5001 46.5399C45.4301 47.6099 45.4301 49.3499 46.5001 50.4099C47.0301 50.9399 47.7401 51.2099 48.4401 51.2099C48.8101 51.2099 49.1901 51.1299 49.5301 50.9799L59.6101 61.0599H50.0401C49.4901 61.0599 49.0401 61.5099 49.0401 62.0599C49.0401 62.6099 49.4901 63.0599 50.0401 63.0599H61.6101L67.1701 68.6199H50.8501C50.3001 68.6199 49.8501 69.0699 49.8501 69.6199C49.8501 70.1699 50.3001 70.6199 50.8501 70.6199H69.1501L74.7101 76.1799H51.5001C50.9501 76.1799 50.5001 76.6299 50.5001 77.1799C50.5001 77.7299 50.9501 78.1799 51.5001 78.1799H76.7201L82.2801 83.7399H63.0301C63.0301 83.7399 63.0301 83.7399 63.0201 83.7399C62.9601 83.7399 62.8901 83.7499 62.8301 83.7599C62.8001 83.7699 62.7701 83.7799 62.7401 83.7899C62.7101 83.7999 62.6701 83.8099 62.6401 83.8199C62.6101 83.8299 62.5801 83.8499 62.5401 83.8699C62.5101 83.8799 62.4901 83.8999 62.4601 83.9099C62.4101 83.9499 62.3601 83.9899 62.3101 84.0299L62.3001 84.0399C62.2601 84.0799 62.2201 84.1299 62.1901 84.1799C62.1701 84.2099 62.1601 84.2299 62.1501 84.2599C62.1301 84.2899 62.1201 84.3199 62.1001 84.3499C62.0901 84.3799 62.0801 84.4199 62.0701 84.4499C62.0601 84.4799 62.0501 84.4999 62.0501 84.5299C62.0401 84.5899 62.0301 84.6599 62.0301 84.7299C62.0301 84.7999 62.0401 84.8599 62.0501 84.9299C62.0601 84.9599 62.0701 84.9899 62.0701 85.0099C62.0801 85.0499 62.0901 85.0799 62.1001 85.1099C62.1101 85.1399 62.1301 85.1699 62.1501 85.1999C62.1601 85.2299 62.1801 85.2499 62.1901 85.2799C62.2301 85.3299 62.2701 85.3799 62.3101 85.4299L75.9201 99.0299H68.0501L50.2201 81.1999C49.8301 80.8099 49.2001 80.8099 48.8101 81.1999C48.4201 81.5899 48.4201 82.2199 48.8101 82.6099L65.2301 99.0299H57.3701L44.4301 86.0899C44.0401 85.6999 43.4101 85.6999 43.0201 86.0899C42.6301 86.4799 42.6301 87.1099 43.0201 87.4999L54.5501 99.0299H46.6901L38.5101 90.8499C38.1201 90.4599 37.4901 90.4599 37.1001 90.8499C36.7101 91.2399 36.7101 91.8699 37.1001 92.2599L43.8701 99.0299H29.6001C29.2001 98.0099 28.2101 97.2899 27.0501 97.2899C25.5401 97.2899 24.3101 98.5199 24.3101 100.03C24.3101 101.54 25.5401 102.77 27.0501 102.77C28.2101 102.77 29.2001 102.05 29.6001 101.03H43.8601L37.0901 107.8C36.7001 108.19 36.7001 108.82 37.0901 109.21C37.2901 109.41 37.5401 109.5 37.8001 109.5C38.0601 109.5 38.3101 109.4 38.5101 109.21L46.6901 101.03H54.5501L43.0201 112.56C42.6301 112.95 42.6301 113.58 43.0201 113.97C43.2201 114.17 43.4701 114.26 43.7301 114.26C43.9901 114.26 44.2401 114.16 44.4401 113.97L57.3801 101.03H65.2401L48.8201 117.45C48.4301 117.84 48.4301 118.47 48.8201 118.86C49.0201 119.06 49.2701 119.15 49.5301 119.15C49.7901 119.15 50.0401 119.05 50.2401 118.86L68.0701 101.03H75.9301L62.3301 114.63C62.3301 114.63 62.3301 114.64 62.3201 114.64C62.2801 114.68 62.2401 114.73 62.2001 114.78C62.1801 114.81 62.1701 114.83 62.1601 114.86C62.1401 114.89 62.1301 114.92 62.1101 114.95C62.1001 114.98 62.0901 115.02 62.0801 115.05C62.0701 115.08 62.0601 115.1 62.0601 115.13C62.0301 115.26 62.0301 115.39 62.0601 115.52C62.0701 115.55 62.0801 115.58 62.0801 115.6C62.0901 115.63 62.1001 115.67 62.1101 115.7C62.1201 115.73 62.1401 115.76 62.1601 115.79C62.1701 115.82 62.1901 115.84 62.2001 115.87C62.2301 115.92 62.2701 115.97 62.3201 116.01C62.3201 116.01 62.3201 116.02 62.3301 116.02C62.3301 116.02 62.3401 116.02 62.3401 116.03C62.3801 116.07 62.4301 116.11 62.4801 116.15C62.5101 116.17 62.5301 116.18 62.5601 116.19C62.5901 116.21 62.6201 116.23 62.6501 116.24C62.6801 116.25 62.7201 116.26 62.7501 116.27C62.7801 116.28 62.8101 116.29 62.8301 116.3C62.8901 116.31 62.9601 116.32 63.0301 116.32H82.2701L76.7101 121.88H51.5001C50.9501 121.88 50.5001 122.33 50.5001 122.88C50.5001 123.43 50.9501 123.88 51.5001 123.88H74.7201L69.1601 129.44H50.8501C50.3001 129.44 49.8501 129.89 49.8501 130.44C49.8501 130.99 50.3001 131.44 50.8501 131.44H67.1501L61.5901 137H50.0301C49.4801 137 49.0301 137.45 49.0301 138C49.0301 138.55 49.4801 139 50.0301 139H59.6001L49.5201 149.08C48.5201 148.64 47.3101 148.83 46.4901 149.65C45.4201 150.72 45.4201 152.45 46.4901 153.52C47.0201 154.05 47.7301 154.32 48.4301 154.32C49.1301 154.32 49.8301 154.05 50.3701 153.52C51.1901 152.7 51.3801 151.49 50.9401 150.49L61.0201 140.41V149.98C61.0201 150.53 61.4701 150.98 62.0201 150.98C62.5701 150.98 63.0201 150.53 63.0201 149.98V138.41L68.5801 132.85V149.15C68.5801 149.7 69.0301 150.15 69.5801 150.15C70.1301 150.15 70.5801 149.7 70.5801 149.15V130.85L76.1401 125.29V148.51C76.1401 149.06 76.5901 149.51 77.1401 149.51C77.6901 149.51 78.1401 149.06 78.1401 148.51V123.29L83.7001 117.73V136.98C83.7001 137.05 83.7101 137.11 83.7201 137.18C83.7301 137.21 83.7401 137.24 83.7401 137.26C83.7501 137.29 83.7601 137.33 83.7701 137.36C83.7801 137.39 83.8001 137.42 83.8201 137.45C83.8301 137.48 83.8501 137.5 83.8601 137.53C83.9001 137.58 83.9401 137.63 83.9801 137.68L83.9901 137.69C84.0301 137.73 84.0801 137.77 84.1301 137.81C84.1601 137.83 84.1801 137.84 84.2101 137.85C84.2401 137.87 84.2701 137.89 84.3001 137.9C84.3301 137.91 84.3701 137.92 84.4001 137.93C84.4301 137.94 84.4601 137.95 84.4801 137.96C84.5401 137.97 84.6101 137.98 84.6801 137.98C84.7501 137.98 84.8101 137.97 84.8801 137.96C84.9101 137.95 84.9401 137.94 84.9601 137.94C84.9901 137.93 85.0301 137.92 85.0601 137.91C85.0901 137.9 85.1201 137.88 85.1501 137.86C85.1801 137.85 85.2001 137.83 85.2301 137.82C85.2801 137.78 85.3301 137.74 85.3801 137.7L98.9901 124.08V131.94L81.1601 149.77C80.7701 150.16 80.7701 150.79 81.1601 151.18C81.3601 151.38 81.6101 151.47 81.8701 151.47C82.1301 151.47 82.3801 151.37 82.5801 151.18L99.0001 134.76V142.62L86.0601 155.56C85.6701 155.95 85.6701 156.58 86.0601 156.97C86.2601 157.17 86.5101 157.26 86.7701 157.26C87.0301 157.26 87.2801 157.16 87.4801 156.97L99.0101 145.44V153.3L90.8301 161.48C90.4401 161.87 90.4401 162.5 90.8301 162.89C91.0301 163.09 91.2801 163.18 91.5401 163.18C91.8001 163.18 92.0501 163.08 92.2501 162.89L99.0201 156.12V170.38C98.0001 170.78 97.2801 171.77 97.2801 172.93C97.2801 174.44 98.5101 175.67 100.02 175.67C101.53 175.67 102.76 174.44 102.76 172.93C102.76 171.77 102.04 170.78 101.02 170.38V156.12L107.79 162.89C107.99 163.09 108.24 163.18 108.5 163.18C108.76 163.18 109.01 163.08 109.21 162.89C109.6 162.5 109.6 161.87 109.21 161.48L101.03 153.3V145.44L112.56 156.97C112.76 157.17 113.01 157.26 113.27 157.26C113.53 157.26 113.78 157.16 113.98 156.97C114.37 156.58 114.37 155.95 113.98 155.56L101.04 142.62V134.76L117.46 151.18C117.66 151.38 117.91 151.47 118.17 151.47C118.43 151.47 118.68 151.37 118.88 151.18C119.27 150.79 119.27 150.16 118.88 149.77L101.05 131.94V124.08L114.66 137.69C114.66 137.69 114.67 137.69 114.67 137.7C114.71 137.74 114.76 137.78 114.81 137.82C114.83 137.84 114.86 137.85 114.89 137.86C114.92 137.88 114.95 137.9 114.98 137.91C115.01 137.92 115.05 137.93 115.08 137.94C115.11 137.95 115.14 137.96 115.17 137.97C115.23 137.98 115.3 137.99 115.37 137.99C115.44 137.99 115.5 137.98 115.57 137.97C115.6 137.96 115.63 137.95 115.65 137.94C115.68 137.93 115.72 137.92 115.75 137.91C115.78 137.9 115.81 137.88 115.84 137.86C115.87 137.85 115.89 137.83 115.92 137.82C115.97 137.79 116.02 137.75 116.06 137.7C116.06 137.7 116.07 137.7 116.07 137.69C116.07 137.69 116.07 137.68 116.08 137.68C116.12 137.64 116.16 137.59 116.2 137.54C116.22 137.51 116.23 137.49 116.24 137.46C116.26 137.43 116.27 137.4 116.29 137.37C116.3 137.34 116.31 137.3 116.32 137.27C116.33 137.24 116.34 137.22 116.34 137.19C116.35 137.13 116.36 137.06 116.36 136.99V117.75L121.92 123.31V148.53C121.92 149.08 122.37 149.53 122.92 149.53C123.47 149.53 123.92 149.08 123.92 148.53V125.29L129.48 130.85V149.15C129.48 149.7 129.93 150.15 130.48 150.15C131.03 150.15 131.48 149.7 131.48 149.15V132.85L137.04 138.41V149.98C137.04 150.53 137.49 150.98 138.04 150.98C138.59 150.98 139.04 150.53 139.04 149.98V140.41L149.12 150.49C148.68 151.49 148.87 152.7 149.69 153.52C150.22 154.05 150.93 154.32 151.63 154.32C152.33 154.32 153.03 154.05 153.57 153.52C154.64 152.45 154.64 150.72 153.57 149.65C152.75 148.83 151.54 148.64 150.54 149.08L140.46 139H150.03C150.58 139 151.03 138.55 151.03 138C151.03 137.45 150.58 137 150.03 137H138.46L132.9 131.44H149.2C149.75 131.44 150.2 130.99 150.2 130.44C150.2 129.89 149.75 129.44 149.2 129.44H130.9L125.34 123.88H148.56C149.11 123.88 149.56 123.43 149.56 122.88C149.56 122.33 149.11 121.88 148.56 121.88H123.34L117.78 116.32H137.02C137.09 116.32 137.15 116.31 137.22 116.3C137.25 116.29 137.28 116.28 137.3 116.27C137.33 116.26 137.37 116.25 137.4 116.24C137.43 116.23 137.46 116.21 137.49 116.19C137.52 116.18 137.54 116.16 137.57 116.15C137.62 116.12 137.67 116.08 137.71 116.04L137.72 116.03C137.76 115.98 137.81 115.93 137.84 115.88C137.86 115.85 137.87 115.83 137.88 115.8C137.9 115.77 137.91 115.74 137.93 115.71C137.94 115.68 137.95 115.64 137.96 115.61C137.97 115.58 137.98 115.56 137.98 115.53C137.99 115.47 138 115.4 138 115.33C138 115.26 137.99 115.2 137.98 115.13C137.97 115.1 137.96 115.08 137.96 115.05C137.95 115.02 137.94 114.98 137.93 114.95C137.92 114.92 137.9 114.89 137.88 114.86C137.87 114.83 137.85 114.81 137.84 114.78C137.81 114.73 137.77 114.68 137.73 114.64L137.72 114.63L124.12 101.03H131.98L149.81 118.86C150.01 119.06 150.26 119.15 150.52 119.15C150.78 119.15 151.03 119.05 151.23 118.86C151.62 118.47 151.62 117.84 151.23 117.45L134.81 101.03H142.67L155.61 113.97C155.81 114.17 156.06 114.26 156.32 114.26C156.58 114.26 156.83 114.16 157.03 113.97C157.42 113.58 157.42 112.95 157.03 112.56L145.5 101.03H153.36L161.54 109.21C161.74 109.41 161.99 109.5 162.25 109.5C162.51 109.5 162.76 109.4 162.96 109.21C163.35 108.82 163.35 108.19 162.96 107.8L156.19 101.03H170.45C170.85 102.05 171.84 102.77 173 102.77C174.51 102.77 175.74 101.54 175.74 100.03C175.74 98.5199 174.46 97.2699 172.95 97.2699ZM134.55 85.6899L121.24 98.9999H115.98H109.33H102.41L115.72 85.6899H134.55ZM78.7701 98.9999L65.4501 85.6899H84.2801L97.5901 98.9999H78.7701ZM151.06 47.8999C151.2 47.7599 151.39 47.6799 151.58 47.6799C151.77 47.6799 151.96 47.7499 152.1 47.8999C152.39 48.1899 152.39 48.6599 152.1 48.9399C151.81 49.2299 151.34 49.2299 151.06 48.9399C150.77 48.6599 150.77 48.1899 151.06 47.8999ZM114.32 65.4499V84.2799L101 97.5899V78.7599L114.32 65.4499ZM100 26.3199C100.41 26.3199 100.74 26.6499 100.74 27.0599C100.74 27.4699 100.41 27.7999 100 27.7999C99.5901 27.7999 99.2601 27.4699 99.2601 27.0599C99.2601 26.6499 99.5901 26.3199 100 26.3199ZM85.6801 65.4399L99.0001 78.7599V97.5899L85.6801 84.2699V65.4399ZM47.9001 48.9499C47.6101 48.6599 47.6101 48.1899 47.9001 47.9099C48.0401 47.7699 48.2301 47.6899 48.4201 47.6899C48.6101 47.6899 48.8001 47.7599 48.9401 47.9099C49.2301 48.1999 49.2301 48.6699 48.9401 48.9499C48.6601 49.2299 48.1901 49.2299 47.9001 48.9499ZM27.0601 100.74C26.6501 100.74 26.3201 100.41 26.3201 99.9999C26.3201 99.5899 26.6501 99.2599 27.0601 99.2599C27.4701 99.2599 27.8001 99.5899 27.8001 99.9999C27.8001 100.41 27.4601 100.74 27.0601 100.74ZM65.4501 114.32L78.7601 101.01H97.5901L92.7001 105.9L92.1601 106.44L84.2801 114.32H65.4501ZM48.9401 152.11C48.6501 152.4 48.1801 152.4 47.9001 152.11C47.6101 151.82 47.6101 151.35 47.9001 151.07C48.0401 150.93 48.2301 150.85 48.4201 150.85C48.6101 150.85 48.8001 150.92 48.9401 151.07C49.2301 151.35 49.2301 151.82 48.9401 152.11ZM93.5701 107.85L94.1101 107.31L99.0001 102.42V109.34V112.56V121.25L85.6801 134.57V115.74L93.5701 107.85ZM100 173.69C99.5901 173.69 99.2601 173.36 99.2601 172.95C99.2601 172.54 99.5901 172.21 100 172.21C100.41 172.21 100.74 172.54 100.74 172.95C100.74 173.36 100.41 173.69 100 173.69ZM114.32 134.56L101.01 121.25V112.56V109.34V102.42L109.1 110.51L114.32 115.73V134.56ZM151.58 150.85C151.77 150.85 151.96 150.92 152.1 151.07C152.39 151.36 152.39 151.83 152.1 152.11C151.81 152.4 151.34 152.4 151.06 152.11C150.77 151.82 150.77 151.35 151.06 151.07C151.2 150.92 151.39 150.85 151.58 150.85ZM134.55 114.32H115.72L107.3 105.9L102.41 101.01H109.33H115.98H121.25L134.55 114.32ZM172.95 100.74C172.54 100.74 172.21 100.41 172.21 99.9999C172.21 99.5899 172.54 99.2599 172.95 99.2599C173.36 99.2599 173.69 99.5899 173.69 99.9999C173.69 100.41 173.35 100.74 172.95 100.74Z" fill="white"/>
        <path d="M95.1299 111.73C95.6399 99.5299 95.6299 85.8199 96.6399 72.1499C96.6599 71.9299 96.8499 71.5199 96.4599 71.5299C96.2699 71.5299 96.0599 71.9499 95.9099 72.2099C92.2899 78.7499 88.2899 85.0599 84.0999 91.2499C81.7099 94.7799 79.3099 98.3099 76.4999 101.53C76.0899 102 75.6899 102.49 75.0199 102.59C74.3899 102.69 73.7099 102.72 73.2599 102.26C72.8299 101.81 73.2199 101.23 73.4299 100.77C75.8099 95.6799 78.8299 90.9599 81.7799 86.1999C87.2799 77.3099 92.8399 68.4599 97.7099 59.1999C98.0199 58.6099 98.1799 57.9499 98.4799 57.3499C98.8899 56.5399 98.9199 54.8999 99.6699 55.0199C101.25 55.2799 103.04 54.8199 104.36 56.6299C106.9 60.0999 107.06 64.0599 107.13 67.9699C107.44 84.6999 106.72 101.42 106.33 118.14C106.18 124.76 106.13 131.4 105.5 138C105.36 139.43 106.32 139.23 107.09 139.27C111.4 139.49 115.73 139.82 119.94 140.75C122.27 141.26 124.95 141.34 126.57 143.7C127.09 144.46 127.04 144.62 126.17 144.74C122.21 145.28 118.26 144.9 114.35 144.4C103.61 143.01 92.8799 143.27 82.1199 144.14C80.5699 144.26 78.9999 144.19 77.4499 144.11C76.7899 144.07 75.7199 144.25 75.6099 143.46C75.4799 142.54 76.5699 142.43 77.2699 142.28C80.6999 141.55 84.1299 140.84 87.5699 140.19C89.7099 139.79 91.8699 139.47 94.0299 139.22C95.0999 139.1 95.3999 138.71 95.3499 137.62C95.0199 129.49 94.9899 121.36 95.1299 111.73Z" fill="#BE443E"/>
    </g>
    <defs>
        <clipPath id="clip0_30_3967">
            <rect width="200" height="200" fill="white"/>
        </clipPath>
    </defs>
</svg>
