<svg width="200" height="200" viewBox="0 0 200 200" fill="none" xmlns="http://www.w3.org/2000/svg">
    <g clip-path="url(#clip0_30_4020)">
        <path d="M200 0H0V200H200V0Z" fill="#BE443E"/>
        <path d="M114.22 29.2C114.06 30.86 115.08 32.24 116.53 32.97C117.28 33.35 118.07 33.5 118.86 33.48C118.9 33.61 118.93 33.73 118.96 33.85C119.37 35.46 119.39 37.14 119.16 38.78C118.68 42.13 117.18 45.3 115.35 48.12C110.54 55.51 103.61 61.53 95.84 65.62C95.4 65.85 95.74 66.55 96.18 66.32C103.33 62.55 109.62 57.24 114.45 50.76C117.93 46.09 121.2 39.88 119.76 33.87C119.73 33.73 119.69 33.58 119.64 33.42C120.59 33.28 121.52 32.93 122.38 32.48C124.81 31.21 127.06 29.46 129.29 27.88C131.02 26.66 132.72 25.4 134.37 24.07C134.89 27.9 136.13 31.65 138.42 34.8C141.68 39.28 147.81 41.94 149.3 47.61C150.09 50.62 148.75 53.27 147.14 55.73C145.71 57.91 144.2 60.16 142.17 61.84C141.2 61.01 140.19 60.22 139.15 59.48C138.09 58.73 136.85 57.92 135.49 57.95C133.12 58 132.24 60.59 133.12 62.53C134.2 64.92 137.18 65.1 139.37 64.36C140.38 64.01 141.31 63.49 142.15 62.86C146.44 66.81 150.17 73.02 146.34 78.51C146.05 78.92 146.7 79.35 146.98 78.94C150.93 73.28 147.3 66.43 142.81 62.4C142.79 62.39 142.78 62.37 142.76 62.36C144.34 61.02 145.65 59.29 146.8 57.63C148.55 55.09 150.53 52.27 150.32 49.03C150.13 46.07 148.32 43.48 146.29 41.44C143.53 38.67 140.26 36.48 138.2 33.08C136.52 30.32 135.57 27.18 135.13 23.99C135.11 23.82 135.09 23.65 135.07 23.49C135.57 23.08 136.06 22.66 136.54 22.23C138.71 20.3 140.77 18.2 142.51 15.86C143.92 13.97 145.2 11.68 144.89 9.22999C144.65 7.35999 143.46 5.49998 141.56 5.02998C139.74 4.57998 137.87 5.51997 136.69 6.88997C134.98 8.88997 134.64 11.74 134.35 14.26C134.07 16.71 133.97 19.19 134.12 21.66C134.15 22.16 134.2 22.66 134.25 23.15C133.61 23.68 132.96 24.19 132.3 24.7C129.16 27.11 125.86 29.64 122.39 31.58C121.47 32.09 120.44 32.55 119.38 32.68C118.58 30.49 116.86 27.78 114.42 28.87C114.31 28.93 114.24 29.06 114.22 29.2ZM141.52 62.34C140.15 63.33 138.49 64.08 136.77 63.98C135.02 63.87 133.48 62.6799 133.56 60.8099C133.65 58.6799 135.67 58.41 137.27 59.2C138.59 59.85 139.78 60.86 140.92 61.78C141.13 61.95 141.35 62.1299 141.56 62.3099C141.54 62.3199 141.53 62.33 141.52 62.34ZM135.21 13.71C135.45 11.82 135.73 9.79997 136.75 8.13997C137.76 6.48997 139.87 5.1 141.84 5.93C143.69 6.71 144.39 8.98997 144.11 10.83C143.77 13 142.36 14.87 141.01 16.53C139.21 18.74 137.16 20.72 134.98 22.55C134.71 19.62 134.84 16.64 135.21 13.71ZM115.91 29.47C117.27 29.84 118.12 31.34 118.62 32.72C118.2 32.71 117.78 32.63 117.36 32.48C116.66 32.23 115.98 31.78 115.53 31.18C115.01 30.5 114.46 29.08 115.91 29.47Z" fill="#D3B77B"/>
        <path d="M171.44 85.3999L171.43 85.3599L167.24 70.6499C167.24 70.6499 131.84 72.0899 121.97 81.3199C121.97 81.3199 122.09 87.8399 122.78 97.7599C125.09 130.9 133.78 201.96 165.8 194.54C194.05 188 180.04 130.94 180.04 130.94C180.04 130.94 185.66 140.82 191 137.37C205.42 128.05 171.44 85.3999 171.44 85.3999Z" fill="#D3B77B"/>
        <path d="M148.94 160.74C149.21 161.57 147.89 161.87 147.61 161.05C146.61 158.04 145.81 154.98 145.2 151.87C145.03 151.01 146.36 150.7 146.53 151.56C147.14 154.67 147.95 157.73 148.94 160.74Z" fill="white"/>
        <path d="M160.48 171.57C160.59 174.99 160.36 178.67 161.07 182.02C161.25 182.88 159.93 183.19 159.74 182.33C159 178.85 159.24 175.05 159.12 171.51C159.09 170.64 160.46 170.69 160.48 171.57Z" fill="white"/>
        <path d="M173.76 168.83C173.65 172.17 173.73 175.51 174.01 178.84C174.08 179.71 172.72 179.65 172.65 178.78C172.37 175.45 172.28 172.11 172.4 168.77C172.43 167.9 173.79 167.95 173.76 168.83Z" fill="white"/>
        <path d="M162.04 159.04L159.92 149.91C159.72 149.06 161.05 148.75 161.25 149.6L163.37 158.73C163.56 159.59 162.24 159.89 162.04 159.04Z" fill="white"/>
        <path d="M150.57 146.09C150.21 143.93 149.9 141.78 149.89 139.58C149.88 138.71 151.24 138.87 151.24 139.74C151.25 141.81 151.58 143.85 151.92 145.88C152.06 146.75 150.71 146.95 150.57 146.09Z" fill="white"/>
        <path d="M166.84 188.79C166.37 186.65 165.95 184.52 165.83 182.33C165.78 181.46 167.14 181.56 167.19 182.42C167.31 184.48 167.74 186.5 168.18 188.52C168.36 189.37 167.02 189.64 166.84 188.79Z" fill="white"/>
        <path d="M176.06 105.38C175.59 103.24 175.17 101.11 175.05 98.9199C175 98.0499 176.36 98.1499 176.41 99.0099C176.53 101.07 176.96 103.09 177.4 105.11C177.58 105.96 176.25 106.23 176.06 105.38Z" fill="white"/>
        <path d="M151.23 183.92C149.55 179.91 147.94 175.88 146.41 171.81C146.1 170.99 147.43 170.69 147.74 171.5C149.23 175.45 150.79 179.38 152.43 183.27C152.76 184.07 151.57 184.73 151.23 183.92Z" fill="white"/>
        <path d="M138.53 160.28C136.74 157.19 135.34 153.94 134.29 150.53C134.03 149.69 135.36 149.39 135.62 150.22C136.63 153.52 138.01 156.64 139.73 159.63C140.16 160.39 138.96 161.04 138.53 160.28Z" fill="white"/>
        <path d="M134.08 137.79L132.07 129.11C131.87 128.26 133.2 127.95 133.4 128.8L135.41 137.49C135.61 138.33 134.28 138.64 134.08 137.79Z" fill="white"/>
        <path d="M166.11 123.03C166.24 123.89 164.91 124.2 164.78 123.34C164.33 120.36 163.72 117.41 162.94 114.5C162.71 113.65 164.04 113.35 164.27 114.19C165.05 117.1 165.66 120.04 166.11 123.03Z" fill="white"/>
        <path d="M160.72 99.7498C160.85 100.61 159.52 100.92 159.39 100.06C158.94 97.0798 158.33 94.1299 157.55 91.2199C157.32 90.3699 158.65 90.0699 158.88 90.9099C159.66 93.8299 160.27 96.7698 160.72 99.7498Z" fill="white"/>
        <path d="M172.73 114.02C172.71 117.02 172.86 119.99 173.22 122.97C173.32 123.83 172 124.15 171.89 123.28C171.52 120.18 171.34 117.08 171.37 113.97C171.37 113.09 172.74 113.14 172.73 114.02Z" fill="white"/>
        <path d="M185.14 125.1C185.17 125.97 183.81 125.92 183.78 125.04C183.64 121.4 183.26 117.8 182.63 114.22C182.48 113.36 183.81 113.05 183.96 113.91C184.61 117.62 185 121.34 185.14 125.1Z" fill="white"/>
        <path d="M168.95 105.42C168.27 102.56 167.52 99.73 166.69 96.91C166.44 96.07 167.77 95.76 168.02 96.6C168.84 99.42 169.6 102.25 170.28 105.11C170.48 105.97 169.16 106.28 168.95 105.42Z" fill="white"/>
        <path d="M154.98 109.24C154.02 106.33 152.9 103.48 151.63 100.69C151.27 99.8998 152.46 99.2398 152.83 100.04C154.15 102.94 155.31 105.9 156.31 108.93C156.58 109.77 155.25 110.07 154.98 109.24Z" fill="white"/>
        <path d="M145.68 104.27L143.67 95.5799C143.47 94.7299 144.8 94.4199 145 95.2699L147.01 103.95C147.2 104.82 145.88 105.13 145.68 104.27Z" fill="white"/>
        <path d="M134.43 119.17C134.71 120 133.38 120.3 133.1 119.48C131.59 114.91 130.34 110.28 129.35 105.56C129.17 104.7 130.5 104.39 130.68 105.25C131.67 109.97 132.92 114.6 134.43 119.17Z" fill="white"/>
        <path d="M171.43 85.3599L167.24 70.6499C167.24 70.6499 165.48 70.7199 162.63 70.9299C161.02 71.0499 159.06 71.2199 156.87 71.4399C154.67 71.6699 152.23 71.9499 149.7 72.3099C147.42 72.6399 145.05 73.0199 142.7 73.4699C140.16 73.9499 137.62 74.5199 135.21 75.1799C132.54 75.9099 130.02 76.7399 127.81 77.7099C125.43 78.7499 123.42 79.9499 121.96 81.3099C121.96 81.3099 122.08 87.8299 122.77 97.7499C124.58 97.2199 127.23 96.4399 130.41 95.5299C132.88 94.8299 135.67 94.0399 138.64 93.2199C140.96 92.5799 143.39 91.9199 145.85 91.2599C148.31 90.6099 150.8 89.9599 153.26 89.3399C155.77 88.7099 158.24 88.1099 160.6 87.5599C162.81 87.0399 164.92 86.5799 166.89 86.1899C168.52 85.8699 170.05 85.5899 171.43 85.3599Z" fill="#2E8287"/>
        <path d="M175.64 143.93C175.68 144.8 174.32 144.74 174.28 143.87C174.13 140.7 173.72 137.58 173.07 134.47C172.89 133.61 174.22 133.3 174.4 134.16C175.07 137.4 175.48 140.64 175.64 143.93Z" fill="white"/>
        <path d="M135.22 75.1799C132.55 75.9099 130.03 76.7399 127.82 77.7099L130.42 95.5399C132.89 94.8399 135.68 94.0499 138.65 93.2299L135.22 75.1799Z" fill="white"/>
        <path d="M149.71 72.3198C147.43 72.6498 145.06 73.0299 142.71 73.4799C143.59 78.3999 145.08 86.8199 145.86 91.2899C148.32 90.6399 150.81 89.9899 153.27 89.3699L149.71 72.3198Z" fill="white"/>
        <path d="M166.9 86.21L162.64 70.9399C161.03 71.0599 159.07 71.23 156.88 71.45L160.62 87.58C162.82 87.06 164.93 86.6 166.9 86.21Z" fill="white"/>
        <path d="M167.38 145.11C162.24 146.3 159 143.06 157.16 140.03C156.84 143.56 155.36 147.9 150.22 149.09C130.87 153.57 149.21 105.91 149.21 105.91C149.21 105.91 186.73 140.63 167.38 145.11Z" fill="#BE443E"/>
        <path d="M72.75 53.8599L72.78 53.8398L85.17 44.8699C85.17 44.8699 112.1 67.8998 114.14 81.2598C114.14 81.2598 110.01 86.3099 103.33 93.6799C81.02 118.29 30.23 168.75 9.65997 143.11C-8.48003 120.49 37.81 84.3298 37.81 84.3298C37.81 84.3298 27.28 88.6099 25.22 82.5999C19.66 66.3499 72.75 53.8599 72.75 53.8599Z" fill="#D3B77B"/>
        <path d="M43.81 126.97C43.08 127.45 43.94 128.51 44.66 128.03C47.31 126.28 49.83 124.37 52.23 122.31C52.89 121.74 52.04 120.68 51.38 121.25C48.98 123.31 46.46 125.22 43.81 126.97Z" fill="white"/>
        <path d="M28.05 128.33C25.84 130.95 23.76 133.98 21.12 136.18C20.45 136.74 21.3 137.8 21.97 137.24C24.7 134.96 26.87 131.84 29.15 129.13C29.72 128.46 28.61 127.66 28.05 128.33Z" fill="white"/>
        <path d="M19.31 117.97C17.33 120.67 15.2 123.23 12.92 125.68C12.32 126.32 13.43 127.11 14.02 126.48C16.3 124.04 18.43 121.47 20.41 118.77C20.93 118.06 19.83 117.26 19.31 117.97Z" fill="white"/>
        <path d="M34.58 117.53L41.89 111.66C42.57 111.11 41.72 110.05 41.04 110.6L33.73 116.47C33.04 117.01 33.89 118.08 34.58 117.53Z" fill="white"/>
        <path d="M51.6001 114.45C53.2201 112.97 54.7901 111.48 56.1601 109.76C56.7001 109.08 55.5401 108.37 55.0001 109.05C53.7101 110.67 52.1901 112.06 50.6701 113.46C50.0201 114.05 50.9601 115.04 51.6001 114.45Z" fill="white"/>
        <path d="M12.4 137.93C14.09 136.53 15.74 135.12 17.19 133.48C17.77 132.83 16.64 132.06 16.07 132.71C14.7 134.26 13.11 135.58 11.52 136.89C10.85 137.45 11.73 138.49 12.4 137.93Z" fill="white"/>
        <path d="M56.75 66.6899C58.44 65.2899 60.09 63.8799 61.54 62.2399C62.12 61.5899 60.99 60.8199 60.42 61.4699C59.05 63.0199 57.46 64.3399 55.87 65.6499C55.2 66.2099 56.08 67.2499 56.75 66.6899Z" fill="white"/>
        <path d="M27.68 143.76C31.48 141.65 35.24 139.47 38.96 137.23C39.71 136.78 38.85 135.72 38.11 136.17C34.49 138.36 30.84 140.47 27.14 142.51C26.38 142.93 26.91 144.19 27.68 143.76Z" fill="white"/>
        <path d="M52.28 133.05C55.6 131.73 58.71 130.05 61.64 128.01C62.36 127.51 61.51 126.45 60.79 126.95C57.95 128.91 54.94 130.52 51.74 131.8C50.93 132.12 51.47 133.37 52.28 133.05Z" fill="white"/>
        <path d="M69.69 118.12L76.64 112.54C77.32 111.99 76.47 110.93 75.79 111.48L68.84 117.06C68.15 117.61 69 118.67 69.69 118.12Z" fill="white"/>
        <path d="M53.66 86.7099C53.03 87.3099 53.87 88.3699 54.51 87.7699C56.71 85.6999 59.01 83.7699 61.43 81.9599C62.13 81.4399 61.28 80.3699 60.58 80.8999C58.16 82.7099 55.85 84.6399 53.66 86.7099Z" fill="white"/>
        <path d="M72.29 71.76C71.66 72.36 72.5 73.42 73.14 72.82C75.34 70.75 77.64 68.82 80.06 67.01C80.76 66.49 79.91 65.42 79.21 65.95C76.79 67.76 74.48 69.69 72.29 71.76Z" fill="white"/>
        <path d="M54.03 75.5399C52.2 77.9099 50.23 80.1499 48.11 82.2699C47.5 82.8799 48.34 83.9499 48.96 83.3299C51.16 81.1299 53.22 78.7999 55.13 76.3299C55.67 75.6499 54.56 74.8499 54.03 75.5399Z" fill="white"/>
        <path d="M37.4199 76.57C36.8499 77.24 37.9599 78.03 38.5199 77.37C40.8799 74.6 43.4099 72.01 46.1199 69.58C46.7699 69 45.9199 67.93 45.2699 68.52C42.4699 71.02 39.8599 73.71 37.4199 76.57Z" fill="white"/>
        <path d="M62.31 71.1198C64.61 69.2998 66.96 67.5398 69.35 65.8298C70.06 65.3198 69.21 64.2598 68.5 64.7698C66.11 66.4698 63.76 68.2398 61.46 70.0598C60.77 70.6098 61.62 71.6698 62.31 71.1198Z" fill="white"/>
        <path d="M70.93 82.7699C73.49 81.0799 76.13 79.5299 78.85 78.1199C79.63 77.7199 79.09 76.4699 78.31 76.8699C75.48 78.3299 72.73 79.9399 70.08 81.6999C69.35 82.1899 70.2 83.2499 70.93 82.7699Z" fill="white"/>
        <path d="M81.31 84.62L88.26 79.04C88.94 78.49 88.09 77.43 87.41 77.98L80.46 83.5599C79.77 84.0999 80.62 85.17 81.31 84.62Z" fill="white"/>
        <path d="M80.93 103.28C80.2 103.76 81.0599 104.82 81.7799 104.34C85.7899 101.69 89.64 98.8198 93.33 95.7298C94 95.1698 93.15 94.1098 92.48 94.6698C88.79 97.7598 84.94 100.63 80.93 103.28Z" fill="white"/>
        <path d="M72.7799 53.8298L85.1699 44.8599C85.1699 44.8599 86.5099 46.0099 88.6199 47.9299C89.8099 49.0199 91.2499 50.3598 92.8299 51.8898C94.4199 53.4298 96.1599 55.1598 97.9199 57.0098C99.5099 58.6798 101.13 60.4398 102.7 62.2498C104.4 64.1998 106.04 66.2198 107.53 68.2198C109.18 70.4398 110.64 72.6599 111.77 74.7899C112.99 77.0799 113.84 79.2699 114.14 81.2399C114.14 81.2399 110.01 86.2899 103.33 93.6599C102.24 92.1199 100.63 89.8698 98.6999 87.1898C97.1899 85.1098 95.4899 82.7599 93.6699 80.2899C92.2399 78.3499 90.7399 76.3299 89.2199 74.2899C87.6899 72.2599 86.1299 70.1998 84.5799 68.1898C82.9999 66.1498 81.4299 64.1398 79.9199 62.2498C78.4999 60.4798 77.1299 58.8098 75.8299 57.2798C74.7399 56.0298 73.7199 54.8598 72.7799 53.8298Z" fill="#2E8287"/>
        <path d="M33.2399 97.2499C32.6699 97.9099 33.77 98.7099 34.34 98.0499C36.42 95.6499 38.6699 93.4499 41.0999 91.4099C41.7699 90.8499 40.9199 89.7799 40.2499 90.3499C37.7199 92.4599 35.3899 94.7599 33.2399 97.2499Z" fill="white"/>
        <path d="M107.52 68.23C109.17 70.45 110.63 72.67 111.76 74.8L98.6899 87.2C97.1799 85.12 95.4799 82.77 93.6599 80.3L107.52 68.23Z" fill="white"/>
        <path d="M97.91 57.0198C99.5 58.6898 101.12 60.4498 102.69 62.2598C98.9599 65.5798 92.57 71.2698 89.2 74.2998C87.67 72.2698 86.1099 70.2098 84.5599 68.1998L97.91 57.0198Z" fill="white"/>
        <path d="M75.8099 57.3L88.61 47.9399C89.8 49.0299 91.2399 50.37 92.8199 51.9L79.9099 62.26C78.4899 60.49 77.1099 58.82 75.8099 57.3Z" fill="white"/>
        <path d="M38.9999 103.28C42.2999 107.4 46.8499 106.85 50.1699 105.61C48.2299 108.58 46.7199 112.9 50.0199 117.02C62.4499 132.51 77.5199 83.71 77.5199 83.71C77.5199 83.71 26.5699 87.79 38.9999 103.28Z" fill="#BE443E"/>
        <path d="M96.58 145.82C96.5 145.73 96.41 145.64 96.32 145.56C96.24 145.47 96.15 145.38 96.06 145.3C94.42 143.53 92.03 143.43 89.92 142.96C85.71 142.04 81.39 141.71 77.07 141.48C76.8 141.47 76.51 141.48 76.25 141.44C76.24 141.31 76.24 141.16 76.25 140.98C76.88 134.38 76.93 127.74 77.08 121.12C77.47 104.4 78.19 87.6801 77.88 70.9501C77.81 67.0301 77.64 63.0802 75.11 59.6102C74.94 59.3802 74.77 59.1901 74.59 59.0301C74.51 58.9401 74.42 58.8501 74.33 58.7701C74.25 58.6801 74.16 58.5901 74.07 58.5101C72.78 57.0801 71.12 57.4601 69.64 57.2201C68.89 57.1001 68.86 58.7302 68.45 59.5502C68.15 60.1402 67.99 60.8101 67.68 61.4001C62.81 70.6601 57.25 79.5201 51.75 88.4001C48.8 93.1601 45.78 97.8801 43.4 102.97C43.19 103.43 42.8 104.01 43.23 104.46C43.28 104.52 43.34 104.57 43.4 104.61C43.42 104.65 43.45 104.68 43.48 104.72C43.53 104.78 43.59 104.83 43.65 104.87C43.67 104.91 43.7 104.94 43.73 104.98C43.78 105.04 43.84 105.09 43.9 105.13C43.92 105.17 43.95 105.2 43.98 105.24C44.42 105.71 45.11 105.67 45.74 105.57C46.41 105.46 46.81 104.98 47.22 104.51C50.03 101.29 52.43 97.7602 54.82 94.2302C58.96 88.1102 62.92 81.8701 66.51 75.4101C65.57 88.7401 65.57 102.06 65.07 113.95C64.93 123.58 64.96 131.71 65.32 139.84C65.37 140.93 65.07 141.31 64 141.44C61.84 141.68 59.68 142.01 57.54 142.41C54.1 143.05 50.67 143.76 47.24 144.5C46.55 144.65 45.46 144.76 45.58 145.68C45.61 145.92 45.74 146.07 45.91 146.16C45.97 146.27 46.06 146.36 46.17 146.42C46.23 146.53 46.32 146.62 46.43 146.68C46.7 147.2 47.61 147.07 48.2 147.1C49.75 147.19 51.32 147.26 52.87 147.13C63.62 146.26 74.36 146 85.1 147.39C89.01 147.9 92.96 148.27 96.92 147.73C97.79 147.61 97.84 147.45 97.32 146.69C97.1 146.36 96.85 146.07 96.58 145.82Z" fill="#2E8287"/>
        <path d="M152.37 102.73C147.71 95.02 141.66 88.46 135.58 81.92C134.99 81.29 134.76 80.87 135.27 80.02C138.58 74.51 140.66 68.66 140.08 62.07C139.89 59.9 139.18 58.09 137.73 56.42C137.57 56.23 137.4 56.07 137.24 55.91C137.15 55.82 137.07 55.73 136.98 55.65C136.89 55.56 136.81 55.47 136.72 55.39C134.94 53.51 132.81 53.25 130.26 53.03C126.29 52.68 122.46 52.48 118.67 53.87C114.96 55.23 111.12 56.42 109.82 60.82C108.13 66.52 108.98 72.04 111.47 77.25C113.36 81.2 116.22 84.59 118.97 87.99C119.57 88.73 119.49 89.17 118.86 89.76C115.9 92.54 113.36 95.71 110.62 98.69C104.43 105.43 100.32 112.99 99.49 122.35C98.86 129.42 100.41 135.4 105.1 140.03C105.18 140.12 105.27 140.2 105.36 140.29C105.44 140.38 105.53 140.46 105.62 140.55C106.49 141.44 107.46 142.28 108.56 143.06C113.54 146.64 119.37 147.96 124.42 147.98C133.59 148.19 140.94 145.77 147.72 141.45C152.22 138.58 155.52 134.7 156.75 129.44C158.95 119.98 157.43 111.09 152.37 102.73ZM106.32 133.94C105.44 131.15 104.86 128.27 104.91 126.09C104.79 119.38 107.44 114.31 110.52 109.63C114.01 104.34 118.35 99.66 122.75 95.07C123.3 94.5 123.69 94.29 124.12 94.52C129.25 101.08 133.01 108.37 136.03 116.11C137.52 119.92 138.42 123.8 138.78 127.85C139.23 132.87 136.29 136.13 132.87 138.96C125.14 145.36 117.6 144.5 109.7 139.7C109.39 139.51 109.1 139.3 108.83 139.07C107.6 137.65 106.9 135.78 106.32 133.94ZM133.94 60.78C134.29 66.06 133.07 71.06 130.67 75.76C130.48 76.13 130.34 76.78 129.73 76.21C127.96 74.57 126.14 72.98 124.42 71.3C122.66 69.51 121.03 67.6 119.7 65.4C116.33 59.86 119.86 57.27 124.5 55.86C125.74 55.48 127.05 55.42 128.18 55.53C130.03 55.58 131.52 56.04 132.61 56.91C133.39 57.88 133.84 59.17 133.94 60.78Z" fill="#2E8287"/>
        <path d="M65.1 113.95C65.61 101.75 65.6 88.0401 66.61 74.3701C66.63 74.1501 66.82 73.7401 66.43 73.7501C66.24 73.7501 66.03 74.1701 65.88 74.4301C62.26 80.9701 58.26 87.2801 54.07 93.4701C51.68 97.0001 49.28 100.53 46.47 103.75C46.06 104.22 45.66 104.71 44.99 104.81C44.36 104.91 43.68 104.94 43.23 104.48C42.8 104.03 43.19 103.45 43.4 102.99C45.78 97.9001 48.8 93.1801 51.75 88.4201C57.25 79.5301 62.81 70.6801 67.68 61.4201C67.99 60.8301 68.15 60.1701 68.45 59.5701C68.86 58.7601 68.89 57.1201 69.64 57.2401C71.22 57.5001 73.01 57.0401 74.33 58.8501C76.87 62.3201 77.03 66.2801 77.1 70.1901C77.41 86.9201 76.69 103.64 76.3 120.36C76.15 126.98 76.1 133.62 75.47 140.22C75.33 141.65 76.29 141.45 77.06 141.49C81.37 141.71 85.7 142.04 89.91 142.97C92.24 143.48 94.92 143.56 96.54 145.92C97.06 146.68 97.01 146.84 96.14 146.96C92.18 147.5 88.23 147.12 84.32 146.62C73.58 145.23 62.85 145.49 52.09 146.36C50.54 146.48 48.97 146.41 47.42 146.33C46.76 146.29 45.69 146.47 45.58 145.68C45.45 144.76 46.54 144.65 47.24 144.5C50.67 143.77 54.1 143.06 57.54 142.41C59.68 142.01 61.84 141.69 64 141.44C65.07 141.32 65.37 140.93 65.32 139.84C64.99 131.72 64.96 123.58 65.1 113.95Z" fill="white"/>
        <path d="M123.65 147.21C118.6 147.18 112.78 145.87 107.79 142.29C101.01 137.42 98.7599 130.64 99.4999 122.36C100.34 113 104.44 105.43 110.63 98.7001C113.37 95.7201 115.9 92.5501 118.87 89.7701C119.5 89.1801 119.58 88.7501 118.98 88.0001C116.22 84.6001 113.37 81.2101 111.48 77.2601C108.98 72.0501 108.14 66.5201 109.83 60.8301C111.13 56.4301 114.97 55.2401 118.68 53.8801C122.47 52.4901 126.3 52.7001 130.27 53.0401C132.93 53.2701 135.14 53.5401 136.97 55.6501C138.41 57.3201 139.12 59.1201 139.32 61.2901C139.91 67.8801 137.83 73.7301 134.51 79.2401C134 80.0901 134.23 80.5101 134.82 81.1401C140.9 87.6801 146.95 94.2401 151.61 101.95C156.67 110.31 158.19 119.2 155.99 128.67C154.77 133.93 151.47 137.8 146.96 140.68C140.17 145.01 132.82 147.42 123.65 147.21ZM104.13 125.32C104.09 127.5 104.67 130.37 105.54 133.17C106.33 135.7 107.35 138.29 109.7 139.72C117.6 144.52 125.15 145.38 132.87 138.98C136.29 136.15 139.24 132.89 138.78 127.87C138.42 123.82 137.52 119.94 136.03 116.13C132.98 108.33 129.19 100.98 123.99 94.3801C123.23 93.4201 122.77 93.4801 121.97 94.3201C117.57 98.9101 113.22 103.59 109.74 108.88C106.66 113.54 104.01 118.61 104.13 125.32ZM127.41 54.7601C126.28 54.6601 124.97 54.7101 123.73 55.0901C119.1 56.5001 115.57 59.0901 118.93 64.6301C121.74 69.2401 125.84 72.6201 129.73 76.2101C130.34 76.7801 130.49 76.1201 130.67 75.7601C133.07 71.0501 134.29 66.0601 133.94 60.7801C133.69 56.8901 131.4 54.8601 127.41 54.7601Z" fill="white"/>
        <path d="M32.4101 39.41L34.5101 35.25L36.1101 39.41L39.7701 39.71L37.1101 42.08L38.4401 45.01L34.8701 43.31L29.5101 45.97L31.5701 41.25L29.3101 39.88L32.4101 39.41Z" fill="white"/>
        <path d="M65.4999 46.6301L66.68 43.6201L64.71 42.5501C64.71 42.5501 66.88 42.0901 66.95 42.0901C67.02 42.0901 68.98 38.3501 68.98 38.3501L70.2799 42.2801L72.4699 42.4901L70.64 43.4801L71.5699 46.8601L68.34 45.1801L65.4999 46.6301Z" fill="white"/>
        <path d="M186.43 188.31L187.61 185.3L185.64 184.23C185.64 184.23 187.81 183.77 187.88 183.77C187.95 183.77 189.91 180.03 189.91 180.03L191.21 183.96L193.4 184.17L191.57 185.16L192.5 188.54L189.27 186.86L186.43 188.31Z" fill="white"/>
        <path d="M8.63007 192.57L9.81006 189.56L7.84009 188.49C7.84009 188.49 10.0101 188.03 10.0801 188.03C10.1501 188.03 12.1101 184.29 12.1101 184.29L13.4101 188.22L15.6001 188.43L13.7701 189.42L14.7001 192.8L11.4701 191.12L8.63007 192.57Z" fill="white"/>
        <path d="M36.69 10.2499L37.87 7.23999L35.9 6.16998C35.9 6.16998 38.07 5.70996 38.14 5.70996C38.21 5.70996 40.17 1.96997 40.17 1.96997L41.47 5.89996L43.66 6.10999L41.83 7.09998L42.76 10.48L39.53 8.79999L36.69 10.2499Z" fill="white"/>
        <path d="M73.8 10.2499L74.98 7.23999L73.01 6.16998C73.01 6.16998 75.18 5.70996 75.25 5.70996C75.32 5.70996 77.28 1.96997 77.28 1.96997L78.58 5.89996L80.77 6.10999L78.94 7.09998L79.87 10.48L76.64 8.79999L73.8 10.2499Z" fill="white"/>
        <path d="M116.95 10.2499L118.13 7.23999L116.16 6.16998C116.16 6.16998 118.33 5.70996 118.4 5.70996C118.47 5.70996 120.43 1.96997 120.43 1.96997L121.73 5.89996L123.92 6.10999L122.09 7.09998L123.02 10.48L119.79 8.79999L116.95 10.2499Z" fill="white"/>
        <path d="M167.21 10.2499L168.39 7.23999L166.42 6.16998C166.42 6.16998 168.59 5.70996 168.66 5.70996C168.73 5.70996 170.69 1.96997 170.69 1.96997L171.99 5.89996L174.18 6.10999L172.35 7.09998L173.28 10.48L170.05 8.79999L167.21 10.2499Z" fill="white"/>
        <path d="M43.26 163.57L44.44 160.56L42.47 159.49C42.47 159.49 44.64 159.03 44.71 159.03C44.78 159.03 46.74 155.29 46.74 155.29L48.04 159.22L50.23 159.43L48.4 160.42L49.33 163.8L46.1 162.12L43.26 163.57Z" fill="white"/>
        <path d="M92.54 27.33L93.72 24.32L91.75 23.25C91.75 23.25 93.92 22.79 93.99 22.79C94.06 22.79 96.02 19.05 96.02 19.05L97.32 22.98L99.51 23.19L97.68 24.1801L98.61 27.56L95.38 25.88L92.54 27.33Z" fill="white"/>
        <path d="M64.05 169.63L65.55 164.36L67.97 168.79L72.35 168.69L69.17 171.93L70.9001 176.02L66.57 174.37L62.3 177.4L63.14 172.15L59.79 170.36L64.05 169.63Z" fill="white"/>
        <path d="M39.3301 187.67L40.8301 182.4L43.2501 186.83L47.6301 186.73L44.4501 189.97L46.1801 194.05L41.8501 192.41L37.5801 195.44L38.4201 190.19L35.0601 188.4L39.3301 187.67Z" fill="white"/>
        <path d="M19.8801 166.89L21.3801 161.62L23.8001 166.05L28.1801 165.95L25.0001 169.19L26.7301 173.28L22.4001 171.63L18.1301 174.66L18.9701 169.41L15.6101 167.62L19.8801 166.89Z" fill="white"/>
        <path d="M181.78 56.58L183.55 52.78L185.81 56.58H189.52L186.6 58.55L187.95 62.57L184.21 60.31L179.25 63.57L180.81 58.86L178.25 57.01L181.78 56.58Z" fill="white"/>
        <path d="M149.82 31.3601L151.58 27.5701L153.85 31.3601H157.56L154.64 33.3401L155.99 37.3501L152.25 35.0901L147.29 38.3501L148.85 33.6501L146.29 31.8001L149.82 31.3601Z" fill="white"/>
        <path d="M57.68 22.9401L59.45 19.1401L61.71 22.9401H65.42L62.5 24.9102L63.85 28.9302L60.11 26.6702L55.15 29.9302L56.71 25.2202L54.15 23.3702L57.68 22.9401Z" fill="white"/>
        <path d="M187.42 28.33L189.18 24.54L191.45 28.33H195.16L192.23 30.31L193.58 34.32L189.85 32.06L184.88 35.32L186.45 30.6201L183.88 28.77L187.42 28.33Z" fill="white"/>
        <path d="M14.54 59.6301L16.3 55.8301L18.57 59.6301H22.28L19.36 61.6001L20.71 65.6201L16.97 63.3601L12.01 66.6201L13.57 61.9101L11.01 60.0601L14.54 59.6301Z" fill="white"/>
        <path d="M103.45 165.03L105.33 160.62L107.02 165.28L110.52 166.06L107.6 167.83L108.73 171.62L105.58 169.44L100.94 172.22L102.09 167.37L99.45 165.72L103.45 165.03Z" fill="white"/>
        <path d="M120.15 181.73L122.03 177.32L123.72 181.98L127.22 182.77L124.3 184.53L125.43 188.32L122.28 186.14L117.64 188.92L118.79 184.07L116.15 182.42L120.15 181.73Z" fill="white"/>
        <path d="M15.26 16.32L17.02 12.53L19.29 16.32H23L20.07 18.3L21.42 22.31L17.68 20.05L12.72 23.31L14.29 18.61L11.72 16.76L15.26 16.32Z" fill="white"/>
        <path d="M86.98 184.12L88.85 179.71L90.55 184.37L94.05 185.16L91.13 186.93L92.25 190.71L89.11 188.53L84.47 191.31L85.62 186.47L82.98 184.81L86.98 184.12Z" fill="white"/>
    </g>
    <defs>
        <clipPath id="clip0_30_4020">
            <rect width="200" height="200" fill="white"/>
        </clipPath>
    </defs>
</svg>
