<svg width="200" height="200" viewBox="0 0 200 200" fill="none" xmlns="http://www.w3.org/2000/svg">
    <g clip-path="url(#clip0_30_8401)">
        <path d="M200 0H0V200H200V0Z" fill="#2E8287"/>
        <path d="M97.23 187.61C101.588 187.61 105.12 181.817 105.12 174.67C105.12 167.524 101.588 161.73 97.23 161.73C92.8725 161.73 89.34 167.524 89.34 174.67C89.34 181.817 92.8725 187.61 97.23 187.61Z" fill="white"/>
        <path d="M97.2301 63.2803C64.0701 63.2803 66.2601 157.26 46.8301 157.26C46.8301 157.26 67.3501 173.44 97.2301 173.17C127.1 173.43 147.63 157.26 147.63 157.26C128.2 157.25 137.13 63.2803 97.2301 63.2803Z" fill="#D3B77B"/>
        <path d="M95.19 57.7703C95.19 57.7703 76.12 63.5303 67.1 78.1103C58.08 92.6803 49.55 110.59 39.53 110.62C29.51 110.65 39.4 111.15 39.4 111.15C39.4 111.15 51.54 113.29 59.98 105.64C59.98 105.64 58 113.95 49.96 119.62C49.96 119.62 67.24 123.71 81.08 95.7502C94.93 67.7902 97.23 63.2703 97.23 63.2703L95.19 57.7703Z" fill="#BE443E"/>
        <path d="M97.23 59.3602C97.23 59.3602 116.88 57.1202 138.05 77.0302C159.22 96.9402 169.8 90.8002 169.8 90.8002C169.8 90.8002 159.28 100.37 148.73 95.8902C148.73 95.8902 159.02 105.38 168.12 105.91C168.12 105.91 149.56 120.15 133.52 101.56C117.48 82.9702 97.83 63.8402 97.83 63.8402L97.23 59.3602Z" fill="#BE443E"/>
        <path opacity="0.2" d="M93.87 61.2202C89.13 61.0402 85.64 65.0702 82.95 68.5102C79.48 72.9302 76.88 77.9502 73.75 82.6002C72.9 83.8602 74.94 85.0402 75.78 83.7902C78.06 80.4102 80.06 76.8602 82.31 73.4602C84.52 70.1102 88.11 64.5201 92.54 63.6901C90.37 64.9201 89.28 67.1302 87.97 69.2902C85.75 72.9502 83.64 76.6701 81.61 80.4401C80.89 81.7701 82.93 82.9701 83.64 81.6301C85.09 78.9401 86.57 76.2701 88.12 73.6301C89.46 71.3401 91.29 66.6702 93.91 65.5902C94.85 65.2002 94.87 64.0401 94.35 63.5001C95.37 63.1001 95.21 61.2702 93.87 61.2202Z" fill="#2D2F33"/>
        <path opacity="0.2" d="M123.39 75.1902C117.31 68.9602 108.42 59.3302 98.88 60.0202C97.86 60.0902 97.53 61.2003 97.89 61.8703C97.37 62.3603 97.24 63.2903 98.05 63.7303C102.56 66.1703 106.3 69.5102 109.99 73.0202C111.09 74.0702 112.76 72.4003 111.66 71.3503C108.14 68.0003 104.58 64.8203 100.4 62.3503C108.63 62.7903 116.41 71.3902 121.73 76.8402C122.79 77.9402 124.45 76.2802 123.39 75.1902Z" fill="#2D2F33"/>
        <path d="M95.19 51.0502L94 58.8302C94 58.8302 92.06 59.9002 88.9 61.5302C79.86 66.1702 60.79 75.3702 48.15 77.2302C46.88 77.4202 45.67 77.5401 44.55 77.5601C28.33 77.9601 21.21 27.3202 48.62 21.8602C76.03 16.4002 95.19 51.0502 95.19 51.0502Z" fill="#BE443E"/>
        <path d="M148.7 61.6101C146.28 63.7901 143.52 65.0301 140.55 64.8901C124.08 64.1301 103.12 62.4301 98.6799 62.0601C98.1299 62.0101 97.83 61.9902 97.83 61.9902L98.7599 51.9601C98.7599 51.9601 116.82 11.7401 143.07 12.4001C165.1 12.9701 161.43 50.1901 148.7 61.6101Z" fill="#BE443E"/>
        <path opacity="0.2" d="M116.84 35.0703C109.86 39.8103 104.25 46.0003 100.28 53.4503C99.8101 54.3303 100.54 55.1503 101.29 55.2203C101.04 55.5003 100.81 55.7903 100.61 56.1203C99.8201 57.4203 101.85 58.6002 102.64 57.3102C103.61 55.7302 105.22 55.3103 106.87 54.7303C108.34 54.2103 109.81 53.6903 111.28 53.1603C112.7 52.6603 112.09 50.3803 110.65 50.8903C108.15 51.7803 104.97 52.4203 102.66 54.0103C106.41 47.2103 111.56 41.4903 118.01 37.1203C119.28 36.2603 118.1 34.2103 116.84 35.0703Z" fill="#2D2F33"/>
        <path opacity="0.2" d="M92.9801 55.2201C91.9401 51.3601 88.03 48.1601 84.93 45.9001C80.97 43.0101 76.4901 41.4101 71.5901 41.3701C70.0701 41.3601 70.0701 43.7101 71.5901 43.7301C75.6101 43.7701 79.27 44.9501 82.62 47.1601C85.13 48.8201 88.6601 51.5201 90.1601 54.4701C85.6301 53.6601 81.0701 53.1001 76.4701 52.8301C74.9601 52.7401 74.9601 55.1001 76.4701 55.1901C81.0701 55.4601 85.6201 56.0101 90.1501 56.8501C90.5901 56.9301 90.9501 56.7901 91.2101 56.5401C91.9901 56.9801 93.2801 56.3501 92.9801 55.2201Z" fill="#2D2F33"/>
        <path opacity="0.2" d="M88.9 61.5301C79.86 66.1701 60.79 75.3702 48.15 77.2302C50.94 72.4302 57.64 63.0702 67.01 61.2202C74.57 59.7102 83.57 60.6801 88.9 61.5301Z" fill="#2D2F33"/>
        <path opacity="0.2" d="M148.7 61.61C146.28 63.79 143.52 65.03 140.55 64.89C124.08 64.13 103.12 62.43 98.6801 62.06C102.01 59.12 109.27 54.88 123.73 54.27C139.29 53.63 146.04 58.54 148.7 61.61Z" fill="#2D2F33"/>
        <path d="M100.5 48.0202C98.68 47.1502 96.8701 47.1902 95.5201 48.1302C95.0601 48.0002 94.55 48.1102 94.24 48.6502C92.06 52.4402 90.31 57.3302 90.92 61.7902C91.36 65.0302 94.4201 66.9002 97.6601 65.9302C100.95 64.9502 102.15 60.2502 102.68 57.3102C103.19 54.4002 103.77 49.6002 100.5 48.0202Z" fill="#BE443E"/>
        <path d="M119.8 134.77C119.78 135.14 119.74 135.53 119.63 135.88C119.43 136.54 119.06 137.15 118.51 137.57C118.14 137.86 117.78 138.11 117.35 138.3C117.05 138.43 116.75 138.54 116.43 138.6C115.89 138.7 115.33 138.82 114.78 138.77C114.13 138.71 113.48 138.56 112.94 138.18C112.66 137.97 112.38 137.77 112.12 137.54C111.25 136.76 110.89 135.56 110.89 134.41C110.26 134.37 109.62 134.34 109 134.34C108.21 134.33 107.43 134.35 106.64 134.37C105.8 134.39 104.95 134.42 104.11 134.41C103.31 134.39 102.51 134.36 101.71 134.31C102.29 135.17 102.88 136.03 103.5 136.87C104.4 138.02 105.33 139.14 106.22 140.3C106.73 140.95 107.24 141.6 107.78 142.23C107.99 142.49 108.22 142.74 108.44 142.99C108.66 143.23 108.88 143.46 109.1 143.68C109.11 143.68 109.11 143.67 109.12 143.67C109.73 143.42 110.34 143.17 111 143.12C111.09 143.11 111.2 143.1 111.29 143.1C111.73 143.1 112.15 143.18 112.54 143.36C112.86 143.52 113.2 143.74 113.42 144.02C113.72 144.4 113.97 144.77 114.12 145.24C114.25 145.61 114.32 146.01 114.34 146.4C114.37 146.88 114.33 147.4 114.17 147.86C114 148.32 113.8 148.79 113.45 149.14C113.08 149.54 112.61 149.85 112.1 150.02C111.64 150.17 111.17 150.22 110.68 150.18C109.83 150.12 108.93 149.8 108.3 149.22C107.58 148.56 107.14 147.58 107.33 146.62C107.36 146.45 107.41 146.29 107.47 146.13C107.57 145.89 107.66 145.65 107.79 145.43C107.81 145.41 107.82 145.38 107.84 145.35C107.71 145.24 107.58 145.12 107.46 144.99C107.33 144.86 107.21 144.73 107.08 144.59C106.85 144.34 106.62 144.09 106.41 143.83C105.96 143.3 105.51 142.76 105.08 142.21C104.37 141.3 103.66 140.39 102.93 139.49C102.22 138.62 101.52 137.73 100.88 136.8C100.86 137.49 100.84 138.18 100.82 138.86C100.79 140.03 100.78 141.2 100.76 142.37C100.74 143.47 100.7 144.57 100.68 145.67C100.67 146.47 100.67 147.27 100.66 148.07C100.72 148.07 100.77 148.07 100.82 148.08C101.08 148.1 101.37 148.11 101.62 148.21C101.95 148.34 102.26 148.47 102.54 148.72C102.74 148.9 102.92 149.12 103.05 149.35C103.2 149.63 103.34 149.94 103.43 150.25C103.54 150.61 103.57 150.97 103.61 151.34C103.67 151.85 103.62 152.42 103.46 152.92C103.29 153.47 103.04 154.1 102.61 154.5C101.85 155.24 100.75 155.62 99.7 155.66C99.21 155.68 98.72 155.63 98.24 155.51C97.75 155.39 97.23 155.24 96.82 154.96C96.56 154.79 96.32 154.59 96.11 154.36C95.93 154.16 95.79 153.93 95.66 153.69C95.41 153.2 95.25 152.6 95.32 152.04C95.45 151.03 95.98 150.07 96.8 149.44C97.2 149.12 97.61 148.84 98.09 148.63C98.24 148.56 98.41 148.5 98.56 148.44C98.58 147.58 98.58 146.72 98.59 145.85C98.61 144.71 98.65 143.57 98.67 142.43C98.69 141.31 98.7001 140.18 98.7301 139.06C98.7701 137.64 98.79 136.2 98.83 134.77C98.51 135.09 98.2 135.4 97.89 135.72C97.08 136.56 96.28 137.41 95.5 138.28C94.79 139.06 94.08 139.83 93.32 140.57C92.48 141.39 91.64 142.2 90.8 143.02C90 143.81 89.21 144.62 88.43 145.43C88.46 145.5 88.5 145.57 88.52 145.65C88.68 146.06 88.73 146.5 88.68 146.94C88.62 147.51 88.47 148.09 88.21 148.59C88.08 148.84 87.92 149.06 87.71 149.25C87.47 149.45 87.2 149.6 86.91 149.7C86.52 149.83 86.1 149.87 85.7 149.82C85.19 149.76 84.62 149.64 84.18 149.35C83.85 149.14 83.5 148.9 83.25 148.59C82.96 148.21 82.7 147.84 82.56 147.38C82.44 146.97 82.35 146.52 82.39 146.09C82.45 145.3 82.66 144.5 83.13 143.85C83.44 143.41 83.89 143.03 84.43 142.9C84.64 142.85 84.87 142.82 85.09 142.82C85.33 142.82 85.5701 142.86 85.7901 142.94C86.2301 143.11 86.67 143.3 87.01 143.64C87.05 143.68 87.09 143.73 87.13 143.77C87.9 142.97 88.68 142.17 89.47 141.4C90.28 140.61 91.12 139.84 91.91 139.03C93.52 137.39 95.04 135.67 96.63 134.02C96.04 133.99 95.47 133.94 94.88 133.89C92.47 133.68 90.11 133.15 87.77 132.56C87.75 132.56 87.74 132.55 87.72 132.54C87.7 132.55 87.69 132.56 87.67 132.58C87.54 133.22 87.31 133.82 86.82 134.3C86.42 134.68 85.93 135 85.39 135.13C85.15 135.19 84.9 135.23 84.65 135.24C84.42 135.25 84.2001 135.22 83.9801 135.19C82.8901 135.04 81.91 134.42 81.27 133.52C80.65 132.64 80.33 131.46 80.47 130.39C80.61 129.3 81.05 128.21 81.86 127.43C82.07 127.23 82.31 127.02 82.56 126.88C82.84 126.72 83.1501 126.6 83.4801 126.53C83.6701 126.48 83.88 126.47 84.07 126.47C84.43 126.47 84.8 126.53 85.12 126.66C85.68 126.87 86.21 127.14 86.64 127.57C86.96 127.88 87.23 128.23 87.43 128.63C87.66 129.09 87.86 129.56 87.97 130.07C88 130.22 88.0201 130.37 88.0401 130.52C88.1301 130.52 88.22 130.53 88.31 130.55C89.39 130.82 90.46 131.06 91.55 131.29C92.37 131.46 93.18 131.58 94 131.69C95.23 131.83 96.46 131.91 97.7 131.97C97.5 131.67 97.31 131.36 97.11 131.06C95.86 129.15 94.68 127.21 93.49 125.27C92.9 124.31 92.3 123.37 91.65 122.46C90.94 121.47 90.23 120.47 89.55 119.45C89.47 119.47 89.4 119.51 89.32 119.53C88.88 119.62 88.43 119.58 88.02 119.38C87.73 119.23 87.47 119.01 87.24 118.77C86.96 118.46 86.8 118.09 86.69 117.69C86.47 116.91 86.45 116.04 86.77 115.29C86.94 114.91 87.09 114.56 87.34 114.23C87.61 113.87 87.91 113.58 88.32 113.39C88.67 113.22 89.03 113.14 89.4 113.14C89.46 113.14 89.52 113.14 89.58 113.15C89.98 113.17 90.41 113.29 90.74 113.51C91.34 113.91 91.86 114.54 92.06 115.24C92.27 115.98 92.12 116.85 91.74 117.51C91.59 117.77 91.41 118 91.2 118.2C91.22 118.23 91.2601 118.26 91.2901 118.3C92.1201 119.56 93.02 120.77 93.88 122C94.7 123.17 95.43 124.41 96.17 125.62C97.07 127.09 98 128.55 98.93 130C98.94 129.6 98.95 129.21 98.96 128.81C99.02 127.68 99.13 126.54 99.22 125.42C99.39 123.2 99.58 120.98 99.74 118.76C99.65 118.71 99.5601 118.66 99.4801 118.59C99.0201 118.13 98.58 117.62 98.21 117.09C97.89 116.63 97.63 116.15 97.44 115.63C97.35 115.39 97.28 115.16 97.24 114.92C97.18 114.6 97.19 114.34 97.24 114.02C97.31 113.47 97.56 112.98 97.9 112.55C98.19 112.17 98.6 111.83 99.02 111.62C99.49 111.38 99.95 111.22 100.47 111.15C100.71 111.11 100.94 111.09 101.17 111.09C101.4 111.09 101.63 111.11 101.86 111.14C102.39 111.2 102.91 111.31 103.39 111.57C103.88 111.83 104.32 112.23 104.6 112.71C104.92 113.25 105.11 113.83 105.19 114.45C105.25 114.91 105.25 115.43 105.1 115.87C104.93 116.38 104.7 116.85 104.37 117.28C104.02 117.75 103.56 118.15 103.04 118.4C102.65 118.58 102.26 118.73 101.84 118.77C101.76 119.81 101.69 120.86 101.6 121.9C101.5 123.06 101.4 124.23 101.31 125.39C101.22 126.52 101.11 127.65 101.06 128.78C101.04 129.1 101.04 129.41 101.03 129.73C101.16 129.6 101.3 129.48 101.43 129.35C103.1 127.84 104.76 126.32 106.35 124.73C107.13 123.94 107.88 123.12 108.7 122.35C109.14 121.94 109.59 121.54 110.04 121.14C110.35 120.86 110.67 120.61 111 120.36C110.96 120.2 110.92 120.05 110.89 119.89C110.8 119.38 110.76 118.89 110.87 118.38C110.91 118.14 110.98 117.94 111.08 117.72C111.13 117.59 111.18 117.47 111.27 117.36C111.55 116.97 111.87 116.63 112.31 116.39C112.68 116.19 113.07 116.03 113.49 115.96C113.71 115.92 113.94 115.9 114.18 115.9C114.4 115.9 114.62 115.92 114.83 115.99C115.25 116.12 115.71 116.33 116.01 116.67C116.36 117.07 116.65 117.49 116.8 118C116.93 118.45 117.03 118.94 117.03 119.42C117.02 119.93 116.94 120.44 116.7 120.89C116.58 121.11 116.44 121.32 116.28 121.51C116.19 121.62 116.1 121.74 116 121.83C115.83 121.97 115.64 122.13 115.45 122.23C115.24 122.33 115.03 122.43 114.81 122.51C114.49 122.63 114.16 122.72 113.82 122.73C113.4 122.75 112.97 122.68 112.59 122.5C112.41 122.41 112.26 122.28 112.12 122.14C111.44 122.69 110.77 123.25 110.17 123.86C109.31 124.72 108.46 125.59 107.6 126.46C106.01 128.05 104.32 129.56 102.65 131.07C102.26 131.43 101.88 131.8 101.49 132.17C102.6 132.24 103.71 132.3 104.81 132.28C105.92 132.27 107.03 132.22 108.13 132.22C108.72 132.21 109.3 132.21 109.89 132.23C110.43 132.25 110.97 132.29 111.5 132.32C111.61 132.06 111.74 131.81 111.89 131.58C112.27 130.99 112.71 130.45 113.26 130.02C113.62 129.73 114.03 129.46 114.49 129.33C114.78 129.24 115.12 129.18 115.43 129.18H115.57C116.27 129.24 116.96 129.39 117.53 129.82C118.13 130.28 118.72 130.8 119.06 131.48C119.43 132.2 119.62 132.94 119.73 133.74C119.8 134.12 119.83 134.45 119.8 134.77Z" fill="white"/>
        <path d="M101.13 138.28C100.98 137.66 100.68 137.18 100.28 136.84C100.21 136.76 100.13 136.68 100.05 136.61C99.98 136.53 99.9001 136.45 99.8201 136.38C99.7501 136.3 99.6701 136.22 99.5901 136.15C98.8701 135.34 97.7201 135.07 96.5701 135.33C95.5101 135.57 95.6101 136.98 95.4801 137.96C95.3501 138.93 95.26 139.91 95.25 140.89C95.2401 142.08 94.7001 142.39 93.5701 142.26C89.5501 141.8 85.5301 141.26 81.4701 141.24C73.7501 141.21 66.0401 141.19 58.3201 141.16C62.2801 136.69 65.1901 131.5 68.4501 126.54C75.5101 115.79 82.5101 105.01 87.2801 92.9699C89.7801 86.6599 91.76 80.2899 90.8 73.3699C90.09 68.2399 88.2001 63.7799 84.7801 60.4799C84.7001 60.3999 84.63 60.3299 84.55 60.2499C84.47 60.1699 84.4001 60.0999 84.3201 60.0199C84.2401 59.9399 84.1701 59.8699 84.0901 59.7899C82.7001 58.3999 81.0601 57.1999 79.1301 56.2299C72.3601 52.8299 64.2401 54.8399 58.4801 60.6899C54.8701 64.3499 52.7301 68.6599 52.8801 73.9399C52.9001 74.5699 53.0801 74.8999 53.3501 75.0899C53.4201 75.1899 53.4901 75.2599 53.5801 75.3199C53.6501 75.4199 53.72 75.4899 53.81 75.5499C53.88 75.6499 53.9501 75.7199 54.0401 75.7799C54.4201 76.3299 55.19 76.2099 55.92 76.2899C57.18 76.4299 56.88 75.5299 56.9401 74.9099C57.42 69.8999 59.52 65.9099 63.99 63.3199C65.53 62.4199 67.12 61.6599 68.74 60.9099C70.63 60.0499 72.0701 59.9999 73.3901 61.0299C73.6901 61.3899 73.9801 61.8199 74.2701 62.2999C77.1301 67.0599 77.1101 72.4299 76.3301 77.7299C75.2901 84.7799 71.7501 90.8699 68.4701 97.0399C63.2901 106.78 57.3001 116.07 52.4701 126C49.8501 131.39 47.11 136.76 46.24 142.82C46.09 143.86 46.3301 144.6 46.9101 145.1C46.9801 145.18 47.0601 145.26 47.1401 145.33C47.2101 145.41 47.29 145.49 47.37 145.56C47.44 145.64 47.5201 145.72 47.6001 145.79C47.9201 146.17 48.4001 146.45 49.0201 146.63C49.7801 146.86 50.5801 146.96 51.3801 147.03C59.6501 147.74 67.91 147.11 76.18 146.93C80.94 146.93 85.6901 146.86 90.4501 146.95C93.9101 147.01 97.3701 147.52 100.82 146.79C101.51 146.64 102.44 146.56 102.33 145.62C102.02 143.16 101.72 140.68 101.13 138.28Z" fill="#2E8287"/>
        <path d="M153.52 76.6599C153.03 70.6799 150.01 65.6799 147.38 60.5999C146.96 59.7899 146.43 59.0999 145.83 58.5199C145.75 58.4399 145.68 58.3699 145.6 58.2899C145.52 58.2099 145.45 58.1399 145.37 58.0599C145.3 57.9799 145.22 57.9099 145.14 57.8299C142.93 55.5199 139.55 54.7099 136.43 53.9899C127.14 51.8399 118.03 58.3599 113.83 65.8299C109.7 73.1699 107.68 81.3099 106.02 89.5099C103.17 103.63 102.3 117.74 106.86 131.7C107.99 135.17 109.72 138.23 112.18 140.63C112.26 140.71 112.33 140.78 112.41 140.86C112.49 140.94 112.56 141.01 112.64 141.09C112.72 141.17 112.79 141.24 112.87 141.32C114.38 142.85 116.19 144.12 118.31 145.07C123.84 147.55 129.79 147.64 135.73 147.06C139.67 146.68 143.12 145.21 145.58 141.9C147.81 138.9 149.47 135.61 150.27 131.97C152.08 123.81 153.59 115.62 154 107.23C154.31 100.97 154.6 94.7199 154.71 88.4599C154.78 84.4799 153.84 80.5999 153.52 76.6599ZM123.33 116.51C124.34 99.6999 126.28 83.0199 131.14 66.8099C131.57 65.3599 132 63.9099 132.85 62.6299C134.6 60.0099 137.44 59.6199 139.93 61.5199C140.65 62.0699 141.31 62.6399 141.94 63.2299C145.8 67.2999 147.83 72.3699 148.69 78.0899C149.68 84.6499 150.32 91.2399 150.18 98.0899C149.74 108.02 148.59 118.05 144.98 127.59C143.13 132.48 140.45 136.91 135.27 139.09C132.44 140.28 129.82 139.93 127.83 138.26C127.4 137.76 127.01 137.18 126.67 136.53C123.31 130.22 122.92 123.4 123.33 116.51Z" fill="#2E8287"/>
        <path d="M75.2601 146.01C66.9901 146.19 58.7301 146.81 50.4601 146.11C49.6701 146.04 48.8601 145.94 48.1001 145.71C46.7001 145.29 46.0101 144.42 46.2501 142.82C47.1301 136.76 49.8601 131.4 52.4801 126C57.3101 116.07 63.3001 106.78 68.4801 97.0401C71.7601 90.8801 75.3001 84.7801 76.3401 77.7301C77.1201 72.4301 77.1301 67.0601 74.2801 62.3001C72.4301 59.2201 70.6101 58.7201 67.8301 59.9901C66.2101 60.7301 64.6201 61.5001 63.0801 62.4001C58.6101 65.0001 56.5101 68.9801 56.0301 73.9901C55.9701 74.6101 56.2601 75.5101 55.0101 75.3701C54.0101 75.2601 52.9401 75.5301 52.8901 73.9401C52.7301 68.6601 54.88 64.3501 58.49 60.6901C64.25 54.8401 72.3701 52.8401 79.1401 56.2301C85.6401 59.4901 88.9101 65.3101 89.9001 72.4501C90.8501 79.3701 88.8801 85.7401 86.3801 92.0501C81.6101 104.09 74.61 114.87 67.55 125.62C64.26 130.63 61.3201 135.88 57.2901 140.39C57.1501 140.54 57.1001 140.77 57.0101 140.96C57.2901 141.03 57.58 141.16 57.86 141.16C65.74 141.2 73.61 141.22 81.49 141.24C85.55 141.25 89.5601 141.8 93.5901 142.26C94.7201 142.39 95.2601 142.07 95.2701 140.89C95.2801 139.91 95.3701 138.93 95.5001 137.96C95.6301 136.98 95.5201 135.57 96.5901 135.33C98.1901 134.96 99.8001 135.63 100.23 137.36C100.82 139.76 101.12 142.24 101.42 144.7C101.53 145.64 100.6 145.73 99.9101 145.87C96.4601 146.6 93.0001 146.09 89.5401 146.03C84.7701 145.94 80.0101 146.01 75.2601 146.01Z" fill="white"/>
        <path d="M153.79 87.55C153.69 93.81 153.39 100.06 153.08 106.32C152.66 114.71 151.15 122.9 149.35 131.06C148.54 134.7 146.89 137.99 144.66 140.99C142.2 144.3 138.76 145.76 134.81 146.15C128.87 146.73 122.92 146.64 117.39 144.16C111.98 141.74 108.66 137.24 106.86 131.71C102.3 117.75 103.16 103.64 106.02 89.52C107.68 81.32 109.7 73.18 113.83 65.84C118.03 58.37 127.13 51.8499 136.43 53.9999C140.26 54.8899 144.5 55.8999 146.46 59.6899C149.09 64.7699 152.11 69.7699 152.6 75.7499C152.92 79.6799 153.86 83.56 153.79 87.55ZM150.18 98.09C150.32 91.24 149.68 84.65 148.69 78.09C147.63 71.07 144.81 65.03 139.01 60.6C136.53 58.71 133.68 59.09 131.93 61.71C131.08 62.99 130.65 64.45 130.22 65.89C125.36 82.1 123.42 98.78 122.41 115.59C122 122.48 122.39 129.29 125.74 135.61C127.76 139.41 131.29 140.77 135.27 139.09C140.45 136.91 143.13 132.48 144.98 127.59C148.59 118.04 149.74 108.02 150.18 98.09Z" fill="white"/>
    </g>
    <defs>
        <clipPath id="clip0_30_8401">
            <rect width="200" height="200" fill="white"/>
        </clipPath>
    </defs>
</svg>
