<svg width="200" height="200" viewBox="0 0 200 200" fill="none" xmlns="http://www.w3.org/2000/svg">
    <g clip-path="url(#clip0_30_8425)">
        <path d="M200 0H0V200H200V0Z" fill="#BE443E"/>
        <path d="M156.03 67.6501C141.48 68.1901 143.28 58.1801 132.54 56.8301C132.49 56.8201 132.43 56.8101 132.37 56.8101C132.37 56.8101 132.87 60.7501 129.7 60.5001C129.7 60.5001 129.91 60.8401 130.3 61.4901C134.68 68.9401 161.67 117.54 154.16 172.48C154.16 172.48 84.07 198.25 32.47 172.11C32.47 172.11 23.98 117.89 50.25 85.8801C75.15 55.5501 95.76 49.0601 97.85 48.4501C97.96 48.4201 98.03 48.4101 98.03 48.4101C98.03 48.4101 96.83 40.5901 103.1 42.2001C103.1 42.2001 103.1 42.2001 103.11 42.2001C103.24 42.2301 103.37 42.2701 103.5 42.3101C103.5 42.3101 110.12 15.0901 128.69 16.2301C138.11 16.9901 134.03 29.5901 136.07 30.9801C138.11 32.3801 152.97 33.4801 155.53 41.5001C158.09 49.5101 155.66 49.6601 157.19 52.2801C157.41 52.6601 157.84 53.2301 158.38 53.9401C161.58 58.1601 168.55 67.1801 156.03 67.6501Z" fill="#D3B77B"/>
        <path d="M156.03 67.6501C141.48 68.1901 143.28 58.1801 132.54 56.8301C132.49 56.8201 132.43 56.8101 132.37 56.8101C132.37 56.8101 132.87 60.7501 129.7 60.5001C129.7 60.5001 129.91 60.8401 130.3 61.4901C134.68 68.9401 161.67 117.54 154.16 172.48C154.16 172.48 84.07 198.25 32.47 172.11C32.47 172.11 23.98 117.89 50.25 85.8801C75.15 55.5501 95.76 49.0601 97.85 48.4501C97.96 48.4201 98.03 48.4101 98.03 48.4101C98.03 48.4101 96.83 40.5901 103.1 42.2001C103.1 42.2001 103.1 42.2001 103.11 42.2001C103.24 42.2301 103.37 42.2701 103.5 42.3101C103.5 42.3101 110.12 15.0901 128.69 16.2301C138.11 16.9901 134.03 29.5901 136.07 30.9801C138.11 32.3801 152.97 33.4801 155.53 41.5001C158.09 49.5101 155.66 49.6601 157.19 52.2801C157.41 52.6601 157.84 53.2301 158.38 53.9401C161.58 58.1601 168.55 67.1801 156.03 67.6501Z" fill="#D3B77B"/>
        <path opacity="0.2" d="M156.03 67.65C141.48 68.19 143.28 58.18 132.54 56.83C132.49 56.82 132.43 56.81 132.37 56.81C132.37 56.81 132.87 60.75 129.7 60.5C129.7 60.5 129.91 60.8401 130.3 61.4901C134.68 68.9401 161.67 117.54 154.16 172.48C154.16 172.48 84.07 198.25 32.47 172.11C186.73 180.01 129.01 72.6101 128.48 69.4101C127.95 66.2101 114.21 44.6101 141.02 52.6101C148.84 54.9401 154.41 55.01 158.37 53.94C161.58 58.16 168.55 67.18 156.03 67.65Z" fill="#45320A"/>
        <path d="M132.37 56.8001C132.37 56.8001 132.87 60.7401 129.7 60.4901L98.0299 48.4101C98.0299 48.4101 96.8299 40.5901 103.1 42.2001C103.1 42.2001 103.1 42.2001 103.11 42.2001C104.64 42.8301 132.42 56.8101 132.37 56.8001Z" fill="white"/>
        <path d="M127.47 58.6801C134.45 65.0101 140.83 72.1801 146.56 79.6401C151.24 85.7401 155.57 92.2401 158.68 99.3001C160.74 103.97 161.86 108.99 162.61 114.02C162.99 116.55 163.26 119.09 163.51 121.63C163.67 123.28 163.79 124.96 164.25 126.56C164.53 127.53 165.44 129.36 166.68 128.7C167.91 128.04 168.14 124.3 168.34 123.12C169.05 118.8 169.02 114.39 168.32 110.07C166.93 101.41 163.02 93.34 158.13 86.1301C155.91 82.85 153.47 79.7301 150.87 76.7401C148.76 74.3001 146.55 71.9501 144.26 69.6701C142.06 67.4801 139.79 65.36 137.46 63.3101C136.59 62.5401 132.03 57.6901 131 57.9101L127.47 58.6801Z" fill="white"/>
        <path d="M129.57 57.5601C129.57 57.5601 159.21 77.2801 165.25 85.4201C166.65 87.2001 168.56 86.6301 168.05 84.3401C167.54 82.0501 159.41 67.2201 131.86 57.0601L129.57 57.5601Z" fill="white"/>
        <path d="M127.13 148.16C126.81 147.96 126.42 147.86 126.05 147.83C125.98 147.82 125.9 147.82 125.83 147.82C125.15 147.82 124.49 148.09 123.91 148.44C123.86 148.47 123.81 148.51 123.76 148.54C123.12 147.9 122.51 147.23 121.9 146.57C122.05 146.19 122.13 145.79 122.08 145.39C121.99 144.62 121.59 144 121.08 143.44C120.65 142.96 120.04 142.58 119.4 142.46C119.25 142.43 119.11 142.42 118.96 142.42C118.41 142.42 117.88 142.61 117.41 142.91C117.32 142.96 117.24 143.03 117.16 143.1C116.64 142.58 116.12 142.05 115.59 141.54C115.01 140.98 114.41 140.43 113.81 139.88C114.54 139.84 115.28 139.85 116.02 139.85C116.57 139.85 117.03 139.39 117.03 138.84C117.03 138.29 116.57 137.83 116.02 137.83C115.78 137.83 115.53 137.83 115.29 137.83C114.65 137.83 114.01 137.84 113.38 137.88C112.95 137.91 112.52 137.98 112.1 138.04C112.02 138.05 111.95 138.06 111.87 138.07C111.86 138.07 111.85 138.07 111.84 138.07C110.69 137.02 109.52 135.99 108.34 134.97C108.32 134.95 108.3 134.94 108.29 134.92C108.96 134.76 109.63 134.58 110.3 134.41C110.83 134.27 111.15 133.69 111 133.17C110.88 132.72 110.46 132.43 110.02 132.43C109.93 132.43 109.85 132.44 109.76 132.46C108.94 132.68 108.12 132.88 107.3 133.08C107.03 133.14 106.77 133.22 106.5 133.3C105.47 132.35 104.44 131.4 103.41 130.46C102.25 129.4 101.11 128.31 99.94 127.25C99.97 127.25 100 127.24 100.03 127.24C101.66 127.1 103.29 127.01 104.91 126.88C105.11 126.86 105.31 126.84 105.51 126.82C105.74 127.27 106.06 127.7 106.33 128.07C106.68 128.54 107.04 129 107.41 129.46C107.44 129.5 107.47 129.54 107.5 129.58C107.66 129.8 107.83 129.97 108.1 130.04C108.36 130.11 108.64 130.07 108.87 129.94C109.1 129.81 109.27 129.59 109.33 129.34C109.4 129.1 109.38 128.77 109.23 128.57C108.95 128.18 108.64 127.81 108.34 127.43C108.13 127.15 107.92 126.87 107.72 126.58C108.4 126.49 109.09 126.4 109.77 126.31C110.42 126.22 111.07 126.14 111.72 126.09C111.82 126.08 111.92 126.08 112.02 126.07C112.04 126.1 112.05 126.12 112.07 126.15C112.24 126.44 112.42 126.72 112.61 127C112.99 127.57 113.44 128.09 113.82 128.66C114.12 129.12 114.7 129.31 115.2 129.02C115.66 128.75 115.86 128.1 115.56 127.64C115.21 127.11 114.8 126.62 114.44 126.09C114.4 126.03 114.35 125.96 114.31 125.9C115.42 125.81 116.53 125.68 117.64 125.62C117.68 125.73 117.71 125.84 117.76 125.95C117.76 125.97 117.76 125.98 117.77 126C117.8 126.28 117.86 126.51 118.07 126.71C118.15 126.79 118.23 126.85 118.33 126.9C118.74 127.36 119.31 127.63 119.91 127.79C120.26 127.88 120.63 127.92 120.99 127.96C121.33 128 121.68 128 122.03 127.97C122.84 127.91 123.62 127.67 124.26 127.16C124.77 126.76 125.16 126.23 125.42 125.64C125.71 124.98 125.84 124.31 125.93 123.6C126.05 122.63 126.01 121.63 125.67 120.69C125.54 120.32 125.35 119.97 125.09 119.68C124.85 119.42 124.57 119.2 124.27 119.02C123.98 118.84 123.63 118.73 123.3 118.64C123.04 118.57 122.76 118.54 122.48 118.54C122.28 118.54 122.09 118.56 121.9 118.59C120.92 118.75 120.1 119.41 119.43 120.1C119.06 120.48 118.74 120.92 118.46 121.37C118.04 122.04 117.79 122.82 117.69 123.6C116.89 123.64 116.08 123.73 115.28 123.81C114.95 123.84 114.61 123.87 114.28 123.89C114.31 123.85 114.34 123.81 114.37 123.78C114.74 123.27 115.08 122.75 115.43 122.23C115.73 121.77 115.52 121.11 115.07 120.85C114.91 120.76 114.74 120.71 114.58 120.71C114.23 120.71 113.9 120.9 113.69 121.21C113.31 121.77 112.94 122.34 112.54 122.89C112.37 123.13 112.19 123.35 112.02 123.59C111.91 123.74 111.8 123.91 111.72 124.09C110.47 124.21 109.23 124.38 107.99 124.55C108.03 124.48 108.07 124.42 108.11 124.35C108.41 123.81 108.68 123.25 108.95 122.69C109.07 122.44 109.13 122.19 109.05 121.92C108.98 121.67 108.81 121.45 108.59 121.32C108.43 121.23 108.26 121.18 108.08 121.18C107.99 121.18 107.9 121.19 107.81 121.22C107.58 121.29 107.31 121.46 107.21 121.68C106.94 122.24 106.68 122.8 106.37 123.34C106.23 123.59 106.08 123.84 105.92 124.09C105.84 124.21 105.76 124.33 105.68 124.45C105.65 124.5 105.61 124.55 105.58 124.59C105.53 124.67 105.48 124.74 105.44 124.82C105.1 124.85 104.76 124.9 104.43 124.92C103.35 125.01 102.26 125.07 101.17 125.14C100.71 125.17 100.26 125.22 99.8 125.26C100.18 124.78 100.57 124.3 100.96 123.83C101.65 122.99 102.36 122.16 103.1 121.36C103.31 121.13 103.52 120.91 103.73 120.69C103.98 120.74 104.23 120.77 104.47 120.8C104.83 120.84 105.18 120.86 105.54 120.87C106.14 120.89 106.73 120.94 107.32 120.99C107.87 121.04 108.33 120.5 108.33 119.98C108.33 119.71 108.22 119.46 108.04 119.27C107.84 119.07 107.6 119 107.33 118.97C106.88 118.93 106.43 118.89 105.98 118.86C105.81 118.85 105.64 118.84 105.47 118.83C106.19 118.07 106.92 117.31 107.61 116.52C108.15 115.9 108.67 115.28 109.2 114.66C109.21 114.66 109.23 114.66 109.24 114.66C109.53 114.67 109.82 114.62 110.1 114.57C110.56 114.5 111.01 114.34 111.45 114.22C111.98 114.08 112.3 113.51 112.15 112.98C112.04 112.57 111.67 112.29 111.26 112.25C111.64 111.81 112.01 111.38 112.39 110.94C112.49 111 112.59 111.06 112.7 111.11C112.87 111.18 113.02 111.24 113.19 111.29C113.36 111.34 113.55 111.35 113.73 111.37C113.87 111.39 114.01 111.36 114.15 111.35C114.38 111.32 114.59 111.28 114.82 111.21C115.49 110.99 116.09 110.53 116.5 109.96C116.98 109.3 117.13 108.48 116.85 107.71C116.72 107.37 116.54 107.06 116.3 106.78C116.25 106.72 116.2 106.68 116.14 106.63C116.9 105.82 117.67 105.02 118.47 104.24C118.6 104.36 118.74 104.46 118.89 104.57C119.15 104.74 119.48 104.79 119.78 104.81C120.13 104.84 120.47 104.66 120.78 104.52C121.91 104.03 122.49 102.81 122.47 101.62C122.45 100.87 122.14 100.18 121.63 99.6301C121.23 99.2001 120.61 98.9701 120.06 98.8401C119.75 98.7701 119.43 98.7301 119.11 98.7301C118.13 98.7301 117.15 99.0801 116.57 99.9201C116.42 100.14 116.32 100.38 116.24 100.63C116.12 101.01 116.17 101.4 116.23 101.78C116.28 102.1 116.46 102.43 116.63 102.71C116.69 102.81 116.77 102.9 116.85 103C116.01 103.83 115.19 104.68 114.39 105.55C114.12 105.48 113.84 105.43 113.55 105.44C113.41 105.42 113.27 105.4 113.13 105.4C112.62 105.4 112.13 105.56 111.73 105.9C110.74 106.74 110.64 108.21 111.09 109.37C110.35 110.23 109.62 111.09 108.88 111.95C108.85 111.6 108.81 111.24 108.78 110.89C108.76 110.61 108.69 110.38 108.49 110.18C108.3 109.99 108.04 109.89 107.78 109.89C107.27 109.89 106.73 110.35 106.77 110.9C106.81 111.37 106.85 111.84 106.9 112.3C106.92 112.53 106.95 112.76 106.98 113C107 113.2 107.03 113.4 107.06 113.61C107.08 113.74 107.13 113.85 107.19 113.95C107.16 113.99 107.12 114.03 107.09 114.07C106.3 115 105.48 115.89 104.65 116.78C104.66 116.15 104.67 115.51 104.69 114.88C104.71 114.33 104.22 113.87 103.68 113.87C103.12 113.87 102.69 114.33 102.67 114.88C102.65 115.72 102.63 116.56 102.62 117.4C102.61 117.92 102.6 118.43 102.6 118.95C102.59 118.96 102.59 118.96 102.58 118.97C101.83 119.76 101.11 120.57 100.4 121.39C99.92 121.94 99.46 122.51 99 123.08C99 120.11 99 117.15 99.04 114.18C99.28 114.03 99.51 113.87 99.72 113.71C100.02 113.49 100.31 113.27 100.61 113.05C101.27 112.57 101.93 112.09 102.53 111.53C102.93 111.15 102.91 110.48 102.53 110.1C102.33 109.9 102.08 109.81 101.83 109.81C101.57 109.81 101.31 109.91 101.11 110.1C100.86 110.33 100.6 110.54 100.33 110.75C100.01 110.99 99.7 111.22 99.38 111.45C99.28 111.52 99.18 111.6 99.08 111.67C99.12 109.97 99.17 108.27 99.29 106.57C99.39 106.5 99.48 106.42 99.58 106.35C99.8 106.19 100.01 106.02 100.22 105.86C100.64 105.54 101.05 105.22 101.44 104.87C102.17 104.23 102.83 103.52 103.57 102.89C103.59 102.88 103.61 102.86 103.63 102.85C103.85 102.7 104.02 102.51 104.09 102.25C104.16 101.99 104.12 101.71 103.99 101.47C103.81 101.17 103.45 100.97 103.09 100.97C102.92 100.97 102.75 101.01 102.61 101.11C101.94 101.56 101.37 102.17 100.79 102.72C100.38 103.12 99.95 103.49 99.51 103.85C99.63 102.49 99.77 101.14 99.91 99.7801C100.42 99.6301 100.91 99.4401 101.38 99.2001C101.72 99.0301 102.05 98.7401 102.28 98.4401C102.41 98.2701 102.53 98.1001 102.62 97.9101C102.68 97.7701 102.74 97.6301 102.79 97.5001C102.86 97.3301 102.87 97.1201 102.89 96.9401C102.94 96.5101 102.92 96.0901 102.86 95.6601C102.83 95.4101 102.79 95.1701 102.74 94.9301C102.66 94.5701 102.5 94.2301 102.35 93.9001C102.05 93.2601 101.51 92.7701 100.95 92.3601C100.72 92.2001 100.47 92.0801 100.21 91.9701C99.9 91.8401 99.61 91.7401 99.28 91.6801C99.04 91.6401 98.8 91.6201 98.56 91.6201C98.13 91.6201 97.7 91.6901 97.28 91.8101C95.89 92.2101 94.92 93.3701 94.45 94.7101C94.21 95.4101 94.24 96.1701 94.35 96.8901C94.39 97.1501 94.47 97.3901 94.56 97.6401C94.64 97.8401 94.72 98.0101 94.83 98.1901C94.94 98.3601 95.09 98.5201 95.23 98.6801C95.42 98.8901 95.67 99.0601 95.9 99.2201C96.18 99.4101 96.54 99.5301 96.86 99.6201C97.07 99.6801 97.29 99.7201 97.5 99.7501C97.62 99.7801 97.74 99.8001 97.86 99.8101C97.69 101.38 97.52 102.95 97.38 104.52C97.04 104.27 96.71 104.01 96.38 103.76C95.59 103.17 94.8 102.6 93.99 102.05C93.54 101.74 92.87 101.96 92.61 102.41C92.47 102.64 92.44 102.93 92.51 103.19C92.58 103.46 92.75 103.64 92.97 103.79C93.82 104.36 94.65 104.97 95.46 105.58C95.83 105.86 96.19 106.15 96.57 106.41C96.75 106.54 96.94 106.66 97.13 106.77C97.16 106.79 97.19 106.8 97.22 106.82C97.12 108.66 97.05 110.5 97.02 112.34C96.79 112.21 96.57 112.07 96.35 111.93C95.93 111.67 95.54 111.38 95.15 111.09C94.86 110.86 94.58 110.64 94.29 110.4C94.07 110.22 93.87 110.11 93.58 110.11C93.31 110.11 93.05 110.22 92.87 110.4C92.68 110.59 92.58 110.85 92.58 111.11C92.58 111.35 92.68 111.66 92.87 111.82C93.55 112.37 94.23 112.94 94.96 113.42C95.26 113.62 95.58 113.81 95.89 114C96.24 114.2 96.6 114.44 96.99 114.57C96.96 117.92 96.95 121.27 96.95 124.62C96.69 124.38 96.42 124.14 96.17 123.9C95.38 123.14 94.62 122.35 93.84 121.57C93.11 120.83 92.38 120.09 91.66 119.33C91.39 119.04 91.12 118.75 90.85 118.46C90.85 118.44 90.86 118.42 90.86 118.4C90.94 117.9 90.96 117.39 90.99 116.88C91.03 116.09 91.08 115.31 91.14 114.53C91.18 113.98 90.65 113.52 90.13 113.52C89.86 113.52 89.61 113.63 89.42 113.81C89.22 114.01 89.14 114.25 89.12 114.52C89.08 115.08 89.04 115.65 89.01 116.21C89 116.31 89 116.42 88.99 116.52C87.66 115.19 86.31 113.87 84.93 112.59C84.95 112.44 84.97 112.29 84.98 112.15C85.01 111.76 85.04 111.38 85.07 110.99C85.13 110.24 85.18 109.5 85.22 108.75C85.25 108.2 84.74 107.74 84.21 107.74C83.64 107.74 83.23 108.2 83.2 108.75C83.16 109.46 83.12 110.16 83.06 110.87C82.86 110.69 82.66 110.5 82.46 110.32C82.11 109.99 81.78 109.63 81.44 109.29C81.2 109.05 80.97 108.81 80.74 108.56C80.8 108.43 80.86 108.31 80.91 108.18C81.05 107.81 81.09 107.38 81.07 106.99C81.05 106.72 81 106.53 80.9 106.29C80.79 106.05 80.64 105.83 80.47 105.63C80.32 105.45 80.18 105.27 79.99 105.12C79.6 104.8 79.16 104.64 78.65 104.64C78.63 104.64 78.61 104.64 78.59 104.64C78.19 104.65 77.81 104.76 77.45 104.93C76.76 104.15 76.09 103.38 75.42 102.59C75.48 102.47 75.54 102.34 75.59 102.2C75.61 102.06 75.63 101.92 75.65 101.79C75.65 101.62 75.6 101.45 75.54 101.29C75.46 101.07 75.36 100.86 75.26 100.65C75.13 100.39 74.93 100.16 74.72 99.9601C74.43 99.6901 74.08 99.5401 73.72 99.4001C73.47 99.3101 73.19 99.2901 72.93 99.2701C72.9 99.2701 72.88 99.2701 72.85 99.2701C72.5 99.2701 72.11 99.3901 71.8 99.5401C71.19 99.8401 70.77 100.39 70.53 101.01C70.31 101.58 70.2 102.22 70.28 102.82C70.29 102.96 70.31 103.1 70.35 103.23C70.39 103.4 70.48 103.56 70.55 103.72C70.61 103.86 70.75 104.05 70.85 104.14C70.98 104.27 71.13 104.38 71.28 104.48C71.4 104.54 71.52 104.59 71.65 104.64C71.82 104.67 72 104.7 72.18 104.7C72.59 104.71 72.99 104.57 73.35 104.41C73.6 104.3 73.82 104.17 74.03 104.01C74.61 104.69 75.2 105.37 75.79 106.04C75.73 106.12 75.67 106.2 75.62 106.28C75.31 106.74 75.21 107.31 75.15 107.85C75.12 108.08 75.16 108.34 75.2 108.56C75.23 108.7 75.26 108.83 75.3 108.96C75.36 109.12 75.43 109.28 75.49 109.44C75.57 109.55 75.66 109.66 75.75 109.76C75.84 109.87 76.01 109.97 76.12 110.04C76.92 110.6 78.03 110.47 78.9 110.17C79.05 110.12 79.18 110.04 79.32 109.97C79.58 110.23 79.83 110.5 80.09 110.77C80.43 111.11 80.76 111.47 81.11 111.79C81.22 111.9 81.34 112 81.45 112.11C80.7 112.19 79.95 112.26 79.19 112.34C78.91 112.37 78.68 112.43 78.48 112.63C78.29 112.82 78.19 113.08 78.19 113.34C78.19 113.61 78.3 113.87 78.48 114.05C78.65 114.22 78.94 114.37 79.19 114.35C80.01 114.27 80.84 114.18 81.66 114.1C82.24 114.04 82.82 113.97 83.4 113.91C83.53 114.03 83.65 114.14 83.78 114.26C84.51 114.94 85.23 115.63 85.94 116.33C86.4 116.78 86.86 117.23 87.32 117.69C87.31 117.69 87.3 117.69 87.29 117.69C86.38 117.71 85.47 117.71 84.56 117.72C84.01 117.73 83.55 118.17 83.55 118.73C83.55 119.27 84.01 119.75 84.56 119.74C86.11 119.72 87.66 119.72 89.21 119.65C89.67 120.14 90.12 120.62 90.59 121.1C91.4 121.94 92.22 122.77 93.04 123.6C93.7 124.27 94.38 124.93 95.06 125.59C94.93 125.6 94.79 125.61 94.66 125.61C92.82 125.71 90.98 125.79 89.14 125.87C89.12 125.8 89.1 125.73 89.06 125.66C88.83 125.23 88.41 125 88.02 124.74C87.73 124.56 87.46 124.36 87.18 124.16C86.52 123.69 85.86 123.21 85.19 122.75C85.04 122.65 84.88 122.61 84.71 122.61C84.35 122.61 83.99 122.81 83.81 123.11C83.68 123.34 83.64 123.63 83.71 123.89C83.78 124.16 83.95 124.34 84.17 124.49C84.76 124.89 85.33 125.3 85.91 125.71C86.06 125.82 86.22 125.92 86.37 126.02C84.78 126.16 83.2 126.35 81.61 126.46C81.49 126.47 81.38 126.48 81.26 126.48C80.79 126.1 80.32 125.74 79.84 125.38C79.18 124.88 78.49 124.41 77.78 123.97C77.63 123.88 77.45 123.83 77.28 123.83C76.93 123.83 76.58 124.01 76.39 124.33C76.11 124.81 76.29 125.42 76.75 125.71C77.25 126.02 77.73 126.35 78.2 126.68C76.86 126.78 75.52 126.88 74.19 126.99C74.11 126.76 74.02 126.53 73.92 126.31C73.64 125.71 73.16 125.23 72.64 124.84C72.48 124.72 72.3 124.64 72.12 124.56C71.89 124.46 71.67 124.36 71.43 124.29C71.24 124.23 71.03 124.21 70.83 124.21C70.76 124.21 70.7 124.21 70.63 124.22C70.22 124.25 69.87 124.38 69.5 124.54C69.21 124.66 68.97 124.88 68.73 125.07C68.48 125.26 68.26 125.5 68.08 125.76C67.8 126.19 67.63 126.68 67.52 127.19C67.41 127.7 67.34 128.21 67.37 128.72C67.4 129.44 67.62 130.17 68.01 130.77C68.33 131.26 68.8 131.62 69.28 131.92C69.61 132.13 70 132.3 70.38 132.43C70.6 132.5 70.86 132.54 71.09 132.56C71.38 132.59 71.67 132.54 71.95 132.48C72.08 132.46 72.2 132.42 72.33 132.38C72.74 132.25 73.08 132 73.4 131.73C73.57 131.59 73.71 131.37 73.84 131.2C73.9 131.11 73.97 131.02 74.02 130.93C74.15 130.7 74.25 130.46 74.33 130.21C74.45 129.88 74.46 129.49 74.47 129.14C74.47 129.09 74.47 129.03 74.47 128.98C76.3 128.82 78.13 128.68 79.96 128.57C79.91 128.69 79.87 128.81 79.82 128.94C79.68 129.28 79.53 129.61 79.36 129.94C79.14 130.35 78.86 130.76 78.71 131.2C78.53 131.72 78.91 132.3 79.41 132.44C79.94 132.58 80.42 132.29 80.62 131.81C80.78 131.52 80.95 131.24 81.1 130.96C81.27 130.63 81.42 130.29 81.57 129.95C81.74 129.56 81.9 129.16 82.04 128.76C82.08 128.65 82.11 128.54 82.14 128.43C82.69 128.39 83.25 128.34 83.8 128.28C84.56 128.21 85.33 128.13 86.1 128.06C85.77 128.62 85.42 129.17 85.04 129.7C84.72 130.15 84.96 130.82 85.4 131.08C85.63 131.22 85.92 131.25 86.18 131.18C86.45 131.1 86.63 130.94 86.78 130.72C87.23 130.08 87.64 129.41 88.05 128.74C88.21 128.47 88.37 128.19 88.52 127.92C90.17 127.84 91.81 127.77 93.46 127.68C94.02 127.65 94.57 127.61 95.13 127.58C94.78 127.98 94.43 128.39 94.08 128.79C93.36 129.59 92.56 130.32 91.8 131.08C91.04 131.84 90.3 132.62 89.58 133.41C89.26 133.76 88.93 134.11 88.61 134.46C88.42 134.45 88.23 134.45 88.04 134.45C87.97 134.45 87.9 134.45 87.83 134.45C87.17 134.46 86.51 134.48 85.84 134.52C85.29 134.55 84.83 134.96 84.83 135.53C84.83 136.06 85.29 136.57 85.84 136.54C86.14 136.52 86.44 136.52 86.74 136.51C86.27 137.03 85.8 137.55 85.34 138.07C85.32 138.06 85.31 138.06 85.29 138.05C84.4 137.68 83.51 137.32 82.62 136.97C82.54 136.94 82.46 136.93 82.37 136.93C82.18 136.93 81.98 136.99 81.84 137.07C81.61 137.2 81.45 137.42 81.38 137.67C81.31 137.93 81.35 138.21 81.48 138.45C81.62 138.69 81.83 138.81 82.08 138.91C82.71 139.16 83.34 139.42 83.97 139.68C83.92 139.74 83.87 139.8 83.82 139.85C83.44 140.27 83.05 140.68 82.65 141.09C82.57 141.05 82.49 141 82.41 140.97C82.13 140.86 81.83 140.8 81.54 140.8C81.15 140.8 80.76 140.9 80.43 141.13C80.08 141.31 79.76 141.58 79.5 141.86C79.03 142.38 78.66 143.1 78.64 143.81C78.62 144.21 78.68 144.59 78.82 144.96C78.84 145 78.86 145.04 78.88 145.08C78.3 145.51 77.73 145.96 77.18 146.43C76.72 146.82 76.26 147.22 75.81 147.63C75.62 147.53 75.4 147.45 75.19 147.42C75.14 147.39 75.1 147.36 75.05 147.33C74.62 147.06 74.11 146.92 73.6 146.92C73.33 146.92 73.06 146.96 72.8 147.05C71.27 147.57 70.86 149.56 71.38 150.92C71.63 151.59 72.11 152.13 72.69 152.55C73.4 153.05 74.27 153.25 75.13 153.11C75.48 153.05 75.82 152.93 76.12 152.74C76.45 152.53 76.71 152.21 76.9 151.88C77.09 151.56 77.19 151.18 77.24 150.82C77.27 150.61 77.29 150.42 77.29 150.21C77.29 149.95 77.23 149.68 77.17 149.43C77.15 149.35 77.11 149.27 77.08 149.18C77.5 148.79 77.93 148.41 78.37 148.04C78.93 147.56 79.5 147.11 80.08 146.66C80.13 146.63 80.17 146.59 80.22 146.56C80.49 146.72 80.8 146.84 81.1 146.93C81.43 147.02 81.83 147.04 82.17 146.96C82.34 146.92 82.53 146.86 82.68 146.77C82.85 146.67 83 146.55 83.16 146.43C83.44 146.21 83.65 145.88 83.84 145.58C84.03 145.28 84.15 144.92 84.24 144.57C84.34 144.16 84.34 143.75 84.28 143.33C84.24 143.05 84.15 142.8 84.04 142.56C84.53 142.04 85.02 141.52 85.49 140.98C85.52 141.22 85.54 141.47 85.57 141.72C85.61 142.11 85.65 142.53 85.75 142.91C85.9 143.44 86.46 143.76 86.99 143.61C87.52 143.46 87.84 142.9 87.69 142.37C87.65 142.23 87.63 142.08 87.6 141.94C87.55 141.54 87.51 141.15 87.47 140.75C87.44 140.44 87.39 140.14 87.31 139.84C87.25 139.62 87.14 139.42 87.01 139.23C87.3 138.9 87.58 138.57 87.87 138.24C88.16 137.92 88.45 137.61 88.73 137.3C88.76 137.74 88.8 138.18 88.83 138.63C88.85 138.9 88.93 139.14 89.12 139.34C89.31 139.53 89.57 139.64 89.83 139.64C90.35 139.64 90.88 139.18 90.84 138.63C90.8 138.08 90.75 137.52 90.72 136.97C90.7 136.65 90.68 136.34 90.65 136.02C90.63 135.79 90.59 135.55 90.51 135.34C91.05 134.74 91.6 134.14 92.16 133.56C92.96 132.74 93.76 131.95 94.58 131.15C95.36 130.39 96.08 129.56 96.79 128.72C96.82 128.68 96.86 128.64 96.89 128.6C96.89 129.98 96.89 131.37 96.88 132.75C96.88 133.57 96.88 134.39 96.88 135.21C96.79 135.29 96.69 135.36 96.6 135.44C96.32 135.66 96.05 135.89 95.79 136.13C95.47 136.41 95.19 136.73 94.9 137.04C94.26 137.73 93.63 138.44 93 139.14C92.63 139.55 92.6 140.16 93 140.57C93.38 140.94 94.06 140.98 94.43 140.57C95.08 139.85 95.73 139.13 96.39 138.41C96.55 138.24 96.72 138.08 96.88 137.92C96.88 138.36 96.88 138.8 96.88 139.25C96.87 140.23 96.86 141.21 96.82 142.18C96.8 142.61 96.78 143.04 96.75 143.47C96.75 143.47 96.75 143.47 96.74 143.47C96.6 143.58 96.46 143.69 96.32 143.8C96.04 144.02 95.76 144.25 95.51 144.51C94.85 145.16 94.24 145.84 93.63 146.53C93.27 146.94 93.22 147.55 93.63 147.96C94 148.33 94.69 148.37 95.06 147.96C95.58 147.38 96.1 146.79 96.65 146.24C96.63 146.88 96.61 147.53 96.6 148.17C96.59 148.65 96.58 149.14 96.58 149.62C96.57 150.11 96.59 150.61 96.57 151.1V151.11C96.08 151.37 95.59 151.64 95.15 151.98C94.89 152.18 94.65 152.38 94.44 152.63C94.17 152.94 93.99 153.27 93.84 153.65C93.3 154.98 93.42 156.56 94.25 157.75C94.66 158.34 95.23 158.76 95.9 159.01C96.55 159.25 97.25 159.31 97.93 159.29C98.24 159.28 98.55 159.23 98.85 159.17C99.2 159.1 99.52 158.97 99.84 158.83C100.15 158.69 100.42 158.47 100.67 158.24C100.92 158.01 101.12 157.71 101.29 157.42C101.59 156.91 101.76 156.31 101.86 155.73C101.93 155.33 101.97 154.92 101.97 154.51C101.97 153.9 101.81 153.33 101.55 152.78C101.4 152.47 101.16 152.16 100.94 151.9C100.62 151.51 100.26 151.17 99.83 150.9C99.59 150.75 99.31 150.65 99.04 150.57C98.92 150.54 98.77 150.52 98.63 150.52C98.61 150.52 98.6 150.52 98.58 150.52C98.58 150.25 98.58 149.98 98.58 149.72C98.59 149.2 98.59 148.68 98.6 148.16C98.62 147.32 98.63 146.47 98.66 145.63C99.43 146.35 100.14 147.14 100.86 147.9C101.24 148.3 101.91 148.28 102.29 147.9C102.69 147.51 102.67 146.87 102.29 146.47C101.78 145.94 101.28 145.39 100.77 144.87C100.47 144.57 100.17 144.27 99.86 143.99C99.69 143.84 99.53 143.69 99.36 143.55C99.18 143.4 99 143.26 98.79 143.15C98.81 142.71 98.84 142.27 98.85 141.83C98.88 140.74 98.89 139.64 98.9 138.55C98.9 138.25 98.9 137.95 98.9 137.65C99.46 138.17 100 138.71 100.49 139.3C100.65 139.5 100.96 139.59 101.2 139.59C101.47 139.59 101.73 139.49 101.91 139.3C102.1 139.11 102.2 138.85 102.2 138.59C102.2 138.3 102.08 138.09 101.91 137.88C101.4 137.26 100.82 136.67 100.22 136.12C99.81 135.74 99.39 135.38 98.9 135.1C98.9 134.07 98.9 133.04 98.9 132.01C98.9 131.03 98.9 130.05 98.9 129.06C99.29 129.42 99.67 129.78 100.06 130.15C100.91 130.95 101.77 131.74 102.64 132.53C103.4 133.22 104.14 133.93 104.9 134.63C104.96 134.68 105.01 134.73 105.07 134.78C105.04 135.04 105.01 135.3 105.01 135.56C105.01 135.97 105.01 136.38 105.04 136.79C105.06 137.2 105.11 137.61 105.15 138.02C105.23 138.82 105.4 139.6 105.53 140.39C105.57 140.64 105.78 140.87 105.99 140.99C106.22 141.13 106.51 141.16 106.77 141.09C107.02 141.02 107.24 140.85 107.37 140.63C107.52 140.38 107.52 140.13 107.47 139.85C107.36 139.21 107.24 138.58 107.15 137.93C107.1 137.46 107.06 136.99 107.04 136.51C107.15 136.6 107.25 136.7 107.36 136.79C108.49 137.76 109.59 138.76 110.69 139.76C110.69 139.8 110.7 139.83 110.7 139.87C110.78 140.64 110.81 141.42 110.84 142.19C110.87 143.05 110.95 143.9 111.07 144.76C111.11 145 111.33 145.25 111.53 145.36C111.76 145.5 112.05 145.53 112.31 145.46C112.56 145.39 112.78 145.22 112.91 145C113.06 144.74 113.05 144.51 113.01 144.22C113.01 144.19 113 144.16 113 144.13C112.91 143.39 112.87 142.64 112.84 141.89C112.84 141.84 112.83 141.78 112.83 141.73C113.27 142.14 113.72 142.54 114.15 142.96C114.73 143.52 115.3 144.11 115.88 144.68C115.71 144.94 115.58 145.22 115.52 145.52C115.42 145.97 115.51 146.44 115.7 146.85C115.99 147.46 116.49 147.96 117.08 148.3C117.36 148.47 117.7 148.57 118.02 148.63C118.46 148.71 118.87 148.68 119.31 148.6C119.64 148.54 119.97 148.38 120.27 148.22C120.35 148.18 120.43 148.11 120.51 148.06C121.15 148.76 121.8 149.46 122.47 150.13C122.21 150.82 122.14 151.57 122.43 152.26C122.57 152.62 122.77 152.92 123.04 153.19C123.31 153.46 123.66 153.62 124.01 153.73C124.34 153.83 124.71 153.83 125.05 153.79C125.43 153.75 125.79 153.66 126.15 153.52C126.43 153.41 126.7 153.28 126.95 153.1C127.13 152.97 127.28 152.83 127.41 152.67C128.49 151.73 128.78 150.01 127.88 148.84C127.71 148.59 127.45 148.36 127.13 148.16ZM119.23 101.16C119.21 101.16 119.19 101.17 119.17 101.17C119.19 101.17 119.21 101.16 119.23 101.16ZM119.08 101.26C119.08 101.26 119.09 101.27 119.08 101.26C119.09 101.27 119.08 101.27 119.08 101.26ZM114.29 108.53C114.28 108.53 114.28 108.53 114.29 108.53C114.28 108.53 114.28 108.53 114.29 108.53C114.28 108.53 114.28 108.53 114.29 108.53ZM74.66 150C74.66 150.01 74.67 150.01 74.67 150.02C74.67 150.01 74.67 150.01 74.66 150ZM81.37 143.62C81.38 143.62 81.4 143.62 81.41 143.62C81.4 143.62 81.39 143.62 81.37 143.62Z" fill="white"/>
        <path d="M72.51 145.51C64.2401 145.69 55.9801 146.31 47.7101 145.61C46.9201 145.54 46.1101 145.44 45.3501 145.21C43.9501 144.79 43.2601 143.92 43.5001 142.32C44.3801 136.26 47.1101 130.9 49.7301 125.5C54.5601 115.57 60.5501 106.28 65.7301 96.5401C69.0101 90.3801 72.5501 84.2801 73.5901 77.2301C74.3701 71.9301 74.3801 66.5601 71.5301 61.8001C69.6801 58.7101 67.8601 58.2201 65.0801 59.4901C63.4601 60.2301 61.8701 61.0001 60.3301 61.9001C55.8601 64.5001 53.7601 68.4801 53.2801 73.4901C53.2201 74.1101 53.5101 75.0101 52.2601 74.8701C51.2601 74.7601 50.1901 75.0301 50.1401 73.4401C49.9801 68.1601 52.1301 63.8501 55.7401 60.1901C61.5001 54.3401 69.6201 52.3401 76.3901 55.7301C82.8901 58.9901 86.16 64.8101 87.15 71.9501C88.1 78.8701 86.1301 85.2401 83.6301 91.5501C78.8601 103.59 71.8601 114.37 64.8001 125.12C61.5101 130.13 58.5701 135.38 54.5401 139.89C54.4001 140.04 54.3501 140.27 54.2601 140.46C54.5401 140.53 54.8301 140.66 55.1101 140.66C62.9901 140.7 70.8601 140.72 78.7401 140.74C82.8001 140.75 86.81 141.3 90.84 141.76C91.97 141.89 92.51 141.57 92.52 140.39C92.53 139.41 92.62 138.43 92.75 137.47C92.8801 136.49 92.77 135.08 93.84 134.84C95.44 134.47 97.05 135.14 97.48 136.87C98.07 139.27 98.37 141.75 98.67 144.21C98.78 145.15 97.85 145.24 97.16 145.38C93.71 146.11 90.25 145.6 86.79 145.54C82.02 145.44 77.2701 145.51 72.51 145.51Z" fill="#2E8287"/>
        <path d="M124.75 112.66C125.26 100.46 125.25 86.7501 126.26 73.0801C126.28 72.8601 126.47 72.4501 126.08 72.4601C125.89 72.4601 125.68 72.8801 125.53 73.1401C121.91 79.6801 117.91 85.9901 113.72 92.1801C111.33 95.7101 108.93 99.2401 106.12 102.46C105.71 102.93 105.31 103.42 104.64 103.52C104.01 103.62 103.33 103.65 102.89 103.19C102.46 102.74 102.84 102.16 103.06 101.7C105.44 96.6101 108.46 91.8901 111.41 87.1301C116.91 78.2401 122.47 69.3901 127.34 60.1301C127.65 59.5401 127.81 58.8801 128.11 58.2801C128.52 57.4701 128.55 55.8301 129.3 55.9501C130.88 56.2101 132.67 55.7501 133.99 57.5601C136.53 61.0301 136.69 64.9901 136.76 68.9001C137.07 85.6301 136.35 102.35 135.96 119.07C135.81 125.69 135.76 132.33 135.12 138.93C134.98 140.36 135.94 140.16 136.71 140.2C141.02 140.42 145.35 140.75 149.56 141.67C151.89 142.18 154.57 142.26 156.19 144.62C156.71 145.38 156.66 145.54 155.79 145.66C151.83 146.2 147.88 145.82 143.97 145.32C133.23 143.93 122.5 144.19 111.74 145.06C110.19 145.18 108.62 145.11 107.07 145.03C106.41 144.99 105.34 145.17 105.23 144.38C105.1 143.46 106.19 143.35 106.89 143.2C110.32 142.47 113.75 141.76 117.19 141.11C119.33 140.71 121.49 140.39 123.65 140.14C124.72 140.02 125.02 139.63 124.97 138.54C124.64 130.43 124.61 122.29 124.75 112.66Z" fill="#2E8287"/>
    </g>
    <defs>
        <clipPath id="clip0_30_8425">
            <rect width="200" height="200" fill="white"/>
        </clipPath>
    </defs>
</svg>
