<svg width="200" height="200" viewBox="0 0 200 200" fill="none" xmlns="http://www.w3.org/2000/svg">
    <g clip-path="url(#clip0_30_4104)">
        <path d="M200 0H-0.00012207V200H200V0Z" fill="white"/>
        <path d="M122.63 25.7702L119.16 25.3802L116.42 25.0702C116.47 24.5802 116.52 23.8802 116.52 23.0402C116.52 22.2502 116.48 21.3502 116.37 20.4202C116.24 19.3002 116.02 18.1502 115.66 17.0902C115.42 16.3802 115.11 15.7102 114.73 15.1402C114.55 14.8702 114.36 14.6302 114.15 14.4002C114.13 14.3802 114.11 14.3502 114.09 14.3302C113.36 13.5702 112.46 13.1402 111.31 13.0002C111.18 12.9802 111.05 12.9702 110.92 12.9602C110.75 12.9502 110.57 12.9402 110.39 12.9502C110.3 12.9502 110.22 12.9502 110.13 12.9502C109.8 12.9602 108.73 13.7102 107.58 16.8802C107.52 17.0402 107.46 17.2002 107.41 17.3802C107.11 18.2602 106.84 19.2402 106.58 20.3202C106.18 21.9802 105.83 23.8602 105.53 25.9702C105.32 27.4602 105.12 29.0602 104.96 30.7802C104.89 31.4902 104.83 32.2002 104.77 32.9002C104.6 35.0402 104.48 37.1402 104.39 39.1202C104.29 41.3302 104.24 43.3902 104.22 45.1402C104.17 48.5602 104.22 50.8302 104.22 50.8802L103.14 50.9102L97.97 51.0302C97.97 50.8602 97.93 49.2202 97.94 46.6502V46.5302C97.95 44.8702 97.98 42.8502 98.06 40.6002C98.13 38.6102 98.23 36.4602 98.39 34.2302C98.48 32.9202 98.59 31.5702 98.72 30.2302C98.77 29.6702 98.83 29.1202 98.89 28.5702C99.18 25.9502 99.53 23.5602 99.95 21.4202C100.31 19.5302 100.72 17.8402 101.18 16.3402C101.28 16.0202 101.38 15.7102 101.48 15.4102C102.47 12.4802 103.71 10.2802 105.19 8.83021C106.15 7.89021 107.21 7.26021 108.36 6.95021C108.86 6.82021 109.37 6.74023 109.9 6.72023C112.89 6.61023 115.51 7.43022 117.58 9.09022C117.99 9.42022 118.38 9.78025 118.75 10.1802C119.27 10.7502 119.73 11.3602 120.13 12.0002C121.4 14.0402 122.08 16.4002 122.43 18.5802C122.6 19.6602 122.7 20.7002 122.74 21.6302C122.83 23.7502 122.67 25.3702 122.63 25.7702Z" fill="#BE443E"/>
        <path d="M104.21 50.8701L103.13 50.9001L97.9399 46.6501V46.5301L98.0599 40.6001L104.2 45.1401C104.15 48.5501 104.2 50.8201 104.21 50.8701Z" fill="#D3B77B"/>
        <path d="M104.37 39.1103L98.3899 34.2103C98.4799 32.9003 98.5899 31.5503 98.7199 30.2103C98.7699 29.6503 98.8299 29.1003 98.8899 28.5503L104.75 32.8903C104.58 35.0203 104.46 37.1303 104.37 39.1103Z" fill="#D3B77B"/>
        <path d="M105.51 25.9603L99.9399 21.4003C100.3 19.5103 100.71 17.8203 101.17 16.3203L106.56 20.3004C106.17 21.9704 105.82 23.8503 105.51 25.9603Z" fill="#D3B77B"/>
        <path d="M110.38 12.9401C110.29 12.9401 110.21 12.9401 110.12 12.9401C109.79 12.9501 108.72 13.7002 107.57 16.8702L105.18 8.81012C106.14 7.87012 107.2 7.24018 108.35 6.93018L110.38 12.9401Z" fill="#D3B77B"/>
        <path d="M120.13 11.9803L114.74 15.1303C114.56 14.8603 114.37 14.6203 114.16 14.3903C114.14 14.3703 114.12 14.3403 114.1 14.3203C113.37 13.5603 112.47 13.1304 111.32 12.9904C111.19 12.9704 111.06 12.9603 110.93 12.9503L117.59 9.07031C118 9.40031 118.39 9.76034 118.76 10.1603C119.27 10.7203 119.73 11.3303 120.13 11.9803Z" fill="#D3B77B"/>
        <path d="M122.74 21.6104L116.38 20.4203C116.25 19.3003 116.03 18.1503 115.67 17.0903L122.43 18.5603C122.6 19.6303 122.69 20.6704 122.74 21.6104Z" fill="#D3B77B"/>
        <path d="M119.16 25.3703L116.42 25.0602C116.47 24.5702 116.52 23.8703 116.52 23.0303L119.16 25.3703Z" fill="#D3B77B"/>
        <path d="M28.8499 62.7501C30.214 62.7501 31.3199 60.9324 31.3199 58.6901C31.3199 56.4478 30.214 54.6301 28.8499 54.6301C27.4857 54.6301 26.3799 56.4478 26.3799 58.6901C26.3799 60.9324 27.4857 62.7501 28.8499 62.7501Z" fill="#D3B77B"/>
        <path d="M28.8499 23.7703C18.4499 23.7703 19.1399 53.2303 13.0499 53.2303C13.0499 53.2303 19.4799 58.3003 28.8499 58.2203C38.2099 58.3003 44.6499 53.2303 44.6499 53.2303C38.5599 53.2303 41.3599 23.7703 28.8499 23.7703Z" fill="#D3B77B"/>
        <path d="M28.2099 22.0503C28.2099 22.0503 22.2299 23.8603 19.4099 28.4203C16.5799 32.9903 13.9099 38.6003 10.7699 38.6103C7.6299 38.6203 10.7299 38.7803 10.7299 38.7803C10.7299 38.7803 14.5299 39.4503 17.1799 37.0503C17.1799 37.0503 16.5599 39.6503 14.0399 41.4303C14.0399 41.4303 19.4599 42.7103 23.7999 33.9503C28.1399 25.1903 28.8599 23.7703 28.8599 23.7703L28.2099 22.0503Z" fill="#BE443E"/>
        <path d="M28.8499 22.5404C28.8499 22.5404 35.0099 21.8403 41.6399 28.0803C48.2799 34.3203 51.5899 32.4003 51.5899 32.4003C51.5899 32.4003 48.2899 35.4004 44.9899 33.9904C44.9899 33.9904 48.2099 36.9703 51.0698 37.1303C51.0698 37.1303 45.2498 41.5903 40.2198 35.7703C35.1898 29.9403 29.0298 23.9503 29.0298 23.9503L28.8499 22.5404Z" fill="#BE443E"/>
        <path opacity="0.2" d="M27.7999 23.1202C26.3099 23.0602 25.2199 24.3302 24.3799 25.4002C23.2899 26.7902 22.4799 28.3602 21.4999 29.8202C21.2299 30.2102 21.8699 30.5802 22.1399 30.1902C22.8499 29.1302 23.4799 28.0202 24.1899 26.9502C24.8799 25.9002 26.0099 24.1502 27.3999 23.8902C26.7199 24.2702 26.3799 24.9702 25.9699 25.6502C25.2699 26.8002 24.6099 27.9602 23.9799 29.1402C23.7599 29.5602 24.3899 29.9302 24.6199 29.5102C25.0699 28.6702 25.5399 27.8302 26.0199 27.0002C26.4399 26.2802 27.0099 24.8202 27.8299 24.4802C28.1199 24.3602 28.1299 23.9902 27.9699 23.8302C28.2699 23.7102 28.2199 23.1402 27.7999 23.1202Z" fill="#2D2F33"/>
        <path opacity="0.2" d="M37.0499 27.5001C35.1399 25.5501 32.3599 22.5301 29.3699 22.7501C29.0499 22.7701 28.9499 23.1202 29.0599 23.3302C28.8999 23.4802 28.8599 23.7702 29.1099 23.9102C30.5299 24.6702 31.6999 25.7202 32.8499 26.8202C33.1899 27.1502 33.7199 26.6302 33.3699 26.3002C32.2699 25.2502 31.1499 24.2502 29.8399 23.4802C32.4199 23.6202 34.8599 26.3102 36.5199 28.0202C36.8599 28.3702 37.3899 27.8501 37.0499 27.5001Z" fill="#2D2F33"/>
        <path d="M28.2099 19.9403L27.8399 22.3803C27.8399 22.3803 27.2299 22.7103 26.2399 23.2303C23.4099 24.6903 17.4299 27.5703 13.4699 28.1503C13.0699 28.2103 12.6899 28.2503 12.3399 28.2503C7.25995 28.3703 5.01994 12.5003 13.6099 10.7903C22.2099 9.08032 28.2099 19.9403 28.2099 19.9403Z" fill="#BE443E"/>
        <path d="M44.9899 23.2502C44.2299 23.9302 43.3699 24.3202 42.4399 24.2802C37.2799 24.0402 30.7099 23.5102 29.3199 23.3902C29.1499 23.3802 29.0499 23.3703 29.0499 23.3703L29.3399 20.2303C29.3399 20.2303 34.9999 7.62023 43.2299 7.83023C50.1299 8.00023 48.9699 19.6702 44.9899 23.2502Z" fill="#BE443E"/>
        <path opacity="0.2" d="M35 14.9304C32.81 16.4204 31.05 18.3603 29.81 20.6903C29.66 20.9703 29.89 21.2204 30.13 21.2404C30.05 21.3304 29.98 21.4203 29.92 21.5203C29.67 21.9303 30.31 22.3003 30.56 21.8903C30.86 21.3903 31.37 21.2603 31.89 21.0803C32.35 20.9203 32.81 20.7504 33.27 20.5904C33.71 20.4304 33.52 19.7203 33.07 19.8803C32.29 20.1603 31.29 20.3604 30.57 20.8604C31.75 18.7304 33.36 16.9403 35.38 15.5603C35.76 15.3003 35.39 14.6604 35 14.9304Z" fill="#2D2F33"/>
        <path opacity="0.2" d="M27.52 21.2402C27.19 20.0302 25.97 19.0301 25 18.3201C23.76 17.4201 22.36 16.9101 20.82 16.9001C20.34 16.9001 20.34 17.6301 20.82 17.6401C22.08 17.6501 23.23 18.0201 24.28 18.7101C25.07 19.2301 26.17 20.0801 26.64 21.0001C25.22 20.7401 23.79 20.5702 22.35 20.4902C21.88 20.4602 21.88 21.2002 22.35 21.2302C23.79 21.3202 25.22 21.4901 26.64 21.7501C26.78 21.7801 26.89 21.7301 26.97 21.6501C27.21 21.8001 27.62 21.6002 27.52 21.2402Z" fill="#2D2F33"/>
        <path opacity="0.2" d="M26.24 23.2202C23.41 24.6802 17.43 27.5601 13.47 28.1401C14.35 26.6301 16.44 23.7002 19.38 23.1202C21.75 22.6502 24.57 22.9602 26.24 23.2202Z" fill="#2D2F33"/>
        <path opacity="0.2" d="M44.99 23.2503C44.23 23.9303 43.3699 24.3203 42.4399 24.2803C37.2799 24.0403 30.7099 23.5103 29.3199 23.3903C30.3599 22.4703 32.64 21.1403 37.17 20.9503C42.0399 20.7503 44.15 22.2903 44.99 23.2503Z" fill="#2D2F33"/>
        <path d="M29.8799 18.9902C29.3099 18.7202 28.7399 18.7302 28.3199 19.0202C28.1799 18.9802 28.0099 19.0102 27.9199 19.1802C27.2399 20.3702 26.6899 21.9002 26.8799 23.3002C27.0199 24.3102 27.9799 24.9002 28.9899 24.6002C30.0199 24.2902 30.3999 22.8202 30.5599 21.9002C30.7199 20.9902 30.8999 19.4802 29.8799 18.9902Z" fill="#BE443E"/>
        <path d="M35.9299 46.1803C35.9199 46.3003 35.9099 46.4203 35.8799 46.5303C35.8199 46.7403 35.6999 46.9302 35.5299 47.0602C35.4099 47.1502 35.2999 47.2303 35.1699 47.2903C35.0799 47.3303 34.9799 47.3602 34.8799 47.3802C34.7099 47.4102 34.5399 47.4503 34.3599 47.4303C34.1599 47.4103 33.9499 47.3702 33.7799 47.2502C33.6899 47.1902 33.5999 47.1203 33.5199 47.0503C33.2499 46.8103 33.1399 46.4302 33.1299 46.0702C32.9299 46.0602 32.7299 46.0503 32.5399 46.0503C32.2899 46.0503 32.0499 46.0502 31.7999 46.0602C31.5399 46.0702 31.2699 46.0702 31.0099 46.0702C30.7599 46.0602 30.5099 46.0603 30.2599 46.0403C30.4399 46.3103 30.6299 46.5803 30.8199 46.8403C31.0999 47.2003 31.3899 47.5503 31.6699 47.9103C31.8299 48.1103 31.9899 48.3203 32.1599 48.5203C32.2299 48.6003 32.2999 48.6803 32.3699 48.7603C32.4399 48.8303 32.5099 48.9103 32.5799 48.9803C32.7699 48.9003 32.9599 48.8202 33.1699 48.8102C33.1999 48.8102 33.2299 48.8003 33.2599 48.8003C33.3999 48.8003 33.5299 48.8202 33.6499 48.8802C33.7499 48.9302 33.8599 49.0003 33.9299 49.0903C34.0199 49.2103 34.0999 49.3303 34.1499 49.4703C34.1899 49.5903 34.2099 49.7103 34.2199 49.8303C34.2299 49.9803 34.2199 50.1503 34.1699 50.2903C34.1199 50.4303 34.0499 50.5802 33.9399 50.6902C33.8199 50.8102 33.6799 50.9103 33.5199 50.9703C33.3799 51.0203 33.2299 51.0303 33.0799 51.0203C32.8099 51.0003 32.5299 50.9003 32.3299 50.7203C32.0999 50.5103 31.9699 50.2103 32.0299 49.9003C32.0399 49.8503 32.0499 49.8002 32.0699 49.7502C32.0999 49.6802 32.1299 49.6003 32.1699 49.5303C32.1799 49.5203 32.1799 49.5203 32.1799 49.5103C32.1399 49.4803 32.0999 49.4403 32.0599 49.4003C32.0199 49.3603 31.9799 49.3203 31.9399 49.2803C31.8699 49.2003 31.7999 49.1203 31.7299 49.0403C31.5899 48.8703 31.4499 48.7103 31.3099 48.5303C31.0899 48.2403 30.8599 47.9603 30.6399 47.6803C30.4199 47.4103 30.1999 47.1303 29.9999 46.8403C29.9899 47.0603 29.9899 47.2703 29.9799 47.4803C29.9699 47.8503 29.9699 48.2103 29.9599 48.5803C29.9499 48.9203 29.9399 49.2703 29.9399 49.6103C29.9399 49.8603 29.9399 50.1103 29.9299 50.3603C29.9499 50.3603 29.9599 50.3603 29.9799 50.3603C30.0599 50.3703 30.1499 50.3703 30.2299 50.4003C30.3299 50.4403 30.4299 50.4802 30.5199 50.5602C30.5799 50.6202 30.6399 50.6803 30.6799 50.7603C30.7299 50.8503 30.7699 50.9503 30.7999 51.0403C30.8299 51.1503 30.8399 51.2702 30.8599 51.3802C30.8799 51.5402 30.8599 51.7202 30.8099 51.8802C30.7599 52.0502 30.6799 52.2502 30.5399 52.3802C30.2999 52.6102 29.9599 52.7303 29.6299 52.7403C29.4799 52.7403 29.3199 52.7302 29.1699 52.6902C29.0199 52.6502 28.8499 52.6103 28.7199 52.5203C28.6399 52.4703 28.5599 52.4003 28.4999 52.3303C28.4399 52.2703 28.3999 52.2003 28.3599 52.1203C28.2799 51.9703 28.2299 51.7803 28.2499 51.6003C28.2899 51.2803 28.4599 50.9803 28.7099 50.7803C28.8399 50.6803 28.9599 50.5903 29.1099 50.5303C29.1599 50.5103 29.2099 50.4903 29.2599 50.4703C29.2699 50.2003 29.2699 49.9303 29.2699 49.6603C29.2799 49.3003 29.2899 48.9503 29.2899 48.5903C29.2899 48.2403 29.2999 47.8903 29.3099 47.5303C29.3199 47.0803 29.3299 46.6302 29.3399 46.1902C29.2399 46.2902 29.1399 46.3903 29.0399 46.4903C28.7799 46.7503 28.5399 47.0203 28.2899 47.2903C28.0699 47.5403 27.8399 47.7803 27.6099 48.0103C27.3499 48.2703 27.0799 48.5203 26.8199 48.7803C26.5699 49.0303 26.3199 49.2803 26.0799 49.5303C26.0899 49.5503 26.0999 49.5703 26.1099 49.6003C26.1599 49.7303 26.1699 49.8702 26.1599 50.0002C26.1399 50.1802 26.0999 50.3603 26.0099 50.5203C25.9699 50.6003 25.9199 50.6703 25.8499 50.7303C25.7799 50.7903 25.6899 50.8403 25.5999 50.8703C25.4799 50.9103 25.3499 50.9203 25.2199 50.9103C25.0599 50.8903 24.8799 50.8503 24.7399 50.7603C24.6399 50.6903 24.5299 50.6203 24.4499 50.5203C24.3599 50.4003 24.2799 50.2803 24.2299 50.1403C24.1899 50.0103 24.1699 49.8703 24.1799 49.7403C24.1999 49.4903 24.2599 49.2403 24.4099 49.0403C24.5099 48.9003 24.6499 48.7803 24.8199 48.7403C24.8899 48.7303 24.9599 48.7203 25.0299 48.7203C25.0999 48.7203 25.1799 48.7303 25.2499 48.7603C25.3899 48.8103 25.5299 48.8703 25.6299 48.9803C25.6399 48.9903 25.6499 49.0103 25.6699 49.0203C25.9099 48.7703 26.1599 48.5203 26.3999 48.2803C26.6499 48.0303 26.9199 47.7903 27.1599 47.5403C27.6599 47.0303 28.1399 46.4903 28.6399 45.9703C28.4599 45.9603 28.2799 45.9503 28.0899 45.9303C27.3399 45.8703 26.5899 45.7003 25.8599 45.5103C25.8499 45.5103 25.8499 45.5102 25.8499 45.5002L25.8399 45.5103C25.7999 45.7103 25.7299 45.9003 25.5699 46.0503C25.4499 46.1703 25.2899 46.2702 25.1199 46.3102C25.0499 46.3302 24.9699 46.3403 24.8899 46.3403C24.8199 46.3403 24.7499 46.3303 24.6799 46.3303C24.3399 46.2803 24.0299 46.0902 23.8299 45.8102C23.6399 45.5302 23.5299 45.1703 23.5799 44.8303C23.6199 44.4903 23.7599 44.1503 24.0199 43.9003C24.0899 43.8403 24.1599 43.7703 24.2399 43.7303C24.3299 43.6803 24.4299 43.6403 24.5299 43.6203C24.5899 43.6103 24.6499 43.6003 24.7199 43.6003C24.8299 43.6003 24.9499 43.6203 25.0499 43.6603C25.2299 43.7303 25.3899 43.8103 25.5299 43.9503C25.6299 44.0503 25.7099 44.1603 25.7799 44.2803C25.8499 44.4203 25.9199 44.5703 25.9499 44.7303C25.9599 44.7803 25.9599 44.8203 25.9699 44.8703C25.9999 44.8703 26.0299 44.8702 26.0499 44.8802C26.3899 44.9602 26.7199 45.0403 27.0599 45.1103C27.3199 45.1603 27.5699 45.2003 27.8299 45.2403C28.2099 45.2803 28.5999 45.3103 28.9899 45.3303C28.9299 45.2403 28.8699 45.1403 28.8099 45.0403C28.4199 44.4403 28.0499 43.8303 27.6699 43.2203C27.4899 42.9203 27.2999 42.6203 27.0899 42.3403C26.8699 42.0303 26.6399 41.7203 26.4299 41.4003C26.4099 41.4103 26.3799 41.4203 26.3599 41.4203C26.2199 41.4503 26.0799 41.4303 25.9499 41.3703C25.8599 41.3203 25.7799 41.2503 25.7099 41.1803C25.6199 41.0803 25.5699 40.9703 25.5399 40.8403C25.4699 40.6003 25.4699 40.3203 25.5599 40.0903C25.6099 39.9703 25.6599 39.8603 25.7399 39.7603C25.8199 39.6503 25.9199 39.5602 26.0499 39.5002C26.1599 39.4502 26.2699 39.4203 26.3899 39.4203C26.4099 39.4203 26.4299 39.4203 26.4499 39.4203C26.5699 39.4303 26.7099 39.4603 26.8099 39.5303C26.9999 39.6603 27.1599 39.8503 27.2199 40.0703C27.2799 40.3003 27.2399 40.5703 27.1199 40.7803C27.0699 40.8603 27.0199 40.9302 26.9499 41.0002C26.9599 41.0102 26.9699 41.0203 26.9799 41.0303C27.2399 41.4203 27.5199 41.8002 27.7899 42.1902C28.0499 42.5602 28.2799 42.9503 28.5099 43.3303C28.7899 43.7903 29.0799 44.2503 29.3799 44.7003C29.3799 44.5803 29.3899 44.4503 29.3899 44.3303C29.4099 43.9803 29.4399 43.6203 29.4699 43.2703C29.5199 42.5703 29.5799 41.8803 29.6299 41.1803C29.5999 41.1703 29.5699 41.1502 29.5499 41.1302C29.4099 40.9902 29.2699 40.8303 29.1499 40.6603C29.0499 40.5203 28.9699 40.3603 28.9099 40.2003C28.8799 40.1303 28.8599 40.0503 28.8499 39.9803C28.8299 39.8803 28.8399 39.8003 28.8499 39.7003C28.8699 39.5303 28.9499 39.3803 29.0599 39.2403C29.1499 39.1203 29.2799 39.0103 29.4099 38.9503C29.5599 38.8803 29.6999 38.8303 29.8599 38.8003C29.9299 38.7903 30.0099 38.7803 30.0799 38.7803C30.1499 38.7803 30.2199 38.7903 30.2999 38.7903C30.4699 38.8103 30.6299 38.8403 30.7799 38.9203C30.9299 39.0003 31.0699 39.1303 31.1599 39.2803C31.2599 39.4503 31.3199 39.6303 31.3399 39.8303C31.3599 39.9703 31.3599 40.1403 31.3099 40.2803C31.2599 40.4403 31.1799 40.5903 31.0799 40.7203C30.9699 40.8703 30.8299 40.9903 30.6599 41.0703C30.5399 41.1303 30.4099 41.1702 30.2799 41.1902C30.2599 41.5202 30.2299 41.8403 30.2099 42.1703C30.1799 42.5303 30.1499 42.9003 30.1199 43.2603C30.0899 43.6103 30.0599 43.9703 30.0399 44.3203C30.0399 44.4202 30.0399 44.5203 30.0299 44.6203C30.0699 44.5803 30.1099 44.5402 30.1599 44.5002C30.6799 44.0302 31.1999 43.5503 31.6999 43.0503C31.9499 42.8003 32.1799 42.5403 32.4399 42.3003C32.5799 42.1703 32.7199 42.0403 32.8599 41.9203C32.9599 41.8303 33.0599 41.7503 33.1599 41.6703C33.1499 41.6203 33.1399 41.5703 33.1299 41.5203C33.0999 41.3603 33.0899 41.2103 33.1199 41.0503C33.1299 40.9803 33.1499 40.9103 33.1899 40.8403C33.1999 40.8003 33.2199 40.7603 33.2499 40.7303C33.3399 40.6103 33.4399 40.5003 33.5699 40.4303C33.6899 40.3703 33.8099 40.3203 33.9399 40.3003C34.0099 40.2903 34.0799 40.2803 34.1599 40.2803C34.2299 40.2803 34.2999 40.2902 34.3599 40.3102C34.4899 40.3502 34.6399 40.4203 34.7299 40.5203C34.8399 40.6403 34.9299 40.7802 34.9799 40.9402C35.0199 41.0802 35.0499 41.2402 35.0499 41.3802C35.0499 41.5402 35.0199 41.7003 34.9499 41.8403C34.9099 41.9103 34.8699 41.9703 34.8199 42.0303C34.7899 42.0603 34.7599 42.1002 34.7299 42.1302C34.6799 42.1702 34.6199 42.2203 34.5599 42.2603C34.4999 42.2903 34.4299 42.3203 34.3599 42.3503C34.2599 42.3903 34.1599 42.4203 34.0499 42.4203C33.9199 42.4303 33.7799 42.4103 33.6699 42.3503C33.6099 42.3203 33.5699 42.2803 33.5199 42.2403C33.3099 42.4103 33.0999 42.5903 32.9099 42.7803C32.6399 43.0503 32.3699 43.3203 32.0999 43.6003C31.5999 44.1003 31.0699 44.5703 30.5499 45.0503C30.4299 45.1603 30.3099 45.2803 30.1899 45.3903C30.5399 45.4103 30.8799 45.4303 31.2299 45.4203C31.5799 45.4203 31.9199 45.4003 32.2699 45.4003C32.4499 45.4003 32.6399 45.4003 32.8199 45.4003C32.9899 45.4003 33.1599 45.4203 33.3199 45.4303C33.3499 45.3503 33.3899 45.2703 33.4399 45.2003C33.5599 45.0203 33.6999 44.8503 33.8699 44.7103C33.9799 44.6203 34.1099 44.5303 34.2499 44.4903C34.3399 44.4603 34.4499 44.4402 34.5499 44.4402H34.5899C34.8099 44.4602 35.0299 44.5103 35.2099 44.6403C35.3999 44.7803 35.5799 44.9503 35.6899 45.1603C35.8099 45.3903 35.8699 45.6203 35.8999 45.8703C35.9299 45.9803 35.9399 46.0803 35.9299 46.1803Z" fill="white"/>
        <path d="M3.14998 98.1501C3.79998 101.52 5.73998 103.37 7.83998 104.39L9.94996 105.15C12.39 105.77 14.52 105.54 14.52 105.54C14.52 105.54 10.74 115.64 10.65 123.11C10.64 123.76 10.66 124.39 10.71 124.99C10.99 128.21 12.22 130.63 15.14 130.94C18.61 131.31 20.88 129.46 22.36 126.93C22.66 126.41 22.93 125.87 23.17 125.31C25.07 120.9 25.1599 115.53 25.1599 115.53C25.1599 115.53 25.81 122.39 28.18 127.39C28.43 127.91 28.69 128.41 28.98 128.88C30.45 131.3 32.45 132.93 35.14 132.4C38.07 131.83 39.3499 129.42 39.6599 126.22C39.7099 125.71 39.73 125.19 39.74 124.65C39.8 116.1 34.52 103.66 34.52 103.66C34.52 103.66 38.87 104.31 42.37 102.97C42.74 102.83 43.0999 102.67 43.4399 102.48C45.3099 101.46 46.72 99.6901 46.68 96.6901C46.63 93.2201 44.4899 91.4802 41.7599 90.6702C41.2899 90.5302 40.8 90.4201 40.3 90.3301C35.68 89.5101 30.26 90.7302 30.26 90.7302C30.7 90.4102 33.5099 87.2601 32.9699 82.1301C32.3999 76.6601 28.69 71.7701 22.61 71.8301C16 71.9101 12.14 76.9002 12.45 82.2302C12.51 86.9702 16.43 90.4601 16.43 90.4601C16.43 90.4601 12.5499 90.2601 8.96995 91.1901C8.35995 91.3501 7.76996 91.5301 7.19996 91.7601C4.52996 92.8401 2.48998 94.7501 3.14998 98.1501Z" fill="#D3B77B"/>
        <path d="M28.1899 127.39C28.4399 127.91 28.7 128.41 28.99 128.88C30.18 127.92 33.9 125.45 39.6699 126.22C39.7199 125.71 39.7399 125.19 39.7499 124.65C37.1799 124.08 32.7599 123.91 28.1899 127.39Z" fill="white"/>
        <path d="M10.7099 124.99C12.0299 124.52 16.4299 123.43 22.3599 126.93C22.6599 126.41 22.9299 125.87 23.1699 125.31C21.1599 123.86 17.0599 121.86 10.6399 123.11C10.6299 123.76 10.6499 124.39 10.7099 124.99Z" fill="white"/>
        <path d="M9.93994 105.15C11.4299 99.8102 9.57996 93.1602 8.95996 91.2102C8.34996 91.3702 7.75994 91.5502 7.18994 91.7802C9.38994 97.7602 8.19996 103.06 7.82996 104.39L9.93994 105.15Z" fill="white"/>
        <path d="M42.3699 102.97C42.7399 102.83 43.0999 102.67 43.4399 102.48C40.8199 99.2901 41.4799 92.7001 41.7599 90.6701C41.2899 90.5301 40.7999 90.4201 40.2999 90.3301C38.8199 96.1001 41.4899 101.43 42.3699 102.97Z" fill="white"/>
        <path d="M23.0799 94.5901C23.0899 95.4301 23.7799 96.1101 24.6299 96.1001C25.4699 96.0901 26.1499 95.4002 26.1399 94.5502C26.1299 93.7102 25.44 93.0301 24.59 93.0401C23.74 93.0501 23.0699 93.7501 23.0799 94.5901Z" fill="#2E8287"/>
        <path d="M17.57 84.0801C17.58 84.7001 18.09 85.2001 18.71 85.1901C19.33 85.1801 19.83 84.6701 19.82 84.0501C19.81 83.4301 19.3 82.9301 18.68 82.9401C18.06 82.9501 17.56 83.4601 17.57 84.0801Z" fill="#BE443E"/>
        <path d="M27.1 84.2002C27.11 84.8202 27.62 85.3202 28.24 85.3102C28.86 85.3002 29.36 84.7903 29.35 84.1703C29.34 83.5503 28.83 83.0502 28.21 83.0602C27.59 83.0602 27.09 83.5802 27.1 84.2002Z" fill="#BE443E"/>
        <path d="M23.4599 101.93C23.4699 102.77 24.1599 103.45 25.0099 103.44C25.8499 103.43 26.5299 102.74 26.5199 101.89C26.5099 101.04 25.8199 100.37 24.9699 100.38C24.1199 100.4 23.4499 101.09 23.4599 101.93Z" fill="#2E8287"/>
        <path d="M23.5599 109.51C23.5699 110.35 24.2599 111.03 25.1099 111.02C25.9499 111.01 26.63 110.32 26.62 109.47C26.61 108.63 25.9199 107.95 25.0699 107.96C24.2199 107.97 23.5499 108.66 23.5599 109.51Z" fill="#2E8287"/>
        <path d="M16.1799 81.3701C16.5699 80.1701 17.2999 79.4501 18.5999 79.4301C19.8399 79.4001 20.4099 80.4401 20.6999 81.5401C20.7799 81.8401 20.3099 81.9801 20.2299 81.6801C20.0099 80.8501 19.6099 79.9501 18.6099 79.9201C17.5699 79.8901 16.9599 80.57 16.6499 81.5C16.5599 81.79 16.0799 81.6701 16.1799 81.3701Z" fill="#2E8287"/>
        <path d="M29.5299 80.6202C29.0999 79.4302 28.3499 78.7402 27.0399 78.7602C25.7999 78.7702 25.2699 79.8302 25.0099 80.9402C24.9399 81.2502 25.4099 81.3702 25.4799 81.0602C25.6699 80.2302 26.0399 79.3102 27.0399 79.2502C28.0799 79.1802 28.7099 79.8402 29.0499 80.7602C29.1599 81.0602 29.6299 80.9202 29.5299 80.6202Z" fill="#2E8287"/>
        <path d="M21.3699 85.7801C21.5199 86.8501 22.3099 88.1201 23.5899 87.8401C24.5899 87.6201 25.1699 86.6201 25.0899 85.6601C25.0599 85.2401 25.7099 85.2301 25.7399 85.6501C25.8499 87.0601 24.7999 88.4502 23.3299 88.5502C21.7899 88.6602 20.8999 87.0901 20.7199 85.7801C20.6599 85.3801 21.3199 85.3701 21.3699 85.7801Z" fill="white"/>
        <path d="M108.55 150.37C108.55 150.37 108.55 150.39 108.55 150.42C108.54 150.73 108.45 152.58 108.06 155.14L107.99 155.6C107.91 156.08 107.82 156.59 107.72 157.11C107.69 157.26 107.66 157.41 107.63 157.56C107.48 158.27 107.31 159.01 107.11 159.76C107.07 159.9 107.03 160.05 106.99 160.19C106.74 161.1 106.45 162.03 106.12 162.95C106.07 163.09 106.02 163.22 105.97 163.36C105.63 164.27 105.24 165.18 104.8 166.06L104.6 166.45C104.27 167.09 103.9 167.72 103.51 168.32C103.43 168.45 103.35 168.57 103.26 168.7C101.55 171.2 99.2899 173.24 96.3099 174.24C84.64 178.13 86.83 168.74 86.83 168.74C86.83 168.74 88.29 159.92 93.48 156.91C93.49 156.91 93.49 156.9 93.5 156.9C93.64 156.82 93.79 156.74 93.93 156.66C94.88 156.14 95.81 155.7 96.73 155.32L97.1699 155.14C97.6999 154.93 98.2299 154.74 98.7499 154.55C98.8999 154.5 99.05 154.45 99.19 154.4C99.66 154.24 100.14 154.08 100.61 153.92L101.05 153.77C101.44 153.64 101.82 153.51 102.21 153.37L102.64 153.22C103.29 152.99 103.95 152.74 104.6 152.46C104.76 152.39 104.92 152.32 105.08 152.25C105.97 151.86 106.87 151.4 107.78 150.86C108.05 150.69 108.29 150.53 108.55 150.37Z" fill="#D3B77B"/>
        <path d="M108.55 150.37C108.55 150.37 108.55 150.39 108.55 150.42C107.98 151.4 106.7 153.42 104.57 155.97L104.52 156.03C104.37 156.21 104.21 156.4 104.05 156.59C103.67 157.03 103.26 157.49 102.82 157.96C102.66 158.13 102.5 158.3 102.34 158.47C101.87 158.97 101.37 159.48 100.84 160C100.69 160.15 100.54 160.29 100.39 160.44C99.7899 161.02 99.1399 161.61 98.4699 162.21C98.3199 162.34 98.1799 162.47 98.0299 162.59C97.4799 163.07 96.8998 163.55 96.2998 164.03C96.1598 164.14 96.0199 164.25 95.8799 164.37C95.2399 164.88 94.5699 165.38 93.8799 165.89C93.7299 166 93.5799 166.11 93.4299 166.21C93.2399 166.35 93.0499 166.48 92.8599 166.62L92.6199 166.27C92.8699 166.09 93.1199 165.92 93.3599 165.74C93.4999 165.64 93.6499 165.53 93.7899 165.43C94.5099 164.9 95.1998 164.37 95.8598 163.85C96.0198 163.72 96.1699 163.6 96.3199 163.48C96.8699 163.03 97.3999 162.59 97.9099 162.14C98.0699 162 98.2299 161.86 98.3799 161.73C98.9999 161.18 99.5899 160.64 100.14 160.1C100.3 159.95 100.45 159.8 100.6 159.65C101.11 159.15 101.59 158.66 102.05 158.18C102.2 158.02 102.35 157.86 102.49 157.71C102.94 157.22 103.37 156.74 103.77 156.28C103.97 156.04 104.17 155.81 104.36 155.58C106.03 153.57 107.15 151.91 107.81 150.85C108.05 150.69 108.29 150.53 108.55 150.37Z" fill="white"/>
        <path d="M108.05 155.14L104.51 156.03L104.22 156.1L104.34 155.57L105.09 152.23C104.93 152.3 104.77 152.37 104.61 152.44L103.75 156.27L103.66 156.68L104.04 156.59L107.98 155.6L108.05 155.14Z" fill="white"/>
        <path d="M107.71 157.1C107.68 157.25 107.65 157.4 107.62 157.55L102.33 158.48L102.02 158.53L102.03 158.18L102.22 153.36L102.65 153.21L102.48 157.71L102.47 158.03L102.82 157.97L107.71 157.1Z" fill="white"/>
        <path d="M100.83 160L107.1 159.75C107.06 159.89 107.02 160.04 106.98 160.18L100.37 160.45L100.09 160.46L100.12 160.1L100.62 153.9L101.06 153.75L100.59 159.65L100.56 160.02L100.83 160Z" fill="white"/>
        <path d="M98.45 162.22L106.12 162.95C106.07 163.09 106.02 163.22 105.97 163.36L98.0099 162.61L97.84 162.6L97.89 162.16L98.7599 154.56C98.9099 154.51 99.06 154.46 99.2 154.41L98.3599 161.75L98.3099 162.22H98.45Z" fill="white"/>
        <path d="M104.6 166.44L95.8599 164.37L95.7799 164.36L95.8299 163.85L96.7299 155.31L97.1699 155.13L96.2999 163.48L96.2399 164.03L96.2799 164.04L104.8 166.05L104.6 166.44Z" fill="white"/>
        <path d="M93.86 165.89L103.51 168.31C103.43 168.44 103.35 168.56 103.26 168.69L93.4099 166.22L93.33 166.2L93.34 165.75L93.4999 156.89C93.6399 156.81 93.79 156.73 93.93 156.65L93.77 165.44L93.7599 165.87L93.86 165.89Z" fill="white"/>
        <path d="M88.73 172.57C88.73 172.57 87.21 180.07 80.77 187.72C80.66 187.86 80.54 187.99 80.43 188.13C80.13 188.48 79.81 188.84 79.48 189.19C79.24 189.45 78.99 189.7 78.75 189.94C78.63 190.06 78.5 190.17 78.38 190.28C77.4 191.17 76.37 191.89 75.33 192.47L74.92 192.69C74.33 193 73.73 193.26 73.14 193.49C73.01 193.54 72.87 193.59 72.74 193.64C72 193.9 71.27 194.11 70.55 194.27C70.41 194.3 70.27 194.33 70.13 194.36C69.2 194.55 68.29 194.66 67.43 194.71L67 194.73C66.18 194.77 65.41 194.76 64.71 194.72C64.56 194.71 64.42 194.7 64.29 194.69C62.7 194.58 61.52 194.33 61.03 194.21C60.86 194.17 60.77 194.15 60.77 194.15C60.84 193.99 60.91 193.84 60.97 193.69C61.51 192.43 61.91 191.39 62.2 190.49C62.25 190.34 62.29 190.2 62.34 190.06C62.59 189.26 62.76 188.58 62.89 187.96C62.92 187.81 62.95 187.67 62.98 187.53C63.12 186.82 63.23 186.17 63.37 185.5C63.4 185.36 63.43 185.22 63.46 185.08C63.58 184.55 63.73 183.99 63.94 183.37C63.99 183.24 64.03 183.1 64.08 182.96C64.29 182.36 64.57 181.7 64.92 180.94C64.98 180.81 65.04 180.67 65.11 180.54C65.15 180.46 65.19 180.38 65.23 180.29C65.58 179.56 66.1 178.85 66.74 178.18C66.85 178.06 66.97 177.94 67.09 177.83C67.77 177.16 68.57 176.52 69.43 175.91C69.57 175.81 69.71 175.72 69.85 175.62C75.12 172.07 82.53 169.8 82.53 169.8L88.73 172.57Z" fill="#D3B77B"/>
        <path d="M86.59 175.24L86.76 175.63C86.69 175.66 83.04 177.24 79.01 179.38C78.88 179.45 78.75 179.52 78.62 179.59C78.1 179.87 77.57 180.16 77.04 180.46C76.91 180.53 76.78 180.61 76.65 180.68C75.89 181.12 75.14 181.57 74.42 182.02C74.28 182.11 74.15 182.19 74.02 182.28C73.06 182.9 72.16 183.53 71.37 184.16C71.24 184.26 71.12 184.36 70.99 184.46C70.47 184.89 70.01 185.32 69.63 185.74C69.61 185.76 69.59 185.79 69.57 185.81C69.46 185.93 69.36 186.04 69.25 186.16C68.81 186.64 68.34 187.13 67.87 187.63C67.72 187.79 67.57 187.94 67.41 188.1C66.67 188.86 65.9 189.61 65.14 190.35C64.98 190.5 64.83 190.65 64.67 190.8C63.34 192.08 62.06 193.26 61.03 194.19C60.86 194.15 60.77 194.13 60.77 194.13C60.84 193.97 60.91 193.82 60.97 193.67C61.96 192.77 63.16 191.66 64.4 190.46C64.55 190.32 64.7 190.18 64.85 190.03C65.61 189.3 66.37 188.54 67.12 187.78C67.26 187.63 67.41 187.49 67.55 187.34C68.04 186.83 68.52 186.33 68.97 185.84C69.07 185.73 69.17 185.62 69.27 185.51C69.29 185.49 69.32 185.46 69.34 185.43C69.7 185.04 70.12 184.64 70.59 184.24C70.73 184.12 70.88 184 71.03 183.87C71.8 183.25 72.67 182.63 73.6 182.02C73.78 181.9 73.97 181.78 74.15 181.66C74.81 181.24 75.49 180.83 76.18 180.43C76.36 180.33 76.54 180.22 76.72 180.12C77.24 179.82 77.76 179.54 78.28 179.26C78.44 179.17 78.61 179.08 78.77 179C82.71 176.92 86.31 175.36 86.59 175.24Z" fill="white"/>
        <path d="M65.17 190.05L65.14 190.36L64.71 194.71C64.56 194.7 64.4199 194.69 64.2899 194.68L64.67 190.81L64.7 190.47C64.6 190.47 64.5 190.47 64.4 190.47C63.69 190.47 62.86 190.48 62.2 190.48C62.25 190.33 62.29 190.19 62.34 190.05C62.92 190.05 63.7299 190.04 64.8499 190.04C64.8799 190.04 64.9099 190.04 64.9399 190.04L65.17 190.05Z" fill="white"/>
        <path d="M67.42 194.7L67.86 187.64L67.88 187.35L67.54 187.36L62.98 187.53C62.95 187.67 62.92 187.81 62.89 187.96L67.11 187.8L67.42 187.79L67.4 188.11L66.99 194.72L67.42 194.7Z" fill="white"/>
        <path d="M69.6 185.48L69.63 185.75L70.54 194.26C70.4 194.29 70.26 194.32 70.12 194.35L69.25 186.18L69.22 185.89L68.96 185.87L63.37 185.52C63.4 185.38 63.43 185.24 63.46 185.1L69.33 185.47L69.6 185.48Z" fill="white"/>
        <path d="M71.32 183.95L71.36 184.17L73.13 193.48C73 193.53 72.86 193.58 72.73 193.63L70.99 184.47L70.9601 184.32L70.57 184.27L63.9301 183.38C63.9801 183.25 64.02 183.11 64.07 182.97L71.01 183.9L71.32 183.95Z" fill="white"/>
        <path d="M75.32 192.46L74.42 182.03L74.39 181.73L74.14 181.7L65.11 180.55C65.04 180.69 64.98 180.82 64.92 180.95L73.5901 182.05L74 182.1L74.02 182.28L74.92 192.67L75.32 192.46Z" fill="white"/>
        <path d="M77 180.23L77.04 180.46L78.74 189.92C78.62 190.04 78.49 190.15 78.37 190.26L76.65 180.67L76.63 180.56L76.16 180.45L66.73 178.17C66.84 178.05 66.96 177.93 67.08 177.82L76.7 180.15L77 180.23Z" fill="white"/>
        <path d="M80.77 187.72L79.01 179.39L78.95 179.12L78.74 179.04L69.83 175.63C69.69 175.73 69.55 175.82 69.41 175.92L78.25 179.3L78.58 179.43L78.6201 179.6L80.42 188.13L80.77 187.72Z" fill="white"/>
        <path d="M88.2 171.13L87 175.7C87 175.7 77.12 178.09 74.22 178.59C74.06 178.62 73.88 178.64 73.7 178.66C73.48 178.68 73.24 178.7 73 178.71C72.31 178.73 71.54 178.7 70.74 178.62L70.19 178.56C69.39 178.45 68.57 178.3 67.78 178.09C67.62 178.05 67.47 178.01 67.31 177.96C66.54 177.74 65.81 177.47 65.14 177.16C65 177.1 64.87 177.03 64.74 176.97C64.11 176.64 63.55 176.27 63.12 175.85C63.04 175.77 62.95 175.69 62.86 175.6C62.76 175.51 62.66 175.41 62.55 175.31C62.02 174.81 61.4 174.23 60.74 173.62L60.43 173.33C59.87 172.81 59.3 172.28 58.75 171.77C58.64 171.67 58.53 171.57 58.43 171.48C57.26 170.4 56.22 169.45 55.71 168.97C55.49 168.77 55.36 168.65 55.36 168.65C55.49 168.61 55.62 168.58 55.74 168.54C57.42 168.05 58.34 167.58 59.37 166.96C59.49 166.89 59.61 166.82 59.73 166.74C59.99 166.58 60.26 166.41 60.56 166.23C60.68 166.16 60.8 166.08 60.93 166C61.3 165.78 61.71 165.54 62.17 165.28C62.29 165.21 62.42 165.14 62.55 165.07C63.05 164.8 63.61 164.51 64.26 164.19C64.39 164.13 64.52 164.06 64.65 164C65.14 163.77 65.68 163.52 66.27 163.25C66.4 163.19 66.54 163.13 66.68 163.07C67.11 162.88 67.57 162.68 68.05 162.48C68.28 162.39 68.5 162.3 68.73 162.23L69.17 162.1C70.46 161.75 71.78 161.7 73.1 161.87L73.68 161.96C81.08 163.26 88.2 171.13 88.2 171.13Z" fill="#D3B77B"/>
        <path d="M83.24 172.3V172.72C82.5 172.71 81.6499 172.68 80.7199 172.61C80.5199 172.6 80.32 172.58 80.12 172.56C79.28 172.49 78.3799 172.41 77.4399 172.31C77.2599 172.29 77.0699 172.27 76.8799 172.25C75.8699 172.14 74.8199 172.01 73.7499 171.87C73.5799 171.85 73.3999 171.82 73.2299 171.8C72.3299 171.68 71.4099 171.55 70.4999 171.42C70.3299 171.4 70.16 171.37 69.99 171.35C69.18 171.23 68.38 171.11 67.59 170.99C67.41 170.96 67.2399 170.94 67.0699 170.91C66.2299 170.78 65.41 170.65 64.61 170.51C64.42 170.48 64.2299 170.45 64.0399 170.42C63.1499 170.27 62.2899 170.13 61.4799 169.99C61.2699 169.95 61.06 169.92 60.86 169.88C58.59 169.49 56.7499 169.15 55.6899 168.96C55.4699 168.76 55.34 168.64 55.34 168.64C55.47 168.6 55.5999 168.57 55.7199 168.53C56.7799 168.73 58.66 169.07 60.99 169.47C61.18 169.5 61.3599 169.53 61.5599 169.57C62.3299 169.7 63.1299 169.84 63.9699 169.98C64.1899 170.02 64.42 170.05 64.64 170.09C65.39 170.21 66.1599 170.34 66.9399 170.46C67.1599 170.49 67.39 170.53 67.61 170.57C68.36 170.69 69.13 170.8 69.89 170.91C70.1 170.94 70.31 170.97 70.52 171C71.4 171.13 72.28 171.25 73.15 171.37C73.36 171.4 73.5699 171.43 73.7799 171.45C74.7499 171.57 75.69 171.69 76.61 171.8C76.81 171.82 77.0099 171.85 77.2199 171.87C78.2699 171.99 79.2799 172.08 80.2199 172.15C80.3999 172.17 80.5899 172.18 80.7599 172.19C81.6699 172.26 82.51 172.3 83.24 172.3Z" fill="white"/>
        <path d="M59.7199 166.74L61.5599 169.58L61.7299 169.84L61.4899 170L58.7499 171.78C58.6399 171.68 58.5299 171.58 58.4299 171.49L60.8799 169.9L61.1599 169.72L61.0099 169.49L59.3799 166.97C59.4799 166.89 59.5899 166.82 59.7199 166.74Z" fill="white"/>
        <path d="M60.9199 166C61.6999 166.85 63.2599 168.57 64.6399 170.09C64.6599 170.11 64.6799 170.13 64.6899 170.15L64.8399 170.32L64.5999 170.52L60.7299 173.63L60.4199 173.34L64.0399 170.44L64.2299 170.29C64.1499 170.2 64.0599 170.11 63.9699 170C62.9599 168.89 61.3099 167.07 60.5499 166.24C60.6699 166.15 60.7899 166.08 60.9199 166Z" fill="white"/>
        <path d="M62.55 165.07L67.6201 170.57L67.81 170.78L67.5901 170.99L62.85 175.6C62.75 175.51 62.65 175.41 62.54 175.31L67.07 170.91L67.22 170.76L66.95 170.46L62.17 165.28C62.29 165.21 62.41 165.14 62.55 165.07Z" fill="white"/>
        <path d="M64.6499 164L70.5299 171L70.7099 171.21L70.5099 171.42L65.1399 177.16C64.9999 177.1 64.8699 177.03 64.7399 176.97L69.9999 171.36L70.1499 171.21L69.9099 170.92L64.2699 164.2C64.3799 164.13 64.5099 164.07 64.6499 164Z" fill="white"/>
        <path d="M66.6699 163.08L73.7799 171.46L73.9599 171.67L73.7599 171.88L67.7699 178.09C67.6099 178.05 67.4599 178.01 67.2999 177.96L73.2299 171.81L73.3899 171.65L73.1599 171.37L66.2699 163.26C66.3999 163.2 66.5299 163.14 66.6699 163.08Z" fill="white"/>
        <path d="M70.18 178.56L76.88 172.26L76.94 172.21L76.61 171.81L68.72 162.24L69.16 162.1L77.22 171.87L77.52 172.24L77.44 172.32L70.73 178.63L70.18 178.56Z" fill="white"/>
        <path d="M73.67 161.96L80.76 172.19L80.93 172.43L80.72 172.61L73.7 178.66C73.48 178.68 73.24 178.7 73 178.71L80.13 172.57L80.37 172.36L80.22 172.15L73.1 161.87L73.67 161.96Z" fill="white"/>
        <path d="M88.0299 176.29C88.0299 176.29 83.7399 183.71 85.1899 188.52C86.6399 193.33 88.7799 193.32 89.8599 197.03C89.8599 197.03 95.0299 187.99 93.6199 183.78C92.2199 179.57 90.1299 175.19 90.1299 175.19L88.0299 176.29Z" fill="#BE1E2D"/>
        <path d="M88.1899 171.86C88.1899 171.86 87.8099 167.48 90.6399 165.11C93.4699 162.74 95.5799 162.72 97.8399 160.58C97.8399 160.58 99.4999 164.68 96.4599 167.95C93.4199 171.22 89.4799 173.19 89.4799 173.19L88.1899 171.86Z" fill="#BE1E2D"/>
        <path d="M89.4399 175.97C89.4399 175.97 88.9799 180.63 91.3999 183.25C93.8199 185.87 98.2099 189.04 98.5799 189.76C98.5799 189.76 99.0799 183.39 96.8899 180.21C94.6999 177.03 90.6599 174.61 90.6599 174.61L89.4399 175.97Z" fill="#BE443E"/>
        <path d="M86.6299 174.2C86.6299 174.2 82.6599 173.81 80.0799 175.52C77.4899 177.23 74.9899 179.05 74.7699 179.06C74.7699 179.06 79.2999 180.83 81.4799 179.61C83.6599 178.39 86.3599 175.55 86.9899 175.7C87.6299 175.86 86.6299 174.2 86.6299 174.2Z" fill="#ED1C24"/>
        <path d="M87.8 176.57C87.8 176.57 84.0899 178.88 82.7299 182.83C81.3699 186.79 81.2 189.61 80.2 190.72C80.2 190.72 84.53 190.87 86.11 183.66C87.69 176.45 88.1599 176.87 88.1599 176.87L87.8 176.57Z" fill="#BE443E"/>
        <path d="M87.85 174.03C86.92 173.86 79 171.76 74.83 176.42C70.66 181.08 70.61 185.1 68.74 188.1C68.74 188.1 74.05 189.57 78.98 185.47C83.92 181.38 88.24 176.04 88.24 176.04L87.85 174.03Z" fill="#BE1E2D"/>
        <path d="M89.64 175.03C89.64 175.03 92.67 182.03 99.49 180.44C106.31 178.85 109.05 179.04 109.05 179.04C109.05 179.04 101.04 165.71 95.84 167.99C90.65 170.27 89.48 173.19 89.48 173.19L89.64 175.03Z" fill="#BE443E"/>
        <path d="M70.14 171.16C70.14 171.16 73.95 173.52 76.23 175.19C78.51 176.85 86.25 174.19 86.25 174.19L87.11 172.36C87.11 172.36 80.62 167.23 79.22 167.67C77.81 168.1 73.41 169.81 70.14 171.16Z" fill="#BE443E"/>
        <path d="M86.2898 172.95C86.2898 172.95 83.9998 172.5 80.1798 169.95C76.3698 167.4 76.8198 162.12 75.3298 160.6C75.3298 160.6 81.1898 162.88 83.2098 165.07C85.2298 167.26 87.4798 171.52 87.4798 171.52L86.2898 172.95Z" fill="#BE1E2D"/>
        <path d="M87.2699 172.17C87.2699 172.17 81.1999 165.14 81.1599 160.89C81.1199 156.64 84.6999 152.86 84.2799 151.06C84.2799 151.06 88.2699 155.2 89.4599 157.98C90.6499 160.76 91.1599 163.25 88.9099 171.59L87.2699 172.17Z" fill="#BE443E"/>
        <path d="M90.6399 171.63C91.9299 172.71 92.1099 174.64 91.0199 175.93C89.9399 177.22 88.0099 177.4 86.7199 176.31C85.4299 175.23 85.25 173.3 86.34 172.01C87.42 170.72 89.3499 170.55 90.6399 171.63Z" fill="white"/>
        <path d="M88.6199 173.69C88.8899 173.92 88.9299 174.32 88.6999 174.59C88.4699 174.86 88.0699 174.9 87.7999 174.67C87.5299 174.44 87.4899 174.04 87.7199 173.77C87.9499 173.5 88.3499 173.47 88.6199 173.69Z" fill="#D3B77B"/>
        <path d="M89.8399 171.24C90.2099 171.55 90.2599 172.09 89.9499 172.46C89.6399 172.83 89.0999 172.88 88.7299 172.57C88.3599 172.26 88.3099 171.72 88.6199 171.35C88.9299 170.98 89.4699 170.93 89.8399 171.24Z" fill="#D3B77B"/>
        <path d="M90.7099 173.09C91.0799 173.4 91.1299 173.95 90.8199 174.32C90.5099 174.69 89.9599 174.74 89.5899 174.43C89.2199 174.12 89.1699 173.57 89.4799 173.2C89.7899 172.83 90.3399 172.78 90.7099 173.09Z" fill="#D3B77B"/>
        <path d="M89.9399 175.04C90.2499 175.3 90.2999 175.77 90.0299 176.09C89.7699 176.4 89.2999 176.45 88.9799 176.18C88.6699 175.92 88.6199 175.45 88.8899 175.13C89.1599 174.82 89.6299 174.78 89.9399 175.04Z" fill="#D3B77B"/>
        <path d="M87.8598 175.72C88.0698 175.9 88.0998 176.22 87.9198 176.43C87.7398 176.64 87.4198 176.67 87.2098 176.49C86.9998 176.31 86.9698 175.99 87.1498 175.78C87.3198 175.57 87.6398 175.54 87.8598 175.72Z" fill="#D3B77B"/>
        <path d="M86.9199 173.86C87.2699 174.15 87.3099 174.67 87.0199 175.02C86.7299 175.37 86.2099 175.41 85.8599 175.12C85.5099 174.83 85.4699 174.31 85.7599 173.96C86.0499 173.62 86.5699 173.57 86.9199 173.86Z" fill="#D3B77B"/>
        <path d="M87.6699 171.68C88.0399 171.99 88.0898 172.54 87.7798 172.91C87.4698 173.28 86.9199 173.33 86.5499 173.02C86.1799 172.71 86.1298 172.16 86.4398 171.79C86.7498 171.42 87.2999 171.37 87.6699 171.68Z" fill="#D3B77B"/>
        <path d="M124.24 185.31V185.32L124.46 189.46C124.46 189.46 133.9 191.2 137.07 189.35C137.07 189.35 137.43 187.62 137.84 184.95C139.22 176.05 141.18 156.75 132.27 156.79C124.41 156.83 124.69 172.75 124.69 172.75C124.69 172.75 123.8 169.8 122.18 170.39C117.81 172 124.24 185.31 124.24 185.31Z" fill="#D3B77B"/>
        <path d="M134.7 166.74C134.68 166.5 135.05 166.5 135.07 166.74C135.15 167.6 135.18 168.45 135.16 169.31C135.15 169.55 134.78 169.55 134.79 169.31C134.81 168.45 134.78 167.6 134.7 166.74Z" fill="white"/>
        <path d="M132.3 163.19C132.47 162.28 132.76 161.32 132.77 160.39C132.77 160.15 133.14 160.15 133.14 160.39C133.13 161.35 132.84 162.34 132.66 163.29C132.61 163.52 132.25 163.42 132.3 163.19Z" fill="white"/>
        <path d="M128.62 163.12C128.85 162.24 129.03 161.36 129.15 160.46C129.18 160.23 129.54 160.32 129.51 160.56C129.38 161.46 129.21 162.34 128.98 163.22C128.92 163.44 128.56 163.35 128.62 163.12Z" fill="white"/>
        <path d="M131.14 166.41L131.15 168.95C131.15 169.19 130.78 169.19 130.78 168.95L130.77 166.41C130.77 166.17 131.14 166.17 131.14 166.41Z" fill="white"/>
        <path d="M133.39 170.52C133.35 171.11 133.31 171.7 133.18 172.28C133.13 172.51 132.78 172.39 132.83 172.16C132.95 171.61 132.99 171.05 133.02 170.5C133.04 170.26 133.41 170.28 133.39 170.52Z" fill="white"/>
        <path d="M131.65 158.26C131.64 158.85 131.63 159.44 131.53 160.03C131.49 160.26 131.14 160.16 131.18 159.92C131.27 159.37 131.28 158.81 131.28 158.25C131.28 158.01 131.65 158.02 131.65 158.26Z" fill="white"/>
        <path d="M124.21 179.75C124.2 180.34 124.19 180.93 124.09 181.52C124.05 181.75 123.7 181.65 123.74 181.41C123.83 180.86 123.84 180.3 123.84 179.74C123.85 179.5 124.21 179.51 124.21 179.75Z" fill="white"/>
        <path d="M135.48 160.48C135.69 161.64 135.87 162.8 136.03 163.97C136.06 164.2 135.69 164.2 135.66 163.97C135.5 162.84 135.32 161.71 135.13 160.58C135.09 160.35 135.44 160.25 135.48 160.48Z" fill="white"/>
        <path d="M137.43 167.49C137.72 168.41 137.89 169.36 137.97 170.32C137.99 170.56 137.62 170.56 137.6 170.32C137.53 169.39 137.35 168.48 137.08 167.59C137 167.36 137.36 167.26 137.43 167.49Z" fill="white"/>
        <path d="M137.25 173.7L137.26 176.12C137.26 176.36 136.89 176.36 136.89 176.12L136.88 173.7C136.88 173.47 137.25 173.46 137.25 173.7Z" fill="white"/>
        <path d="M127.9 175.68C127.92 175.44 128.29 175.44 128.27 175.68C128.21 176.5 128.19 177.31 128.23 178.13C128.24 178.37 127.87 178.37 127.86 178.13C127.83 177.31 127.84 176.5 127.9 175.68Z" fill="white"/>
        <path d="M127.93 182.16C127.95 181.92 128.32 181.92 128.3 182.16C128.24 182.98 128.22 183.79 128.26 184.61C128.27 184.85 127.9 184.85 127.89 184.61C127.86 183.79 127.87 182.97 127.93 182.16Z" fill="white"/>
        <path d="M125.61 177.67C125.8 176.88 125.93 176.08 126.02 175.27C126.04 175.04 126.41 175.03 126.39 175.27C126.3 176.11 126.16 176.94 125.97 177.76C125.91 177.99 125.56 177.9 125.61 177.67Z" fill="white"/>
        <path d="M122.99 173.99C123.03 173.76 123.39 173.85 123.35 174.09C123.17 175.06 123.05 176.03 123 177.02C122.99 177.26 122.62 177.26 122.63 177.02C122.69 176 122.81 175 122.99 173.99Z" fill="white"/>
        <path d="M126.09 180.17C126.1 180.97 126.13 181.76 126.18 182.55C126.19 182.79 125.83 182.79 125.81 182.55C125.76 181.76 125.73 180.96 125.72 180.17C125.72 179.93 126.09 179.93 126.09 180.17Z" fill="white"/>
        <path d="M130.02 179.99C130.1 180.82 130.22 181.64 130.39 182.45C130.44 182.68 130.08 182.78 130.03 182.55C129.85 181.7 129.73 180.85 129.64 179.99C129.62 179.76 129.99 179.76 130.02 179.99Z" fill="white"/>
        <path d="M132.18 181.86L132.19 184.28C132.19 184.52 131.82 184.52 131.82 184.28L131.81 181.86C131.81 181.63 132.18 181.63 132.18 181.86Z" fill="white"/>
        <path d="M136.04 178.6C136.02 178.36 136.39 178.36 136.41 178.6C136.54 179.9 136.59 181.2 136.57 182.5C136.57 182.74 136.2 182.74 136.2 182.5C136.22 181.2 136.17 179.9 136.04 178.6Z" fill="white"/>
        <path d="M124.24 185.32L124.46 189.46C124.46 189.46 124.93 189.55 125.7 189.66C126.13 189.72 126.66 189.8 127.25 189.87C127.85 189.94 128.51 190.01 129.2 190.07C129.82 190.12 130.47 190.16 131.12 190.18C131.82 190.21 132.53 190.21 133.2 190.18C133.95 190.15 134.67 190.08 135.31 189.95C136 189.82 136.61 189.62 137.07 189.35C137.07 189.35 137.43 187.62 137.84 184.95C137.33 184.98 136.58 185.03 135.69 185.08C134.99 185.12 134.21 185.16 133.38 185.2C132.73 185.23 132.05 185.26 131.36 185.28C130.67 185.31 129.97 185.33 129.28 185.34C128.58 185.36 127.89 185.37 127.23 185.37C126.62 185.37 126.03 185.37 125.49 185.36C125.04 185.36 124.62 185.34 124.24 185.32Z" fill="#2E8287"/>
        <path d="M126.64 169.59C126.68 169.36 127.04 169.45 127 169.69C126.85 170.54 126.77 171.39 126.76 172.25C126.76 172.49 126.39 172.49 126.39 172.25C126.39 171.35 126.48 170.46 126.64 169.59Z" fill="white"/>
        <path d="M133.2 190.18C133.95 190.15 134.67 190.08 135.31 189.95L135.69 185.08C134.99 185.12 134.21 185.16 133.38 185.2L133.2 190.18Z" fill="#BE443E"/>
        <path d="M129.2 190.07C129.82 190.12 130.47 190.16 131.12 190.18C131.18 188.83 131.29 186.51 131.35 185.28C130.66 185.31 129.96 185.33 129.27 185.34L129.2 190.07Z" fill="#BE443E"/>
        <path d="M125.49 185.37L125.7 189.66C126.13 189.72 126.66 189.8 127.25 189.87L127.23 185.38C126.61 185.39 126.03 185.38 125.49 185.37Z" fill="#BE443E"/>
        <path d="M128.89 169.77C130.32 169.76 130.98 170.81 131.29 171.73C131.59 170.82 132.24 169.76 133.67 169.75C139.05 169.73 131.35 181.22 131.35 181.22C131.35 181.22 123.51 169.79 128.89 169.77Z" fill="#BE443E"/>
        <path d="M80.9499 21.1502L80.2499 17.0502C80.2499 17.0502 70.6699 16.4102 67.7399 18.6102C67.7399 18.6102 67.5799 20.3702 67.4799 23.0602C67.1399 32.0602 67.4199 51.4602 76.2599 50.3902C84.0599 49.4502 81.9399 33.6602 81.9399 33.6602C81.9399 33.6602 83.1699 36.4802 84.7099 35.7102C88.8699 33.6302 80.9499 21.1502 80.9499 21.1502Z" fill="#D3B77B"/>
        <path d="M72.6999 40.8001C72.7499 41.0301 72.3799 41.0701 72.3299 40.8401C72.1499 40.0001 72.0199 39.1501 71.9499 38.3001C71.9299 38.0601 72.2999 38.0201 72.3199 38.2601C72.3999 39.1101 72.5199 39.9601 72.6999 40.8001Z" fill="white"/>
        <path d="M75.4999 44.0501C75.4299 44.9801 75.2599 45.9601 75.3599 46.8801C75.3799 47.1201 75.0199 47.1601 74.9899 46.9201C74.8899 45.9601 75.0699 44.9401 75.1399 43.9901C75.1499 43.7601 75.5199 43.8201 75.4999 44.0501Z" fill="white"/>
        <path d="M79.1599 43.7001C79.0299 44.6001 78.9599 45.5001 78.9399 46.4001C78.9299 46.6401 78.5699 46.5801 78.5799 46.3501C78.5999 45.4401 78.6699 44.5401 78.7999 43.6501C78.8299 43.4101 79.1899 43.4601 79.1599 43.7001Z" fill="white"/>
        <path d="M76.2797 40.7203L75.9697 38.2003C75.9397 37.9603 76.3098 37.9203 76.3398 38.1603L76.6498 40.6803C76.6798 40.9103 76.3097 40.9603 76.2797 40.7203Z" fill="white"/>
        <path d="M73.5699 36.9002C73.5399 36.3102 73.5199 35.7202 73.5699 35.1302C73.5899 34.8902 73.9499 34.9802 73.9299 35.2102C73.8699 35.7702 73.8999 36.3302 73.9299 36.8802C73.9499 37.1202 73.5799 37.1302 73.5699 36.9002Z" fill="white"/>
        <path d="M76.7099 48.8802C76.6499 48.2902 76.5899 47.7003 76.6199 47.1103C76.6299 46.8703 76.9899 46.9403 76.9799 47.1703C76.9499 47.7303 77.0099 48.2902 77.0699 48.8402C77.0999 49.0802 76.7399 49.1102 76.7099 48.8802Z" fill="white"/>
        <path d="M81.6199 26.6701C81.5599 26.0801 81.4998 25.4901 81.5298 24.9001C81.5398 24.6601 81.8998 24.7301 81.8898 24.9601C81.8598 25.5201 81.9198 26.08 81.9798 26.63C82.0098 26.87 81.6399 26.9001 81.6199 26.6701Z" fill="white"/>
        <path d="M72.6498 47.1102C72.3098 45.9802 71.9998 44.8501 71.6998 43.7101C71.6398 43.4801 72.0098 43.4402 72.0698 43.6702C72.3598 44.7802 72.6598 45.8802 72.9898 46.9802C73.0598 47.2002 72.7198 47.3402 72.6498 47.1102Z" fill="white"/>
        <path d="M69.9099 40.3702C69.5199 39.4802 69.2299 38.5702 69.0499 37.6202C68.9999 37.3902 69.3699 37.3402 69.4199 37.5802C69.5999 38.5002 69.8799 39.3802 70.2599 40.2302C70.3499 40.4502 70.0099 40.5902 69.9099 40.3702Z" fill="white"/>
        <path d="M69.3699 34.1801L69.0799 31.7801C69.0499 31.5401 69.4198 31.5001 69.4498 31.7401L69.7399 34.1401C69.7599 34.3701 69.3899 34.4201 69.3699 34.1801Z" fill="white"/>
        <path d="M78.4199 31.1301C78.4299 31.3701 78.0599 31.4101 78.0499 31.1701C78.0199 30.3501 77.9399 29.5401 77.8099 28.7301C77.7699 28.5001 78.1399 28.4501 78.1799 28.6901C78.3099 29.5101 78.3899 30.3201 78.4199 31.1301Z" fill="white"/>
        <path d="M77.6498 24.7102C77.6598 24.9502 77.2898 24.9901 77.2798 24.7501C77.2498 23.9301 77.1698 23.1201 77.0398 22.3101C76.9998 22.0801 77.3698 22.0302 77.4098 22.2702C77.5298 23.0802 77.6098 23.8902 77.6498 24.7102Z" fill="white"/>
        <path d="M80.4698 28.9003C80.3798 29.7103 80.3298 30.5103 80.3398 31.3303C80.3398 31.5603 79.9798 31.6103 79.9698 31.3703C79.9598 30.5303 79.9998 29.6803 80.0998 28.8503C80.1298 28.6103 80.4998 28.6603 80.4698 28.9003Z" fill="white"/>
        <path d="M83.4898 32.2503C83.4698 32.4903 83.1098 32.4303 83.1298 32.2003C83.1998 31.2203 83.1998 30.2303 83.1398 29.2503C83.1198 29.0103 83.4898 28.9703 83.5098 29.2103C83.5698 30.2103 83.5598 31.2303 83.4898 32.2503Z" fill="white"/>
        <path d="M79.6999 26.4702C79.5999 25.6802 79.4799 24.8902 79.3399 24.1102C79.2999 23.8802 79.6599 23.8302 79.7099 24.0702C79.8499 24.8502 79.9699 25.6402 80.0699 26.4302C80.0999 26.6602 79.7299 26.7102 79.6999 26.4702Z" fill="white"/>
        <path d="M75.8298 27.1003C75.6598 26.2903 75.4398 25.4902 75.1798 24.7002C75.1098 24.4802 75.4498 24.3302 75.5198 24.5602C75.7898 25.3802 76.0198 26.2102 76.1998 27.0602C76.2398 27.2802 75.8698 27.3303 75.8298 27.1003Z" fill="white"/>
        <path d="M73.4598 25.4902L73.1698 23.0901C73.1398 22.8501 73.5098 22.8102 73.5398 23.0502L73.8298 25.4501C73.8598 25.6801 73.4898 25.7202 73.4598 25.4902Z" fill="white"/>
        <path d="M69.9999 29.1802C70.0499 29.4102 69.68 29.4502 69.63 29.2202C69.36 27.9502 69.15 26.6602 69.02 25.3602C69 25.1202 69.36 25.0802 69.39 25.3202C69.52 26.6202 69.7199 27.9002 69.9999 29.1802Z" fill="white"/>
        <path d="M80.9499 21.1402L80.2498 17.0502C80.2498 17.0502 79.7698 17.0202 78.9998 16.9902C78.5598 16.9802 78.0299 16.9602 77.4299 16.9602C76.8299 16.9602 76.1698 16.9602 75.4698 16.9902C74.8498 17.0102 74.1999 17.0502 73.5499 17.1002C72.8499 17.1602 72.1499 17.2402 71.4799 17.3402C70.7399 17.4602 70.0399 17.6102 69.4099 17.8102C68.7399 18.0202 68.1599 18.2902 67.7299 18.6102C67.7299 18.6102 67.5698 20.3702 67.4698 23.0602C67.9698 22.9702 68.7099 22.8402 69.5899 22.6802C70.2799 22.5602 71.0499 22.4302 71.8699 22.3002C72.5099 22.1902 73.1899 22.0902 73.8699 21.9802C74.5499 21.8802 75.2399 21.7702 75.9199 21.6802C76.6099 21.5802 77.2999 21.4902 77.9499 21.4102C78.5599 21.3302 79.1399 21.2702 79.6799 21.2202C80.1499 21.1902 80.5699 21.1602 80.9499 21.1402Z" fill="#2E8287"/>
        <path d="M80.3899 37.0503C80.3799 37.2903 80.0099 37.2302 80.0299 37.0002C80.0799 36.1402 80.0599 35.2903 79.9799 34.4303C79.9599 34.1903 80.3199 34.1502 80.3499 34.3902C80.4199 35.2702 80.4399 36.1503 80.3899 37.0503Z" fill="white"/>
        <path d="M71.4899 17.3503C70.7499 17.4703 70.0499 17.6203 69.4199 17.8203L69.5999 22.7003C70.2899 22.5803 71.0599 22.4503 71.8799 22.3203L71.4899 17.3503Z" fill="#BE443E"/>
        <path d="M75.4798 16.9902C74.8598 17.0102 74.2098 17.0502 73.5598 17.1002C73.6498 18.4502 73.8098 20.7602 73.8898 21.9902C74.5698 21.8902 75.2598 21.7802 75.9398 21.6902L75.4798 16.9902Z" fill="#BE443E"/>
        <path d="M79.6999 21.2402L78.9899 17.0002C78.5499 16.9902 78.0199 16.9702 77.4199 16.9702L77.9599 21.4202C78.5799 21.3502 79.1599 21.2802 79.6999 21.2402Z" fill="#BE443E"/>
        <path d="M78.1199 37.1203C76.6999 37.2903 75.9199 36.3203 75.5099 35.4503C75.3199 36.3903 74.7999 37.5202 73.3799 37.6902C68.0399 38.3402 74.3599 26.0203 74.3599 26.0203C74.3599 26.0203 83.4699 36.4803 78.1199 37.1203Z" fill="#BE443E"/>
        <path d="M195.16 135.46C195.16 135.46 198.86 139.17 195.68 140.51C192.5 141.85 163.77 140.66 163.77 140.66C163.77 140.66 162.07 139.64 163.17 138.34C163.51 138.01 167.81 138.66 168.15 138.12C168.49 137.58 168.8 136.17 168.8 136.17L171.06 136.04C171.06 136.04 169.05 139.8 177.15 139.45C185.24 139.1 183.93 138.02 183.92 137.02C183.91 136.02 186.73 136.46 186.73 136.46C186.73 136.46 185.35 139.92 191.02 139.21C194.94 138.77 194.41 138.03 193.64 136.46C192.87 134.9 195.16 135.46 195.16 135.46Z" fill="#D3B77B"/>
        <path d="M165.96 132.26C165.99 132.5 166.01 132.74 166.04 132.97C166.29 134.9 166.66 136.29 166.78 136.41C167.07 136.7 172.47 136.48 172.78 136.35C173.08 136.22 173.52 134.19 173.52 134.19L175.31 136.36C175.31 136.36 179.68 137.43 184.78 137.21C194.84 137.39 196.98 136.47 197.28 134.15C197.4 133.19 197.22 131.99 197.14 130.54C197.06 128.98 195.88 127.84 194.05 127C192.22 126.16 189.73 125.63 187.05 125.3C181.7 124.63 178.61 117.31 178.61 117.31C179.01 115.09 177.7 112.81 177.11 112.2C176.54 111.61 176.44 113.21 175.75 113.36C175.75 113.36 175.75 113.36 175.74 113.36C175.72 113.37 175.7 113.37 175.68 113.37C174.92 113.43 167.32 115.25 166.18 115.98C165.13 116.65 166.41 117.48 166.63 117.61C166.65 117.62 166.66 117.63 166.66 117.63C166.66 117.63 167.57 119.88 166.52 123.93C166.41 124.25 166.31 124.57 166.23 124.91C165.65 127.25 165.71 130.02 165.96 132.26Z" fill="#BE443E"/>
        <path d="M165.96 132.26C165.99 132.5 166.01 132.74 166.04 132.97C169.09 133.48 174 134.23 173.98 133.79C173.78 129.1 167.94 125.78 166.23 124.91C165.65 127.25 165.71 130.02 165.96 132.26Z" fill="#D3B77B"/>
        <path d="M165.96 132.26C166.21 134.55 166.65 136.28 166.78 136.42C167.07 136.71 172.47 136.49 172.78 136.36C173.08 136.23 173.52 134.2 173.52 134.2L175.31 136.37C175.31 136.37 179.68 137.44 184.78 137.22C194.84 137.4 196.98 136.48 197.28 134.16C195.57 134.66 190.38 136.03 185.01 135.95C176.38 135.81 173.9 131.92 165.96 132.26Z" fill="#2E8287"/>
        <path d="M187.51 132.24C187.92 132.3 188.34 132.33 188.75 132.33C188.38 131.94 188.03 131.54 187.58 131.27C187.25 131.07 187.53 130.55 187.86 130.74C188.48 131.11 188.91 131.69 189.44 132.18C189.47 132.21 189.5 132.23 189.53 132.26C189.51 131.75 189.47 131.23 189.35 130.73C189.26 130.36 189.83 130.17 189.92 130.55C190.04 131.06 190.08 131.57 190.1 132.09C190.41 131.82 190.71 131.54 190.97 131.22C191.21 130.92 191.65 131.33 191.41 131.62C191.21 131.87 190.98 132.09 190.74 132.3C191.11 132.3 191.48 132.32 191.85 132.37C192.23 132.42 192.09 133 191.72 132.95C191.27 132.89 190.82 132.87 190.37 132.88C190.72 133.12 191.07 133.37 191.36 133.67C191.62 133.95 191.22 134.39 190.96 134.11C190.73 133.87 190.45 133.66 190.17 133.47C190.2 133.8 190.24 134.14 190.32 134.46C190.41 134.83 189.84 135.02 189.75 134.64C189.65 134.23 189.61 133.82 189.58 133.41C189.28 133.77 189 134.14 188.65 134.45C188.36 134.7 187.92 134.3 188.21 134.05C188.6 133.71 188.9 133.28 189.24 132.89C188.62 132.9 188 132.9 187.38 132.8C187 132.76 187.13 132.18 187.51 132.24Z" fill="white"/>
        <path d="M177.49 130.83C178.11 130.68 178.59 130.3 179.07 129.9C178.65 129.77 178.24 129.62 177.83 129.44C177.48 129.28 177.76 128.76 178.11 128.91C178.26 128.98 178.42 129.04 178.58 129.1C178.26 128.73 177.98 128.34 177.78 127.88C177.63 127.53 178.2 127.35 178.35 127.7C178.57 128.22 178.91 128.64 179.29 129.05C179.36 128.53 179.45 128.01 179.56 127.49C179.64 127.11 180.22 127.25 180.14 127.62C180.03 128.17 179.94 128.71 179.86 129.26C180.2 129.01 180.56 128.81 180.99 128.71C181.36 128.63 181.55 129.19 181.17 129.28C180.85 129.35 180.56 129.49 180.29 129.66C181.04 129.87 181.78 130.08 182.49 130.4C182.84 130.55 182.56 131.08 182.21 130.93C181.66 130.69 181.09 130.51 180.52 130.34C180.79 130.65 181.04 130.98 181.22 131.35C181.39 131.69 180.89 132.02 180.72 131.67C180.47 131.16 180.11 130.73 179.73 130.32C179.68 130.89 179.64 131.45 179.63 132.03C179.62 132.41 179.03 132.44 179.04 132.06C179.05 131.57 179.08 131.09 179.11 130.61C178.68 130.96 178.23 131.28 177.67 131.42C177.3 131.49 177.12 130.92 177.49 130.83Z" fill="white"/>
        <path d="M171.27 121.54C171.61 121.62 171.95 121.7 172.29 121.78C171.98 121.4 171.64 121.05 171.24 120.77C170.93 120.56 171.2 120.03 171.52 120.24C172.08 120.62 172.51 121.12 172.91 121.66C172.96 121.13 173.01 120.59 173.06 120.06C173.1 119.68 173.68 119.82 173.64 120.19C173.6 120.59 173.57 120.98 173.53 121.38C173.97 120.99 174.47 120.66 174.97 120.33C175.29 120.12 175.61 120.62 175.29 120.83C174.71 121.2 174.17 121.59 173.68 122.06C174.07 122.14 174.47 122.22 174.86 122.29C175.24 122.36 175.1 122.94 174.73 122.87C174.35 122.8 173.97 122.73 173.6 122.65C174.04 123.29 174.48 123.93 175.06 124.44C175.35 124.69 174.95 125.13 174.66 124.88C174.14 124.43 173.74 123.86 173.35 123.28C173.31 123.75 173.26 124.21 173.22 124.68C173.18 125.06 172.6 124.92 172.64 124.55C172.69 124.06 172.73 123.58 172.78 123.09C172.73 123.14 172.68 123.2 172.62 123.24C172.32 123.5 171.93 123.65 171.69 123.96C171.45 124.26 171.01 123.86 171.25 123.56C171.49 123.26 171.82 123.12 172.12 122.88C172.29 122.75 172.43 122.6 172.57 122.44C172.09 122.34 171.62 122.23 171.15 122.12C170.77 122.03 170.9 121.45 171.27 121.54Z" fill="white"/>
        <path d="M175.75 113.35C175.97 115.28 176.47 117.28 177.23 119.17C177.26 119.24 177.29 119.3 177.31 119.37C177.39 119.55 177.47 119.74 177.55 119.92C177.69 120.22 177.83 120.51 177.98 120.8C178.07 120.98 178.17 121.15 178.26 121.33C178.59 121.92 178.94 122.49 179.33 123.03C179.44 123.19 179.56 123.35 179.68 123.51C179.85 123.73 180.03 123.95 180.21 124.15C180.34 124.3 180.47 124.44 180.6 124.58C180.94 124.94 181.29 125.27 181.66 125.59C181.81 125.72 181.97 125.84 182.12 125.96C182.5 126.25 182.9 126.52 183.32 126.76C183.5 126.86 183.68 126.96 183.86 127.05C184.43 127.34 185.03 127.57 185.65 127.74C185.85 127.8 186.05 127.84 186.25 127.89C186.27 127.9 186.28 127.9 186.3 127.9C186.67 127.97 187.02 128.04 187.36 128.08C187.56 128.11 187.76 128.14 187.96 128.16C188.44 128.21 188.88 128.24 189.3 128.24C189.51 128.24 189.72 128.24 189.92 128.24C190.09 128.24 190.26 128.23 190.42 128.21C190.65 128.19 190.86 128.17 191.06 128.14C192.58 127.92 193.53 127.39 194.06 126.99C193.38 126.68 192.61 126.41 191.77 126.18C191.58 126.13 191.38 126.08 191.18 126.03C190.99 125.98 190.79 125.93 190.59 125.89C190.4 125.85 190.2 125.8 190.01 125.77C189.63 125.69 189.24 125.62 188.84 125.55C188.64 125.52 188.44 125.48 188.24 125.46C188.01 125.42 187.77 125.39 187.53 125.36C187.38 125.34 187.22 125.32 187.06 125.3C187.01 125.29 186.96 125.29 186.91 125.28C186.37 125.2 185.85 125.05 185.36 124.85C185.17 124.77 184.99 124.69 184.82 124.6C184.43 124.4 184.05 124.17 183.69 123.92C183.53 123.8 183.37 123.68 183.22 123.56C182.91 123.32 182.62 123.05 182.34 122.78C182.2 122.64 182.07 122.51 181.93 122.37C181.76 122.18 181.59 121.99 181.42 121.8C181.29 121.64 181.16 121.49 181.04 121.33C180.68 120.87 180.36 120.41 180.08 119.97C179.97 119.8 179.86 119.63 179.76 119.47C179.62 119.25 179.5 119.03 179.39 118.83C179.28 118.64 179.19 118.47 179.11 118.31C178.79 117.71 178.63 117.32 178.63 117.32C179.03 115.1 177.72 112.82 177.13 112.21C176.54 111.6 176.44 113.2 175.75 113.35Z" fill="#D3B77B"/>
        <path d="M175.75 113.35C175.97 115.28 176.47 117.28 177.23 119.17C177.62 118.69 178.35 117.78 178.61 117.3C179.01 115.08 177.7 112.8 177.11 112.19C176.54 111.6 176.44 113.2 175.75 113.35Z" fill="#2E8287"/>
        <path d="M166.62 117.61L176.15 115C176.15 115 177.62 113.54 175.75 113.35H175.74C175.72 113.36 175.7 113.36 175.68 113.36C174.92 113.42 167.32 115.24 166.18 115.97C165.12 116.65 166.4 117.48 166.62 117.61Z" fill="#D3B77B"/>
        <path d="M190.41 128.21C190.64 128.19 190.85 128.17 191.05 128.14C191.14 127.86 191.22 127.58 191.3 127.3C191.42 126.91 191.59 126.55 191.75 126.18C191.56 126.13 191.36 126.08 191.16 126.03C191.03 126.32 190.89 126.61 190.79 126.92C190.66 127.35 190.55 127.79 190.41 128.21Z" fill="#2E8287"/>
        <path d="M189.3 128.24C189.51 128.24 189.72 128.24 189.92 128.24C190 127.97 190.06 127.69 190.13 127.41C190.26 126.9 190.41 126.39 190.58 125.89C190.39 125.85 190.19 125.8 190 125.77C189.89 126.09 189.79 126.41 189.7 126.74C189.55 127.23 189.46 127.75 189.3 128.24Z" fill="#2E8287"/>
        <path d="M187.36 128.08C187.56 128.11 187.76 128.14 187.96 128.16C188.26 127.29 188.49 126.4 188.82 125.55C188.62 125.52 188.42 125.48 188.22 125.46C187.91 126.32 187.68 127.21 187.36 128.08Z" fill="#2E8287"/>
        <path d="M185.65 127.74C185.85 127.8 186.05 127.84 186.25 127.89C186.71 127.06 187.11 126.2 187.52 125.35C187.37 125.33 187.21 125.31 187.05 125.29C187 125.28 186.95 125.28 186.9 125.27C186.5 126.1 186.11 126.94 185.65 127.74Z" fill="#2E8287"/>
        <path d="M183.32 126.76C183.5 126.86 183.68 126.96 183.86 127.05C184.1 126.78 184.32 126.49 184.52 126.19C184.81 125.74 185.06 125.28 185.34 124.84C185.15 124.76 184.97 124.68 184.8 124.59C184.61 124.89 184.43 125.2 184.25 125.52C183.98 125.97 183.65 126.36 183.32 126.76Z" fill="#2E8287"/>
        <path d="M181.66 125.59C181.81 125.72 181.97 125.84 182.12 125.96C182.63 125.27 183.15 124.59 183.67 123.9C183.51 123.78 183.35 123.66 183.2 123.54C182.69 124.22 182.18 124.91 181.66 125.59Z" fill="#2E8287"/>
        <path d="M180.21 124.15C180.34 124.3 180.47 124.44 180.6 124.58C181.2 124 181.73 123.35 182.32 122.76C182.18 122.62 182.05 122.49 181.91 122.35C181.34 122.94 180.81 123.58 180.21 124.15Z" fill="#2E8287"/>
        <path d="M179.34 123.03C179.45 123.19 179.57 123.35 179.69 123.51C180.33 123 180.91 122.42 181.41 121.78C181.28 121.62 181.15 121.47 181.03 121.31C180.54 121.95 179.97 122.53 179.34 123.03Z" fill="#2E8287"/>
        <path d="M177.98 120.8C178.07 120.98 178.17 121.15 178.26 121.33C178.88 120.89 179.48 120.43 180.06 119.95C179.95 119.78 179.84 119.61 179.74 119.45C179.18 119.92 178.59 120.37 177.98 120.8Z" fill="#2E8287"/>
        <path d="M177.31 119.37C177.39 119.55 177.47 119.74 177.55 119.92C178.17 119.56 178.78 119.2 179.38 118.81C179.27 118.62 179.18 118.45 179.1 118.29C178.51 118.66 177.91 119.02 177.31 119.37Z" fill="#2E8287"/>
        <path d="M122.41 41.93C122.41 41.93 118.72 45.64 121.89 46.98C125.07 48.32 153.8 47.11 153.8 47.11C153.8 47.11 155.5 46.09 154.4 44.79C154.06 44.46 149.76 45.1099 149.42 44.5799C149.08 44.0499 148.77 42.6299 148.77 42.6299L146.51 42.4999C146.51 42.4999 148.52 46.26 140.43 45.91C132.34 45.57 133.65 44.49 133.66 43.49C133.67 42.49 130.85 42.9399 130.85 42.9399C130.85 42.9399 132.24 46.3999 126.56 45.6899C122.64 45.2599 123.17 44.5099 123.94 42.9399C124.7 41.3599 122.41 41.93 122.41 41.93Z" fill="#D3B77B"/>
        <path d="M151.62 38.7001C151.59 38.9501 151.57 39.1801 151.54 39.4101C151.29 41.3401 150.93 42.7301 150.8 42.8501C150.51 43.1401 145.11 42.9201 144.8 42.7901C144.5 42.6601 144.06 40.6301 144.06 40.6301L142.27 42.8001C142.27 42.8001 137.9 43.8701 132.81 43.6501C122.75 43.8401 120.61 42.9201 120.3 40.6001C120.17 39.6401 120.36 38.4401 120.44 36.9901C120.52 35.4301 121.7 34.2901 123.53 33.4501C125.36 32.6101 127.85 32.0801 130.53 31.7401C135.88 31.0701 138.96 23.7401 138.96 23.7401C138.55 21.5201 139.87 19.2401 140.46 18.6301C141.03 18.0401 141.13 19.6401 141.83 19.7901C141.83 19.7901 141.83 19.7901 141.84 19.7901C141.86 19.7901 141.88 19.8001 141.9 19.8001C142.66 19.8601 150.26 21.6801 151.4 22.4101C152.45 23.0801 151.17 23.9101 150.95 24.0401C150.93 24.0501 150.92 24.0601 150.92 24.0601C150.92 24.0601 150.01 26.3201 151.06 30.3601C151.17 30.6801 151.27 31.0001 151.35 31.3401C151.91 33.7001 151.86 36.4701 151.62 38.7001Z" fill="#BE443E"/>
        <path d="M151.62 38.7001C151.59 38.9501 151.57 39.1801 151.54 39.4101C148.49 39.9201 143.58 40.6801 143.6 40.2301C143.8 35.5401 149.64 32.2201 151.34 31.3501C151.91 33.7001 151.86 36.4701 151.62 38.7001Z" fill="#D3B77B"/>
        <path d="M151.62 38.7001C151.37 40.9901 150.94 42.7201 150.8 42.8601C150.51 43.1501 145.11 42.9301 144.8 42.8001C144.5 42.6701 144.06 40.6401 144.06 40.6401L142.27 42.8101C142.27 42.8101 137.9 43.8801 132.81 43.6601C122.75 43.8501 120.61 42.9301 120.3 40.6101C122.01 41.1101 127.2 42.4801 132.57 42.4001C141.2 42.2701 143.67 38.3801 151.62 38.7001Z" fill="#2E8287"/>
        <path d="M130.06 38.6999C129.65 38.7699 129.23 38.79 128.82 38.79C129.19 38.4 129.54 38 129.99 37.73C130.32 37.53 130.04 37.0099 129.71 37.1999C129.09 37.5699 128.66 38.1499 128.13 38.6399C128.1 38.6699 128.07 38.69 128.04 38.72C128.06 38.21 128.1 37.6899 128.22 37.1899C128.31 36.8199 127.74 36.6299 127.65 37.0099C127.53 37.5199 127.49 38.03 127.47 38.55C127.16 38.28 126.86 38 126.6 37.68C126.36 37.38 125.92 37.7899 126.16 38.0799C126.36 38.3299 126.59 38.5499 126.83 38.7599C126.46 38.7599 126.09 38.7799 125.72 38.8299C125.34 38.8799 125.48 39.46 125.85 39.41C126.3 39.35 126.75 39.33 127.2 39.34C126.85 39.58 126.5 39.8299 126.21 40.1299C125.95 40.4099 126.35 40.8499 126.61 40.5699C126.84 40.3299 127.12 40.12 127.4 39.93C127.37 40.26 127.33 40.6 127.25 40.92C127.16 41.29 127.73 41.47 127.82 41.1C127.92 40.69 127.96 40.28 127.99 39.87C128.29 40.23 128.57 40.6 128.93 40.91C129.22 41.16 129.66 40.7599 129.37 40.5099C128.98 40.1699 128.68 39.74 128.34 39.35C128.96 39.36 129.58 39.3599 130.2 39.2599C130.58 39.2299 130.44 38.6499 130.06 38.6999Z" fill="white"/>
        <path d="M140.08 37.2902C139.46 37.1402 138.97 36.7602 138.5 36.3602C138.92 36.2302 139.33 36.0802 139.74 35.9002C140.09 35.7402 139.81 35.2202 139.46 35.3702C139.31 35.4402 139.15 35.5001 138.99 35.5601C139.31 35.1901 139.59 34.8002 139.79 34.3402C139.94 33.9902 139.37 33.8102 139.22 34.1602C139 34.6802 138.66 35.1101 138.28 35.5101C138.21 34.9901 138.12 34.4701 138.01 33.9501C137.93 33.5801 137.35 33.7101 137.43 34.0801C137.54 34.6301 137.63 35.1702 137.71 35.7202C137.37 35.4702 137.01 35.2702 136.58 35.1702C136.21 35.0902 136.02 35.6502 136.4 35.7402C136.72 35.8102 137.01 35.9502 137.28 36.1202C136.53 36.3302 135.79 36.5502 135.08 36.8602C134.73 37.0202 135.01 37.5401 135.36 37.3901C135.91 37.1501 136.48 36.9702 137.05 36.8002C136.78 37.1102 136.54 37.4401 136.35 37.8101C136.18 38.1501 136.68 38.4801 136.85 38.1301C137.1 37.6201 137.46 37.1902 137.84 36.7802C137.89 37.3502 137.93 37.9102 137.94 38.4902C137.95 38.8702 138.54 38.9001 138.53 38.5201C138.52 38.0301 138.49 37.5501 138.46 37.0701C138.89 37.4201 139.34 37.7401 139.9 37.8801C140.27 37.9401 140.45 37.3802 140.08 37.2902Z" fill="white"/>
        <path d="M146.29 27.9901C145.95 28.0701 145.61 28.1501 145.27 28.2301C145.58 27.8501 145.92 27.5001 146.32 27.2201C146.63 27.0101 146.36 26.4801 146.04 26.6901C145.48 27.0701 145.05 27.5701 144.65 28.1101C144.6 27.5801 144.55 27.0401 144.5 26.5101C144.46 26.1301 143.88 26.2701 143.92 26.6401C143.96 27.0401 144 27.4301 144.03 27.8301C143.59 27.4401 143.09 27.1101 142.59 26.7801C142.27 26.5701 141.95 27.0701 142.27 27.2801C142.85 27.6501 143.39 28.0401 143.88 28.5101C143.49 28.5901 143.09 28.6701 142.7 28.7401C142.32 28.8101 142.46 29.3901 142.83 29.3201C143.21 29.2501 143.59 29.1801 143.96 29.1001C143.52 29.7401 143.08 30.3801 142.5 30.8901C142.21 31.1401 142.62 31.5801 142.9 31.3301C143.42 30.8801 143.82 30.3101 144.21 29.7301C144.25 30.2001 144.3 30.6601 144.34 31.1301C144.38 31.5101 144.96 31.3701 144.92 31.0001C144.87 30.5101 144.83 30.0301 144.78 29.5401C144.83 29.5901 144.88 29.6501 144.94 29.6901C145.24 29.9501 145.63 30.1001 145.87 30.4101C146.11 30.7101 146.55 30.3001 146.31 30.0101C146.07 29.7101 145.74 29.5701 145.44 29.3301C145.27 29.2001 145.13 29.0501 144.99 28.8901C145.47 28.7901 145.94 28.6801 146.41 28.5601C146.8 28.4801 146.67 27.9001 146.29 27.9901Z" fill="white"/>
        <path d="M141.81 19.8002C141.59 21.7302 141.09 23.7302 140.33 25.6202C140.3 25.6902 140.27 25.7501 140.25 25.8201C140.17 26.0001 140.09 26.1902 140.01 26.3702C139.88 26.6702 139.73 26.9601 139.58 27.2501C139.49 27.4301 139.39 27.6002 139.3 27.7802C138.97 28.3702 138.62 28.9402 138.23 29.4802C138.12 29.6402 138 29.8001 137.88 29.9601C137.71 30.1801 137.54 30.4002 137.35 30.6002C137.22 30.7502 137.09 30.8902 136.96 31.0302C136.62 31.3902 136.27 31.7302 135.9 32.0402C135.75 32.1702 135.6 32.2902 135.44 32.4102C135.06 32.7002 134.66 32.9701 134.24 33.2101C134.06 33.3101 133.88 33.4101 133.7 33.5001C133.13 33.7901 132.53 34.0201 131.91 34.1901C131.71 34.2501 131.51 34.3002 131.31 34.3402C131.29 34.3502 131.28 34.3502 131.26 34.3502C130.89 34.4202 130.54 34.4902 130.2 34.5402C130 34.5702 129.8 34.6002 129.6 34.6202C129.12 34.6702 128.68 34.7001 128.26 34.7101C128.05 34.7101 127.84 34.7101 127.64 34.7101C127.47 34.7101 127.3 34.7002 127.14 34.6802C126.91 34.6602 126.7 34.6402 126.5 34.6102C124.98 34.3902 124.03 33.8701 123.5 33.4601C124.18 33.1501 124.95 32.8801 125.79 32.6401C125.98 32.5901 126.18 32.5402 126.38 32.4902C126.57 32.4402 126.77 32.3902 126.97 32.3502C127.16 32.3102 127.36 32.2602 127.55 32.2202C127.93 32.1402 128.32 32.0701 128.72 32.0001C128.92 31.9701 129.12 31.9302 129.32 31.9102C129.55 31.8702 129.79 31.8401 130.03 31.8101C130.18 31.7901 130.34 31.7701 130.5 31.7501C130.55 31.7401 130.6 31.7402 130.65 31.7302C131.19 31.6502 131.71 31.5002 132.2 31.3002C132.39 31.2202 132.57 31.1402 132.74 31.0502C133.13 30.8502 133.51 30.6202 133.87 30.3702C134.03 30.2502 134.19 30.1301 134.34 30.0101C134.65 29.7601 134.94 29.5002 135.22 29.2302C135.36 29.0902 135.49 28.9601 135.63 28.8101C135.8 28.6201 135.97 28.4302 136.13 28.2402C136.26 28.0802 136.39 27.9301 136.51 27.7701C136.87 27.3101 137.19 26.8502 137.47 26.4102C137.58 26.2402 137.69 26.0702 137.79 25.9102C137.93 25.6902 138.05 25.4701 138.16 25.2701C138.27 25.0801 138.36 24.9101 138.44 24.7501C138.76 24.1401 138.92 23.7601 138.92 23.7601C138.51 21.5401 139.83 19.2602 140.42 18.6502C141.02 18.0502 141.11 19.6502 141.81 19.8002Z" fill="#D3B77B"/>
        <path d="M141.81 19.8001C141.59 21.7301 141.09 23.7301 140.33 25.6201C139.94 25.1401 139.21 24.2301 138.95 23.7501C138.54 21.5301 139.86 19.2501 140.45 18.6401C141.02 18.0501 141.11 19.6501 141.81 19.8001Z" fill="#2E8287"/>
        <path d="M150.94 24.0601L141.41 21.4601C141.41 21.4601 139.93 20.0001 141.81 19.8101H141.82C141.84 19.8101 141.86 19.8201 141.88 19.8201C142.64 19.8801 150.24 21.7001 151.38 22.4301C152.44 23.0901 151.16 23.9201 150.94 24.0601Z" fill="#D3B77B"/>
        <path d="M127.16 34.6801C126.93 34.6601 126.72 34.64 126.52 34.61C126.43 34.33 126.35 34.05 126.27 33.77C126.15 33.38 125.98 33.02 125.82 32.65C126.01 32.6 126.21 32.55 126.41 32.5C126.54 32.79 126.68 33.08 126.78 33.39C126.91 33.81 127.02 34.2501 127.16 34.6801Z" fill="#2E8287"/>
        <path d="M128.27 34.71C128.06 34.71 127.85 34.71 127.65 34.71C127.57 34.44 127.51 34.1599 127.44 33.8799C127.31 33.3699 127.16 32.86 126.99 32.36C127.18 32.32 127.38 32.27 127.57 32.23C127.68 32.55 127.78 32.87 127.87 33.2C128.01 33.69 128.1 34.21 128.27 34.71Z" fill="#2E8287"/>
        <path d="M130.21 34.5402C130.01 34.5702 129.81 34.6002 129.61 34.6202C129.31 33.7502 129.08 32.8601 128.74 32.0101C128.94 31.9801 129.14 31.9402 129.34 31.9202C129.66 32.7802 129.89 33.6802 130.21 34.5402Z" fill="#2E8287"/>
        <path d="M131.91 34.2002C131.71 34.2602 131.51 34.3102 131.31 34.3502C130.85 33.5202 130.45 32.6602 130.04 31.8102C130.19 31.7902 130.35 31.7702 130.51 31.7502C130.56 31.7402 130.61 31.7402 130.66 31.7302C131.07 32.5602 131.46 33.4002 131.91 34.2002Z" fill="#2E8287"/>
        <path d="M134.25 33.22C134.07 33.32 133.89 33.42 133.71 33.51C133.47 33.24 133.25 32.95 133.05 32.65C132.76 32.21 132.51 31.74 132.23 31.3C132.42 31.22 132.6 31.14 132.77 31.05C132.96 31.35 133.14 31.66 133.33 31.98C133.59 32.43 133.91 32.82 134.25 33.22Z" fill="#2E8287"/>
        <path d="M135.9 32.05C135.75 32.18 135.6 32.3 135.44 32.42C134.92 31.73 134.41 31.05 133.89 30.36C134.05 30.24 134.21 30.12 134.36 30C134.88 30.68 135.39 31.37 135.9 32.05Z" fill="#2E8287"/>
        <path d="M137.35 30.61C137.22 30.76 137.09 30.9 136.96 31.04C136.36 30.46 135.83 29.81 135.24 29.22C135.38 29.08 135.51 28.95 135.65 28.8C136.23 29.39 136.76 30.04 137.35 30.61Z" fill="#2E8287"/>
        <path d="M138.23 29.4901C138.12 29.6501 138 29.81 137.88 29.97C137.24 29.46 136.66 28.8901 136.15 28.2401C136.28 28.0801 136.41 27.93 136.53 27.77C137.02 28.41 137.59 28.9901 138.23 29.4901Z" fill="#2E8287"/>
        <path d="M139.58 27.2601C139.49 27.4401 139.39 27.6102 139.3 27.7902C138.68 27.3502 138.08 26.8902 137.5 26.4102C137.61 26.2402 137.72 26.0702 137.82 25.9102C138.39 26.3802 138.98 26.8301 139.58 27.2601Z" fill="#2E8287"/>
        <path d="M140.25 25.82C140.17 26 140.09 26.1901 140.01 26.3701C139.39 26.0201 138.78 25.65 138.18 25.27C138.29 25.08 138.38 24.91 138.46 24.75C139.05 25.12 139.65 25.48 140.25 25.82Z" fill="#2E8287"/>
        <path d="M177.11 37.3702L175.74 34.7601C175.34 33.9901 165.88 15.8301 168.51 9.06012C168.99 7.84012 169.81 7.01016 170.95 6.60016C172.07 6.20016 173.12 6.34014 174.01 7.02014C178.96 10.7901 177.51 32.0202 177.33 34.4302L177.11 37.3702ZM172.16 8.07013C171.96 8.07013 171.76 8.11012 171.53 8.19012C170.86 8.43012 170.39 8.92016 170.09 9.67016C168.43 13.9402 172.84 24.8601 175.83 31.1401C176.17 23.5901 176.07 10.7102 172.99 8.36017C172.73 8.16017 172.46 8.07013 172.16 8.07013Z" fill="#D3B77B"/>
        <path d="M174.66 36.4502L175.62 30.7102C176.05 28.9302 179.99 13.2202 185.27 10.9902C186.32 10.5502 187.39 10.6302 188.38 11.2102C189.3 11.7502 189.85 12.6202 190 13.7102C190.79 19.8102 178 33.0402 176.54 34.5302L174.66 36.4502ZM177.28 31.0802L177.24 31.3402C181.67 26.5102 188.83 17.7902 188.33 13.9302C188.25 13.3502 188 12.9502 187.53 12.6702C187 12.3602 186.5 12.3202 185.94 12.5502C182.13 14.1602 178.4 26.4402 177.28 31.0802Z" fill="#D3B77B"/>
        <path d="M176.47 32.9401C174.81 32.6201 160.23 29.6401 159.96 23.4401C159.87 21.4001 160.65 19.7602 162.09 18.9602C163.42 18.2202 165.09 18.3002 166.35 19.1602C167.55 19.9802 168.11 21.3302 167.9 22.8602C167.82 23.4702 167.56 25.3402 166.24 25.6102C164.89 25.8902 163.74 24.1602 163.42 23.6202L164.87 22.7501C165.16 23.2401 165.62 23.7602 165.88 23.9002C165.96 23.7602 166.12 23.4202 166.23 22.6202C166.35 21.7302 166.06 20.9902 165.4 20.5502C164.68 20.0602 163.68 20.0102 162.92 20.4302C162.04 20.9202 161.6 21.9602 161.66 23.3602C161.84 27.4802 172.93 30.5301 176.8 31.2701L176.47 32.9401Z" fill="#D3B77B"/>
        <path d="M176.9 33.5401L175.83 32.2301C176.06 32.0401 181.44 27.7001 189.69 28.5701C192.4 28.8601 193.67 27.7601 194.26 26.7901C195.03 25.5201 195.04 23.6801 194.27 22.5201C193.95 22.0301 193.36 21.4802 192.37 21.6202C190.23 21.9302 189.42 23.0202 189.37 23.9302C189.34 24.5002 189.63 25.1501 190.32 25.3201C190.76 25.4301 191.1 25.4202 191.24 25.3002C191.39 25.1702 191.41 24.8301 191.4 24.7501L193.08 24.6001C193.09 24.7301 193.17 25.8601 192.34 26.5801C191.75 27.0801 190.94 27.2101 189.91 26.9701C188.52 26.6301 187.6 25.3502 187.67 23.8602C187.74 22.3502 188.95 20.4101 192.11 19.9601C193.54 19.7501 194.84 20.3501 195.66 21.6001C196.8 23.3201 196.81 25.8202 195.68 27.6802C194.99 28.8202 193.27 30.6601 189.49 30.2601C181.99 29.4601 176.95 33.5001 176.9 33.5401Z" fill="#D3B77B"/>
        <path d="M192.25 94.3601L180.06 94.7601L175.06 94.9201L163.29 95.3001L162.57 48.0701L162.5 43.7101L162.33 32.5901L174.43 32.4901L178.31 32.4501L191.36 32.3501L191.51 43.0201L191.57 47.2201L192.25 94.3601Z" fill="#BE443E"/>
        <path d="M180.06 94.7602L175.06 94.9202L174.58 47.7202L174.54 43.4202L174.43 32.4902L178.31 32.4502L178.61 43.3202L178.74 47.6002L180.06 94.7602Z" fill="#D3B77B"/>
        <path d="M191.51 43.02L178.61 43.32L174.54 43.42L162.5 43.71L162.57 48.07L174.58 47.72L178.74 47.6L191.57 47.22L191.51 43.02Z" fill="#D3B77B"/>
        <path d="M40.47 160.05L40.43 177.99L40.42 182.97L40.4 196.96L39.38 196.94L36.6 196.9L24.6201 196.71L20.21 196.64L5.53003 196.4L5.67004 183.25L5.72003 178.61L5.92004 160.89L19.7 160.56L24.86 160.43L31.77 160.26L34.66 160.19L40.47 160.05Z" fill="#D3B77B"/>
        <path d="M10.77 163.97C10.77 164.69 10.19 165.27 9.47003 165.27C8.75003 165.27 8.17004 164.69 8.17004 163.97C8.17004 163.25 8.75003 162.67 9.47003 162.67C10.19 162.67 10.77 163.25 10.77 163.97Z" fill="white"/>
        <path d="M18.1 173.42C18.1 174.17 17.49 174.78 16.74 174.78C15.99 174.78 15.38 174.17 15.38 173.42C15.38 172.67 15.99 172.06 16.74 172.06C17.49 172.07 18.1 172.67 18.1 173.42Z" fill="white"/>
        <path d="M10.53 174.26C10.53 175.02 9.91002 175.64 9.15002 175.64C8.39002 175.64 7.77002 175.02 7.77002 174.26C7.77002 173.5 8.39002 172.88 9.15002 172.88C9.91002 172.88 10.53 173.5 10.53 174.26Z" fill="white"/>
        <path d="M29.25 171.63C29.25 172.28 28.73 172.8 28.08 172.8C27.43 172.8 26.91 172.28 26.91 171.63C26.91 170.98 27.43 170.46 28.08 170.46C28.73 170.46 29.25 170.99 29.25 171.63Z" fill="white"/>
        <path d="M14.49 178.38C14.49 179.03 13.97 179.55 13.32 179.55C12.67 179.55 12.15 179.03 12.15 178.38C12.15 177.73 12.67 177.21 13.32 177.21C13.97 177.21 14.49 177.73 14.49 178.38Z" fill="white"/>
        <path d="M34.83 174.82C34.83 175.48 34.29 176.02 33.63 176.02C32.97 176.02 32.4301 175.48 32.4301 174.82C32.4301 174.16 32.97 173.62 33.63 173.62C34.29 173.62 34.83 174.16 34.83 174.82Z" fill="white"/>
        <path d="M39.8601 166.57C39.8601 167.48 39.1201 168.22 38.2101 168.22C37.3001 168.22 36.5601 167.48 36.5601 166.57C36.5601 165.66 37.3001 164.92 38.2101 164.92C39.1201 164.92 39.8601 165.66 39.8601 166.57Z" fill="white"/>
        <path d="M31.3801 166.57C31.3801 167.48 30.6401 168.22 29.7301 168.22C28.8201 168.22 28.0801 167.48 28.0801 166.57C28.0801 165.66 28.8201 164.92 29.7301 164.92C30.6301 164.92 31.3801 165.66 31.3801 166.57Z" fill="white"/>
        <path d="M34.66 160.23C34.66 161.03 34.01 161.68 33.21 161.68C32.42 161.68 31.78 161.05 31.76 160.27L34.65 160.2C34.66 160.2 34.66 160.22 34.66 160.23Z" fill="white"/>
        <path d="M19.98 169.52C20.8471 169.52 21.55 168.817 21.55 167.95C21.55 167.083 20.8471 166.38 19.98 166.38C19.113 166.38 18.41 167.083 18.41 167.95C18.41 168.817 19.113 169.52 19.98 169.52Z" fill="white"/>
        <path d="M28.23 179.7C29.0529 179.7 29.72 179.033 29.72 178.21C29.72 177.387 29.0529 176.72 28.23 176.72C27.4071 176.72 26.74 177.387 26.74 178.21C26.74 179.033 27.4071 179.7 28.23 179.7Z" fill="white"/>
        <path d="M37.7601 182.68C37.7601 183.42 37.1601 184.01 36.4301 184.01C35.6901 184.01 35.1001 183.41 35.1001 182.68C35.1001 181.94 35.7001 181.35 36.4301 181.35C37.1701 181.35 37.7601 181.94 37.7601 182.68Z" fill="white"/>
        <path d="M35.8301 190.92C36.653 190.92 37.3201 190.253 37.3201 189.43C37.3201 188.607 36.653 187.94 35.8301 187.94C35.0072 187.94 34.3401 188.607 34.3401 189.43C34.3401 190.253 35.0072 190.92 35.8301 190.92Z" fill="white"/>
        <path d="M30.42 187.74C30.42 188.44 29.85 189.01 29.15 189.01C28.45 189.01 27.88 188.44 27.88 187.74C27.88 187.04 28.45 186.47 29.15 186.47C29.86 186.48 30.42 187.04 30.42 187.74Z" fill="white"/>
        <path d="M31.39 194.73C32.1134 194.73 32.7 194.144 32.7 193.42C32.7 192.697 32.1134 192.11 31.39 192.11C30.6665 192.11 30.08 192.697 30.08 193.42C30.08 194.144 30.6665 194.73 31.39 194.73Z" fill="white"/>
        <path d="M39.47 196.45C39.47 196.62 39.44 196.78 39.39 196.94L36.61 196.9C36.57 196.76 36.54 196.61 36.54 196.46C36.54 195.65 37.2 195 38 195C38.81 194.99 39.47 195.65 39.47 196.45Z" fill="white"/>
        <path d="M17.9999 191.83C17.9999 192.57 17.4 193.16 16.67 193.16C15.94 193.16 15.34 192.56 15.34 191.83C15.34 191.1 15.94 190.5 16.67 190.5C17.4 190.5 17.9999 191.1 17.9999 191.83Z" fill="white"/>
        <path d="M21.58 185.92C21.58 186.83 20.84 187.58 19.92 187.58C19.01 187.58 18.26 186.84 18.26 185.92C18.26 185.01 19 184.26 19.92 184.26C20.84 184.26 21.58 185 21.58 185.92Z" fill="white"/>
        <path d="M16.07 187C16.07 187.75 15.46 188.35 14.72 188.35C13.97 188.35 13.36 187.74 13.36 187C13.36 186.25 13.97 185.64 14.72 185.64C15.46 185.64 16.07 186.25 16.07 187Z" fill="white"/>
        <path d="M9.9501 185.5C9.9501 186.25 9.34012 186.86 8.59012 186.86C7.84012 186.86 7.2301 186.25 7.2301 185.5C7.2301 184.75 7.84012 184.14 8.59012 184.14C9.34012 184.14 9.9501 184.75 9.9501 185.5Z" fill="white"/>
        <path d="M10.13 193.28C10.13 194.03 9.53003 194.63 8.78003 194.63C8.03003 194.63 7.43005 194.03 7.43005 193.28C7.43005 192.53 8.03003 191.93 8.78003 191.93C9.53003 191.93 10.13 192.54 10.13 193.28Z" fill="white"/>
        <path d="M24.8601 160.05L24.7401 178.08L24.7101 182.95L24.6201 196.71L20.2101 196.64L20.0201 182.99L19.9501 178.16L19.7001 160.18L24.8601 160.05Z" fill="#BE443E"/>
        <path d="M40.43 177.99L40.42 182.97L24.71 183.1L20.02 183.13L5.67004 183.25L5.72003 178.61L19.95 178.36L24.74 178.27L40.43 177.99Z" fill="#BE443E"/>
        <path d="M11.0501 149.2C5.13005 151 8.34006 153.85 8.93006 155.7C9.52006 157.55 5.81006 160.84 13.6801 161.36C19.9301 161.36 22.51 159.4 22.51 159.4C22.51 159.4 18.87 146.86 11.0501 149.2ZM10.9001 159.35C10.6901 159.07 10.7801 158.61 10.9601 157.91C11.1201 157.28 11.29 156.56 11.07 155.86C10.94 155.45 10.72 155.05 10.5 154.63C10.1 153.89 9.69004 153.13 9.91004 152.61C10.13 152.08 11 151.57 12.38 151.15C12.87 151 13.3701 150.93 13.8401 150.93C18.1201 150.93 20.64 157 21.38 159.08C20.43 159.54 18.24 160.35 14.53 160.35C11.87 160.15 11.1101 159.64 10.9001 159.35Z" fill="#BE443E"/>
        <path d="M21.3901 159.42C20.5201 159.52 12.7501 169.32 10.9501 168.98L11.9001 171.73C11.9001 171.73 17.9201 167.57 22.5201 160.21L21.3901 159.42Z" fill="#BE443E"/>
        <path d="M23.1801 159.73C23.1801 159.73 29.75 164 31.3 168.93L28.99 170.4C28.99 170.4 25.58 162.66 22.53 160.24L23.1801 159.73Z" fill="#BE443E"/>
        <path opacity="0.2" d="M21.3901 159.42C20.5201 159.52 12.7501 169.32 10.9501 168.98L11.9001 171.73C11.9001 171.73 17.9201 167.57 22.5201 160.21L21.3901 159.42Z" fill="#2E8287"/>
        <path opacity="0.2" d="M23.1801 159.73C23.1801 159.73 29.75 164 31.3 168.93L28.99 170.4C28.99 170.4 25.58 162.66 22.53 160.24L23.1801 159.73Z" fill="#2E8287"/>
        <path d="M37.53 152.46C36.67 149.5 39.93 147.2 34.74 145.84C29.55 144.48 22.27 159.36 22.27 159.36C22.27 159.36 23.45 160.95 32.09 161.34C40.72 161.73 38.39 155.43 37.53 152.46ZM34.72 159.12C34.16 159.87 32.99 160.25 31.24 160.25C31.05 160.25 30.86 160.25 30.65 160.24C26.95 160.07 24.97 159.65 23.95 159.32C23.72 159.25 23.54 159.18 23.4 159.11C25.6 154.82 29.65 148.73 32.27 148.73C32.4 148.73 32.52 148.74 32.64 148.78C33.95 149.12 34.37 149.49 34.49 149.73C34.63 150.01 34.54 150.49 34.43 151.04C34.28 151.81 34.09 152.75 34.4 153.81C34.44 153.94 34.48 154.08 34.52 154.23C34.97 155.69 35.63 157.91 34.72 159.12Z" fill="#BE443E"/>
        <path d="M23.63 159.14C23.67 158.97 23.58 158.74 23.35 158.71C22.82 158.65 21.9501 158.45 21.4601 158.74C21.1001 158.95 20.6801 159.28 20.8301 159.75C20.9901 160.27 21.6801 160.25 22.1201 160.24C22.4401 160.24 22.76 160.2 23.07 160.16C23.3 160.13 23.5301 160.12 23.6501 159.89C23.7701 159.66 23.78 159.34 23.63 159.14Z" fill="#BE443E"/>
        <path opacity="0.2" d="M23.63 159.14C23.67 158.97 23.58 158.74 23.35 158.71C22.82 158.65 21.9501 158.45 21.4601 158.74C21.1001 158.95 20.6801 159.28 20.8301 159.75C20.9901 160.27 21.6801 160.25 22.1201 160.24C22.4401 160.24 22.76 160.2 23.07 160.16C23.3 160.13 23.5301 160.12 23.6501 159.89C23.7701 159.66 23.78 159.34 23.63 159.14Z" fill="#2E8287"/>
        <path d="M170.84 161.38C170.84 161.38 165.01 158.16 167.57 155.12C170.14 152.09 171.3 154.59 171.3 154.59C171.3 154.59 170.37 150.1 173.09 150.22C175.82 150.33 177.44 153.17 177.44 153.17C177.44 153.17 178.43 148.86 180.68 149.58C182.93 150.3 182.34 153.03 182.34 153.03C182.34 153.03 186.07 150.31 187.16 151.49C188.25 152.67 186.68 155.12 186.68 155.12C186.68 155.12 189.72 155.26 190.12 156.87C190.52 158.48 188.02 161.38 188.02 161.38H170.84Z" fill="#BE443E"/>
        <path opacity="0.2" d="M173.76 161.95C173.76 161.95 170.76 157.29 173.1 156.24C175.45 155.19 176.55 157.17 176.55 157.17C176.55 157.17 177.66 154.43 179.23 155.19C180.8 155.95 180.27 157.29 180.27 157.29C180.27 157.29 183.31 154.96 184.25 156.77C185.18 158.58 182.45 161.96 182.45 161.96H173.76V161.95Z" fill="#2E8287"/>
        <path d="M195.79 163.01L195.76 165.55L195.62 175.83L195.41 191.37C195.39 193.1 193.99 194.5 192.26 194.52L184.08 194.61L176.41 194.7L167.09 194.81L160.88 194.88L153.88 194.96C153.16 194.97 152.49 194.74 151.95 194.33C151.16 193.75 150.64 192.8 150.65 191.74L150.7 185.97L150.75 179.51L150.79 175.05L150.88 163.74C150.89 162.01 152.28 160.61 154.01 160.58L161.16 160.43L164.96 160.36L170.85 160.24L177.98 160.09L183.93 159.97L191.63 159.81L192.53 159.79C194.33 159.74 195.81 161.2 195.79 163.01Z" fill="#D3B77B"/>
        <path d="M164.96 160.34L150.75 179.5L150.79 175.04L161.16 160.42L164.96 160.34Z" fill="#BE443E"/>
        <path d="M177.97 160.07L151.95 194.32C151.16 193.74 150.64 192.79 150.65 191.73L150.7 185.96L170.85 160.22L177.97 160.07Z" fill="#BE443E"/>
        <path d="M191.63 159.79L167.09 194.8L160.88 194.87L183.93 159.95L191.63 159.79Z" fill="#BE443E"/>
        <path d="M176.41 194.69L195.75 165.54L195.62 175.82L184.08 194.6L176.41 194.69Z" fill="#BE443E"/>
        <path d="M66.5098 145.51C58.2398 145.69 49.9798 146.31 41.7098 145.61C40.9198 145.54 40.1098 145.44 39.3498 145.21C37.9498 144.79 37.2598 143.92 37.4998 142.32C38.3798 136.26 41.1098 130.9 43.7298 125.5C48.5598 115.57 54.5498 106.28 59.7298 96.5401C63.0098 90.3801 66.5498 84.2801 67.5898 77.2301C68.3698 71.9301 68.3798 66.5601 65.5298 61.8001C63.6798 58.7101 61.8598 58.2201 59.0798 59.4901C57.4598 60.2301 55.8698 61.0001 54.3298 61.9001C49.8598 64.5001 47.7598 68.4801 47.2798 73.4901C47.2198 74.1101 47.5098 75.0101 46.2598 74.8701C45.2598 74.7601 44.1898 75.0301 44.1398 73.4401C43.9798 68.1601 46.1298 63.8501 49.7398 60.1901C55.4998 54.3401 63.6198 52.3401 70.3898 55.7301C76.8898 58.9901 80.1598 64.8101 81.1498 71.9501C82.0998 78.8701 80.1298 85.2401 77.6298 91.5501C72.8598 103.59 65.8598 114.37 58.7998 125.12C55.5098 130.13 52.5698 135.38 48.5398 139.89C48.3998 140.04 48.3498 140.27 48.2598 140.46C48.5398 140.53 48.8298 140.66 49.1098 140.66C56.9898 140.7 64.8598 140.72 72.7398 140.74C76.7998 140.75 80.8098 141.3 84.8398 141.76C85.9698 141.89 86.5098 141.57 86.5198 140.39C86.5298 139.41 86.6198 138.43 86.7498 137.47C86.8798 136.49 86.7698 135.08 87.8398 134.84C89.4398 134.47 91.0498 135.14 91.4798 136.87C92.0698 139.27 92.3698 141.75 92.6698 144.21C92.7798 145.15 91.8498 145.24 91.1598 145.38C87.7098 146.11 84.2498 145.6 80.7898 145.54C76.0198 145.44 71.2698 145.51 66.5098 145.51Z" fill="#2E8287"/>
        <path d="M129.54 59.31C122.25 59.31 114.95 59.32 107.66 59.3C106.54 59.3 106.29 59.7301 106.8 60.6801C107.99 62.8801 107.75 65.24 107.58 67.59C107.53 68.31 107.19 68.82 106.43 68.77C105.42 68.69 103.78 69.24 103.53 68.22C102.72 64.93 101.85 61.5601 102.89 58.1201C103.18 57.1401 103.84 56.78 104.82 56.61C111.9 55.35 119.06 55.32 126.21 55.04C135.63 54.67 145.06 54.2901 154.48 55.1201C156.29 55.2801 158.3 55.13 159.34 57.19C159.43 57.37 159.72 57.45 159.53 57.72C155.88 62.9 151.4 67.25 146.31 71C139.36 76.12 132.42 81.24 125.5 86.39C125.14 86.65 124.57 86.76 124.52 87.35C124.95 87.38 125.38 87.44 125.8 87.44C133.33 87.51 140.86 88 147.48 91.98C154.31 96.08 159.95 101.53 161.98 109.53C163.8 116.73 161.02 123.15 156.7 128.7C145.98 142.44 131.47 147.27 114.52 145.63C104.64 144.67 98.3799 137.68 98.2799 127.68C98.2499 125.15 97.8799 122.61 98.4599 120.09C98.6299 119.35 98.8199 118.52 99.7699 118.47C100.8 118.42 101.88 118.18 102.65 119.32C103.43 120.48 103.63 121.77 103.83 123.09C104.27 125.99 104.6 128.92 105.22 131.78C106.57 138 110.92 141.29 117.28 140.8C130.65 139.76 140.32 132.88 146.46 121.23C150.26 114.03 148.9 107.06 143.84 100.74C136.71 91.85 127.44 90.32 116.95 92.66C115.06 93.08 113.2 93.76 111.18 93.51C109.81 93.34 109.36 92.75 109.62 91.38C110.09 88.9 112.02 87.63 113.76 86.19C124.15 77.53 136.01 70.98 146.96 63.13C148.55 61.99 150.15 60.87 151.74 59.73C151.95 59.58 152.28 59.32 152.25 59.19C152.15 58.78 151.73 58.98 151.46 58.98C144.17 58.97 136.87 58.97 129.58 58.97C129.54 59.08 129.54 59.2 129.54 59.31Z" fill="#2E8287"/>
    </g>
    <defs>
        <clipPath id="clip0_30_4104">
            <rect width="200" height="200" fill="white"/>
        </clipPath>
    </defs>
</svg>
