<svg width="200" height="200" viewBox="0 0 200 200" fill="none" xmlns="http://www.w3.org/2000/svg">
    <g clip-path="url(#clip0_30_7379)">
        <mask id="mask0_30_7379" style="mask-type:alpha" x="-1" y="-1" width="242" height="242">
            <rect x="-0.00012207" width="240" height="240" fill="#D9D9D9" stroke="#7AAB3A"/>
        </mask>
        <g mask="url(#mask0_30_7379)">
            <path d="M200 -4.1665H-0.00012207V203.333H200V-4.1665Z" fill="#2E8287"/>
            <path d="M93.6299 149.917L94.0999 172.607H104.36V148.197L99.9999 144.407L93.6299 149.917Z" fill="white"/>
            <path d="M76.1 106.017C76.1 106.017 63.8399 125.397 62.5499 141.967L69.66 138.217L68.71 152.577L77.21 146.187L79.96 156.737L89.28 148.587L92.41 156.667L100.47 147.407L104.8 155.717L113.97 145.847L119.75 153.607L121.41 145.007L130.62 149.087L131.17 141.967L137.47 144.207C137.47 144.207 133.5 117.177 125.42 103.007C117.33 88.8366 76.1 106.017 76.1 106.017Z" fill="#D3B77B"/>
            <path d="M84.6999 74.3666C84.6999 74.3666 71.7999 95.2266 68.2699 113.537L77.6999 108.667L77.6299 123.667L89.2599 117.157L90.0199 124.937L98.7899 118.187L102.58 126.157L111.25 116.697L114.69 123.457L120.05 115.217L126.08 121.787L128.26 112.067C128.26 112.067 133.43 112.257 134.23 113.677C135.03 115.097 125.85 79.9166 120.01 73.3566C114.19 66.7966 84.6999 74.3666 84.6999 74.3666Z" fill="#D3B77B"/>
            <path opacity="0.2" d="M84.6999 74.3666C84.6999 74.3666 71.7999 95.2266 68.2699 113.537L77.6999 108.667L77.6299 123.667L89.2599 117.157L90.0199 124.937L98.7899 118.187L102.58 126.157L111.25 116.697L114.69 123.457L120.05 115.217L126.08 121.787L128.26 112.067C128.26 112.067 133.43 112.257 134.23 113.677C135.03 115.097 125.85 79.9166 120.01 73.3566C114.19 66.7966 84.6999 74.3666 84.6999 74.3666Z" fill="#2E8287"/>
            <path d="M102.39 41.8767C102.39 41.8767 81.17 64.7867 76.7 81.2067L81.7399 79.4767L80.0599 88.4767L89.27 80.6267L90.35 88.9467L97.72 80.4067L101.68 89.8867L107.29 81.1267L113.22 89.3967L118.64 80.7667L123.58 87.0267L124.76 82.1467L128.51 84.0067C128.49 84.0167 119.94 56.7867 102.39 41.8767Z" fill="#D3B77B"/>
            <path d="M102.42 99.1068C102.42 100.997 100.89 102.527 98.9999 102.527C97.1099 102.527 95.58 100.997 95.58 99.1068C95.58 97.2168 97.1099 95.6868 98.9999 95.6868C100.88 95.6868 102.42 97.2168 102.42 99.1068Z" fill="#BE443E"/>
            <path d="M122.75 106.477C122.75 108.347 121.24 109.857 119.37 109.857C117.5 109.857 115.99 108.347 115.99 106.477C115.99 104.607 117.5 103.097 119.37 103.097C121.24 103.097 122.75 104.607 122.75 106.477Z" fill="#BE443E"/>
            <path d="M87.7699 110.667C87.7699 112.367 86.3899 113.737 84.6999 113.737C83.0099 113.737 81.6299 112.357 81.6299 110.667C81.6299 108.977 83.0099 107.597 84.6999 107.597C86.3899 107.597 87.7699 108.967 87.7699 110.667Z" fill="white"/>
            <path d="M76.0999 144.397C78.0053 144.397 79.5499 142.852 79.5499 140.947C79.5499 139.041 78.0053 137.497 76.0999 137.497C74.1945 137.497 72.6499 139.041 72.6499 140.947C72.6499 142.852 74.1945 144.397 76.0999 144.397Z" fill="#BE443E"/>
            <path d="M109.45 144.407C111.631 144.407 113.4 142.638 113.4 140.457C113.4 138.275 111.631 136.507 109.45 136.507C107.268 136.507 105.5 138.275 105.5 140.457C105.5 142.638 107.268 144.407 109.45 144.407Z" fill="white"/>
            <path d="M115.77 74.9567C115.77 76.6967 114.36 78.1066 112.62 78.1066C110.88 78.1066 109.47 76.6967 109.47 74.9567C109.47 73.2167 110.88 71.8066 112.62 71.8066C114.36 71.8066 115.77 73.2167 115.77 74.9567Z" fill="white"/>
            <path d="M96.3399 68.2169C96.3399 69.8969 94.9799 71.2568 93.2999 71.2568C91.6199 71.2568 90.2599 69.8969 90.2599 68.2169C90.2599 66.5369 91.6199 65.1768 93.2999 65.1768C94.9699 65.1668 96.3399 66.5369 96.3399 68.2169Z" fill="#BE443E"/>
            <path d="M99.7199 51.8268C98.4099 55.0268 97.0399 58.1868 95.6099 61.3368C95.2699 62.0868 96.3799 62.7368 96.7199 61.9868C98.1899 58.7368 99.5999 55.4668 100.96 52.1668C101.28 51.4068 100.03 51.0668 99.7199 51.8268Z" fill="white"/>
            <path d="M103.09 58.1467C102.04 61.8267 101.5 65.5667 101.46 69.3867C101.45 70.2167 102.74 70.2167 102.75 69.3867C102.79 65.6767 103.32 62.0566 104.33 58.4866C104.56 57.6966 103.32 57.3567 103.09 58.1467Z" fill="white"/>
            <path d="M110.61 66.7268C110.31 64.3568 110.06 61.9768 109.86 59.5968C109.79 58.7768 108.5 58.7668 108.57 59.5968C108.77 61.9768 109.02 64.3568 109.32 66.7268C109.43 67.5368 110.72 67.5468 110.61 66.7268Z" fill="white"/>
            <path d="M117 66.3368C115.91 63.8268 114.66 61.4068 113.26 59.0668C112.83 58.3568 111.72 59.0068 112.15 59.7168C113.56 62.0568 114.8 64.4767 115.89 66.9867C116.22 67.7467 117.33 67.0868 117 66.3368Z" fill="white"/>
            <path d="M81.9599 91.2668C81.2899 94.4668 79.3599 97.7467 78.0799 100.747C77.7599 101.497 78.8699 102.157 79.1899 101.397C79.9599 99.5968 80.7199 97.7967 81.4899 95.9967C82.0999 94.5767 82.8799 93.1267 83.1999 91.6067C83.3699 90.7967 82.1299 90.4568 81.9599 91.2668Z" fill="white"/>
            <path d="M88.93 93.9766C87.55 96.6766 86.69 99.5266 86.33 102.537C86.23 103.357 87.52 103.347 87.62 102.537C87.96 99.7566 88.78 97.1166 90.05 94.6266C90.42 93.8866 89.31 93.2366 88.93 93.9766Z" fill="white"/>
            <path d="M96.3199 105.117C96.3699 104.287 95.0799 104.297 95.0299 105.117C94.8299 108.597 94.7499 112.077 94.7899 115.557C94.7999 116.387 96.0899 116.387 96.0799 115.557C96.0299 112.077 96.1099 108.597 96.3199 105.117Z" fill="white"/>
            <path d="M109.96 92.6567C109.95 91.8267 108.66 91.8267 108.67 92.6567C108.74 97.3667 108.71 102.067 108.58 106.777C108.56 107.607 109.84 107.607 109.87 106.777C110 102.067 110.03 97.3667 109.96 92.6567Z" fill="white"/>
            <path d="M117.61 99.1067C117.23 97.1667 116.85 95.2268 116.49 93.2768C116.34 92.4668 115.1 92.8067 115.25 93.6167C115.62 95.5567 115.99 97.5067 116.37 99.4467C116.53 100.267 117.77 99.9167 117.61 99.1067Z" fill="white"/>
            <path d="M125.12 104.017C124.28 100.167 123.27 96.3766 122.08 92.6266C121.83 91.8366 120.59 92.1767 120.84 92.9667C122.03 96.7167 123.05 100.517 123.88 104.357C124.05 105.167 125.29 104.827 125.12 104.017Z" fill="white"/>
            <path d="M73.7699 123.887C73.3699 125.157 72.6699 126.267 72.0999 127.457C71.5799 128.537 71.2199 129.667 70.8699 130.807C70.6299 131.597 71.8699 131.937 72.1099 131.147C72.8499 128.717 74.2499 126.617 75.0099 124.217C75.2599 123.437 74.0199 123.107 73.7699 123.887Z" fill="white"/>
            <path d="M80.6999 125.097C78.6999 128.237 77.2099 131.617 76.2199 135.207C75.9999 136.007 77.2399 136.347 77.4599 135.547C78.4199 132.057 79.8699 128.807 81.8099 125.747C82.2599 125.037 81.1399 124.397 80.6999 125.097Z" fill="white"/>
            <path d="M88.6 128.527C88.07 132.667 86.5 136.587 86.34 140.787C86.31 141.617 87.6 141.617 87.63 140.787C87.78 136.607 89.36 132.667 89.89 128.527C89.99 127.707 88.7 127.717 88.6 128.527Z" fill="white"/>
            <path d="M98.3299 129.097C98.3799 128.267 97.09 128.277 97.04 129.097C96.81 132.897 96.8199 136.677 97.0799 140.477C97.1399 141.297 98.4199 141.307 98.3699 140.477C98.1099 136.687 98.0899 132.897 98.3299 129.097Z" fill="white"/>
            <path d="M109.07 133.617C108.72 131.687 108.56 129.757 108.57 127.807C108.57 126.977 107.29 126.977 107.28 127.807C107.27 129.877 107.46 131.927 107.83 133.957C107.97 134.777 109.21 134.427 109.07 133.617Z" fill="white"/>
            <path d="M121.72 138.007C120.69 133.917 119.46 129.877 118.05 125.907C117.77 125.137 116.53 125.467 116.81 126.247C118.22 130.227 119.45 134.257 120.48 138.347C120.68 139.147 121.92 138.807 121.72 138.007Z" fill="white"/>
            <path d="M130.03 133.697C129.2 130.427 128.01 127.307 126.47 124.307C126.09 123.567 124.98 124.217 125.36 124.957C126.85 127.857 127.99 130.877 128.79 134.037C128.99 134.837 130.23 134.497 130.03 133.697Z" fill="white"/>
            <path d="M103.46 161.237C103.31 159.647 103.16 156.267 100.85 156.597C98.68 156.907 97.95 159.667 97.78 161.457C97.68 162.487 97.4599 165.987 99.3599 165.887C101.24 165.787 101.29 162.387 101.1 161.177C100.97 160.357 99.7299 160.707 99.8599 161.517C99.8899 161.687 99.96 164.787 99.1 163.997C98.87 163.777 98.9899 162.737 98.9899 162.407C99.0099 161.247 99.4899 157.377 101.17 158.387C103.25 159.637 102.28 165.967 101.22 167.717C100.42 169.037 98.98 169.377 97.73 168.477C96.77 167.787 96.5399 167.037 96.4199 165.887C96.2699 164.387 96.53 162.867 96.85 161.407C97.46 158.637 97.9399 155.487 99.3599 153.007C99.7699 152.287 98.6599 151.637 98.2499 152.357C96.6599 155.137 96.0399 158.717 95.4499 161.837C95.0199 164.087 94.6 167.327 96.34 169.187C97.71 170.647 100.04 170.727 101.53 169.397C103.54 167.597 103.69 163.667 103.46 161.237Z" fill="#D3B77B"/>
            <path d="M102.09 19.6167L97.98 34.1767L84.5599 36.7667L94.28 41.4667L94.0099 53.5767L102.3 41.9067L111.75 53.1567L109.57 40.3367L119.62 36.9367L106.38 32.7767L102.09 19.6167Z" fill="#BE443E"/>
            <path d="M29.9799 4.34668L26.6198 16.2667L14.4498 19.7267L22.7998 24.8066L20.0098 38.1266L29.1798 28.4166L39.6798 36.7267L35.9298 23.9266L44.6498 18.2366L34.2299 16.1266L29.9799 4.34668Z" fill="#D3B77B"/>
            <path d="M29.2598 67.0667L24.9099 79.6766L12.4799 80.9366L21.0098 87.8167L19.6198 99.9366L30.2098 90.0067L39.6498 98.8367L37.3398 86.2167L46.6298 81.2567L34.0798 78.8066L29.2598 67.0667Z" fill="#BE443E"/>
            <path d="M29.9199 128.937L25.9999 138.487L12.7599 140.087L22.1899 146.136L20.5199 161.516L29.2799 150.776L37.0999 161.016L35.5099 146.547L46.9399 141.067L32.8199 137.897L29.9199 128.937Z" fill="#D3B77B"/>
            <path d="M31.2599 31.1466C31.2599 32.0866 30.4999 32.8467 29.5599 32.8467C28.6199 32.8467 27.8599 32.0866 27.8599 31.1466C27.8599 30.2066 28.6199 29.4466 29.5599 29.4466C30.4899 29.4366 31.2599 30.2066 31.2599 31.1466Z" fill="white"/>
            <path d="M30.9599 34.2567C30.9599 35.0367 30.3299 35.6666 29.5499 35.6666C28.7699 35.6666 28.1399 35.0367 28.1399 34.2567C28.1399 33.4767 28.7699 32.8467 29.5499 32.8467C30.3299 32.8467 30.9599 33.4767 30.9599 34.2567Z" fill="white"/>
            <path d="M31.2599 37.3665C31.2599 38.3065 30.4999 39.0665 29.5599 39.0665C28.6199 39.0665 27.8599 38.3065 27.8599 37.3665C27.8599 36.4265 28.6199 35.6665 29.5599 35.6665C30.4899 35.6665 31.2599 36.4265 31.2599 37.3665Z" fill="white"/>
            <path d="M30.9599 40.4767C30.9599 41.2567 30.3299 41.8867 29.5499 41.8867C28.7699 41.8867 28.1399 41.2567 28.1399 40.4767C28.1399 39.6967 28.7699 39.0667 29.5499 39.0667C30.3299 39.0767 30.9599 39.7067 30.9599 40.4767Z" fill="white"/>
            <path d="M31.2599 43.5966C31.2599 44.5366 30.4999 45.2965 29.5599 45.2965C28.6199 45.2965 27.8599 44.5366 27.8599 43.5966C27.8599 42.6566 28.6199 41.8966 29.5599 41.8966C30.4899 41.8866 31.2599 42.6466 31.2599 43.5966Z" fill="white"/>
            <path d="M30.9599 46.7067C30.9599 47.4867 30.3299 48.1166 29.5499 48.1166C28.7699 48.1166 28.1399 47.4867 28.1399 46.7067C28.1399 45.9267 28.7699 45.2966 29.5499 45.2966C30.3299 45.2966 30.9599 45.9267 30.9599 46.7067Z" fill="white"/>
            <path d="M31.2599 49.8166C31.2599 50.7566 30.4999 51.5166 29.5599 51.5166C28.6199 51.5166 27.8599 50.7566 27.8599 49.8166C27.8599 48.8766 28.6199 48.1166 29.5599 48.1166C30.4899 48.1066 31.2599 48.8766 31.2599 49.8166Z" fill="white"/>
            <path d="M30.9599 52.9266C30.9599 53.7066 30.3299 54.3366 29.5499 54.3366C28.7699 54.3366 28.1399 53.7066 28.1399 52.9266C28.1399 52.1466 28.7699 51.5166 29.5499 51.5166C30.3299 51.5166 30.9599 52.1466 30.9599 52.9266Z" fill="white"/>
            <path d="M31.2599 56.0367C31.2599 56.9767 30.4999 57.7366 29.5599 57.7366C28.6199 57.7366 27.8599 56.9767 27.8599 56.0367C27.8599 55.0967 28.6199 54.3367 29.5599 54.3367C30.4899 54.3367 31.2599 55.0967 31.2599 56.0367Z" fill="white"/>
            <path d="M30.9599 59.1466C30.9599 59.9266 30.3299 60.5566 29.5499 60.5566C28.7699 60.5566 28.1399 59.9266 28.1399 59.1466C28.1399 58.3666 28.7699 57.7366 29.5499 57.7366C30.3299 57.7466 30.9599 58.3766 30.9599 59.1466Z" fill="white"/>
            <path d="M31.2599 62.2567C31.2599 63.1967 30.4999 63.9567 29.5599 63.9567C28.6199 63.9567 27.8599 63.1967 27.8599 62.2567C27.8599 61.3167 28.6199 60.5566 29.5599 60.5566C30.4899 60.5566 31.2599 61.3167 31.2599 62.2567Z" fill="white"/>
            <path d="M30.9599 65.3768C30.9599 66.1568 30.3299 66.7868 29.5499 66.7868C28.7699 66.7868 28.1399 66.1568 28.1399 65.3768C28.1399 64.5968 28.7699 63.9668 29.5499 63.9668C30.3299 63.9668 30.9599 64.5968 30.9599 65.3768Z" fill="white"/>
            <path d="M31.6799 -0.173427C31.6799 0.766573 30.9199 1.52659 29.9799 1.52659C29.0399 1.52659 28.2799 0.766573 28.2799 -0.173427C28.2799 -1.11343 29.0399 -1.87344 29.9799 -1.87344C30.9199 -1.88344 31.6799 -1.11343 31.6799 -0.173427Z" fill="white"/>
            <path d="M31.3799 2.93658C31.3799 3.71658 30.75 4.34662 29.97 4.34662C29.19 4.34662 28.5599 3.71658 28.5599 2.93658C28.5599 2.15658 29.19 1.52661 29.97 1.52661C30.75 1.52661 31.3799 2.15658 31.3799 2.93658Z" fill="white"/>
            <path d="M31.5499 93.0265C31.5499 93.9665 30.7899 94.7265 29.8499 94.7265C28.9099 94.7265 28.1499 93.9665 28.1499 93.0265C28.1499 92.0865 28.9099 91.3265 29.8499 91.3265C30.7899 91.3165 31.5499 92.0865 31.5499 93.0265Z" fill="white"/>
            <path d="M31.2598 96.1365C31.2598 96.9165 30.6299 97.5465 29.8499 97.5465C29.0699 97.5465 28.4398 96.9165 28.4398 96.1365C28.4398 95.3565 29.0699 94.7266 29.8499 94.7266C30.6299 94.7266 31.2598 95.3565 31.2598 96.1365Z" fill="white"/>
            <path d="M31.5499 99.2466C31.5499 100.187 30.7899 100.947 29.8499 100.947C28.9099 100.947 28.1499 100.187 28.1499 99.2466C28.1499 98.3066 28.9099 97.5466 29.8499 97.5466C30.7899 97.5466 31.5499 98.3066 31.5499 99.2466Z" fill="white"/>
            <path d="M31.2598 102.357C31.2598 103.137 30.6299 103.767 29.8499 103.767C29.0699 103.767 28.4398 103.137 28.4398 102.357C28.4398 101.577 29.0699 100.947 29.8499 100.947C30.6299 100.957 31.2598 101.587 31.2598 102.357Z" fill="white"/>
            <path d="M31.5499 105.467C31.5499 106.407 30.7899 107.167 29.8499 107.167C28.9099 107.167 28.1499 106.407 28.1499 105.467C28.1499 104.527 28.9099 103.767 29.8499 103.767C30.7899 103.767 31.5499 104.527 31.5499 105.467Z" fill="white"/>
            <path d="M31.2598 108.587C31.2598 109.367 30.6299 109.997 29.8499 109.997C29.0699 109.997 28.4398 109.367 28.4398 108.587C28.4398 107.807 29.0699 107.177 29.8499 107.177C30.6299 107.177 31.2598 107.807 31.2598 108.587Z" fill="white"/>
            <path d="M31.5499 111.696C31.5499 112.636 30.7899 113.396 29.8499 113.396C28.9099 113.396 28.1499 112.636 28.1499 111.696C28.1499 110.756 28.9099 109.996 29.8499 109.996C30.7899 109.986 31.5499 110.756 31.5499 111.696Z" fill="white"/>
            <path d="M31.2598 114.806C31.2598 115.586 30.6299 116.216 29.8499 116.216C29.0699 116.216 28.4398 115.586 28.4398 114.806C28.4398 114.026 29.0699 113.396 29.8499 113.396C30.6299 113.396 31.2598 114.026 31.2598 114.806Z" fill="white"/>
            <path d="M31.5499 117.917C31.5499 118.857 30.7899 119.617 29.8499 119.617C28.9099 119.617 28.1499 118.857 28.1499 117.917C28.1499 116.977 28.9099 116.217 29.8499 116.217C30.7899 116.217 31.5499 116.977 31.5499 117.917Z" fill="white"/>
            <path d="M31.2598 121.026C31.2598 121.806 30.6299 122.436 29.8499 122.436C29.0699 122.436 28.4398 121.806 28.4398 121.026C28.4398 120.246 29.0699 119.616 29.8499 119.616C30.6299 119.626 31.2598 120.256 31.2598 121.026Z" fill="white"/>
            <path d="M31.5499 124.137C31.5499 125.077 30.7899 125.837 29.8499 125.837C28.9099 125.837 28.1499 125.077 28.1499 124.137C28.1499 123.197 28.9099 122.437 29.8499 122.437C30.7899 122.437 31.5499 123.197 31.5499 124.137Z" fill="white"/>
            <path d="M31.2598 127.257C31.2598 128.037 30.6299 128.667 29.8499 128.667C29.0699 128.667 28.4398 128.037 28.4398 127.257C28.4398 126.477 29.0699 125.847 29.8499 125.847C30.6299 125.847 31.2598 126.477 31.2598 127.257Z" fill="white"/>
            <path d="M170.57 -31.2932L167.21 -19.3632L155.04 -15.9132L163.39 -10.8333L160.6 2.49677L169.77 -7.2132L180.27 1.0968L176.52 -11.7032L185.24 -17.4032L174.82 -19.5032L170.57 -31.2932Z" fill="#D3B77B"/>
            <path d="M169.85 31.4368L165.5 44.0368L153.07 45.3068L161.6 52.1768L160.21 64.2968L170.8 54.3668L180.24 63.1968L177.93 50.5868L187.22 45.6168L174.67 43.1768L169.85 31.4368Z" fill="#D3B77B"/>
            <path d="M170.51 93.3066L166.59 102.847L153.35 104.457L162.78 110.507L161.11 125.887L169.87 115.137L177.69 125.377L176.1 110.907L187.53 105.427L173.41 102.267L170.51 93.3066Z" fill="#BE443E"/>
            <path d="M171.55 -1.37323C171.55 -0.59323 170.92 0.0368042 170.14 0.0368042C169.36 0.0368042 168.73 -0.59323 168.73 -1.37323C168.73 -2.15323 169.36 -2.7832 170.14 -2.7832C170.92 -2.7832 171.55 -2.15323 171.55 -1.37323Z" fill="white"/>
            <path d="M171.85 1.73667C171.85 2.67667 171.09 3.43668 170.15 3.43668C169.21 3.43668 168.45 2.67667 168.45 1.73667C168.45 0.796669 169.21 0.0367174 170.15 0.0367174C171.08 0.0267174 171.85 0.796669 171.85 1.73667Z" fill="white"/>
            <path d="M171.55 4.8468C171.55 5.6268 170.92 6.25677 170.14 6.25677C169.36 6.25677 168.73 5.6268 168.73 4.8468C168.73 4.0668 169.36 3.43677 170.14 3.43677C170.92 3.43677 171.55 4.0668 171.55 4.8468Z" fill="white"/>
            <path d="M171.85 7.95685C171.85 8.89685 171.09 9.65686 170.15 9.65686C169.21 9.65686 168.45 8.89685 168.45 7.95685C168.45 7.01685 169.21 6.25684 170.15 6.25684C171.08 6.25684 171.85 7.01685 171.85 7.95685Z" fill="white"/>
            <path d="M171.55 11.0667C171.55 11.8467 170.92 12.4767 170.14 12.4767C169.36 12.4767 168.73 11.8467 168.73 11.0667C168.73 10.2867 169.36 9.65674 170.14 9.65674C170.92 9.66674 171.55 10.2967 171.55 11.0667Z" fill="white"/>
            <path d="M171.85 14.1768C171.85 15.1168 171.09 15.8768 170.15 15.8768C169.21 15.8768 168.45 15.1168 168.45 14.1768C168.45 13.2368 169.21 12.4768 170.15 12.4768C171.08 12.4768 171.85 13.2368 171.85 14.1768Z" fill="white"/>
            <path d="M171.55 17.2967C171.55 18.0767 170.92 18.7067 170.14 18.7067C169.36 18.7067 168.73 18.0767 168.73 17.2967C168.73 16.5167 169.36 15.8867 170.14 15.8867C170.92 15.8867 171.55 16.5167 171.55 17.2967Z" fill="white"/>
            <path d="M171.85 20.4067C171.85 21.3467 171.09 22.1066 170.15 22.1066C169.21 22.1066 168.45 21.3467 168.45 20.4067C168.45 19.4667 169.21 18.7066 170.15 18.7066C171.08 18.6966 171.85 19.4667 171.85 20.4067Z" fill="white"/>
            <path d="M171.55 23.5167C171.55 24.2967 170.92 24.9267 170.14 24.9267C169.36 24.9267 168.73 24.2967 168.73 23.5167C168.73 22.7367 169.36 22.1067 170.14 22.1067C170.92 22.1067 171.55 22.7367 171.55 23.5167Z" fill="white"/>
            <path d="M171.85 26.6268C171.85 27.5668 171.09 28.3268 170.15 28.3268C169.21 28.3268 168.45 27.5668 168.45 26.6268C168.45 25.6868 169.21 24.9268 170.15 24.9268C171.08 24.9268 171.85 25.6868 171.85 26.6268Z" fill="white"/>
            <path d="M171.55 29.7366C171.55 30.5166 170.92 31.1467 170.14 31.1467C169.36 31.1467 168.73 30.5166 168.73 29.7366C168.73 28.9566 169.36 28.3267 170.14 28.3267C170.92 28.3367 171.55 28.9666 171.55 29.7366Z" fill="white"/>
            <path d="M172.15 57.3868C172.15 58.3268 171.39 59.0868 170.45 59.0868C169.51 59.0868 168.75 58.3268 168.75 57.3868C168.75 56.4468 169.51 55.6868 170.45 55.6868C171.38 55.6868 172.15 56.4468 172.15 57.3868Z" fill="white"/>
            <path d="M171.85 60.5067C171.85 61.2867 171.22 61.9166 170.44 61.9166C169.66 61.9166 169.03 61.2867 169.03 60.5067C169.03 59.7267 169.66 59.0967 170.44 59.0967C171.22 59.0967 171.85 59.7267 171.85 60.5067Z" fill="white"/>
            <path d="M172.15 63.6166C172.15 64.5566 171.39 65.3166 170.45 65.3166C169.51 65.3166 168.75 64.5566 168.75 63.6166C168.75 62.6766 169.51 61.9166 170.45 61.9166C171.38 61.9066 172.15 62.6766 172.15 63.6166Z" fill="white"/>
            <path d="M171.85 66.7267C171.85 67.5067 171.22 68.1367 170.44 68.1367C169.66 68.1367 169.03 67.5067 169.03 66.7267C169.03 65.9467 169.66 65.3167 170.44 65.3167C171.22 65.3167 171.85 65.9467 171.85 66.7267Z" fill="white"/>
            <path d="M172.15 69.8367C172.15 70.7767 171.39 71.5367 170.45 71.5367C169.51 71.5367 168.75 70.7767 168.75 69.8367C168.75 68.8967 169.51 68.1367 170.45 68.1367C171.38 68.1367 172.15 68.8967 172.15 69.8367Z" fill="white"/>
            <path d="M171.85 72.9468C171.85 73.7268 171.22 74.3568 170.44 74.3568C169.66 74.3568 169.03 73.7268 169.03 72.9468C169.03 72.1668 169.66 71.5369 170.44 71.5369C171.22 71.5469 171.85 72.1768 171.85 72.9468Z" fill="white"/>
            <path d="M172.15 76.0567C172.15 76.9967 171.39 77.7567 170.45 77.7567C169.51 77.7567 168.75 76.9967 168.75 76.0567C168.75 75.1167 169.51 74.3567 170.45 74.3567C171.38 74.3567 172.15 75.1167 172.15 76.0567Z" fill="white"/>
            <path d="M171.85 79.1768C171.85 79.9568 171.22 80.5869 170.44 80.5869C169.66 80.5869 169.03 79.9568 169.03 79.1768C169.03 78.3968 169.66 77.7668 170.44 77.7668C171.22 77.7668 171.85 78.3968 171.85 79.1768Z" fill="white"/>
            <path d="M172.15 82.2868C172.15 83.2268 171.39 83.9867 170.45 83.9867C169.51 83.9867 168.75 83.2268 168.75 82.2868C168.75 81.3468 169.51 80.5868 170.45 80.5868C171.38 80.5768 172.15 81.3468 172.15 82.2868Z" fill="white"/>
            <path d="M171.85 85.3969C171.85 86.1769 171.22 86.8068 170.44 86.8068C169.66 86.8068 169.03 86.1769 169.03 85.3969C169.03 84.6169 169.66 83.9868 170.44 83.9868C171.22 83.9868 171.85 84.6169 171.85 85.3969Z" fill="white"/>
            <path d="M172.15 88.5067C172.15 89.4467 171.39 90.2067 170.45 90.2067C169.51 90.2067 168.75 89.4467 168.75 88.5067C168.75 87.5667 169.51 86.8066 170.45 86.8066C171.38 86.8066 172.15 87.5667 172.15 88.5067Z" fill="white"/>
            <path d="M171.85 91.6168C171.85 92.3968 171.22 93.0268 170.44 93.0268C169.66 93.0268 169.03 92.3968 169.03 91.6168C169.03 90.8368 169.66 90.2068 170.44 90.2068C171.22 90.2068 171.85 90.8368 171.85 91.6168Z" fill="white"/>
            <path d="M138.53 -15.5933L140.93 -8.6333L147.8 -7.93329L143.09 -4.1333L143.86 2.5567L138.01 -2.92328L132.8 1.94672L134.07 -5.01331L128.95 -7.7533L135.87 -9.11328L138.53 -15.5933Z" fill="#BE443E"/>
            <path d="M138.17 18.5669L140.33 23.8369L147.64 24.7269L142.44 28.0669L143.36 36.5569L138.52 30.6169L134.21 36.2769L135.08 28.2869L128.77 25.2569L136.57 23.5169L138.17 18.5669Z" fill="#D3B77B"/>
            <path d="M137.43 0.456787C137.43 0.886787 137.78 1.23676 138.21 1.23676C138.64 1.23676 138.99 0.886787 138.99 0.456787C138.99 0.0267871 138.64 -0.323242 138.21 -0.323242C137.78 -0.313242 137.43 0.0267871 137.43 0.456787Z" fill="white"/>
            <path d="M138.21 3.11682C138.729 3.11682 139.15 2.69597 139.15 2.17682C139.15 1.65767 138.729 1.23682 138.21 1.23682C137.691 1.23682 137.27 1.65767 137.27 2.17682C137.27 2.69597 137.691 3.11682 138.21 3.11682Z" fill="white"/>
            <path d="M137.43 3.89697C137.43 4.32697 137.78 4.67694 138.21 4.67694C138.64 4.67694 138.99 4.32697 138.99 3.89697C138.99 3.46697 138.64 3.11694 138.21 3.11694C137.78 3.11694 137.43 3.46697 137.43 3.89697Z" fill="white"/>
            <path d="M138.21 6.55676C138.729 6.55676 139.15 6.13591 139.15 5.61676C139.15 5.09761 138.729 4.67676 138.21 4.67676C137.691 4.67676 137.27 5.09761 137.27 5.61676C137.27 6.13591 137.691 6.55676 138.21 6.55676Z" fill="white"/>
            <path d="M137.43 7.3269C137.43 7.7569 137.78 8.10687 138.21 8.10687C138.64 8.10687 138.99 7.7569 138.99 7.3269C138.99 6.8969 138.64 6.54688 138.21 6.54688C137.78 6.55687 137.43 6.8969 137.43 7.3269Z" fill="white"/>
            <path d="M138.21 9.98694C138.729 9.98694 139.15 9.56608 139.15 9.04694C139.15 8.52779 138.729 8.10693 138.21 8.10693C137.691 8.10693 137.27 8.52779 137.27 9.04694C137.27 9.56608 137.691 9.98694 138.21 9.98694Z" fill="white"/>
            <path d="M137.43 10.7668C137.43 11.1968 137.78 11.5468 138.21 11.5468C138.64 11.5468 138.99 11.1968 138.99 10.7668C138.99 10.3368 138.64 9.98682 138.21 9.98682C137.78 9.98682 137.43 10.3368 137.43 10.7668Z" fill="white"/>
            <path d="M138.21 13.4269C138.729 13.4269 139.15 13.006 139.15 12.4869C139.15 11.9677 138.729 11.5469 138.21 11.5469C137.691 11.5469 137.27 11.9677 137.27 12.4869C137.27 13.006 137.691 13.4269 138.21 13.4269Z" fill="white"/>
            <path d="M137.43 14.1968C137.43 14.6268 137.78 14.9768 138.21 14.9768C138.64 14.9768 138.99 14.6268 138.99 14.1968C138.99 13.7668 138.64 13.4167 138.21 13.4167C137.78 13.4267 137.43 13.7768 137.43 14.1968Z" fill="white"/>
            <path d="M138.21 16.8568C138.729 16.8568 139.15 16.4359 139.15 15.9167C139.15 15.3976 138.729 14.9768 138.21 14.9768C137.691 14.9768 137.27 15.3976 137.27 15.9167C137.27 16.4359 137.691 16.8568 138.21 16.8568Z" fill="white"/>
            <path d="M137.43 17.637C137.43 18.067 137.78 18.4169 138.21 18.4169C138.64 18.4169 138.99 18.067 138.99 17.637C138.99 17.207 138.64 16.8569 138.21 16.8569C137.78 16.8569 137.43 17.207 137.43 17.637Z" fill="white"/>
            <path d="M63.2397 -15.5933L65.6398 -8.6333L72.4998 -7.93329L67.7898 -4.1333L68.5598 2.5567L62.7098 -2.92328L57.4998 1.94672L58.7798 -5.01331L53.6498 -7.7533L60.5798 -9.11328L63.2397 -15.5933Z" fill="#BE443E"/>
            <path d="M62.8698 18.5669L65.0399 23.8369L72.3398 24.7269L67.1398 28.0669L68.0598 36.5569L63.2198 30.6169L58.9099 36.2769L59.7899 28.2869L53.4799 25.2569L61.2698 23.5169L62.8698 18.5669Z" fill="white"/>
            <path d="M62.1298 0.456787C62.1298 0.886787 62.4798 1.23676 62.9098 1.23676C63.3398 1.23676 63.6898 0.886787 63.6898 0.456787C63.6898 0.0267871 63.3398 -0.323242 62.9098 -0.323242C62.4798 -0.313242 62.1298 0.0267871 62.1298 0.456787Z" fill="white"/>
            <path d="M62.9099 3.11682C63.429 3.11682 63.8499 2.69597 63.8499 2.17682C63.8499 1.65767 63.429 1.23682 62.9099 1.23682C62.3907 1.23682 61.9698 1.65767 61.9698 2.17682C61.9698 2.69597 62.3907 3.11682 62.9099 3.11682Z" fill="white"/>
            <path d="M62.9098 4.67694C63.3406 4.67694 63.6898 4.32775 63.6898 3.89697C63.6898 3.46619 63.3406 3.11694 62.9098 3.11694C62.479 3.11694 62.1298 3.46619 62.1298 3.89697C62.1298 4.32775 62.479 4.67694 62.9098 4.67694Z" fill="white"/>
            <path d="M62.9099 6.55676C63.429 6.55676 63.8499 6.13591 63.8499 5.61676C63.8499 5.09761 63.429 4.67676 62.9099 4.67676C62.3907 4.67676 61.9698 5.09761 61.9698 5.61676C61.9698 6.13591 62.3907 6.55676 62.9099 6.55676Z" fill="white"/>
            <path d="M62.9098 8.10687C63.3406 8.10687 63.6898 7.75769 63.6898 7.3269C63.6898 6.89612 63.3406 6.54688 62.9098 6.54688C62.479 6.54688 62.1298 6.89612 62.1298 7.3269C62.1298 7.75769 62.479 8.10687 62.9098 8.10687Z" fill="white"/>
            <path d="M62.9099 9.98694C63.429 9.98694 63.8499 9.56608 63.8499 9.04694C63.8499 8.52779 63.429 8.10693 62.9099 8.10693C62.3907 8.10693 61.9698 8.52779 61.9698 9.04694C61.9698 9.56608 62.3907 9.98694 62.9099 9.98694Z" fill="white"/>
            <path d="M62.9098 11.5468C63.3406 11.5468 63.6898 11.1976 63.6898 10.7668C63.6898 10.3361 63.3406 9.98682 62.9098 9.98682C62.479 9.98682 62.1298 10.3361 62.1298 10.7668C62.1298 11.1976 62.479 11.5468 62.9098 11.5468Z" fill="white"/>
            <path d="M62.9099 13.4269C63.429 13.4269 63.8499 13.006 63.8499 12.4869C63.8499 11.9677 63.429 11.5469 62.9099 11.5469C62.3907 11.5469 61.9698 11.9677 61.9698 12.4869C61.9698 13.006 62.3907 13.4269 62.9099 13.4269Z" fill="white"/>
            <path d="M62.9098 14.9768C63.3406 14.9768 63.6898 14.6276 63.6898 14.1968C63.6898 13.766 63.3406 13.4167 62.9098 13.4167C62.479 13.4167 62.1298 13.766 62.1298 14.1968C62.1298 14.6276 62.479 14.9768 62.9098 14.9768Z" fill="white"/>
            <path d="M62.9099 16.8568C63.429 16.8568 63.8499 16.4359 63.8499 15.9167C63.8499 15.3976 63.429 14.9768 62.9099 14.9768C62.3907 14.9768 61.9698 15.3976 61.9698 15.9167C61.9698 16.4359 62.3907 16.8568 62.9099 16.8568Z" fill="white"/>
            <path d="M62.9098 18.4169C63.3406 18.4169 63.6898 18.0677 63.6898 17.637C63.6898 17.2062 63.3406 16.8569 62.9098 16.8569C62.479 16.8569 62.1298 17.2062 62.1298 17.637C62.1298 18.0677 62.479 18.4169 62.9098 18.4169Z" fill="white"/>
            <path d="M75.2199 143.037C66.9499 143.217 58.6899 143.837 50.4199 143.137C49.6299 143.067 48.8199 142.967 48.0599 142.737C46.6599 142.317 45.9699 141.447 46.2099 139.847C47.0899 133.787 49.8199 128.427 52.4399 123.027C57.2699 113.097 63.2599 103.807 68.4399 94.0667C71.7199 87.9067 75.2599 81.8067 76.2999 74.7567C77.0799 69.4567 77.0899 64.0867 74.2399 59.3267C72.3899 56.2367 70.5699 55.7467 67.7899 57.0167C66.1699 57.7567 64.5799 58.5267 63.0399 59.4267C58.5699 62.0267 56.4699 66.0167 55.9899 71.0167C55.9299 71.6367 56.2199 72.5367 54.9699 72.3967C53.9699 72.2867 52.8999 72.5567 52.8499 70.9667C52.6899 65.6867 54.8399 61.3767 58.4499 57.7167C64.2099 51.8667 72.3299 49.8667 79.0999 53.2567C85.5999 56.5167 88.8699 62.3368 89.8599 69.4768C90.8099 76.3968 88.8399 82.7667 86.3399 89.0767C81.5699 101.117 74.5699 111.897 67.5099 122.647C64.2199 127.657 61.2799 132.907 57.2499 137.417C57.1099 137.567 57.0599 137.797 56.9699 137.987C57.2499 138.057 57.5399 138.187 57.8199 138.187C65.6999 138.227 73.5699 138.247 81.4499 138.267C85.5099 138.277 89.5199 138.827 93.5499 139.287C94.6799 139.417 95.2199 139.097 95.2299 137.917C95.2399 136.937 95.3299 135.957 95.4599 134.987C95.5899 134.007 95.4799 132.597 96.5499 132.357C98.1499 131.987 99.7599 132.657 100.19 134.387C100.78 136.787 101.08 139.267 101.38 141.727C101.49 142.667 100.56 142.757 99.8699 142.897C96.4199 143.627 92.9599 143.117 89.4999 143.057C84.7299 142.977 79.9699 143.037 75.2199 143.037Z" fill="white"/>
            <path d="M153.81 87.2568C153.98 100.337 153.25 113.397 152.83 126.467C152.77 128.247 152.75 130.027 152.82 131.807C152.91 133.997 152.93 136.137 151.97 138.207C151.63 138.947 151.49 139.847 151.5 140.677C151.52 142.497 150.74 143.497 148.92 143.467C147.51 143.447 146.09 143.347 144.7 143.127C143.96 143.007 143.4 142.457 143.1 141.667C140.7 135.247 140.55 128.447 139.71 121.767C139.13 117.187 138.66 112.587 138.61 107.957C138.6 106.747 137.7 106.937 137 106.927C130.11 106.817 123.22 106.757 116.33 106.627C112.68 106.557 109.03 106.277 105.47 105.447C100.63 104.327 100.42 102.297 102.42 98.4968C105.36 92.8968 109.42 87.9968 113.25 82.9768C117.99 76.7468 122.23 70.1168 127.6 64.4068C131.7 60.0368 136.21 56.0468 140.53 51.8868C140.82 51.6068 141.1 51.3168 141.32 50.9968C143.39 48.0668 146.42 48.0768 148.81 50.8168C151.56 53.9768 151.83 57.8968 152.23 61.6968C153.12 70.1768 153.6 78.7068 153.81 87.2568ZM137.4 102.967C138.14 103.057 138.42 102.857 138.4 102.017C138.31 99.1768 138.31 96.3368 138.31 93.4968C138.3 82.5968 138.8 71.7267 139.73 60.8667C139.77 60.4567 140.09 59.7968 139.64 59.6568C139.14 59.4968 138.96 60.2268 138.68 60.5868C134.77 65.5468 131.32 70.8368 127.79 76.0568C122.34 84.1168 116.76 92.0868 111.19 100.067C110.54 100.997 110.75 101.167 111.76 101.247C120.3 101.877 128.93 101.377 137.4 102.967Z" fill="white"/>
        </g>
    </g>
    <defs>
        <clipPath id="clip0_30_7379">
            <rect width="200" height="200" fill="white"/>
        </clipPath>
    </defs>
</svg>
