<svg width="200" height="200" viewBox="0 0 200 200" fill="none" xmlns="http://www.w3.org/2000/svg">
    <g clip-path="url(#clip0_30_140)">
        <mask id="mask0_30_140" style="mask-type:alpha" x="-1" y="-1" width="242" height="242">
            <rect width="240" height="240" fill="#D9D9D9" stroke="#7AAB3A"/>
        </mask>
        <g mask="url(#mask0_30_140)">
            <path d="M200 -0.5H0V199.5H200V-0.5Z" fill="white"/>
            <path d="M196.883 143.41C196.883 157.56 185.413 169.04 171.253 169.04C157.103 169.04 145.623 157.56 145.623 143.41C145.623 140.56 146.083 137.82 146.953 135.26C147.423 133.86 148.013 132.51 148.713 131.22C153.053 123.22 161.523 117.78 171.263 117.78C185.413 117.78 196.883 129.26 196.883 143.41Z" fill="#D3B77B"/>
            <path d="M191.343 141.04C191.343 146.28 189.733 151.11 186.823 154.66C183.353 158.87 178.173 161.1 171.843 161.1C162.813 161.1 156.113 158.36 151.923 152.94C147.843 147.66 146.883 140.83 146.963 135.26C147.433 133.86 148.023 132.51 148.723 131.22C148.153 136.94 148.283 145.79 153.113 152.04C157.003 157.07 163.303 159.62 171.853 159.62C177.733 159.62 182.513 157.58 185.693 153.72C188.393 150.44 189.883 145.94 189.883 141.04C189.883 133.72 186.283 126.15 180.263 126.15C172.493 126.15 167.843 132.96 167.843 139.55C167.843 143.9 170.063 148.98 176.333 148.98C179.353 148.98 181.783 144.57 181.783 140.92C181.783 139.82 181.563 138.27 180.543 137.09C179.613 136.02 178.193 135.48 176.333 135.48C175.993 135.48 175.123 136.55 175.123 137.89C175.123 138.33 175.223 138.95 175.723 139.42C176.233 139.9 177.063 140.15 178.183 140.15V141.63C176.673 141.63 175.503 141.25 174.703 140.49C174.013 139.83 173.643 138.93 173.643 137.88C173.643 136.08 174.823 133.99 176.333 133.99C178.613 133.99 180.463 134.72 181.663 136.11C182.713 137.32 183.263 138.98 183.263 140.91C183.263 145.42 180.293 150.46 176.323 150.46C169.433 150.46 166.353 144.98 166.353 139.55C166.353 137.4 166.803 135.25 167.633 133.28C167.923 132.59 168.263 131.91 168.653 131.27C169.023 130.65 169.443 130.05 169.893 129.5C171.703 127.29 174.983 124.66 180.253 124.66C183.473 124.66 186.373 126.48 188.433 129.79C190.303 132.83 191.343 136.82 191.343 141.04Z" fill="#BE443E"/>
            <path d="M166.683 165.1C160.973 164.91 155.753 162.09 151.583 156.97C148.463 153.13 147.053 149.41 146.993 149.25L148.383 148.73C148.433 148.87 153.963 163.19 166.733 163.62L166.683 165.1Z" fill="white"/>
            <path d="M170.833 157.42C161.943 157.42 154.273 150.58 153.923 150.27L154.913 149.17C155.003 149.25 163.723 157.01 172.803 155.81C177.423 155.2 181.403 152.37 184.633 147.4L185.873 148.21C182.403 153.57 178.063 156.62 172.983 157.29C172.273 157.38 171.553 157.42 170.833 157.42Z" fill="white"/>
            <path d="M163.683 134.03C162.703 134.03 161.753 133.85 160.953 133.35C159.593 132.51 158.913 130.98 158.913 128.8C158.913 127.39 159.313 126.22 160.063 125.4C160.753 124.66 161.693 124.25 162.733 124.25C164.773 124.25 166.883 125.89 166.883 128.63C166.883 129.39 166.673 129.99 166.263 130.42C165.893 130.81 165.363 131.02 164.783 131.02C163.633 131.02 162.343 130.17 162.343 128.94C162.343 128.11 162.673 127.64 162.953 127.39C163.513 126.89 164.213 126.95 164.293 126.96L164.133 128.43C164.113 128.43 164.003 128.44 163.943 128.49C163.873 128.55 163.833 128.72 163.833 128.93C163.833 129.15 164.293 129.52 164.793 129.52C164.973 129.52 165.113 129.47 165.203 129.37C165.343 129.23 165.413 128.96 165.413 128.6C165.413 126.72 164.043 125.71 162.753 125.71C162.133 125.71 161.573 125.95 161.173 126.38C160.683 126.92 160.413 127.74 160.413 128.77C160.413 130.4 160.863 131.51 161.753 132.06C163.703 133.26 167.533 131.81 168.843 131.15L169.513 132.47C169.323 132.59 166.423 134.03 163.683 134.03Z" fill="#BE443E"/>
            <path d="M156.463 128.27C156.463 128.16 156.443 125.48 158.083 123.84C158.923 123 160.023 122.59 161.353 122.61L161.333 124.09C160.403 124.08 159.693 124.34 159.143 124.89C157.943 126.08 157.953 128.23 157.953 128.25L156.463 128.27Z" fill="#BE443E"/>
            <path d="M164.403 138.53C165.138 138.53 165.733 137.935 165.733 137.2C165.733 136.466 165.138 135.87 164.403 135.87C163.669 135.87 163.073 136.466 163.073 137.2C163.073 137.935 163.669 138.53 164.403 138.53Z" fill="white"/>
            <path d="M162.273 136.15C162.273 136.15 156.493 129.23 154.733 131.82C152.973 134.42 162.273 136.15 162.273 136.15Z" fill="#BE443E"/>
            <path d="M161.653 138.91C161.653 138.91 152.723 141.34 153.493 143.94C154.273 146.53 161.653 138.91 161.653 138.91Z" fill="#BE443E"/>
            <path d="M163.723 140.57C163.723 140.57 162.323 149.34 165.003 149.46C167.683 149.59 163.723 140.57 163.723 140.57Z" fill="#BE443E"/>
            <path d="M162.593 140.78C162.593 140.78 158.413 142.78 159.643 145.06C160.883 147.34 162.593 140.78 162.593 140.78Z" fill="white"/>
            <path d="M160.943 137.69C160.943 137.69 156.243 135.28 155.933 137.69C155.633 140.1 160.943 137.69 160.943 137.69Z" fill="white"/>
            <path d="M168.903 114.51C166.913 114.51 165.243 116.02 165.073 118.01C164.883 120.25 165.023 122.75 166.613 122.75C168.673 122.75 168.313 120.61 168.313 120.61C168.313 120.61 168.363 122.71 170.063 122.71C171.763 122.71 172.133 120.24 172.133 120.24C172.133 120.24 172.343 122.55 174.033 122.55C175.653 122.55 176.133 120.51 176.213 118.49C176.293 116.32 174.543 114.52 172.373 114.52H168.903V114.51Z" fill="#2E8287"/>
            <path d="M172.633 114.92H171.583C171.583 114.34 171.113 113.86 170.523 113.86C169.943 113.86 169.463 114.33 169.463 114.92H168.413C168.413 113.76 169.353 112.82 170.513 112.82C171.693 112.82 172.633 113.76 172.633 114.92Z" fill="#2E8287"/>
            <path d="M142.42 14.97L140.58 21.48L133.94 23.36L138.5 26.13L136.97 33.4L141.98 28.1L147.71 32.64L145.66 25.65L150.42 22.55L144.73 21.4L142.42 14.97Z" fill="#BE443E"/>
            <path d="M142.02 49.1799L139.65 56.0599L132.87 56.7499L137.52 60.4999L136.76 67.1099L142.54 61.6899L147.69 66.5099L146.43 59.6299L151.49 56.9199L144.65 55.5899L142.02 49.1799Z" fill="#D3B77B"/>
            <path d="M142.38 82.9299L140.24 88.1299L133.02 89.0099L138.17 92.3099L137.25 100.7L142.03 94.8399L146.3 100.42L145.43 92.5299L151.66 89.5399L143.96 87.8199L142.38 82.9299Z" fill="#BE443E"/>
            <path d="M142.18 30.5199C142.694 30.5199 143.11 30.1035 143.11 29.5899C143.11 29.0763 142.694 28.6599 142.18 28.6599C141.666 28.6599 141.25 29.0763 141.25 29.5899C141.25 30.1035 141.666 30.5199 142.18 30.5199Z" fill="#D3B77B"/>
            <path d="M142.95 31.29C142.95 31.71 142.61 32.06 142.18 32.06C141.76 32.06 141.41 31.72 141.41 31.29C141.41 30.87 141.75 30.52 142.18 30.52C142.6 30.52 142.95 30.86 142.95 31.29Z" fill="#D3B77B"/>
            <path d="M142.18 33.9098C142.694 33.9098 143.11 33.4935 143.11 32.9798C143.11 32.4662 142.694 32.0498 142.18 32.0498C141.666 32.0498 141.25 32.4662 141.25 32.9798C141.25 33.4935 141.666 33.9098 142.18 33.9098Z" fill="#D3B77B"/>
            <path d="M142.95 34.6799C142.95 35.0999 142.61 35.4499 142.18 35.4499C141.76 35.4499 141.41 35.1099 141.41 34.6799C141.41 34.2599 141.75 33.9099 142.18 33.9099C142.6 33.9099 142.95 34.2599 142.95 34.6799Z" fill="#D3B77B"/>
            <path d="M143.11 36.38C143.11 36.89 142.69 37.31 142.18 37.31C141.67 37.31 141.25 36.89 141.25 36.38C141.25 35.87 141.67 35.45 142.18 35.45C142.69 35.45 143.11 35.86 143.11 36.38Z" fill="#D3B77B"/>
            <path d="M142.95 38.0798C142.95 38.4998 142.61 38.8498 142.18 38.8498C141.76 38.8498 141.41 38.5098 141.41 38.0798C141.41 37.6498 141.75 37.3098 142.18 37.3098C142.6 37.3098 142.95 37.6498 142.95 38.0798Z" fill="#D3B77B"/>
            <path d="M142.18 40.6998C142.694 40.6998 143.11 40.2835 143.11 39.7698C143.11 39.2562 142.694 38.8398 142.18 38.8398C141.666 38.8398 141.25 39.2562 141.25 39.7698C141.25 40.2835 141.666 40.6998 142.18 40.6998Z" fill="#D3B77B"/>
            <path d="M142.95 41.47C142.95 41.89 142.61 42.24 142.18 42.24C141.76 42.24 141.41 41.9 141.41 41.47C141.41 41.04 141.75 40.7 142.18 40.7C142.6 40.7 142.95 41.05 142.95 41.47Z" fill="#D3B77B"/>
            <path d="M142.18 44.1C142.694 44.1 143.11 43.6836 143.11 43.17C143.11 42.6564 142.694 42.24 142.18 42.24C141.666 42.24 141.25 42.6564 141.25 43.17C141.25 43.6836 141.666 44.1 142.18 44.1Z" fill="#D3B77B"/>
            <path d="M142.95 44.8598C142.95 45.2798 142.61 45.6299 142.18 45.6299C141.76 45.6299 141.41 45.2898 141.41 44.8598C141.41 44.4398 141.75 44.0898 142.18 44.0898C142.6 44.0998 142.95 44.4398 142.95 44.8598Z" fill="#D3B77B"/>
            <path d="M142.18 47.4899C142.694 47.4899 143.11 47.0735 143.11 46.5599C143.11 46.0463 142.694 45.6299 142.18 45.6299C141.666 45.6299 141.25 46.0463 141.25 46.5599C141.25 47.0735 141.666 47.4899 142.18 47.4899Z" fill="#D3B77B"/>
            <path d="M142.95 48.26C142.95 48.68 142.61 49.03 142.18 49.03C141.76 49.03 141.41 48.69 141.41 48.26C141.41 47.83 141.75 47.49 142.18 47.49C142.6 47.49 142.95 47.83 142.95 48.26Z" fill="#D3B77B"/>
            <path d="M143.18 0.629883C143.18 1.04988 142.84 1.39987 142.41 1.39987C141.99 1.39987 141.64 1.05988 141.64 0.629883C141.64 0.209883 141.98 -0.140137 142.41 -0.140137C142.84 -0.140137 143.18 0.199883 143.18 0.629883Z" fill="#D3B77B"/>
            <path d="M143.34 2.31992C143.34 2.82992 142.92 3.24991 142.41 3.24991C141.9 3.24991 141.48 2.82992 141.48 2.31992C141.48 1.80992 141.9 1.38989 142.41 1.38989C142.92 1.38989 143.34 1.80992 143.34 2.31992Z" fill="#D3B77B"/>
            <path d="M143.18 4.01999C143.18 4.43999 142.84 4.79001 142.41 4.79001C141.99 4.79001 141.64 4.44999 141.64 4.01999C141.64 3.58999 141.98 3.25 142.41 3.25C142.84 3.25 143.18 3.59999 143.18 4.01999Z" fill="#D3B77B"/>
            <path d="M143.34 5.71979C143.34 6.22979 142.92 6.64978 142.41 6.64978C141.9 6.64978 141.48 6.22979 141.48 5.71979C141.48 5.20979 141.9 4.78979 142.41 4.78979C142.92 4.78979 143.34 5.20979 143.34 5.71979Z" fill="#D3B77B"/>
            <path d="M143.18 7.41989C143.18 7.83989 142.84 8.18991 142.41 8.18991C141.99 8.18991 141.64 7.84989 141.64 7.41989C141.64 6.99989 141.98 6.6499 142.41 6.6499C142.84 6.6499 143.18 6.98989 143.18 7.41989Z" fill="#D3B77B"/>
            <path d="M143.34 9.10992C143.34 9.61992 142.92 10.0399 142.41 10.0399C141.9 10.0399 141.48 9.61992 141.48 9.10992C141.48 8.59992 141.9 8.17993 142.41 8.17993C142.92 8.17993 143.34 8.59992 143.34 9.10992Z" fill="#D3B77B"/>
            <path d="M143.18 10.8098C143.18 11.2298 142.84 11.5798 142.41 11.5798C141.99 11.5798 141.64 11.2398 141.64 10.8098C141.64 10.3898 141.98 10.0398 142.41 10.0398C142.84 10.0398 143.18 10.3898 143.18 10.8098Z" fill="#D3B77B"/>
            <path d="M143.34 12.5099C143.34 13.0199 142.92 13.4398 142.41 13.4398C141.9 13.4398 141.48 13.0199 141.48 12.5099C141.48 11.9999 141.9 11.5798 142.41 11.5798C142.92 11.5798 143.34 11.9899 143.34 12.5099Z" fill="#D3B77B"/>
            <path d="M143.18 14.1999C143.18 14.6199 142.84 14.9699 142.41 14.9699C141.99 14.9699 141.64 14.6299 141.64 14.1999C141.64 13.7699 141.98 13.4299 142.41 13.4299C142.84 13.4399 143.18 13.7799 143.18 14.1999Z" fill="#D3B77B"/>
            <path d="M143.27 63.3399C143.27 63.8499 142.85 64.2699 142.34 64.2699C141.83 64.2699 141.41 63.8499 141.41 63.3399C141.41 62.8299 141.83 62.4099 142.34 62.4099C142.85 62.4099 143.27 62.8299 143.27 63.3399Z" fill="#D3B77B"/>
            <path d="M143.11 65.0398C143.11 65.4598 142.77 65.8098 142.34 65.8098C141.91 65.8098 141.57 65.4698 141.57 65.0398C141.57 64.6198 141.91 64.2698 142.34 64.2698C142.77 64.2698 143.11 64.6098 143.11 65.0398Z" fill="#D3B77B"/>
            <path d="M143.27 66.7298C143.27 67.2398 142.85 67.6598 142.34 67.6598C141.83 67.6598 141.41 67.2398 141.41 66.7298C141.41 66.2198 141.83 65.7998 142.34 65.7998C142.85 65.7998 143.27 66.2198 143.27 66.7298Z" fill="#D3B77B"/>
            <path d="M143.11 68.4299C143.11 68.8499 142.77 69.1999 142.34 69.1999C141.91 69.1999 141.57 68.8599 141.57 68.4299C141.57 68.0099 141.91 67.6599 142.34 67.6599C142.77 67.6599 143.11 68.0099 143.11 68.4299Z" fill="#D3B77B"/>
            <path d="M143.27 70.13C143.27 70.64 142.85 71.06 142.34 71.06C141.83 71.06 141.41 70.64 141.41 70.13C141.41 69.62 141.83 69.2 142.34 69.2C142.85 69.2 143.27 69.62 143.27 70.13Z" fill="#D3B77B"/>
            <path d="M143.11 71.8298C143.11 72.2498 142.77 72.5998 142.34 72.5998C141.91 72.5998 141.57 72.2598 141.57 71.8298C141.57 71.4098 141.91 71.0598 142.34 71.0598C142.77 71.0598 143.11 71.3998 143.11 71.8298Z" fill="#D3B77B"/>
            <path d="M143.27 73.5198C143.27 74.0298 142.85 74.4498 142.34 74.4498C141.83 74.4498 141.41 74.0298 141.41 73.5198C141.41 73.0098 141.83 72.5898 142.34 72.5898C142.85 72.5898 143.27 73.0098 143.27 73.5198Z" fill="#D3B77B"/>
            <path d="M143.11 75.22C143.11 75.64 142.77 75.99 142.34 75.99C141.91 75.99 141.57 75.65 141.57 75.22C141.57 74.8 141.91 74.45 142.34 74.45C142.77 74.45 143.11 74.8 143.11 75.22Z" fill="#D3B77B"/>
            <path d="M143.27 76.92C143.27 77.43 142.85 77.85 142.34 77.85C141.83 77.85 141.41 77.43 141.41 76.92C141.41 76.41 141.83 75.99 142.34 75.99C142.85 75.99 143.27 76.4 143.27 76.92Z" fill="#D3B77B"/>
            <path d="M143.11 78.6098C143.11 79.0298 142.77 79.3799 142.34 79.3799C141.91 79.3799 141.57 79.0398 141.57 78.6098C141.57 78.1798 141.91 77.8398 142.34 77.8398C142.77 77.8398 143.11 78.1898 143.11 78.6098Z" fill="#D3B77B"/>
            <path d="M143.27 80.3099C143.27 80.8199 142.85 81.2399 142.34 81.2399C141.83 81.2399 141.41 80.8199 141.41 80.3099C141.41 79.7999 141.83 79.3799 142.34 79.3799C142.85 79.3799 143.27 79.7999 143.27 80.3099Z" fill="#D3B77B"/>
            <path d="M143.11 82.01C143.11 82.43 142.77 82.78 142.34 82.78C141.91 82.78 141.57 82.44 141.57 82.01C141.57 81.58 141.91 81.24 142.34 81.24C142.77 81.24 143.11 81.59 143.11 82.01Z" fill="#D3B77B"/>
            <path d="M10.5433 13.3301L8.40332 18.5301L1.18335 19.4101L6.3233 22.7101L5.41333 31.0901L10.1933 25.2301L14.4633 30.8201L13.5933 22.9301L19.8233 19.9401L12.1234 18.2101L10.5433 13.3301Z" fill="#BE443E"/>
            <path d="M11.4335 0.53009C11.4335 1.04009 11.0135 1.46008 10.5035 1.46008C9.99348 1.46008 9.57349 1.04009 9.57349 0.53009C9.57349 0.0200903 9.99348 -0.399902 10.5035 -0.399902C11.0135 -0.399902 11.4335 0.0100904 11.4335 0.53009Z" fill="#D3B77B"/>
            <path d="M11.2736 2.21997C11.2736 2.63997 10.9336 2.98996 10.5036 2.98996C10.0836 2.98996 9.73364 2.64997 9.73364 2.21997C9.73364 1.79997 10.0736 1.44995 10.5036 1.44995C10.9236 1.45995 11.2736 1.79997 11.2736 2.21997Z" fill="#D3B77B"/>
            <path d="M11.4335 3.91998C11.4335 4.42998 11.0135 4.85001 10.5035 4.85001C9.99348 4.85001 9.57349 4.42998 9.57349 3.91998C9.57349 3.40998 9.99348 2.98999 10.5035 2.98999C11.0135 2.98999 11.4335 3.40998 11.4335 3.91998Z" fill="#D3B77B"/>
            <path d="M11.2736 5.62009C11.2736 6.04009 10.9336 6.39008 10.5036 6.39008C10.0836 6.39008 9.73364 6.05009 9.73364 5.62009C9.73364 5.19009 10.0736 4.8501 10.5036 4.8501C10.9236 4.8501 11.2736 5.19009 11.2736 5.62009Z" fill="#D3B77B"/>
            <path d="M11.4335 7.31012C11.4335 7.82012 11.0135 8.24011 10.5035 8.24011C9.99348 8.24011 9.57349 7.82012 9.57349 7.31012C9.57349 6.80012 9.99348 6.38013 10.5035 6.38013C11.0135 6.38013 11.4335 6.80012 11.4335 7.31012Z" fill="#D3B77B"/>
            <path d="M10.5036 9.78C10.9289 9.78 11.2736 9.43527 11.2736 9.01001C11.2736 8.58475 10.9289 8.23999 10.5036 8.23999C10.0783 8.23999 9.73364 8.58475 9.73364 9.01001C9.73364 9.43527 10.0783 9.78 10.5036 9.78Z" fill="#D3B77B"/>
            <path d="M11.4335 10.71C11.4335 11.22 11.0135 11.64 10.5035 11.64C9.99348 11.64 9.57349 11.22 9.57349 10.71C9.57349 10.2 9.99348 9.78003 10.5035 9.78003C11.0135 9.78003 11.4335 10.19 11.4335 10.71Z" fill="#D3B77B"/>
            <path d="M11.2736 12.4102C11.2736 12.8302 10.9336 13.1801 10.5036 13.1801C10.0836 13.1801 9.73364 12.8402 9.73364 12.4102C9.73364 11.9802 10.0736 11.6401 10.5036 11.6401C10.9236 11.6401 11.2736 11.9802 11.2736 12.4102Z" fill="#D3B77B"/>
            <path d="M71.9 2.42993L69.53 9.30994L62.75 9.99994L67.4 13.7499L66.64 20.3599L72.42 14.9499L77.57 19.7599L76.31 12.8799L81.37 10.1699L74.53 8.83994L71.9 2.42993Z" fill="#D3B77B"/>
            <path d="M72.26 36.1799L70.12 41.3899L62.9 42.2599L68.05 45.5599L67.13 53.9499L71.91 48.0899L76.18 53.6699L75.31 45.7799L81.54 42.7899L73.84 41.0699L72.26 36.1799Z" fill="#D3B77B"/>
            <path d="M72.06 0.739868C72.5736 0.739868 72.99 0.3235 72.99 -0.190125C72.99 -0.703749 72.5736 -1.12012 72.06 -1.12012C71.5464 -1.12012 71.13 -0.703749 71.13 -0.190125C71.13 0.3235 71.5464 0.739868 72.06 0.739868Z" fill="#D3B77B"/>
            <path d="M72.83 1.51001C72.83 1.93001 72.49 2.28 72.06 2.28C71.64 2.28 71.29 1.94001 71.29 1.51001C71.29 1.09001 71.63 0.73999 72.06 0.73999C72.48 0.73999 72.83 1.09001 72.83 1.51001Z" fill="#D3B77B"/>
            <path d="M72.22 17.5199C72.7337 17.5199 73.15 17.1035 73.15 16.5899C73.15 16.0763 72.7337 15.6599 72.22 15.6599C71.7064 15.6599 71.29 16.0763 71.29 16.5899C71.29 17.1035 71.7064 17.5199 72.22 17.5199Z" fill="#D3B77B"/>
            <path d="M72.9901 18.2898C72.9901 18.7098 72.6501 19.0598 72.2201 19.0598C71.8001 19.0598 71.4501 18.7198 71.4501 18.2898C71.4501 17.8598 71.7901 17.5198 72.2201 17.5198C72.6501 17.5198 72.9901 17.8698 72.9901 18.2898Z" fill="#D3B77B"/>
            <path d="M73.15 19.9898C73.15 20.4998 72.73 20.9198 72.22 20.9198C71.71 20.9198 71.29 20.4998 71.29 19.9898C71.29 19.4798 71.71 19.0598 72.22 19.0598C72.73 19.0598 73.15 19.4698 73.15 19.9898Z" fill="#D3B77B"/>
            <path d="M72.9901 21.6799C72.9901 22.0999 72.6501 22.4499 72.2201 22.4499C71.8001 22.4499 71.4501 22.1099 71.4501 21.6799C71.4501 21.2499 71.7901 20.9099 72.2201 20.9099C72.6501 20.9199 72.9901 21.2599 72.9901 21.6799Z" fill="#D3B77B"/>
            <path d="M72.22 24.31C72.7337 24.31 73.15 23.8936 73.15 23.38C73.15 22.8663 72.7337 22.45 72.22 22.45C71.7064 22.45 71.29 22.8663 71.29 23.38C71.29 23.8936 71.7064 24.31 72.22 24.31Z" fill="#D3B77B"/>
            <path d="M72.9901 25.0798C72.9901 25.4998 72.6501 25.8498 72.2201 25.8498C71.8001 25.8498 71.4501 25.5098 71.4501 25.0798C71.4501 24.6598 71.7901 24.3098 72.2201 24.3098C72.6501 24.3098 72.9901 24.6498 72.9901 25.0798Z" fill="#D3B77B"/>
            <path d="M72.22 27.6998C72.7337 27.6998 73.15 27.2835 73.15 26.7698C73.15 26.2562 72.7337 25.8398 72.22 25.8398C71.7064 25.8398 71.29 26.2562 71.29 26.7698C71.29 27.2835 71.7064 27.6998 72.22 27.6998Z" fill="#D3B77B"/>
            <path d="M72.9901 28.47C72.9901 28.89 72.6501 29.24 72.2201 29.24C71.8001 29.24 71.4501 28.9 71.4501 28.47C71.4501 28.05 71.7901 27.7 72.2201 27.7C72.6501 27.7 72.9901 28.05 72.9901 28.47Z" fill="#D3B77B"/>
            <path d="M72.22 31.1C72.7337 31.1 73.15 30.6836 73.15 30.17C73.15 29.6564 72.7337 29.24 72.22 29.24C71.7064 29.24 71.29 29.6564 71.29 30.17C71.29 30.6836 71.7064 31.1 72.22 31.1Z" fill="#D3B77B"/>
            <path d="M72.9901 31.8698C72.9901 32.2898 72.6501 32.6398 72.2201 32.6398C71.8001 32.6398 71.4501 32.2998 71.4501 31.8698C71.4501 31.4398 71.7901 31.0999 72.2201 31.0999C72.6501 31.0999 72.9901 31.4398 72.9901 31.8698Z" fill="#D3B77B"/>
            <path d="M73.15 33.5599C73.15 34.0699 72.73 34.4899 72.22 34.4899C71.71 34.4899 71.29 34.0699 71.29 33.5599C71.29 33.0499 71.71 32.6299 72.22 32.6299C72.73 32.6299 73.15 33.0499 73.15 33.5599Z" fill="#D3B77B"/>
            <path d="M72.9901 35.26C72.9901 35.68 72.6501 36.03 72.2201 36.03C71.8001 36.03 71.4501 35.69 71.4501 35.26C71.4501 34.84 71.7901 34.49 72.2201 34.49C72.6501 34.49 72.9901 34.84 72.9901 35.26Z" fill="#D3B77B"/>
            <path d="M182.31 13.79L179.94 20.67L173.16 21.36L177.81 25.11L177.05 31.72L182.83 26.31L187.98 31.12L186.72 24.24L191.78 21.53L184.94 20.2L182.31 13.79Z" fill="#D3B77B"/>
            <path d="M182.67 47.54L180.53 52.75L173.31 53.62L178.46 56.92L177.54 65.31L182.32 59.45L186.59 65.03L185.72 57.14L191.95 54.15L184.25 52.43L182.67 47.54Z" fill="#D3B77B"/>
            <path d="M182.47 0.0600281C182.895 0.0600281 183.24 -0.284702 183.24 -0.709961C183.24 -1.13522 182.895 -1.47998 182.47 -1.47998C182.045 -1.47998 181.7 -1.13522 181.7 -0.709961C181.7 -0.284702 182.045 0.0600281 182.47 0.0600281Z" fill="#D3B77B"/>
            <path d="M183.4 0.990051C183.4 1.50005 182.98 1.92004 182.47 1.92004C181.96 1.92004 181.54 1.50005 181.54 0.990051C181.54 0.480051 181.96 0.0600586 182.47 0.0600586C182.98 0.0600586 183.4 0.480051 183.4 0.990051Z" fill="#D3B77B"/>
            <path d="M183.24 2.68994C183.24 3.10994 182.9 3.45993 182.47 3.45993C182.05 3.45993 181.7 3.11994 181.7 2.68994C181.7 2.25994 182.04 1.91992 182.47 1.91992C182.89 1.91992 183.24 2.25994 183.24 2.68994Z" fill="#D3B77B"/>
            <path d="M183.4 4.37997C183.4 4.88997 182.98 5.30997 182.47 5.30997C181.96 5.30997 181.54 4.88997 181.54 4.37997C181.54 3.86997 181.96 3.44995 182.47 3.44995C182.98 3.44995 183.4 3.86997 183.4 4.37997Z" fill="#D3B77B"/>
            <path d="M183.24 6.08005C183.24 6.50005 182.9 6.85007 182.47 6.85007C182.05 6.85007 181.7 6.51005 181.7 6.08005C181.7 5.66005 182.04 5.31006 182.47 5.31006C182.89 5.31006 183.24 5.66005 183.24 6.08005Z" fill="#D3B77B"/>
            <path d="M183.4 7.78009C183.4 8.29009 182.98 8.71008 182.47 8.71008C181.96 8.71008 181.54 8.29009 181.54 7.78009C181.54 7.27009 181.96 6.8501 182.47 6.8501C182.98 6.8501 183.4 7.26009 183.4 7.78009Z" fill="#D3B77B"/>
            <path d="M183.24 9.47998C183.24 9.89998 182.9 10.25 182.47 10.25C182.05 10.25 181.7 9.90998 181.7 9.47998C181.7 9.04998 182.04 8.70996 182.47 8.70996C182.89 8.70996 183.24 9.04998 183.24 9.47998Z" fill="#D3B77B"/>
            <path d="M183.4 11.17C183.4 11.68 182.98 12.1 182.47 12.1C181.96 12.1 181.54 11.68 181.54 11.17C181.54 10.66 181.96 10.24 182.47 10.24C182.98 10.24 183.4 10.66 183.4 11.17Z" fill="#D3B77B"/>
            <path d="M182.47 13.6401C182.895 13.6401 183.24 13.2953 183.24 12.8701C183.24 12.4448 182.895 12.1001 182.47 12.1001C182.045 12.1001 181.7 12.4448 181.7 12.8701C181.7 13.2953 182.045 13.6401 182.47 13.6401Z" fill="#D3B77B"/>
            <path d="M182.63 28.88C183.144 28.88 183.56 28.4636 183.56 27.95C183.56 27.4364 183.144 27.02 182.63 27.02C182.116 27.02 181.7 27.4364 181.7 27.95C181.7 28.4636 182.116 28.88 182.63 28.88Z" fill="#D3B77B"/>
            <path d="M183.4 29.6501C183.4 30.0701 183.06 30.4201 182.63 30.4201C182.21 30.4201 181.86 30.0801 181.86 29.6501C181.86 29.2201 182.2 28.8801 182.63 28.8801C183.06 28.8801 183.4 29.2301 183.4 29.6501Z" fill="#D3B77B"/>
            <path d="M182.63 32.2799C183.144 32.2799 183.56 31.8636 183.56 31.3499C183.56 30.8363 183.144 30.4199 182.63 30.4199C182.116 30.4199 181.7 30.8363 181.7 31.3499C181.7 31.8636 182.116 32.2799 182.63 32.2799Z" fill="#D3B77B"/>
            <path d="M183.4 33.04C183.4 33.46 183.06 33.81 182.63 33.81C182.21 33.81 181.86 33.47 181.86 33.04C181.86 32.62 182.2 32.27 182.63 32.27C183.06 32.28 183.4 32.62 183.4 33.04Z" fill="#D3B77B"/>
            <path d="M182.63 35.67C183.144 35.67 183.56 35.2537 183.56 34.7401C183.56 34.2264 183.144 33.8101 182.63 33.8101C182.116 33.8101 181.7 34.2264 181.7 34.7401C181.7 35.2537 182.116 35.67 182.63 35.67Z" fill="#D3B77B"/>
            <path d="M183.4 36.4399C183.4 36.8599 183.06 37.2099 182.63 37.2099C182.21 37.2099 181.86 36.8699 181.86 36.4399C181.86 36.0099 182.2 35.6699 182.63 35.6699C183.06 35.6699 183.4 36.0099 183.4 36.4399Z" fill="#D3B77B"/>
            <path d="M182.63 39.07C183.144 39.07 183.56 38.6536 183.56 38.14C183.56 37.6263 183.144 37.21 182.63 37.21C182.116 37.21 181.7 37.6263 181.7 38.14C181.7 38.6536 182.116 39.07 182.63 39.07Z" fill="#D3B77B"/>
            <path d="M183.4 39.83C183.4 40.25 183.06 40.6001 182.63 40.6001C182.21 40.6001 181.86 40.26 181.86 39.83C181.86 39.4 182.2 39.0601 182.63 39.0601C183.06 39.0601 183.4 39.41 183.4 39.83Z" fill="#D3B77B"/>
            <path d="M182.63 42.4601C183.144 42.4601 183.56 42.0437 183.56 41.5301C183.56 41.0165 183.144 40.6001 182.63 40.6001C182.116 40.6001 181.7 41.0165 181.7 41.5301C181.7 42.0437 182.116 42.4601 182.63 42.4601Z" fill="#D3B77B"/>
            <path d="M183.4 43.23C183.4 43.65 183.06 44 182.63 44C182.21 44 181.86 43.66 181.86 43.23C181.86 42.8 182.2 42.46 182.63 42.46C183.06 42.46 183.4 42.8 183.4 43.23Z" fill="#D3B77B"/>
            <path d="M182.63 45.85C183.144 45.85 183.56 45.4336 183.56 44.92C183.56 44.4064 183.144 43.99 182.63 43.99C182.116 43.99 181.7 44.4064 181.7 44.92C181.7 45.4336 182.116 45.85 182.63 45.85Z" fill="#D3B77B"/>
            <path d="M183.4 46.6201C183.4 47.0401 183.06 47.3901 182.63 47.3901C182.21 47.3901 181.86 47.0501 181.86 46.6201C181.86 46.2001 182.2 45.8501 182.63 45.8501C183.06 45.8501 183.4 46.2001 183.4 46.6201Z" fill="#D3B77B"/>
            <path d="M44.1002 69.73C44.1002 90.7 34.2201 108.72 29.1501 116.57C27.7801 118.69 24.6801 118.69 23.3101 116.57C18.2501 108.71 8.36011 90.69 8.36011 69.73V69.34C8.36011 68.86 8.37014 68.38 8.39014 67.9C8.83014 51.09 15.2401 32.25 20.2501 22.14C22.7001 17.19 29.7601 17.19 32.2101 22.14C37.4001 32.62 44.1002 52.47 44.1002 69.73Z" fill="#BE443E"/>
            <path d="M24.0301 17.4299C21.3601 17.4299 19.1101 19.4699 18.8801 22.1299C18.6201 25.1499 18.8201 28.4999 20.9501 28.4999C23.7201 28.4999 23.2301 25.6199 23.2301 25.6199C23.2301 25.6199 23.3001 28.4399 25.5801 28.4399C27.8601 28.4399 28.3701 25.1199 28.3701 25.1199C28.3701 25.1199 28.6601 28.2199 30.9301 28.2199C33.1101 28.2199 33.7501 25.4799 33.8601 22.7599C33.9701 19.8399 31.6101 17.4299 28.6901 17.4299H24.0301Z" fill="#2E8287"/>
            <path d="M29.0501 17.98H27.6401C27.6401 17.2 27.0102 16.56 26.2202 16.56C25.4302 16.56 24.8001 17.19 24.8001 17.98H23.3901C23.3901 16.42 24.6501 15.16 26.2101 15.16C27.7801 15.15 29.0501 16.42 29.0501 17.98Z" fill="#2E8287"/>
            <path d="M26.75 66.1599L23.37 74.0599L13.99 75.3799L20.78 79.5399L19.71 89.8399L26.75 82.1199L32.26 89.4299L31.58 80.1299L38.46 75.3799L29.67 73.9699L26.75 66.1599Z" fill="#FBB040"/>
            <path d="M26.4601 96.71L24.9802 100.15L20.8801 100.73L23.8502 102.55L23.3801 107.05L26.4601 103.67L28.8601 106.87L28.5601 102.81L31.5701 100.73L27.7302 100.12L26.4601 96.71Z" fill="white"/>
            <path d="M27.7102 93.8301C27.7102 94.5201 27.1502 95.0801 26.4602 95.0801C25.7702 95.0801 25.2102 94.5201 25.2102 93.8301C25.2102 93.1401 25.7702 92.5801 26.4602 92.5801C27.1502 92.5801 27.7102 93.1401 27.7102 93.8301Z" fill="#FBB040"/>
            <path d="M26.2302 110.26C26.9206 110.26 27.4802 109.7 27.4802 109.01C27.4802 108.32 26.9206 107.76 26.2302 107.76C25.5399 107.76 24.9802 108.32 24.9802 109.01C24.9802 109.7 25.5399 110.26 26.2302 110.26Z" fill="#FBB040"/>
            <path d="M26.2302 115.1C26.9206 115.1 27.4802 114.54 27.4802 113.85C27.4802 113.16 26.9206 112.6 26.2302 112.6C25.5399 112.6 24.9802 113.16 24.9802 113.85C24.9802 114.54 25.5399 115.1 26.2302 115.1Z" fill="#FBB040"/>
            <path d="M38.1302 83.2301C37.1202 82.5201 36.1602 81.7501 35.2202 80.9401C34.7402 80.5201 34.0402 81.22 34.5202 81.64C35.5202 82.5 36.5502 83.32 37.6302 84.08C38.1502 84.46 38.6402 83.6001 38.1302 83.2301Z" fill="white"/>
            <path d="M25.9702 85.99V89.37C25.9702 90.01 26.9602 90.01 26.9602 89.37V85.99C26.9602 85.35 25.9702 85.35 25.9702 85.99Z" fill="white"/>
            <path d="M17.9802 80.7499C16.9302 81.6099 15.5601 82.4399 14.8601 83.6399C14.5401 84.1899 15.3901 84.6899 15.7101 84.1399C16.0401 83.5799 16.5502 83.1999 17.0402 82.7899C17.5802 82.3399 18.1301 81.8999 18.6701 81.4499C19.1801 81.0399 18.4702 80.3399 17.9802 80.7499Z" fill="white"/>
            <path d="M26.2302 54.7998C26.9206 54.7998 27.4802 54.2402 27.4802 53.5498C27.4802 52.8594 26.9206 52.2998 26.2302 52.2998C25.5399 52.2998 24.9802 52.8594 24.9802 53.5498C24.9802 54.2402 25.5399 54.7998 26.2302 54.7998Z" fill="#FBB040"/>
            <path d="M26.2302 49.6699C26.2302 49.6699 22.5702 37.9099 26.2302 37.5299C29.8802 37.1399 26.2302 49.6699 26.2302 49.6699Z" fill="white"/>
            <path d="M29.1602 52.0799C29.1602 52.0799 34.0102 40.7599 37.0402 42.8399C40.0702 44.9199 29.1602 52.0799 29.1602 52.0799Z" fill="white"/>
            <path d="M23.2901 52.0799C23.2901 52.0799 18.4401 40.7599 15.4101 42.8399C12.3801 44.9199 23.2901 52.0799 23.2901 52.0799Z" fill="white"/>
            <path d="M31.4201 40.4898C31.2001 42.0098 30.3801 43.3498 29.7101 44.6998C29.4301 45.2698 30.2801 45.7698 30.5601 45.1998C31.2701 43.7798 32.1301 42.3498 32.3701 40.7498C32.4701 40.1298 31.5201 39.8598 31.4201 40.4898Z" fill="#FBB040"/>
            <path d="M21.0301 40.4898C21.2501 42.0098 22.07 43.3498 22.74 44.6998C23.02 45.2698 22.17 45.7698 21.89 45.1998C21.18 43.7798 20.32 42.3498 20.08 40.7498C19.98 40.1298 20.9401 39.8598 21.0301 40.4898Z" fill="#FBB040"/>
            <path d="M18.8501 69.93C16.7501 70.92 14.3201 70.9 12.0601 70.63C10.6001 70.45 9.4501 70 8.3501 69.34C8.3501 68.86 8.36007 68.38 8.38007 67.9C10.4201 68.61 12.4901 67.45 13.9701 65.89C14.4101 65.43 15.11 66.13 14.67 66.59C13.4 67.94 11.7201 68.96 9.97009 69.09C10.4801 69.31 11.0201 69.48 11.6301 69.58C13.2001 69.84 14.9701 69.92 16.5401 69.63C19.4501 69.09 21.8801 66.88 22.6201 64.01C22.9601 62.7 23.1601 60.87 23.0001 59.51C22.8101 57.87 21.8801 57.2 20.4301 56.79C19.2901 56.47 18.1601 56.61 17.3201 57.49C16.0901 58.77 16.0101 60.61 16.7901 62.13C17.3501 63.21 18.7901 64.75 20.1501 63.52C20.4801 63.14 20.7001 62.71 20.8101 62.22C21.2801 61.15 20.82 60.49 19.42 60.24C19.04 60.75 18.1901 60.25 18.5701 59.74C19.4801 58.51 21.1501 58.74 21.7501 60.19C22.3801 61.72 21.5601 64.26 19.9101 64.81C18.2001 65.37 16.6701 64.06 15.9401 62.64C15.1001 61.02 15.0301 59.18 16.0101 57.6C16.9201 56.13 18.4801 55.42 20.1801 55.73C21.8501 56.03 23.8201 57.09 23.9901 58.94C24.3901 63.29 23.0701 67.95 18.8501 69.93Z" fill="white"/>
            <path d="M44.1 69.46C43.07 70.05 41.97 70.46 40.61 70.62C38.35 70.89 35.92 70.91 33.82 69.92C29.61 67.95 28.28 63.28 28.68 58.93C28.85 57.08 30.82 56.02 32.49 55.72C34.19 55.41 35.75 56.12 36.66 57.59C37.64 59.17 37.58 61.01 36.73 62.63C36 64.05 34.47 65.36 32.76 64.8C31.1 64.25 30.28 61.71 30.92 60.18C31.52 58.73 33.19 58.51 34.1 59.73C34.48 60.24 33.62 60.74 33.25 60.23C31.85 60.48 31.39 61.14 31.86 62.21C31.97 62.7 32.19 63.13 32.52 63.51C33.88 64.74 35.32 63.2 35.88 62.12C36.66 60.6 36.58 58.76 35.35 57.48C34.51 56.6 33.37 56.46 32.24 56.78C30.78 57.19 29.86 57.86 29.67 59.5C29.51 60.86 29.72 62.69 30.05 64C30.79 66.87 33.22 69.09 36.13 69.62C37.7 69.91 39.47 69.83 41.04 69.57C41.64 69.47 42.18 69.3 42.7 69.08C40.95 68.95 39.27 67.92 38 66.58C37.56 66.11 38.26 65.42 38.7 65.88C40.13 67.39 42.1 68.52 44.08 67.96L44.1 69.46Z" fill="white"/>
            <path d="M26.7699 -3.17012C26.4599 0.0498846 26.4299 3.29991 26.3499 6.53991C26.2599 9.78991 26.3999 13.1699 25.8799 16.3799C25.8199 16.7699 26.3899 16.9399 26.4499 16.5499C26.9599 13.4099 26.8499 10.1299 26.9299 6.95989C27.0199 3.57989 27.0399 0.199884 27.3699 -3.17012C27.3999 -3.58012 26.7999 -3.57012 26.7699 -3.17012Z" fill="#D3B77B"/>
            <path d="M99.94 -11.8701C99.92 -12.2701 99.32 -12.2801 99.34 -11.8701C100.43 5.93993 98.5901 23.7299 98.0401 41.5199C97.8801 46.5499 97.81 51.5899 97.82 56.6299C97.82 57.0299 98.42 57.0399 98.42 56.6299C98.41 47.6899 98.68 38.7499 99.14 29.8199C99.6 20.9299 100.15 12.0399 100.27 3.12993C100.33 -1.87007 100.25 -6.87007 99.94 -11.8701Z" fill="#D3B77B"/>
            <path d="M98.5266 48.3333L96.3866 53.5333L89.1666 54.4133L94.3066 57.7133L93.3966 66.0933L98.1766 60.2333L102.447 65.8233L101.577 57.9333L107.807 54.9433L100.107 53.2133L98.5266 48.3333Z" fill="#BE443E"/>
            <path d="M168.303 66.8201C167.253 51.0801 167.413 35.28 167.313 19.52C167.253 10.58 167.203 1.64004 167.143 -7.29996C167.143 -7.67996 166.543 -7.67996 166.543 -7.29996C166.643 8.53004 166.703 24.3601 166.843 40.1901C166.913 48.0801 167.053 55.98 167.513 63.86C167.973 71.69 168.713 79.51 169.293 87.33C169.953 96.19 170.393 105.08 170.003 113.96C169.983 114.34 170.583 114.34 170.603 113.96C171.293 98.2101 169.353 82.5201 168.303 66.8201Z" fill="#D3B77B"/>
            <path d="M70.7235 163.097C62.4535 163.277 54.1936 163.897 45.9236 163.197C45.1336 163.127 44.3235 163.027 43.5635 162.797C42.1635 162.377 41.4736 161.507 41.7136 159.907C42.5936 153.847 45.3235 148.487 47.9435 143.087C52.7735 133.157 58.7635 123.867 63.9435 114.127C67.2235 107.967 70.7635 101.867 71.8035 94.8173C72.5835 89.5173 72.5936 84.1473 69.7436 79.3873C67.8936 76.2973 66.0735 75.8073 63.2935 77.0773C61.6735 77.8173 60.0835 78.5873 58.5435 79.4873C54.0735 82.0873 51.9736 86.0673 51.4936 91.0773C51.4336 91.6973 51.7235 92.5973 50.4735 92.4573C49.4735 92.3473 48.4035 92.6172 48.3535 91.0272C48.1935 85.7472 50.3436 81.4372 53.9535 77.7772C59.7135 71.9272 67.8335 69.9273 74.6035 73.3173C81.1035 76.5773 84.3735 82.3973 85.3635 89.5373C86.3135 96.4572 84.3435 102.827 81.8435 109.137C77.0735 121.177 70.0735 131.957 63.0135 142.707C59.7235 147.717 56.7835 152.967 52.7535 157.477C52.6135 157.627 52.5635 157.857 52.4735 158.047C52.7535 158.117 53.0435 158.247 53.3235 158.247C61.2035 158.287 69.0735 158.307 76.9535 158.327C81.0135 158.337 85.0235 158.887 89.0535 159.347C90.1835 159.477 90.7235 159.157 90.7335 157.977C90.7435 156.997 90.8335 156.017 90.9635 155.057C91.0935 154.077 90.9835 152.667 92.0535 152.427C93.6535 152.057 95.2635 152.727 95.6935 154.457C96.2835 156.857 96.5835 159.337 96.8835 161.797C96.9935 162.737 96.0635 162.827 95.3735 162.967C91.9235 163.697 88.4635 163.187 85.0035 163.127C80.2335 163.027 75.4735 163.097 70.7235 163.097Z" fill="#2E8287"/>
            <path d="M129.673 69.1667C136.007 69.2998 142.586 68.7575 149.062 70.1797C150.699 70.5378 152.347 70.8959 153.963 71.3358C155.17 71.6633 155.764 72.6352 156.091 73.7505C157.084 77.0655 156.234 80.309 155.549 83.5217C155.273 84.8416 153.912 84.3197 152.981 84.3197C152.04 84.3095 150.945 84.2992 150.791 83.0203C150.495 80.4624 149.963 77.8943 150.423 75.3057C150.628 74.2007 150.27 73.9347 149.175 73.9654C138.677 74.3337 128.169 74.702 117.661 74.968C114.438 75.0499 111.205 74.8555 107.982 74.7123C106.908 74.6611 106.693 74.9885 106.836 76.0014C107.952 84.2379 108.504 92.4948 107.399 100.782C107.174 102.491 107.573 102.87 109.272 102.205C121.437 97.498 133.091 99.1555 143.527 106.307C152.633 112.549 157.493 121.675 158.68 132.623C159.355 138.813 158.301 144.625 155.273 150.058C152.234 155.511 147.384 158.908 141.45 160.678C131.28 163.707 120.976 165.528 110.223 164.208C103.173 163.338 101.066 160.34 100.176 153.843C99.7357 150.661 100.247 147.357 100.36 144.103C100.38 143.622 100.534 143.141 100.677 142.67C100.994 141.606 101.864 141.177 102.867 141.177C103.951 141.187 104.094 142.179 104.166 142.936C104.606 148.032 106.202 152.871 107.491 157.783C108.31 160.893 109.005 161.456 112.31 161.64C118.592 161.977 124.384 160.197 129.786 157.261C140.099 151.654 145 141.719 143.619 129.676C142.923 123.589 141.419 117.757 137.766 112.682C133.858 107.239 128.2 104.343 121.693 103.32C118.429 102.808 115.206 104.456 111.983 105.192C110.346 105.561 108.31 105.601 107.215 106.594C105.895 107.791 104.698 107.648 103.296 107.597C102.038 107.556 101.434 106.891 101.25 105.704C100.268 99.3806 99.9403 93.0472 100.524 86.6627C100.841 83.2045 100.994 79.7257 101.27 76.2675C101.598 72.1134 102.856 70.947 107.123 70.5071C114.541 69.7397 122 69.3918 129.673 69.1667Z" fill="#2E8287"/>
        </g>
    </g>
    <defs>
        <clipPath id="clip0_30_140">
            <rect width="200" height="200" fill="white"/>
        </clipPath>
    </defs>
</svg>
