<svg width="200" height="200" viewBox="0 0 200 200" fill="none" xmlns="http://www.w3.org/2000/svg">
    <g clip-path="url(#clip0_30_1095)">
        <path d="M200 0H0V200H200V0Z" fill="#2E8287"/>
        <path d="M118.971 103.3C119.302 103.389 119.478 103.797 119.368 104.205C105.201 151.161 61.7506 180.862 12.854 177.026C12.435 176.982 12.1263 176.673 12.1594 176.331C12.1925 175.989 12.5674 175.747 12.9753 175.791C61.2655 179.584 104.175 150.246 118.166 103.874C118.288 103.466 118.64 103.212 118.971 103.3Z" fill="white"/>
        <path d="M26.2275 176.849C26.2275 176.927 26.1944 177.015 26.1282 177.07C23.2397 179.628 20.1967 182.009 16.9994 184.181C16.834 184.291 16.5804 184.28 16.4261 184.148C16.2717 184.016 16.2828 183.817 16.4482 183.707C19.5462 181.612 22.512 179.33 25.3234 176.871C22.523 174.567 19.899 172.241 17.286 169.738C17.1537 169.606 17.1648 169.418 17.3081 169.297C17.4514 169.187 17.6719 169.198 17.8042 169.33C20.4282 171.921 23.1955 174.369 26.1062 176.64C26.1833 176.695 26.2275 176.772 26.2275 176.849Z" fill="#D3B77B"/>
        <path d="M21.6521 176.893C21.6521 176.97 21.619 177.048 21.5419 177.114C18.9289 179.22 17.5507 180.223 14.6401 182.141C14.4747 182.252 14.2212 182.229 14.0778 182.097C13.9345 181.965 13.9455 181.766 14.1109 181.656C16.9003 179.837 18.2343 178.878 20.7481 176.882C18.3115 174.776 17.1539 173.696 14.9598 171.458C14.8275 171.326 14.8496 171.127 14.9929 171.017C15.1473 170.907 15.3678 170.929 15.5001 171.061C17.7933 173.387 19.0061 174.512 21.5529 176.684C21.6191 176.739 21.6521 176.816 21.6521 176.893Z" fill="#D3B77B"/>
        <path d="M17.0546 176.739C17.0546 176.816 17.0105 176.893 16.9333 176.949C15.3567 178.095 14.5409 178.646 12.8651 179.727C12.6997 179.837 12.4571 179.804 12.3138 179.672C12.1705 179.539 12.1925 179.341 12.3579 179.231C13.9124 178.239 14.6732 177.72 16.1505 176.673C14.8275 175.438 14.1881 174.799 12.9422 173.52C12.8099 173.387 12.832 173.189 12.9863 173.079C13.1407 172.969 13.3722 172.991 13.5045 173.134C14.8385 174.501 15.5331 175.185 16.9554 176.508C17.0326 176.574 17.0656 176.651 17.0546 176.739Z" fill="#D3B77B"/>
        <path d="M30.5384 176.607C30.5495 176.684 30.5164 176.772 30.4502 176.838C27.7049 179.517 24.7723 182.02 21.7073 184.335C21.5529 184.457 21.2883 184.457 21.134 184.324C20.9796 184.203 20.9796 184.005 21.145 183.883C24.1218 181.656 26.9663 179.242 29.6564 176.673C26.7788 174.49 24.0777 172.274 21.3655 169.892C21.2332 169.771 21.2332 169.573 21.3765 169.451C21.5088 169.33 21.7293 169.33 21.8616 169.462C24.5738 171.943 27.4293 174.258 30.4171 176.397C30.4833 176.452 30.5384 176.53 30.5384 176.607Z" fill="#D3B77B"/>
        <path d="M34.8162 176.188C34.8272 176.265 34.7942 176.353 34.739 176.419C32.1261 179.22 29.3256 181.844 26.3819 184.291C26.2276 184.413 25.974 184.424 25.8197 184.313C25.6653 184.192 25.6543 184.005 25.8086 183.872C28.6752 181.513 31.3874 178.988 33.9452 176.298C30.9905 174.247 28.2121 172.153 25.4227 169.881C25.2794 169.76 25.2794 169.573 25.4117 169.44C25.544 169.319 25.7645 169.308 25.8968 169.429C28.6972 171.789 31.6409 173.983 34.6949 175.989C34.7611 176.033 34.8052 176.111 34.8162 176.188Z" fill="#D3B77B"/>
        <path d="M39.0498 175.581C39.0608 175.659 39.0388 175.747 38.9836 175.813C36.503 178.712 33.8459 181.458 31.0235 184.027C30.8801 184.159 30.6265 184.181 30.4612 184.071C30.2958 183.96 30.2848 183.762 30.4281 183.63C33.1734 181.149 35.7643 178.503 38.1788 175.714C35.1579 173.784 32.3024 171.811 29.4248 169.661C29.2815 169.551 29.2705 169.352 29.3917 169.22C29.513 169.088 29.7335 169.076 29.8768 169.187C32.7654 171.425 35.7753 173.487 38.9065 175.372C38.9836 175.427 39.0388 175.504 39.0498 175.581Z" fill="#D3B77B"/>
        <path d="M43.2284 174.799C43.2394 174.876 43.2284 174.964 43.1733 175.03C40.836 178.029 38.3112 180.885 35.61 183.575C35.4667 183.718 35.2242 183.74 35.0588 183.641C34.8934 183.542 34.8713 183.343 35.0036 183.2C37.6166 180.609 40.0862 177.853 42.3684 174.964C39.2814 173.167 36.3487 171.315 33.405 169.297C33.2617 169.187 33.2396 168.999 33.3499 168.856C33.4711 168.724 33.6806 168.691 33.8239 168.801C36.7897 170.918 39.8768 172.847 43.0741 174.6C43.1623 174.655 43.2174 174.722 43.2284 174.799Z" fill="#D3B77B"/>
        <path d="M47.3628 173.839C47.3849 173.917 47.3628 174.005 47.3187 174.082C45.1247 177.18 42.7322 180.135 40.1634 182.935C40.0311 183.078 39.7885 183.123 39.6121 183.023C39.4467 182.924 39.4137 182.737 39.546 182.593C42.0377 179.892 44.364 177.037 46.5139 174.06C43.3607 172.395 40.3729 170.664 37.352 168.768C37.1976 168.669 37.1756 168.47 37.2858 168.338C37.3961 168.195 37.6055 168.161 37.7599 168.261C40.8028 170.245 43.9561 172.053 47.2085 173.663C47.2857 173.696 47.3408 173.762 47.3628 173.839Z" fill="#D3B77B"/>
        <path d="M51.431 172.715C51.4531 172.792 51.4421 172.88 51.3869 172.958C49.3363 176.144 47.0761 179.198 44.6505 182.108C44.5293 182.263 44.2867 182.307 44.1103 182.219C43.9339 182.13 43.9008 181.943 44.0221 181.789C46.3815 178.977 48.5755 176.034 50.5821 172.969C47.3738 171.436 44.3198 169.837 41.2327 168.073C41.0784 167.985 41.0453 167.787 41.1445 167.643C41.2548 167.5 41.4532 167.456 41.6076 167.544C44.7167 169.396 47.9471 171.072 51.2546 172.539C51.3538 172.572 51.409 172.638 51.431 172.715Z" fill="#D3B77B"/>
        <path d="M55.4332 171.414C55.4552 171.491 55.4552 171.579 55.4001 171.656C53.4927 174.92 51.3759 178.062 49.0827 181.072C48.9614 181.226 48.7299 181.292 48.5424 181.204C48.366 181.127 48.3219 180.929 48.4322 180.774C50.6593 177.875 52.721 174.832 54.5953 171.689C51.3318 170.289 48.2227 168.823 45.0695 167.18C44.9152 167.092 44.8711 166.905 44.9593 166.75C45.0585 166.596 45.268 166.552 45.4223 166.64C48.6748 168.316 51.8721 169.815 55.2458 171.226C55.356 171.282 55.4111 171.348 55.4332 171.414Z" fill="#D3B77B"/>
        <path d="M59.3803 169.959C59.4134 170.036 59.4023 170.124 59.3582 170.201C57.5942 173.542 55.6207 176.772 53.4708 179.87C53.3606 180.025 53.118 180.102 52.9416 180.025C52.7652 179.947 52.7101 179.76 52.8203 179.606C54.9151 176.607 56.8335 173.498 58.5644 170.278C55.2458 169.021 52.0927 167.676 48.8733 166.177C48.7079 166.1 48.6638 165.912 48.752 165.758C48.8402 165.604 49.0497 165.549 49.2041 165.626C52.5116 167.169 55.7751 168.525 59.1929 169.804C59.2811 169.815 59.3472 169.881 59.3803 169.959Z" fill="#D3B77B"/>
        <path d="M63.25 168.338C63.2831 168.415 63.2831 168.503 63.239 168.581C61.6183 171.987 59.7992 175.295 57.7816 178.481C57.6823 178.646 57.4398 178.724 57.2634 178.658C57.076 178.591 57.0208 178.404 57.1201 178.239C59.0825 175.163 60.8686 171.965 62.4452 168.68C59.0826 167.555 55.8742 166.353 52.6108 164.986C52.4454 164.909 52.3903 164.733 52.4674 164.567C52.5556 164.413 52.7541 164.347 52.9195 164.413C56.2821 165.813 59.5897 167.037 63.0626 168.173C63.1398 168.206 63.217 168.261 63.25 168.338Z" fill="#D3B77B"/>
        <path d="M67.0318 166.552C67.0648 166.618 67.0759 166.706 67.0318 166.794C65.5654 170.267 63.8786 173.641 62.0153 176.915C61.9161 177.081 61.6956 177.169 61.5082 177.114C61.3207 177.059 61.2546 176.871 61.3538 176.706C63.1729 173.553 64.8157 170.289 66.26 166.938C62.8642 165.956 59.6118 164.887 56.2932 163.652C56.1279 163.586 56.0617 163.399 56.1389 163.244C56.2161 163.079 56.4145 163.013 56.5799 163.068C59.9977 164.325 63.3494 165.416 66.8554 166.398C66.9325 166.431 66.9987 166.486 67.0318 166.552Z" fill="#D3B77B"/>
        <path d="M70.7472 164.611C70.7913 164.689 70.7912 164.766 70.7582 164.854C69.4351 168.382 67.9027 171.822 66.1717 175.162C66.0835 175.339 65.863 175.438 65.6756 175.383C65.4881 175.328 65.411 175.151 65.4992 174.986C67.186 171.756 68.6854 168.426 69.9864 165.03C66.5466 164.192 63.2611 163.255 59.8984 162.164C59.733 162.109 59.6558 161.921 59.722 161.767C59.7881 161.601 59.9866 161.524 60.152 161.579C63.6139 162.693 67.0096 163.641 70.5487 164.479C70.6369 164.49 70.7031 164.545 70.7472 164.611Z" fill="#D3B77B"/>
        <path d="M74.3633 162.528C74.4074 162.594 74.4184 162.682 74.3854 162.77C73.2167 166.342 71.8275 169.848 70.2509 173.266C70.1738 173.442 69.9532 173.553 69.7658 173.509C69.5784 173.465 69.4902 173.288 69.5784 173.112C71.1219 169.815 72.478 166.43 73.6357 162.98C70.1738 162.285 66.8442 161.491 63.4484 160.532C63.283 160.477 63.1948 160.3 63.261 160.135C63.3271 159.97 63.5146 159.882 63.6799 159.926C67.1859 160.896 70.6037 161.701 74.1869 162.395C74.242 162.406 74.3192 162.461 74.3633 162.528Z" fill="#D3B77B"/>
        <path d="M77.8914 160.29C77.9355 160.356 77.9465 160.444 77.9245 160.532C76.9102 164.148 75.6754 167.709 74.2311 171.182C74.1539 171.359 73.9444 171.48 73.757 171.447C73.5696 171.414 73.4703 171.238 73.5475 171.061C74.9477 167.698 76.1605 164.27 77.1638 160.764C73.6688 160.212 70.3171 159.562 66.8773 158.746C66.7009 158.702 66.6127 158.526 66.6678 158.36C66.7229 158.195 66.9104 158.096 67.0757 158.14C70.6148 158.967 74.0657 159.628 77.6709 160.168C77.7702 160.179 77.8473 160.223 77.8914 160.29Z" fill="#D3B77B"/>
        <path d="M81.3203 157.908C81.3644 157.974 81.3865 158.062 81.3644 158.151C80.5045 161.811 79.413 165.416 78.123 168.944C78.0569 169.121 77.8474 169.253 77.66 169.22C77.4725 169.198 77.3733 169.021 77.4394 168.845C78.6963 165.427 79.7658 161.943 80.6257 158.415C77.1197 158.007 73.735 157.5 70.2731 156.828C70.0967 156.795 69.9975 156.618 70.0526 156.453C70.0967 156.287 70.2841 156.177 70.4495 156.21C74.0216 156.894 77.4946 157.401 81.1108 157.798C81.199 157.798 81.2762 157.842 81.3203 157.908Z" fill="#D3B77B"/>
        <path d="M84.6499 155.383C84.705 155.449 84.716 155.538 84.705 155.626C83.9884 159.319 83.0622 162.969 81.9267 166.541C81.8715 166.728 81.662 166.86 81.4746 166.838C81.2872 166.816 81.1769 166.651 81.2321 166.475C82.3456 163.013 83.2607 159.485 83.9774 155.923C80.4493 155.67 77.0535 155.295 73.5586 154.766C73.3822 154.733 73.2719 154.567 73.316 154.402C73.3601 154.226 73.5365 154.115 73.7129 154.148C77.3182 154.678 80.8021 155.041 84.4404 155.284C84.5176 155.284 84.5947 155.317 84.6499 155.383Z" fill="#D3B77B"/>
        <path d="M87.8692 152.726C87.9244 152.781 87.9464 152.87 87.9354 152.958C87.3731 156.673 86.6013 160.356 85.6091 163.983C85.5539 164.17 85.3555 164.314 85.1681 164.303C84.9806 164.292 84.8594 164.137 84.9145 163.95C85.8847 160.444 86.6565 156.883 87.2188 153.289C83.6907 153.178 80.2729 152.947 76.7669 152.572C76.5905 152.55 76.4802 152.385 76.5133 152.219C76.5464 152.043 76.7228 151.921 76.8992 151.944C80.5154 152.318 84.0215 152.539 87.6708 152.627C87.748 152.627 87.8251 152.66 87.8692 152.726Z" fill="#D3B77B"/>
        <path d="M90.9893 149.926C91.0445 149.981 91.0775 150.069 91.0665 150.157C90.6586 153.895 90.0412 157.61 89.2033 161.282C89.1592 161.469 88.9717 161.624 88.7733 161.624C88.5748 161.624 88.4646 161.469 88.5087 161.282C89.3245 157.732 89.953 154.148 90.3719 150.532C86.8328 150.576 83.415 150.488 79.887 150.257C79.7106 150.246 79.5893 150.091 79.6224 149.915C79.6444 149.738 79.8098 149.606 79.9862 149.628C83.6245 149.849 87.1305 149.926 90.7799 149.86C90.846 149.838 90.9342 149.871 90.9893 149.926Z" fill="#D3B77B"/>
        <path d="M93.9771 147.004C94.0323 147.059 94.0654 147.148 94.0543 147.236C93.8007 150.995 93.3377 154.733 92.6431 158.426C92.61 158.614 92.4226 158.779 92.2241 158.779C92.0257 158.779 91.9044 158.636 91.9375 158.448C92.6101 154.865 93.0841 151.249 93.3487 147.622C89.8096 147.809 86.3918 147.875 82.8528 147.787C82.6764 147.776 82.5441 147.633 82.5661 147.456C82.5882 147.28 82.7425 147.148 82.9189 147.148C86.5682 147.214 90.0742 147.137 93.7126 146.916C93.8449 146.916 93.922 146.938 93.9771 147.004Z" fill="#D3B77B"/>
        <path d="M96.8548 143.939C96.9209 143.994 96.954 144.072 96.943 144.16C96.8438 147.919 96.5351 151.679 95.9949 155.416C95.9728 155.604 95.7854 155.769 95.598 155.791C95.4105 155.802 95.2672 155.659 95.3003 155.472C95.8295 151.866 96.1492 148.228 96.2594 144.59C92.7314 144.932 89.3136 145.141 85.7745 145.207C85.5981 145.207 85.4658 145.064 85.4768 144.887C85.4879 144.711 85.6422 144.568 85.8186 144.568C89.4679 144.48 92.974 144.259 96.6123 143.884C96.7115 143.862 96.7997 143.884 96.8548 143.939Z" fill="#D3B77B"/>
        <path d="M99.6001 140.764C99.6662 140.819 99.6993 140.896 99.6993 140.984C99.7654 144.755 99.6 148.526 99.2142 152.274C99.1921 152.462 99.0268 152.638 98.8283 152.66C98.6409 152.682 98.4975 152.539 98.5196 152.351C98.8944 148.724 99.0709 145.075 99.0378 141.425C95.5318 141.922 92.125 142.274 88.5859 142.495C88.4095 142.506 88.2662 142.363 88.2772 142.186C88.2882 142.01 88.4315 141.855 88.6079 141.855C92.2573 141.613 95.7523 141.238 99.3685 140.698C99.4567 140.687 99.5449 140.709 99.6001 140.764Z" fill="#D3B77B"/>
        <path d="M102.224 137.456C102.29 137.501 102.334 137.578 102.334 137.677C102.555 141.448 102.544 145.229 102.323 149C102.312 149.198 102.147 149.375 101.959 149.408C101.772 149.441 101.629 149.308 101.64 149.11C101.871 145.461 101.893 141.8 101.706 138.151C98.2108 138.801 94.8261 139.298 91.287 139.672C91.1106 139.684 90.9673 139.551 90.9673 139.375C90.9673 139.198 91.1106 139.044 91.287 139.022C94.9253 138.625 98.4093 138.096 102.003 137.401C102.081 137.39 102.158 137.401 102.224 137.456Z" fill="#D3B77B"/>
        <path d="M104.705 134.028C104.771 134.072 104.815 134.149 104.826 134.237C105.201 137.997 105.344 141.789 105.278 145.571C105.278 145.769 105.112 145.957 104.925 145.99C104.738 146.023 104.583 145.902 104.594 145.703C104.671 142.043 104.55 138.382 104.208 134.733C100.747 135.538 97.3728 136.188 93.8558 136.718C93.6794 136.74 93.5251 136.618 93.5251 136.431C93.514 136.255 93.6463 136.089 93.8227 136.067C97.4169 135.593 100.967 134.888 104.473 133.972C104.55 133.972 104.638 133.983 104.705 134.028Z" fill="#D3B77B"/>
        <path d="M107.053 130.489C107.119 130.533 107.163 130.599 107.185 130.698C107.715 134.447 108.012 138.239 108.1 142.021C108.1 142.219 107.957 142.407 107.77 142.462C107.582 142.506 107.428 142.385 107.417 142.197C107.34 138.526 107.064 134.866 106.579 131.238C103.15 132.197 99.7984 132.991 96.3034 133.675C96.127 133.708 95.9727 133.587 95.9506 133.41C95.9396 133.234 96.0608 133.068 96.2372 133.035C99.8094 132.407 103.337 131.547 106.799 130.466C106.899 130.433 106.987 130.444 107.053 130.489Z" fill="#D3B77B"/>
        <path d="M109.247 126.839C109.313 126.883 109.368 126.95 109.379 127.038C110.063 130.775 110.515 134.557 110.758 138.35C110.769 138.548 110.625 138.746 110.438 138.802C110.25 138.857 110.096 138.746 110.074 138.548C109.853 134.877 109.423 131.227 108.784 127.6C105.388 128.714 102.081 129.662 98.6078 130.5C98.4314 130.533 98.277 130.422 98.2439 130.246C98.2219 130.07 98.3431 129.893 98.5195 129.86C102.07 129.066 105.565 128.052 108.982 126.817C109.093 126.795 109.181 126.795 109.247 126.839Z" fill="#D3B77B"/>
        <path d="M111.298 123.08C111.375 123.113 111.419 123.19 111.441 123.278C112.279 126.994 112.885 130.764 113.282 134.546C113.304 134.744 113.172 134.954 112.985 135.009C112.797 135.075 112.632 134.965 112.621 134.777C112.246 131.117 111.673 127.468 110.89 123.862C107.538 125.13 104.275 126.233 100.835 127.225C100.658 127.269 100.493 127.17 100.471 126.994C100.438 126.817 100.559 126.641 100.725 126.597C104.242 125.648 107.693 124.469 111.066 123.08C111.132 123.036 111.221 123.047 111.298 123.08Z" fill="#D3B77B"/>
        <path d="M113.183 119.21C113.26 119.243 113.315 119.309 113.337 119.397C114.319 123.091 115.09 126.839 115.642 130.621C115.675 130.819 115.542 131.029 115.366 131.106C115.19 131.183 115.013 131.084 114.991 130.885C114.462 127.225 113.734 123.598 112.808 120.026C109.512 121.448 106.292 122.694 102.886 123.851C102.709 123.907 102.544 123.807 102.511 123.631C102.478 123.455 102.577 123.267 102.753 123.212C106.237 122.098 109.633 120.764 112.952 119.221C113.029 119.177 113.117 119.177 113.183 119.21Z" fill="#D3B77B"/>
        <path d="M114.925 115.252C115.002 115.285 115.057 115.351 115.09 115.439C116.226 119.1 117.152 122.826 117.858 126.597C117.891 126.795 117.78 127.016 117.604 127.093C117.428 127.17 117.251 127.082 117.218 126.894C116.546 123.245 115.664 119.64 114.583 116.09C111.353 117.677 108.178 119.067 104.826 120.379C104.661 120.445 104.484 120.345 104.44 120.18C104.396 120.015 104.495 119.816 104.661 119.75C108.1 118.482 111.452 116.983 114.693 115.274C114.76 115.219 114.848 115.219 114.925 115.252Z" fill="#D3B77B"/>
        <path d="M116.491 111.183C116.568 111.216 116.634 111.272 116.656 111.36C117.946 114.987 119.026 118.692 119.886 122.44C119.93 122.628 119.82 122.859 119.644 122.947C119.467 123.035 119.291 122.947 119.247 122.76C118.42 119.133 117.395 115.549 116.171 112.032C112.996 113.774 109.886 115.318 106.59 116.795C106.425 116.861 106.248 116.784 106.193 116.608C106.138 116.431 106.237 116.244 106.403 116.167C109.787 114.733 113.073 113.08 116.248 111.216C116.325 111.161 116.413 111.15 116.491 111.183Z" fill="#D3B77B"/>
        <path d="M118.53 100.478C118.784 100.61 118.861 100.963 118.696 101.272C99.1921 137.004 58.8399 153.741 19.7667 142.296C19.436 142.186 19.2375 141.889 19.3147 141.613C19.4029 141.337 19.7447 141.216 20.0754 141.315C58.6635 152.616 98.5195 136.089 117.78 100.798C117.946 100.489 118.277 100.346 118.53 100.478Z" fill="white"/>
        <path d="M30.6596 144.435C30.6486 144.501 30.6045 144.557 30.5384 144.601C27.76 146.188 24.8714 147.6 21.9167 148.823C21.7623 148.889 21.5528 148.834 21.4536 148.702C21.3544 148.57 21.3985 148.415 21.5529 148.349C24.4194 147.181 27.2198 145.824 29.932 144.303C28.0577 141.955 26.3157 139.617 24.6179 137.137C24.5297 137.004 24.5738 136.85 24.7171 136.784C24.8494 136.718 25.0258 136.762 25.114 136.894C26.8008 139.452 28.642 141.899 30.6156 144.248C30.6597 144.303 30.6707 144.369 30.6596 144.435Z" fill="#D3B77B"/>
        <path d="M26.9441 143.697C26.9331 143.763 26.889 143.818 26.8118 143.851C24.3312 145.108 23.0412 145.703 20.3511 146.762C20.1967 146.817 19.9983 146.762 19.8991 146.629C19.7998 146.497 19.855 146.343 19.9983 146.276C22.5782 145.273 23.824 144.722 26.2055 143.531C24.5848 141.414 23.824 140.334 22.4238 138.14C22.3356 138.008 22.3907 137.853 22.523 137.787C22.6663 137.721 22.8428 137.776 22.931 137.908C24.3973 140.18 25.1911 141.304 26.889 143.498C26.9441 143.564 26.9551 143.63 26.9441 143.697Z" fill="#D3B77B"/>
        <path d="M23.2397 142.781C23.2177 142.848 23.1736 142.903 23.1074 142.936C21.63 143.597 20.8693 143.906 19.3258 144.501C19.1714 144.556 18.973 144.501 18.8848 144.358C18.7966 144.226 18.8407 144.071 18.9951 144.016C20.4283 143.476 21.1339 143.189 22.5121 142.583C21.6521 141.348 21.2332 140.731 20.4393 139.474C20.3511 139.342 20.4063 139.187 20.5496 139.132C20.6929 139.077 20.8804 139.132 20.9575 139.264C21.8065 140.609 22.2585 141.271 23.1956 142.594C23.2397 142.649 23.2508 142.715 23.2397 142.781Z" fill="#D3B77B"/>
        <path d="M34.2097 144.975C34.1987 145.042 34.1656 145.108 34.0995 145.141C31.4093 146.85 28.6089 148.393 25.7204 149.749C25.566 149.816 25.3675 149.771 25.2573 149.65C25.147 149.529 25.1911 149.363 25.3345 149.297C28.1349 147.996 30.8581 146.519 33.471 144.887C31.5086 142.627 29.6784 140.367 27.8923 137.963C27.8041 137.842 27.8372 137.677 27.9695 137.611C28.1018 137.533 28.2782 137.578 28.3664 137.699C30.1525 140.18 32.0818 142.539 34.1325 144.788C34.1877 144.843 34.2207 144.909 34.2097 144.975Z" fill="#D3B77B"/>
        <path d="M37.7488 145.361C37.7378 145.428 37.7048 145.494 37.6386 145.538C35.0367 147.368 32.3245 149.022 29.5131 150.51C29.3697 150.587 29.1603 150.554 29.05 150.433C28.9398 150.312 28.9728 150.146 29.1162 150.08C31.8394 148.658 34.4854 147.059 37.0102 145.306C34.9595 143.134 33.0521 140.962 31.1779 138.636C31.0896 138.515 31.1117 138.36 31.244 138.283C31.3763 138.206 31.5527 138.239 31.6409 138.349C33.5152 140.742 35.5328 143.024 37.6717 145.185C37.7378 145.229 37.7599 145.295 37.7488 145.361Z" fill="#D3B77B"/>
        <path d="M41.2989 145.593C41.2989 145.659 41.2658 145.725 41.1996 145.769C38.6969 147.71 36.0619 149.485 33.3387 151.095C33.1954 151.183 32.9859 151.15 32.8756 151.028C32.7654 150.907 32.7874 150.753 32.9198 150.665C35.5658 149.121 38.1236 147.412 40.5602 145.549C38.4323 143.465 36.4478 141.381 34.4853 139.143C34.3861 139.033 34.4081 138.868 34.5294 138.779C34.6507 138.691 34.8271 138.713 34.9263 138.835C36.8888 141.139 38.9836 143.333 41.2107 145.395C41.2658 145.461 41.2989 145.527 41.2989 145.593Z" fill="#D3B77B"/>
        <path d="M44.827 145.67C44.827 145.736 44.7939 145.802 44.7388 145.857C42.3243 147.897 39.7885 149.782 37.1424 151.513C37.0101 151.602 36.8007 151.58 36.6794 151.469C36.5581 151.359 36.5802 151.194 36.7125 151.105C39.2813 149.441 41.751 147.633 44.0993 145.67C41.8943 143.686 39.8326 141.679 37.7819 139.54C37.6827 139.43 37.6937 139.264 37.815 139.176C37.9363 139.088 38.1127 139.099 38.2119 139.209C40.2626 141.425 42.4456 143.531 44.7388 145.494C44.7939 145.538 44.827 145.604 44.827 145.67Z" fill="#D3B77B"/>
        <path d="M48.344 145.593C48.344 145.659 48.3219 145.725 48.2668 145.78C45.9515 147.919 43.5039 149.915 40.9461 151.756C40.8138 151.855 40.6043 151.844 40.483 151.734C40.3618 151.624 40.3728 151.469 40.5051 151.37C42.9857 149.595 45.3672 147.677 47.6163 145.615C45.3341 143.73 43.2063 141.811 41.0674 139.761C40.9571 139.65 40.9682 139.496 41.0894 139.397C41.1997 139.298 41.3761 139.309 41.4863 139.419C43.6142 141.547 45.8744 143.553 48.2448 145.417C48.3109 145.461 48.344 145.527 48.344 145.593Z" fill="#D3B77B"/>
        <path d="M51.8391 145.372C51.8501 145.439 51.817 145.505 51.7619 145.56C49.5458 147.798 47.1975 149.893 44.7388 151.844C44.6065 151.943 44.4081 151.943 44.2758 151.844C44.1545 151.745 44.1545 151.58 44.2758 151.48C46.6682 149.606 48.9615 147.578 51.1114 145.428C48.763 143.63 46.558 141.822 44.353 139.86C44.2427 139.761 44.2427 139.595 44.353 139.496C44.4632 139.397 44.6396 139.397 44.7498 139.496C46.9659 141.536 49.2922 143.432 51.7288 145.196C51.806 145.24 51.8391 145.306 51.8391 145.372Z" fill="#D3B77B"/>
        <path d="M55.3229 144.998C55.3339 145.064 55.3119 145.13 55.2567 145.185C53.1509 147.511 50.9018 149.705 48.5204 151.756C48.3991 151.866 48.1896 151.866 48.0573 151.778C47.925 151.679 47.925 151.525 48.0463 151.414C50.3506 149.43 52.5446 147.324 54.5953 145.086C52.1808 143.399 49.9096 141.668 47.6274 139.805C47.5171 139.706 47.5061 139.54 47.6163 139.441C47.7266 139.342 47.892 139.331 48.0132 139.43C50.3726 141.348 52.71 143.101 55.2127 144.832C55.2788 144.865 55.3119 144.932 55.3229 144.998Z" fill="#D3B77B"/>
        <path d="M58.7738 144.479C58.7848 144.546 58.7627 144.612 58.7186 144.678C56.7121 147.092 54.5621 149.375 52.291 151.536C52.1697 151.646 51.9713 151.668 51.839 151.569C51.7067 151.48 51.6956 151.315 51.8058 151.205C54.0219 149.132 56.1057 146.927 58.0682 144.601C55.5875 143.013 53.2502 141.392 50.9018 139.617C50.7805 139.529 50.7695 139.364 50.8687 139.253C50.968 139.143 51.1443 139.132 51.2656 139.22C53.6912 141.04 56.1057 142.693 58.6635 144.314C58.7186 144.358 58.7627 144.413 58.7738 144.479Z" fill="#D3B77B"/>
        <path d="M62.1917 143.818C62.2027 143.884 62.1916 143.95 62.1475 144.016C60.2512 146.508 58.2116 148.89 56.0286 151.128C55.9183 151.238 55.7089 151.271 55.5766 151.183C55.4443 151.095 55.4222 150.94 55.5324 150.819C57.6493 148.647 59.6449 146.365 61.4861 143.961C58.9503 142.473 56.5468 140.951 54.1212 139.287C53.9999 139.198 53.9779 139.033 54.0771 138.923C54.1764 138.812 54.3417 138.79 54.463 138.879C56.9547 140.588 59.4354 142.142 62.0594 143.653C62.1255 143.697 62.1696 143.752 62.1917 143.818Z" fill="#D3B77B"/>
        <path d="M65.5654 143.013C65.5764 143.079 65.5654 143.145 65.5213 143.211C63.7352 145.78 61.7948 148.239 59.722 150.576C59.6118 150.698 59.4133 150.731 59.27 150.653C59.1267 150.576 59.1046 150.411 59.2149 150.29C61.2325 148.029 63.1178 145.659 64.8708 143.189C62.2799 141.811 59.8102 140.389 57.3296 138.823C57.2083 138.746 57.1752 138.581 57.2745 138.46C57.3627 138.338 57.5391 138.316 57.6603 138.393C60.2182 140.003 62.754 141.447 65.4441 142.848C65.5103 142.903 65.5543 142.958 65.5654 143.013Z" fill="#D3B77B"/>
        <path d="M68.906 142.076C68.928 142.142 68.917 142.208 68.8729 142.274C67.1971 144.909 65.3669 147.456 63.3934 149.871C63.2942 149.992 63.0957 150.036 62.9524 149.97C62.8091 149.893 62.776 149.738 62.8752 149.617C64.7936 147.28 66.5797 144.832 68.2114 142.285C65.5653 141.017 63.0516 139.705 60.5048 138.239C60.3835 138.162 60.3504 138.008 60.4276 137.886C60.5158 137.765 60.6812 137.732 60.8135 137.809C63.4375 139.309 66.0284 140.654 68.7626 141.933C68.8398 141.955 68.895 142.01 68.906 142.076Z" fill="#D3B77B"/>
        <path d="M72.2025 140.996C72.2246 141.062 72.2135 141.128 72.1805 141.194C70.6259 143.895 68.906 146.508 67.0317 149.011C66.9325 149.143 66.734 149.187 66.5907 149.121C66.4474 149.055 66.4033 148.901 66.5025 148.768C68.3217 146.354 69.9975 143.829 71.519 141.227C68.8178 140.069 66.2599 138.857 63.658 137.501C63.5257 137.434 63.4926 137.269 63.5698 137.148C63.647 137.026 63.8234 136.982 63.9447 137.049C66.6238 138.438 69.2698 139.673 72.0592 140.841C72.1364 140.885 72.1805 140.929 72.2025 140.996Z" fill="#D3B77B"/>
        <path d="M75.4549 139.783C75.477 139.849 75.477 139.915 75.4439 139.981C73.9996 142.748 72.3899 145.427 70.6369 148.007C70.5487 148.14 70.3503 148.195 70.2069 148.14C70.0636 148.073 70.0085 147.919 70.1077 147.787C71.8166 145.295 73.3822 142.715 74.8044 140.047C72.0592 139.011 69.4462 137.897 66.8002 136.651C66.6679 136.585 66.6238 136.431 66.7009 136.299C66.7781 136.166 66.9435 136.122 67.0758 136.188C69.81 137.467 72.5002 138.581 75.3337 139.639C75.3778 139.672 75.4329 139.716 75.4549 139.783Z" fill="#D3B77B"/>
        <path d="M78.6412 138.426C78.6633 138.482 78.6633 138.559 78.6412 138.625C77.3182 141.447 75.8187 144.193 74.176 146.839C74.0878 146.971 73.9004 147.037 73.746 146.982C73.5917 146.927 73.5476 146.773 73.6247 146.64C75.2234 144.082 76.6897 141.436 77.9907 138.702C75.2124 137.776 72.5553 136.784 69.8542 135.648C69.7219 135.593 69.6667 135.439 69.7329 135.306C69.799 135.174 69.9644 135.119 70.0967 135.174C72.8861 136.332 75.6203 137.346 78.4868 138.283C78.564 138.316 78.6192 138.371 78.6412 138.426Z" fill="#D3B77B"/>
        <path d="M81.7834 136.949C81.8164 137.015 81.8164 137.082 81.7834 137.148C80.5816 140.025 79.2035 142.826 77.66 145.549C77.5828 145.692 77.3954 145.758 77.241 145.714C77.0866 145.67 77.0315 145.516 77.1087 145.373C78.5971 142.749 79.9532 140.036 81.1329 137.269C78.3104 136.464 75.6203 135.582 72.875 134.557C72.7427 134.502 72.6766 134.347 72.7427 134.215C72.8089 134.083 72.9632 134.017 73.1066 134.072C75.94 135.119 78.7184 136.012 81.629 136.828C81.6952 136.839 81.7503 136.883 81.7834 136.949Z" fill="#D3B77B"/>
        <path d="M84.8483 135.329C84.8814 135.384 84.8814 135.461 84.8594 135.527C83.7789 138.449 82.511 141.315 81.0888 144.094C81.0116 144.237 80.8352 144.314 80.6808 144.281C80.5265 144.237 80.4603 144.094 80.5375 143.95C81.9157 141.271 83.1505 138.504 84.2199 135.681C81.3644 134.998 78.6412 134.226 75.8518 133.322C75.7085 133.278 75.6423 133.123 75.7085 132.991C75.7636 132.859 75.929 132.782 76.0613 132.837C78.9388 133.763 81.7503 134.535 84.694 135.229C84.7601 135.229 84.8152 135.273 84.8483 135.329Z" fill="#D3B77B"/>
        <path d="M87.8582 133.587C87.8913 133.642 87.9023 133.719 87.8802 133.785C86.9211 136.751 85.7744 139.661 84.4735 142.495C84.4073 142.638 84.2199 142.726 84.0655 142.693C83.9112 142.66 83.834 142.517 83.9002 142.363C85.1681 139.617 86.2926 136.806 87.2408 133.939C84.3632 133.377 81.5959 132.716 78.7735 131.933C78.6302 131.889 78.564 131.745 78.6081 131.602C78.6632 131.47 78.8176 131.393 78.9609 131.426C81.8715 132.23 84.716 132.881 87.6928 133.454C87.759 133.487 87.8251 133.531 87.8582 133.587Z" fill="#D3B77B"/>
        <path d="M90.7908 131.723C90.8239 131.778 90.8349 131.856 90.8239 131.922C89.986 134.932 88.9606 137.886 87.781 140.775C87.7148 140.918 87.5384 141.017 87.3841 140.995C87.2297 140.962 87.1525 140.819 87.2077 140.676C88.3653 137.886 89.3686 135.031 90.1955 132.12C87.2958 131.679 84.5065 131.139 81.64 130.477C81.4966 130.444 81.4195 130.301 81.4636 130.158C81.5077 130.014 81.662 129.937 81.8053 129.97C84.749 130.643 87.6266 131.183 90.6144 131.624C90.6916 131.624 90.7467 131.668 90.7908 131.723Z" fill="#D3B77B"/>
        <path d="M93.6464 129.728C93.6905 129.783 93.7016 129.849 93.6795 129.926C92.9629 132.969 92.0588 135.968 91.0004 138.912C90.9453 139.066 90.7689 139.165 90.6145 139.143C90.4601 139.121 90.372 138.978 90.4271 138.835C91.4635 135.99 92.3455 133.101 93.0621 130.158C90.1404 129.838 87.329 129.419 84.4404 128.879C84.2971 128.846 84.2089 128.713 84.253 128.57C84.2971 128.427 84.4404 128.339 84.5837 128.372C87.5605 128.923 90.4492 129.342 93.47 129.651C93.5362 129.64 93.6023 129.673 93.6464 129.728Z" fill="#D3B77B"/>
        <path d="M96.4249 127.611C96.469 127.666 96.48 127.732 96.4689 127.809C95.8736 130.885 95.1018 133.917 94.1537 136.905C94.1096 137.059 93.9331 137.17 93.7788 137.159C93.6134 137.148 93.5252 137.004 93.5804 136.85C94.5065 133.961 95.2672 131.029 95.8626 128.063C92.9299 127.864 90.0964 127.578 87.1858 127.148C87.0424 127.126 86.9542 126.982 86.9873 126.839C87.0204 126.696 87.1637 126.596 87.3181 126.619C90.3169 127.049 93.2275 127.335 96.2595 127.512C96.3146 127.523 96.3808 127.556 96.4249 127.611Z" fill="#D3B77B"/>
        <path d="M99.104 125.373C99.1481 125.428 99.1701 125.494 99.1591 125.571C98.696 128.669 98.0455 131.745 97.2186 134.766C97.1745 134.921 97.0091 135.042 96.8548 135.031C96.6894 135.02 96.6013 134.888 96.6454 134.733C97.4502 131.811 98.0896 128.846 98.5637 125.847C95.62 125.781 92.7755 125.604 89.8428 125.318C89.6995 125.296 89.6003 125.163 89.6333 125.02C89.6664 124.877 89.7987 124.777 89.953 124.788C92.9739 125.086 95.8956 125.24 98.9275 125.296C99.0047 125.285 99.0709 125.318 99.104 125.373Z" fill="#D3B77B"/>
        <path d="M101.706 123.013C101.75 123.057 101.772 123.135 101.772 123.212C101.43 126.332 100.912 129.43 100.206 132.495C100.173 132.649 100.008 132.782 99.8536 132.782C99.6882 132.782 99.589 132.649 99.6331 132.495C100.317 129.54 100.835 126.541 101.188 123.52C98.2329 123.587 95.3884 123.532 92.4447 123.366C92.3014 123.355 92.1911 123.223 92.2242 123.079C92.2462 122.936 92.3895 122.826 92.5329 122.837C95.5317 123.068 98.5416 123.102 101.54 122.947C101.596 122.936 101.662 122.958 101.706 123.013Z" fill="#D3B77B"/>
        <path d="M104.22 120.533C104.264 120.577 104.297 120.643 104.286 120.72C104.076 123.862 103.679 126.982 103.106 130.08C103.073 130.235 102.919 130.378 102.764 130.378C102.599 130.389 102.5 130.257 102.522 130.103C103.084 127.115 103.481 124.094 103.712 121.051C100.758 121.249 97.9132 121.327 94.9474 121.282C94.8041 121.282 94.6938 121.15 94.7049 121.007C94.7269 120.863 94.8592 120.742 95.0025 120.753C98.0124 120.852 101.022 120.753 104.021 120.467C104.098 120.467 104.164 120.489 104.22 120.533Z" fill="#D3B77B"/>
        <path d="M106.623 117.942C106.667 117.986 106.7 118.052 106.7 118.129C106.612 121.282 106.347 124.425 105.895 127.545C105.873 127.71 105.719 127.842 105.565 127.853C105.399 127.864 105.289 127.743 105.311 127.589C105.752 124.568 106.028 121.525 106.127 118.482C103.183 118.813 100.328 119.011 97.3729 119.11C97.2296 119.11 97.1083 118.989 97.1193 118.846C97.1304 118.702 97.2626 118.581 97.4059 118.57C100.427 118.537 103.437 118.295 106.425 117.887C106.502 117.876 106.568 117.898 106.623 117.942Z" fill="#D3B77B"/>
        <path d="M108.927 115.23C108.982 115.274 109.015 115.34 109.015 115.417C109.06 118.581 108.916 121.745 108.597 124.888C108.585 125.053 108.431 125.196 108.277 125.218C108.111 125.24 108.001 125.119 108.012 124.965C108.332 121.922 108.486 118.868 108.464 115.803C105.532 116.266 102.687 116.597 99.7213 116.828C99.5779 116.839 99.4567 116.718 99.4567 116.575C99.4567 116.431 99.589 116.299 99.7323 116.288C102.753 116.112 105.752 115.748 108.729 115.185C108.806 115.174 108.872 115.197 108.927 115.23Z" fill="#D3B77B"/>
        <path d="M111.121 112.418C111.177 112.462 111.21 112.528 111.21 112.595C111.386 115.759 111.364 118.934 111.177 122.109C111.166 122.275 111.033 122.429 110.868 122.451C110.702 122.473 110.592 122.374 110.592 122.208C110.791 119.143 110.813 116.078 110.669 113.013C107.748 113.609 104.914 114.072 101.959 114.436C101.816 114.447 101.695 114.337 101.684 114.193C101.684 114.039 101.805 113.907 101.948 113.895C104.969 113.587 107.957 113.08 110.912 112.385C111 112.363 111.066 112.374 111.121 112.418Z" fill="#D3B77B"/>
        <path d="M113.205 109.485C113.26 109.518 113.293 109.585 113.304 109.662C113.602 112.826 113.723 116.012 113.657 119.199C113.657 119.364 113.525 119.518 113.359 119.562C113.205 119.596 113.073 119.496 113.084 119.331C113.15 116.255 113.062 113.168 112.786 110.103C109.886 110.842 107.075 111.437 104.12 111.933C103.977 111.955 103.845 111.845 103.845 111.701C103.834 111.547 103.955 111.415 104.098 111.393C107.108 110.941 110.085 110.301 113.007 109.463C113.084 109.441 113.15 109.452 113.205 109.485Z" fill="#D3B77B"/>
        <path d="M115.167 106.454C115.223 106.487 115.267 106.553 115.278 106.63C115.708 109.794 115.95 112.992 116.016 116.178C116.016 116.343 115.895 116.509 115.741 116.553C115.586 116.597 115.454 116.498 115.454 116.332C115.399 113.245 115.178 110.158 114.782 107.093C111.915 107.964 109.115 108.692 106.182 109.331C106.039 109.364 105.906 109.265 105.895 109.111C105.884 108.956 105.995 108.813 106.138 108.791C109.137 108.207 112.091 107.413 114.98 106.443C115.046 106.41 115.112 106.421 115.167 106.454Z" fill="#D3B77B"/>
        <path d="M106.325 128.14C105.984 128.184 105.675 127.875 105.62 127.445C101.375 78.5819 130.724 34.8892 177.559 20.336C177.967 20.2147 178.375 20.3911 178.463 20.7219C178.551 21.0526 178.298 21.4054 177.901 21.5267C131.639 35.9035 102.665 79.056 106.855 127.313C106.91 127.732 106.667 128.096 106.325 128.14Z" fill="white"/>
        <path d="M165.211 25.4516C165.178 25.3745 165.178 25.2863 165.222 25.2091C166.953 21.7582 168.904 18.4286 171.065 15.2203C171.175 15.0549 171.418 14.9777 171.605 15.0439C171.793 15.11 171.859 15.2975 171.749 15.4629C169.654 18.5499 167.735 21.7693 166.038 25.0989C169.488 26.2014 172.796 27.3921 176.148 28.7482C176.313 28.8254 176.379 29.0018 176.291 29.1672C176.203 29.3215 175.993 29.3987 175.828 29.3215C172.432 27.8772 168.948 26.6424 165.409 25.6171C165.31 25.584 165.244 25.5288 165.211 25.4516Z" fill="#D3B77B"/>
        <path d="M169.444 23.7097C169.411 23.6325 169.422 23.5443 169.466 23.4672C171.109 20.5455 172.024 19.1012 174.02 16.2457C174.13 16.0803 174.373 16.0141 174.56 16.0803C174.748 16.1464 174.803 16.3339 174.692 16.4992C172.774 19.2225 171.892 20.6116 170.293 23.401C173.336 24.4484 174.814 25.0327 177.68 26.3006C177.846 26.3778 177.912 26.5652 177.813 26.7196C177.713 26.8739 177.504 26.9401 177.327 26.8739C174.34 25.5619 172.796 24.9666 169.632 23.8971C169.533 23.853 169.466 23.7869 169.444 23.7097Z" fill="#D3B77B"/>
        <path d="M173.766 22.1662C173.744 22.089 173.755 22.0008 173.799 21.9237C174.836 20.2809 175.387 19.454 176.545 17.8333C176.655 17.679 176.897 17.6018 177.074 17.679C177.25 17.7561 177.305 17.9436 177.195 18.0979C176.115 19.5973 175.596 20.3581 174.626 21.8795C176.313 22.5411 177.14 22.8939 178.772 23.6215C178.948 23.6987 178.992 23.8861 178.893 24.0405C178.783 24.1948 178.562 24.261 178.397 24.1838C176.644 23.401 175.751 23.0372 173.943 22.3316C173.855 22.2985 173.799 22.2324 173.766 22.1662Z" fill="#D3B77B"/>
        <path d="M161.297 27.2709C161.264 27.1937 161.264 27.1055 161.297 27.0283C162.862 23.5113 164.648 20.1045 166.644 16.819C166.743 16.6536 166.986 16.5544 167.173 16.6206C167.361 16.6757 167.438 16.8631 167.328 17.0285C165.387 20.2037 163.634 23.4893 162.102 26.885C165.586 27.8442 168.915 28.8916 172.311 30.1154C172.476 30.1815 172.553 30.3689 172.465 30.5233C172.377 30.6887 172.179 30.7659 172.002 30.6997C168.562 29.3987 165.045 28.3072 161.484 27.4252C161.407 27.4032 161.33 27.3481 161.297 27.2709Z" fill="#D3B77B"/>
        <path d="M157.482 29.2554C157.438 29.1782 157.438 29.09 157.471 29.0129C158.86 25.4517 160.481 21.9678 162.311 18.6051C162.41 18.4287 162.642 18.3295 162.829 18.3846C163.017 18.4287 163.094 18.6161 163.006 18.7926C161.22 22.045 159.632 25.3966 158.265 28.8475C161.771 29.6634 165.134 30.5785 168.562 31.6479C168.739 31.703 168.816 31.8904 168.739 32.0558C168.662 32.2212 168.463 32.3094 168.287 32.2543C164.814 31.0966 161.264 30.1595 157.681 29.4208C157.592 29.3767 157.526 29.3216 157.482 29.2554Z" fill="#D3B77B"/>
        <path d="M153.778 31.3832C153.733 31.317 153.722 31.2288 153.756 31.1406C154.979 27.5244 156.435 23.9853 158.099 20.5564C158.188 20.38 158.408 20.2698 158.607 20.3139C158.794 20.358 158.882 20.5344 158.794 20.7108C157.173 24.0294 155.74 27.4472 154.527 30.9311C158.044 31.6037 161.429 32.3755 164.891 33.3016C165.067 33.3567 165.145 33.5331 165.078 33.6985C165.012 33.8638 164.814 33.9631 164.648 33.9079C161.142 32.8936 157.57 32.0998 153.976 31.5155C153.888 31.4934 153.822 31.4493 153.778 31.3832Z" fill="#D3B77B"/>
        <path d="M150.183 33.6544C150.139 33.5883 150.128 33.5001 150.15 33.4119C151.209 29.7515 152.499 26.1683 153.998 22.6734C154.075 22.497 154.296 22.3757 154.494 22.4088C154.693 22.4418 154.781 22.6183 154.704 22.7947C153.237 26.1794 151.969 29.6413 150.922 33.1693C154.461 33.6985 157.857 34.327 161.352 35.1208C161.528 35.1649 161.616 35.3413 161.561 35.5067C161.506 35.672 161.308 35.7823 161.142 35.7382C157.603 34.8782 154.02 34.2277 150.404 33.7867C150.294 33.7757 150.228 33.7206 150.183 33.6544Z" fill="#D3B77B"/>
        <path d="M146.699 36.0798C146.655 36.0137 146.633 35.9255 146.655 35.8373C147.548 32.1439 148.673 28.5166 150.018 24.9665C150.084 24.779 150.305 24.6578 150.492 24.6798C150.691 24.7019 150.79 24.8783 150.713 25.0547C149.401 28.4945 148.298 32.0005 147.405 35.5727C150.955 35.9476 154.373 36.4437 157.879 37.0831C158.055 37.1162 158.155 37.2926 158.1 37.458C158.044 37.6344 157.868 37.7446 157.692 37.7005C154.13 36.9839 150.525 36.4768 146.909 36.1901C146.821 36.1901 146.744 36.146 146.699 36.0798Z" fill="#D3B77B"/>
        <path d="M143.337 38.6377C143.293 38.5716 143.271 38.4944 143.282 38.3952C144.009 34.6797 144.968 31.0083 146.148 27.4031C146.203 27.2157 146.413 27.0834 146.611 27.0944C146.81 27.1164 146.909 27.2818 146.854 27.4582C145.707 30.9422 144.759 34.4923 144.02 38.0865C147.57 38.318 150.999 38.6708 154.516 39.1669C154.693 39.2 154.803 39.3654 154.759 39.5308C154.715 39.7072 154.538 39.8174 154.362 39.7954C150.79 39.2221 147.174 38.8693 143.557 38.7259C143.469 38.737 143.392 38.6929 143.337 38.6377Z" fill="#D3B77B"/>
        <path d="M140.095 41.328C140.04 41.2729 140.018 41.1846 140.029 41.0964C140.592 37.3589 141.385 33.6544 142.4 30.0051C142.455 29.8177 142.653 29.6744 142.852 29.6854C143.05 29.6964 143.16 29.8508 143.105 30.0382C142.113 33.5662 141.319 37.1384 140.757 40.7547C144.307 40.8429 147.736 41.0523 151.275 41.4051C151.451 41.4272 151.562 41.5815 151.528 41.7579C151.495 41.9344 151.319 42.0556 151.143 42.0336C147.504 41.6808 143.976 41.4823 140.316 41.4162C140.228 41.4162 140.151 41.3831 140.095 41.328Z" fill="#D3B77B"/>
        <path d="M136.975 44.1393C136.92 44.0841 136.887 43.9959 136.898 43.9077C137.295 40.1482 137.934 36.4216 138.783 32.7392C138.828 32.5518 139.026 32.3975 139.213 32.3975C139.412 32.3975 139.533 32.5518 139.489 32.7392C138.651 36.3004 138.023 39.9056 137.615 43.5329C141.165 43.4778 144.594 43.5439 148.133 43.7534C148.309 43.7644 148.43 43.9187 148.408 44.0951C148.375 44.2715 148.21 44.4039 148.034 44.3928C144.384 44.1944 140.856 44.1393 137.207 44.2164C137.119 44.2385 137.03 44.2054 136.975 44.1393Z" fill="#D3B77B"/>
        <path d="M133.988 47.0831C133.932 47.028 133.899 46.9398 133.899 46.8516C134.142 43.092 134.605 39.3434 135.3 35.628C135.333 35.4405 135.52 35.2751 135.718 35.2751C135.917 35.2751 136.038 35.4185 136.005 35.6059C135.322 39.1891 134.858 42.8164 134.594 46.4547C138.133 46.2562 141.562 46.179 145.101 46.2452C145.277 46.2562 145.41 46.3995 145.387 46.5759C145.365 46.7523 145.211 46.8957 145.035 46.8846C141.385 46.8295 137.868 46.9177 134.23 47.1493C134.131 47.1713 134.043 47.1382 133.988 47.0831Z" fill="#D3B77B"/>
        <path d="M131.132 50.1371C131.077 50.0819 131.033 50.0048 131.044 49.9166C131.121 46.1459 131.43 42.3864 131.959 38.6599C131.981 38.4724 132.168 38.296 132.356 38.285C132.554 38.274 132.686 38.4173 132.653 38.6048C132.135 42.21 131.816 45.8483 131.716 49.4976C135.233 49.1448 138.651 48.9353 142.19 48.8581C142.367 48.8581 142.499 49.0015 142.488 49.1779C142.477 49.3543 142.322 49.4976 142.146 49.4976C138.508 49.5968 134.991 49.8284 131.363 50.2143C131.264 50.2253 131.187 50.1922 131.132 50.1371Z" fill="#D3B77B"/>
        <path d="M128.398 53.3122C128.332 53.257 128.298 53.1799 128.298 53.0917C128.221 49.3321 128.365 45.5615 128.728 41.8129C128.751 41.6255 128.916 41.4491 129.114 41.427C129.302 41.405 129.445 41.5483 129.423 41.7358C129.059 45.363 128.894 49.0013 128.949 52.6507C132.455 52.1545 135.851 51.8017 139.379 51.5702C139.555 51.5592 139.698 51.7025 139.687 51.8789C139.687 52.0553 139.533 52.2097 139.357 52.2097C135.718 52.4522 132.223 52.8381 128.629 53.3673C128.552 53.3893 128.464 53.3673 128.398 53.3122Z" fill="#D3B77B"/>
        <path d="M125.818 56.5978C125.752 56.5427 125.708 56.4655 125.708 56.3773C125.465 52.6287 125.454 48.8581 125.663 45.0985C125.674 44.9001 125.84 44.7237 126.027 44.6906C126.215 44.6575 126.358 44.7898 126.347 44.9883C126.138 48.6266 126.127 52.2649 126.336 55.9032C129.809 55.2638 133.194 54.7676 136.711 54.3927C136.887 54.3817 137.03 54.514 137.03 54.6904C137.03 54.8668 136.887 55.0212 136.711 55.0433C133.094 55.4402 129.622 55.9583 126.038 56.6419C125.961 56.6639 125.884 56.6419 125.818 56.5978Z" fill="#D3B77B"/>
        <path d="M123.37 59.9826C123.304 59.9385 123.26 59.8613 123.249 59.7731C122.852 56.0356 122.676 52.276 122.731 48.5164C122.731 48.318 122.885 48.1305 123.084 48.0975C123.271 48.0644 123.425 48.1857 123.425 48.3731C123.37 52.0114 123.514 55.6497 123.877 59.277C127.317 58.4942 130.68 57.8658 134.175 57.3476C134.351 57.3256 134.506 57.4468 134.517 57.6232C134.528 57.7996 134.395 57.965 134.219 57.987C130.625 58.5383 127.174 59.1998 123.624 60.0267C123.514 60.0377 123.436 60.0267 123.37 59.9826Z" fill="#D3B77B"/>
        <path d="M121.066 63.4664C121 63.4223 120.956 63.3561 120.934 63.2569C120.382 59.5414 120.052 55.7929 119.941 52.0333C119.93 51.8349 120.085 51.6474 120.272 51.6033C120.46 51.5592 120.614 51.6805 120.625 51.8679C120.724 55.5062 121.022 59.1335 121.54 62.7387C124.947 61.8126 128.276 61.0409 131.749 60.3794C131.926 60.3463 132.08 60.4676 132.102 60.644C132.124 60.8204 131.992 60.9857 131.815 61.0188C128.243 61.7134 124.826 62.5293 121.319 63.4995C121.22 63.5215 121.132 63.5105 121.066 63.4664Z" fill="#D3B77B"/>
        <path d="M118.905 67.0385C118.839 66.9944 118.784 66.9282 118.773 66.84C118.067 63.1466 117.582 59.4201 117.306 55.6715C117.295 55.4841 117.428 55.2746 117.615 55.2195C117.803 55.1644 117.957 55.2746 117.979 55.4731C118.233 59.1004 118.685 62.7166 119.346 66.2888C122.709 65.2193 126.005 64.3042 129.445 63.4994C129.622 63.4663 129.776 63.5766 129.809 63.753C129.831 63.9294 129.71 64.0948 129.544 64.1389C126.005 64.9878 122.621 65.936 119.159 67.0605C119.059 67.0936 118.971 67.0826 118.905 67.0385Z" fill="#D3B77B"/>
        <path d="M116.899 70.7099C116.832 70.6769 116.777 70.6107 116.755 70.5115C115.895 66.8511 115.256 63.1467 114.826 59.4091C114.804 59.2217 114.936 59.0122 115.123 58.9461C115.311 58.8799 115.476 58.9902 115.487 59.1776C115.884 62.7939 116.491 66.3881 117.295 69.9382C120.614 68.7254 123.866 67.678 127.273 66.7298C127.45 66.6857 127.615 66.796 127.648 66.9614C127.681 67.1378 127.571 67.3142 127.394 67.3583C123.888 68.3505 120.559 69.442 117.141 70.7099C117.053 70.754 116.965 70.743 116.899 70.7099Z" fill="#D3B77B"/>
        <path d="M115.046 74.4586C114.969 74.4255 114.914 74.3594 114.892 74.2712C113.877 70.6439 113.084 66.9725 112.51 63.257C112.477 63.0696 112.599 62.8601 112.786 62.783C112.962 62.7168 113.139 62.816 113.161 63.0034C113.712 66.5977 114.462 70.1698 115.421 73.6758C118.684 72.3308 121.893 71.14 125.255 70.0485C125.421 69.9934 125.597 70.0927 125.63 70.2691C125.674 70.4455 125.564 70.6219 125.399 70.677C121.937 71.8126 118.651 73.0474 115.289 74.4586C115.2 74.4917 115.112 74.4917 115.046 74.4586Z" fill="#D3B77B"/>
        <path d="M113.348 78.2953C113.271 78.2623 113.216 78.1961 113.183 78.1189C112.025 74.5358 111.077 70.8864 110.338 67.204C110.305 67.0166 110.416 66.7961 110.592 66.7189C110.768 66.6417 110.945 66.7299 110.978 66.9284C111.683 70.5006 112.576 74.0396 113.679 77.5015C116.887 76.0131 120.041 74.6901 123.359 73.4553C123.524 73.4002 123.701 73.4884 123.745 73.6648C123.789 73.8412 123.69 74.0176 123.524 74.0837C120.118 75.3737 116.876 76.7408 113.58 78.2953C113.514 78.3174 113.425 78.3174 113.348 78.2953Z" fill="#D3B77B"/>
        <path d="M111.816 82.1981C111.739 82.165 111.673 82.1099 111.65 82.0217C110.338 78.4937 109.247 74.8774 108.354 71.2171C108.31 71.0296 108.409 70.8091 108.585 70.7209C108.762 70.6327 108.938 70.7209 108.982 70.9084C109.831 74.4474 110.879 77.9534 112.125 81.3712C115.267 79.7395 118.365 78.2842 121.628 76.906C121.794 76.8399 121.97 76.9281 122.025 77.0935C122.08 77.2589 121.992 77.4573 121.827 77.5235C118.475 78.9567 115.289 80.4672 112.058 82.165C111.97 82.2202 111.893 82.2202 111.816 82.1981Z" fill="#D3B77B"/>
        <path d="M110.438 86.1672C110.36 86.1451 110.294 86.09 110.261 86.0018C108.806 82.5179 107.56 78.9568 106.524 75.3295C106.469 75.142 106.568 74.9215 106.733 74.8223C106.899 74.7341 107.086 74.8113 107.141 74.9987C108.133 78.5047 109.324 81.9666 110.713 85.3403C113.789 83.5763 116.821 81.9887 120.03 80.4672C120.195 80.39 120.371 80.4672 120.437 80.6436C120.504 80.82 120.415 81.0074 120.25 81.0736C116.954 82.6502 113.844 84.2929 110.68 86.1341C110.603 86.1892 110.515 86.1892 110.438 86.1672Z" fill="#D3B77B"/>
        <path d="M109.236 90.2136C109.159 90.1915 109.093 90.1364 109.049 90.0482C107.45 86.6304 106.061 83.1134 104.87 79.5302C104.804 79.3427 104.892 79.1112 105.057 79.012C105.223 78.9128 105.41 78.9789 105.465 79.1663C106.601 82.6393 107.935 86.046 109.467 89.3646C112.466 87.4683 115.432 85.7483 118.574 84.0946C118.729 84.0174 118.916 84.0836 118.982 84.2489C119.048 84.4143 118.971 84.6128 118.817 84.6899C115.586 86.4099 112.543 88.1959 109.467 90.1695C109.39 90.2136 109.302 90.2356 109.236 90.2136Z" fill="#D3B77B"/>
        <path d="M108.189 94.3149C108.111 94.2929 108.045 94.2377 108.001 94.1605C106.259 90.7979 104.727 87.336 103.382 83.8079C103.315 83.6315 103.393 83.389 103.547 83.2897C103.712 83.1795 103.9 83.2456 103.966 83.422C105.256 86.8509 106.722 90.2025 108.387 93.4659C111.309 91.4373 114.197 89.5851 117.273 87.788C117.428 87.6998 117.615 87.7659 117.692 87.9203C117.769 88.0857 117.703 88.2841 117.549 88.3723C114.396 90.1364 111.342 92.1099 108.431 94.2598C108.354 94.3039 108.277 94.3259 108.189 94.3149Z" fill="#D3B77B"/>
        <path d="M107.329 98.4603C107.251 98.4493 107.174 98.3942 107.13 98.317C105.256 95.0205 103.569 91.6247 102.081 88.1408C102.003 87.9644 102.07 87.7218 102.224 87.6116C102.378 87.5013 102.566 87.5565 102.643 87.7329C104.065 91.1066 105.686 94.4141 107.483 97.6004C110.316 95.4394 113.128 93.4549 116.116 91.5255C116.27 91.4373 116.457 91.4814 116.535 91.6468C116.612 91.8011 116.557 92.0106 116.402 92.0988C113.315 94.0062 110.361 96.112 107.538 98.3942C107.494 98.4603 107.406 98.4824 107.329 98.4603Z" fill="#D3B77B"/>
        <path d="M106.645 102.672C106.568 102.661 106.491 102.617 106.447 102.54C104.429 99.3202 102.61 95.9796 100.978 92.5508C100.89 92.3744 100.956 92.1318 101.099 92.0106C101.254 91.8893 101.441 91.9334 101.529 92.1098C103.095 95.4284 104.848 98.6697 106.777 101.801C109.511 99.5077 112.235 97.4019 115.156 95.3402C115.3 95.2409 115.498 95.285 115.586 95.4394C115.675 95.5937 115.63 95.8032 115.476 95.9025C112.477 97.9531 109.611 100.191 106.888 102.606C106.799 102.661 106.722 102.683 106.645 102.672Z" fill="#D3B77B"/>
        <path d="M106.138 106.928C106.061 106.916 105.984 106.872 105.928 106.795C103.779 103.653 101.816 100.379 100.041 97.0049C99.9528 96.8285 99.9969 96.5859 100.14 96.4646C100.284 96.3323 100.482 96.3764 100.57 96.5528C102.279 99.8163 104.164 102.992 106.226 106.045C108.861 103.62 111.496 101.393 114.319 99.1989C114.462 99.0886 114.66 99.1327 114.749 99.2871C114.848 99.4414 114.804 99.6509 114.66 99.7612C111.75 101.944 108.971 104.315 106.358 106.861C106.292 106.894 106.215 106.928 106.138 106.928Z" fill="#D3B77B"/>
        <path d="M105.807 111.216C105.73 111.216 105.653 111.172 105.598 111.095C103.315 108.03 101.21 104.833 99.2912 101.525C99.1919 101.36 99.225 101.106 99.3683 100.974C99.5117 100.842 99.7101 100.864 99.7983 101.04C101.64 104.248 103.668 107.347 105.851 110.323C108.387 107.777 110.912 105.428 113.646 103.091C113.789 102.981 113.977 103.003 114.076 103.157C114.175 103.3 114.142 103.521 114.01 103.631C111.187 105.946 108.519 108.46 106.028 111.117C105.972 111.183 105.884 111.216 105.807 111.216Z" fill="#D3B77B"/>
        <path d="M105.664 115.538C105.587 115.538 105.509 115.505 105.443 115.428C103.029 112.451 100.791 109.331 98.729 106.09C98.6187 105.924 98.6518 105.671 98.7841 105.538C98.9164 105.395 99.1149 105.417 99.2251 105.583C101.21 108.714 103.36 111.746 105.675 114.645C108.089 111.977 110.526 109.507 113.15 107.038C113.282 106.917 113.481 106.939 113.591 107.082C113.701 107.225 113.679 107.446 113.547 107.556C110.824 110.015 108.266 112.639 105.895 115.428C105.829 115.505 105.741 115.538 105.664 115.538Z" fill="#D3B77B"/>
        <path d="M105.719 119.904C105.642 119.904 105.554 119.871 105.498 119.805C102.952 116.917 100.581 113.874 98.3872 110.709C98.2769 110.544 98.288 110.29 98.4203 110.147C98.5526 110.004 98.751 110.015 98.8612 110.169C100.978 113.234 103.26 116.178 105.697 118.989C108.001 116.2 110.316 113.609 112.83 111.018C112.962 110.897 113.15 110.908 113.271 111.04C113.381 111.183 113.37 111.393 113.238 111.525C110.625 114.116 108.189 116.872 105.928 119.772C105.873 119.86 105.796 119.893 105.719 119.904Z" fill="#D3B77B"/>
        <path d="M110.901 132.892C110.614 132.87 110.416 132.561 110.449 132.208C115.322 91.7901 146.589 61.2835 187.129 57.4357C187.482 57.4136 187.779 57.6231 187.801 57.9097C187.823 58.1964 187.559 58.439 187.206 58.472C147.174 62.2757 116.292 92.3965 111.474 132.319C111.441 132.649 111.188 132.914 110.901 132.892Z" fill="white"/>
        <path d="M176.225 59.4864C176.214 59.4202 176.225 59.354 176.28 59.2879C178.276 56.7742 180.425 54.4038 182.73 52.1656C182.851 52.0554 183.06 52.0223 183.204 52.1105C183.347 52.1987 183.369 52.3531 183.248 52.4744C181.021 54.6243 178.915 56.9175 176.964 59.332C179.577 60.8204 182.057 62.3419 184.56 64.0177C184.681 64.1059 184.703 64.2713 184.604 64.3815C184.505 64.4918 184.317 64.5138 184.196 64.4256C181.682 62.6726 179.069 61.085 176.368 59.6407C176.28 59.6076 176.236 59.5525 176.225 59.4864Z" fill="#D3B77B"/>
        <path d="M179.951 58.7917C179.94 58.7256 179.963 58.6594 180.018 58.5933C181.848 56.4985 182.84 55.4842 184.946 53.4996C185.067 53.3894 185.277 53.3674 185.409 53.4556C185.552 53.5438 185.563 53.7091 185.442 53.8194C183.413 55.7047 182.465 56.6859 180.69 58.6704C182.983 60.0376 184.086 60.7652 186.203 62.2757C186.324 62.3639 186.346 62.5293 186.236 62.6395C186.126 62.7498 185.938 62.7718 185.817 62.6836C183.612 61.118 182.465 60.3683 180.073 58.9571C179.996 58.924 179.963 58.8579 179.951 58.7917Z" fill="#D3B77B"/>
        <path d="M183.733 58.2735C183.722 58.2074 183.744 58.1412 183.799 58.0861C184.924 56.9284 185.508 56.3551 186.732 55.2305C186.853 55.1203 187.063 55.1093 187.195 55.1975C187.327 55.2857 187.338 55.451 187.217 55.5613C186.081 56.5977 185.541 57.1269 184.483 58.1963C185.74 59.0232 186.357 59.4422 187.559 60.3132C187.68 60.4014 187.691 60.5667 187.581 60.677C187.471 60.7872 187.272 60.7983 187.151 60.7101C185.861 59.7839 185.199 59.3319 183.843 58.4499C183.777 58.3948 183.744 58.3397 183.733 58.2735Z" fill="#D3B77B"/>
        <path d="M172.73 60.3022C172.708 60.236 172.73 60.1699 172.774 60.1037C174.637 57.5128 176.677 55.0542 178.849 52.7168C178.959 52.5956 179.169 52.5625 179.312 52.6397C179.455 52.7168 179.477 52.8822 179.367 53.0035C177.25 55.2526 175.266 57.623 173.447 60.1147C176.115 61.4818 178.639 62.9041 181.197 64.4697C181.33 64.5468 181.352 64.7122 181.252 64.8335C181.153 64.9548 180.977 64.9768 180.855 64.8996C178.287 63.2569 175.619 61.7795 172.862 60.4455C172.796 60.4234 172.741 60.3683 172.73 60.3022Z" fill="#D3B77B"/>
        <path d="M169.29 61.2613C169.268 61.1951 169.279 61.129 169.323 61.0628C171.065 58.4058 172.972 55.859 175.034 53.4334C175.144 53.3121 175.343 53.268 175.497 53.3342C175.641 53.4114 175.674 53.5657 175.574 53.687C173.568 56.0243 171.705 58.4829 170.007 61.0408C172.719 62.2976 175.288 63.6097 177.89 65.065C178.022 65.1422 178.055 65.2965 177.967 65.4178C177.879 65.539 177.702 65.5721 177.57 65.495C174.946 63.9625 172.223 62.5954 169.433 61.3826C169.356 61.3826 169.312 61.3274 169.29 61.2613Z" fill="#D3B77B"/>
        <path d="M165.916 62.3529C165.894 62.2867 165.905 62.2206 165.938 62.1544C167.548 59.4312 169.334 56.8072 171.275 54.2935C171.374 54.1612 171.572 54.1171 171.727 54.1832C171.881 54.2494 171.914 54.4037 171.815 54.536C169.93 56.9505 168.188 59.4863 166.611 62.1214C169.356 63.268 171.98 64.4697 174.626 65.8148C174.759 65.8809 174.803 66.0463 174.715 66.1676C174.626 66.2889 174.461 66.333 174.329 66.2668C171.649 64.8446 168.893 63.5987 166.06 62.5072C165.994 62.4742 165.938 62.419 165.916 62.3529Z" fill="#D3B77B"/>
        <path d="M162.609 63.5987C162.587 63.5325 162.587 63.4664 162.62 63.4002C164.097 60.6108 165.762 57.9207 167.581 55.3298C167.669 55.1975 167.879 55.1424 168.022 55.1975C168.177 55.2526 168.221 55.418 168.121 55.5503C166.357 58.042 164.737 60.6439 163.281 63.3341C166.06 64.3594 168.717 65.4509 171.418 66.6857C171.55 66.7519 171.594 66.9062 171.517 67.0385C171.44 67.1708 171.275 67.2149 171.131 67.1488C168.408 65.8478 165.597 64.7012 162.741 63.731C162.686 63.7089 162.631 63.6538 162.609 63.5987Z" fill="#D3B77B"/>
        <path d="M159.367 64.9659C159.334 64.8997 159.345 64.8335 159.378 64.7674C160.735 61.9229 162.267 59.1666 163.954 56.4985C164.042 56.3662 164.24 56.289 164.395 56.3442C164.549 56.3993 164.604 56.5536 164.516 56.6859C162.862 59.2548 161.374 61.9229 160.04 64.6682C162.851 65.5832 165.553 66.5645 168.287 67.678C168.419 67.7332 168.474 67.8875 168.408 68.0198C168.342 68.1521 168.166 68.2072 168.033 68.1521C165.266 66.9614 162.421 65.9471 159.533 65.0871C159.456 65.0761 159.4 65.032 159.367 64.9659Z" fill="#D3B77B"/>
        <path d="M156.203 66.4764C156.17 66.4213 156.17 66.3441 156.203 66.2779C157.427 63.3783 158.838 60.5669 160.404 57.8327C160.481 57.6894 160.679 57.6122 160.834 57.6673C160.988 57.7224 161.043 57.8657 160.966 58.0091C159.434 60.6441 158.066 63.3673 156.865 66.1567C159.709 66.9505 162.432 67.8215 165.211 68.8248C165.354 68.8799 165.409 69.0343 165.343 69.1666C165.277 69.2989 165.112 69.365 164.979 69.3099C162.168 68.2404 159.29 67.3364 156.38 66.5977C156.291 66.5756 156.236 66.5315 156.203 66.4764Z" fill="#D3B77B"/>
        <path d="M153.116 68.108C153.083 68.0529 153.083 67.9757 153.105 67.9096C154.197 64.9658 155.476 62.0993 156.92 59.3099C156.997 59.1666 157.184 59.0784 157.339 59.1225C157.493 59.1666 157.559 59.3099 157.482 59.4533C156.071 62.1434 154.825 64.9217 153.745 67.7662C156.611 68.4388 159.367 69.1995 162.179 70.0815C162.322 70.1256 162.388 70.28 162.322 70.4123C162.267 70.5446 162.102 70.6218 161.958 70.5777C159.059 69.6736 156.225 68.9129 153.27 68.2293C153.204 68.2072 153.138 68.1631 153.116 68.108Z" fill="#D3B77B"/>
        <path d="M150.095 69.8721C150.062 69.817 150.051 69.7398 150.073 69.6737C151.043 66.6969 152.19 63.7642 153.502 60.9307C153.568 60.7874 153.756 60.6881 153.91 60.7322C154.064 60.7653 154.142 60.9087 154.075 61.063C152.785 63.8083 151.661 66.6307 150.713 69.5193C153.601 70.0706 156.38 70.7211 159.224 71.4928C159.367 71.5369 159.434 71.6802 159.39 71.8236C159.334 71.9669 159.18 72.0441 159.037 72C156.104 71.2172 153.248 70.5667 150.272 70.0155C150.195 69.9603 150.139 69.9272 150.095 69.8721Z" fill="#D3B77B"/>
        <path d="M147.174 71.7463C147.14 71.6912 147.129 71.614 147.14 71.5478C147.978 68.5269 148.993 65.5612 150.183 62.6726C150.25 62.5182 150.426 62.43 150.58 62.4521C150.735 62.4852 150.812 62.6175 150.757 62.7718C149.599 65.5722 148.596 68.4388 147.769 71.3494C150.68 71.7904 153.469 72.3086 156.335 72.9701C156.479 73.0032 156.556 73.1465 156.512 73.2898C156.468 73.4332 156.313 73.5103 156.17 73.4772C153.215 72.8157 150.338 72.2866 147.339 71.8566C147.273 71.8456 147.207 71.8014 147.174 71.7463Z" fill="#D3B77B"/>
        <path d="M144.329 73.7418C144.285 73.6867 144.274 73.6205 144.296 73.5434C145.002 70.5004 145.895 67.4905 146.953 64.5578C147.008 64.4035 147.185 64.3043 147.339 64.3263C147.493 64.3484 147.582 64.4917 147.526 64.635C146.49 67.4795 145.608 70.3791 144.913 73.3228C147.835 73.6426 150.647 74.0505 153.535 74.5797C153.678 74.6128 153.767 74.7451 153.723 74.8884C153.678 75.0318 153.535 75.1199 153.392 75.0869C150.415 74.5466 147.526 74.1387 144.517 73.83C144.428 73.83 144.362 73.7969 144.329 73.7418Z" fill="#D3B77B"/>
        <path d="M141.573 75.8588C141.529 75.8037 141.518 75.7375 141.529 75.6604C142.102 72.5843 142.863 69.5524 143.8 66.5756C143.844 66.4213 144.02 66.311 144.175 66.322C144.34 66.3331 144.428 66.4764 144.373 66.6308C143.458 69.5083 142.708 72.452 142.135 75.4178C145.068 75.6163 147.89 75.9029 150.79 76.3219C150.933 76.3439 151.021 76.4873 150.988 76.6306C150.955 76.7739 150.812 76.8732 150.669 76.8511C147.67 76.4321 144.77 76.1455 141.749 75.958C141.683 75.947 141.617 75.9139 141.573 75.8588Z" fill="#D3B77B"/>
        <path d="M138.905 78.0857C138.861 78.0306 138.839 77.9644 138.85 77.8872C139.291 74.8002 139.93 71.7352 140.735 68.7143C140.779 68.5599 140.944 68.4386 141.099 68.4497C141.264 68.4607 141.352 68.593 141.308 68.7474C140.514 71.669 139.897 74.6238 139.445 77.6116C142.378 77.6888 145.211 77.8542 148.133 78.1518C148.276 78.1739 148.375 78.3062 148.342 78.4495C148.309 78.5928 148.177 78.692 148.023 78.681C145.013 78.3833 142.102 78.218 139.081 78.1628C139.026 78.1628 138.96 78.1298 138.905 78.0857Z" fill="#D3B77B"/>
        <path d="M136.347 80.4121C136.303 80.368 136.281 80.3019 136.281 80.2247C136.589 77.1156 137.097 74.0396 137.769 70.9856C137.802 70.8313 137.968 70.699 138.122 70.699C138.287 70.699 138.386 70.8313 138.342 70.9856C137.681 73.9294 137.174 76.9172 136.854 79.916C139.787 79.8719 142.62 79.927 145.553 80.0924C145.696 80.1034 145.795 80.2357 145.773 80.3791C145.751 80.5224 145.619 80.6326 145.465 80.6216C142.444 80.4562 139.533 80.4121 136.512 80.4783C136.457 80.4893 136.391 80.4673 136.347 80.4121Z" fill="#D3B77B"/>
        <path d="M133.877 82.8596C133.833 82.8155 133.8 82.7494 133.811 82.6722C133.999 79.5631 134.362 76.454 134.914 73.389C134.947 73.2346 135.09 73.1023 135.255 73.0913C135.421 73.0913 135.52 73.2126 135.498 73.3669C134.958 76.3327 134.583 79.3426 134.384 82.3524C137.306 82.176 140.151 82.1209 143.083 82.176C143.227 82.1871 143.337 82.3083 143.326 82.4517C143.315 82.595 143.182 82.7163 143.028 82.7053C140.007 82.6612 137.097 82.7383 134.076 82.9368C133.999 82.9257 133.932 82.9037 133.877 82.8596Z" fill="#D3B77B"/>
        <path d="M131.518 85.3954C131.463 85.3513 131.441 85.2851 131.441 85.208C131.496 82.0878 131.738 78.9677 132.157 75.8807C132.179 75.7263 132.323 75.583 132.488 75.572C132.642 75.561 132.764 75.6822 132.742 75.8366C132.323 78.8244 132.08 81.8453 132.003 84.8552C134.925 84.5575 137.747 84.3811 140.68 84.3149C140.823 84.3149 140.933 84.4362 140.933 84.5795C140.922 84.7229 140.801 84.8442 140.647 84.8442C137.626 84.9324 134.715 85.1308 131.716 85.4505C131.639 85.4615 131.573 85.4395 131.518 85.3954Z" fill="#D3B77B"/>
        <path d="M129.269 88.0305C129.214 87.9864 129.18 87.9203 129.18 87.8431C129.103 84.723 129.214 81.6028 129.511 78.4937C129.522 78.3394 129.666 78.185 129.831 78.174C129.985 78.1519 130.107 78.2732 130.096 78.4276C129.809 81.4374 129.688 84.4583 129.743 87.4792C132.642 87.0603 135.465 86.7626 138.398 86.5752C138.541 86.5641 138.662 86.6854 138.662 86.8287C138.662 86.9721 138.541 87.1044 138.386 87.1044C135.377 87.3139 132.477 87.6336 129.489 88.0856C129.379 88.0966 129.313 88.0746 129.269 88.0305Z" fill="#D3B77B"/>
        <path d="M127.119 90.7646C127.064 90.7205 127.031 90.6654 127.031 90.5882C126.821 87.4681 126.81 84.348 126.965 81.2279C126.976 81.0625 127.108 80.9191 127.262 80.8971C127.417 80.875 127.538 80.9853 127.527 81.1397C127.361 84.1605 127.361 87.1814 127.549 90.1913C130.437 89.6511 133.238 89.2321 136.159 88.9124C136.303 88.9014 136.424 89.0116 136.435 89.1549C136.435 89.2983 136.325 89.4306 136.171 89.4416C133.161 89.7724 130.283 90.2244 127.317 90.7977C127.24 90.8198 127.174 90.7977 127.119 90.7646Z" fill="#D3B77B"/>
        <path d="M125.09 93.5873C125.035 93.5432 125.002 93.4881 124.991 93.4109C124.66 90.3018 124.506 87.1817 124.539 84.0615C124.539 83.8962 124.671 83.7418 124.826 83.7088C124.98 83.6757 125.112 83.7859 125.101 83.9403C125.057 86.9612 125.189 89.9821 125.498 92.9919C128.365 92.3304 131.143 91.7902 134.054 91.3492C134.197 91.3271 134.329 91.4374 134.329 91.5807C134.34 91.724 134.23 91.8563 134.087 91.8784C131.099 92.3414 128.232 92.9037 125.289 93.6093C125.222 93.6314 125.145 93.6204 125.09 93.5873Z" fill="#D3B77B"/>
        <path d="M123.172 96.4979C123.117 96.4648 123.073 96.3987 123.062 96.3215C122.598 93.2344 122.323 90.1143 122.224 86.9832C122.224 86.8178 122.345 86.6635 122.499 86.6194C122.654 86.5753 122.786 86.6745 122.786 86.8399C122.874 89.8608 123.128 92.8817 123.558 95.8805C126.391 95.0977 129.158 94.4362 132.036 93.8739C132.179 93.8519 132.312 93.9511 132.323 94.0944C132.334 94.2378 132.234 94.3811 132.091 94.4031C129.125 94.9985 126.281 95.6821 123.37 96.5089C123.304 96.542 123.238 96.531 123.172 96.4979Z" fill="#D3B77B"/>
        <path d="M121.386 99.4967C121.331 99.4636 121.286 99.4085 121.275 99.3313C120.691 96.2553 120.283 93.1462 120.052 90.026C120.041 89.8607 120.151 89.6953 120.305 89.6512C120.46 89.6071 120.592 89.6953 120.603 89.8607C120.812 92.8816 121.198 95.8914 121.738 98.8682C124.539 97.9642 127.273 97.1814 130.14 96.4978C130.283 96.4647 130.415 96.564 130.437 96.7073C130.459 96.8506 130.36 96.9939 130.217 97.027C127.273 97.7437 124.462 98.5595 121.584 99.5077C121.518 99.5297 121.441 99.5297 121.386 99.4967Z" fill="#D3B77B"/>
        <path d="M119.721 102.573C119.666 102.54 119.622 102.485 119.6 102.407C118.883 99.3534 118.354 96.2663 117.99 93.1462C117.968 92.9918 118.078 92.8154 118.233 92.7603C118.387 92.7052 118.519 92.7934 118.541 92.9587C118.872 95.9686 119.379 98.9675 120.052 101.922C122.808 100.886 125.52 99.9928 128.354 99.188C128.497 99.1549 128.629 99.2431 128.662 99.3864C128.684 99.5297 128.596 99.6841 128.453 99.7172C125.531 100.566 122.764 101.492 119.93 102.573C119.842 102.606 119.776 102.595 119.721 102.573Z" fill="#D3B77B"/>
        <path d="M118.177 105.726C118.111 105.693 118.067 105.638 118.045 105.571C117.207 102.551 116.546 99.4746 116.061 96.3655C116.039 96.2111 116.138 96.0237 116.292 95.9686C116.447 95.9135 116.579 95.9906 116.612 96.156C117.075 99.1548 117.703 102.132 118.497 105.064C121.22 103.907 123.878 102.903 126.678 101.966C126.821 101.922 126.965 101.999 126.998 102.154C127.031 102.308 126.943 102.451 126.799 102.495C123.933 103.4 121.121 104.48 118.387 105.726C118.31 105.748 118.233 105.748 118.177 105.726Z" fill="#D3B77B"/>
        <path d="M116.766 108.956C116.7 108.934 116.656 108.879 116.634 108.802C115.664 105.803 114.881 102.76 114.263 99.6732C114.23 99.5188 114.33 99.3314 114.473 99.2652C114.616 99.1991 114.76 99.2763 114.793 99.4306C115.377 102.418 116.127 105.373 117.042 108.273C119.71 106.994 122.334 105.869 125.09 104.811C125.234 104.756 125.377 104.833 125.41 104.976C125.454 105.12 125.366 105.274 125.234 105.329C122.4 106.354 119.644 107.567 116.965 108.934C116.898 108.978 116.821 108.978 116.766 108.956Z" fill="#D3B77B"/>
        <path d="M115.487 112.253C115.421 112.231 115.377 112.176 115.344 112.11C114.252 109.155 113.337 106.123 112.599 103.058C112.566 102.904 112.643 102.716 112.797 102.639C112.94 102.562 113.084 102.639 113.128 102.793C113.833 105.759 114.704 108.692 115.741 111.558C118.354 110.158 120.923 108.912 123.646 107.733C123.778 107.677 123.932 107.744 123.977 107.887C124.021 108.03 123.943 108.185 123.811 108.24C121.022 109.397 118.31 110.72 115.697 112.22C115.62 112.264 115.553 112.275 115.487 112.253Z" fill="#D3B77B"/>
        <path d="M114.352 115.615C114.286 115.593 114.231 115.549 114.208 115.472C112.996 112.55 111.959 109.563 111.088 106.52C111.044 106.365 111.121 106.178 111.265 106.09C111.408 106.013 111.551 106.079 111.595 106.233C112.422 109.177 113.415 112.076 114.572 114.91C117.13 113.388 119.644 112.032 122.312 110.72C122.444 110.654 122.599 110.72 122.643 110.864C122.698 111.007 122.621 111.161 122.488 111.227C119.754 112.506 117.097 113.962 114.539 115.582C114.495 115.626 114.418 115.637 114.352 115.615Z" fill="#D3B77B"/>
        <path d="M113.359 119.055C113.293 119.033 113.238 118.989 113.205 118.923C111.871 116.046 110.702 113.091 109.71 110.081C109.655 109.927 109.732 109.728 109.865 109.651C110.008 109.563 110.151 109.618 110.206 109.772C111.154 112.683 112.268 115.549 113.547 118.339C116.039 116.707 118.497 115.219 121.11 113.796C121.242 113.73 121.397 113.785 121.452 113.918C121.507 114.05 121.452 114.226 121.32 114.293C118.629 115.693 116.039 117.28 113.558 119.011C113.492 119.055 113.426 119.066 113.359 119.055Z" fill="#D3B77B"/>
        <path d="M112.511 122.539C112.444 122.528 112.389 122.484 112.356 122.407C110.901 119.574 109.611 116.663 108.497 113.686C108.442 113.532 108.508 113.333 108.641 113.245C108.773 113.157 108.927 113.201 108.982 113.355C110.052 116.244 111.287 119.066 112.676 121.812C115.09 120.059 117.494 118.46 120.041 116.906C120.173 116.828 120.327 116.883 120.383 117.016C120.449 117.148 120.394 117.324 120.261 117.402C117.637 118.934 115.113 120.632 112.698 122.495C112.643 122.539 112.577 122.561 112.511 122.539Z" fill="#D3B77B"/>
        <path d="M111.805 126.089C111.739 126.078 111.684 126.034 111.639 125.968C110.063 123.19 108.652 120.312 107.417 117.369C107.351 117.214 107.406 117.016 107.538 116.917C107.67 116.817 107.825 116.861 107.891 117.016C109.082 119.86 110.438 122.65 111.937 125.351C114.286 123.476 116.601 121.768 119.093 120.092C119.214 120.015 119.379 120.059 119.445 120.191C119.511 120.323 119.467 120.5 119.335 120.577C116.766 122.231 114.319 124.061 111.992 126.034C111.948 126.078 111.871 126.1 111.805 126.089Z" fill="#D3B77B"/>
        <path d="M180.249 95.3402C180.249 95.3402 180.227 95.3733 180.194 95.4284C179.775 96.0128 177.283 99.5408 173.27 104.05L172.554 104.855C171.793 105.693 170.977 106.575 170.117 107.468C169.874 107.721 169.632 107.975 169.378 108.229C168.188 109.43 166.931 110.665 165.586 111.889C165.332 112.121 165.078 112.352 164.814 112.584C163.182 114.05 161.451 115.505 159.621 116.894C159.356 117.104 159.081 117.302 158.816 117.512C156.986 118.868 155.09 120.158 153.116 121.327L152.245 121.834C150.779 122.672 149.279 123.432 147.747 124.116C147.427 124.259 147.107 124.403 146.788 124.535C140.294 127.258 133.282 128.416 126.182 126.597C98.4313 119.474 114.572 103.852 114.572 103.852C114.572 103.852 128.563 88.4274 142.532 89.1C142.543 89.1 142.565 89.1 142.576 89.1C142.962 89.122 143.348 89.1441 143.723 89.1661C146.236 89.3425 148.618 89.6733 150.9 90.0922L151.992 90.3017C153.293 90.5553 154.571 90.842 155.828 91.1396C156.181 91.2278 156.534 91.316 156.887 91.4042C158.022 91.6799 159.147 91.9665 160.283 92.2532L161.33 92.5178C162.245 92.7493 163.171 92.9808 164.108 93.2013L165.145 93.4439C166.721 93.8188 168.309 94.1495 169.952 94.4362C170.349 94.5133 170.756 94.5795 171.153 94.6346C173.402 94.9874 175.718 95.241 178.198 95.3182C178.198 95.3182 178.198 95.3182 178.209 95.3182C178.871 95.3402 179.554 95.3513 180.249 95.3402Z" fill="#D3B77B"/>
        <path d="M180.249 95.3402C180.249 95.3402 180.227 95.3732 180.194 95.4283C177.835 96.6301 172.796 98.9674 165.398 101.261L165.211 101.316C164.681 101.481 164.13 101.647 163.579 101.812C162.267 102.198 160.889 102.584 159.445 102.948C158.926 103.08 158.397 103.212 157.857 103.344C156.302 103.73 154.671 104.094 152.973 104.436C152.499 104.535 152.014 104.634 151.528 104.723C149.61 105.097 147.603 105.439 145.52 105.759C145.079 105.825 144.627 105.891 144.175 105.957C142.488 106.2 140.757 106.409 138.971 106.597C138.563 106.641 138.144 106.685 137.725 106.729C135.84 106.917 133.888 107.06 131.893 107.17C131.463 107.192 131.033 107.214 130.603 107.236C130.062 107.269 129.522 107.291 128.971 107.313L128.927 106.332C129.632 106.299 130.338 106.266 131.044 106.233C131.452 106.211 131.871 106.189 132.279 106.167C134.351 106.046 136.38 105.88 138.331 105.682C138.794 105.638 139.257 105.583 139.71 105.538C141.352 105.351 142.951 105.153 144.505 104.921C145.002 104.855 145.476 104.789 145.95 104.712C147.857 104.414 149.698 104.094 151.462 103.752C151.958 103.653 152.444 103.554 152.929 103.455C154.56 103.124 156.126 102.76 157.625 102.396C158.122 102.275 158.607 102.154 159.092 102.032C160.591 101.647 162.024 101.25 163.392 100.842C164.086 100.632 164.77 100.434 165.431 100.224C171.241 98.3941 175.541 96.564 178.165 95.3181C178.165 95.3181 178.165 95.3181 178.176 95.3181C178.871 95.3402 179.554 95.3512 180.249 95.3402Z" fill="white"/>
        <path d="M173.259 104.061L165.2 101.338L164.538 101.118L165.431 100.236L171.12 94.6347C170.723 94.5686 170.315 94.5024 169.918 94.4363L163.392 100.853L162.697 101.536L163.557 101.834L172.531 104.877L173.259 104.061Z" fill="white"/>
        <path d="M170.106 107.468C169.863 107.722 169.621 107.975 169.367 108.229L157.846 103.367L157.162 103.08L157.636 102.407L164.086 93.2124L165.123 93.455L159.092 102.044L158.662 102.65L159.422 102.97L170.106 107.468Z" fill="white"/>
        <path d="M152.962 104.458L165.564 111.889C165.31 112.121 165.056 112.352 164.792 112.584L151.506 104.756L150.944 104.425L151.451 103.763L160.249 92.2532L161.297 92.5178L152.918 103.466L152.399 104.149L152.962 104.458Z" fill="white"/>
        <path d="M145.52 105.781L159.61 116.883C159.345 117.093 159.07 117.291 158.805 117.501L144.175 105.98H144.164L143.855 105.737L144.505 104.932L155.806 91.1396C156.159 91.2278 156.512 91.316 156.865 91.4042L145.95 104.723L145.244 105.583L145.52 105.781Z" fill="white"/>
        <path d="M152.223 121.823L137.714 106.74L137.582 106.608L138.32 105.693L150.867 90.0923L151.969 90.3018L139.709 105.55L138.905 106.553L138.96 106.619L153.105 121.316L152.223 121.823Z" fill="white"/>
        <path d="M131.882 107.192L147.725 124.116C147.405 124.259 147.085 124.402 146.766 124.535L130.592 107.258L130.459 107.115L131.044 106.255L142.565 89.0999C142.951 89.1219 143.337 89.144 143.712 89.166L132.278 106.178L131.727 107.005L131.882 107.192Z" fill="white"/>
        <path d="M113.403 113.774C113.403 113.774 100.956 126.552 78.6852 133.388C78.2994 133.509 77.9025 133.631 77.4945 133.752C76.4471 134.061 75.3887 134.358 74.2972 134.634C73.4924 134.832 72.6986 135.02 71.9158 135.163C71.5299 135.24 71.144 135.306 70.7581 135.373C67.7152 135.869 64.7935 135.979 62.0152 135.803L60.9457 135.714C59.4022 135.571 57.8918 135.339 56.4475 135.042C56.1167 134.976 55.797 134.898 55.4662 134.821C53.6912 134.402 51.9933 133.884 50.3726 133.289C50.0529 133.179 49.7552 133.057 49.4465 132.936C47.3848 132.12 45.4664 131.194 43.7134 130.213L42.8424 129.717C41.1997 128.757 39.7003 127.765 38.3772 126.806C38.1016 126.608 37.837 126.409 37.5834 126.211C34.6176 123.973 32.6221 122.01 31.8173 121.15C31.5416 120.863 31.3983 120.698 31.3983 120.698C31.7291 120.478 32.0488 120.268 32.3685 120.059C35.0146 118.284 37.0983 116.74 38.8182 115.351C39.1049 115.119 39.3695 114.91 39.6341 114.689C41.1225 113.443 42.3243 112.319 43.3606 111.283C43.6142 111.04 43.8457 110.786 44.0773 110.555C45.2569 109.331 46.2823 108.207 47.3958 107.071C47.6273 106.828 47.8589 106.597 48.1014 106.365C49.0055 105.483 49.9978 104.579 51.1995 103.62C51.4531 103.411 51.7177 103.212 51.9933 103.003C53.173 102.11 54.5291 101.15 56.1829 100.114C56.4695 99.9377 56.7562 99.7502 57.0649 99.5628C57.2413 99.4525 57.4287 99.3423 57.6162 99.2321C59.2369 98.2508 61.1442 97.5232 63.239 96.994C63.6139 96.9057 63.9887 96.8175 64.3636 96.7404C66.5465 96.2883 68.917 96.0348 71.3645 95.9355C71.7614 95.9245 72.1583 95.9025 72.5552 95.9025C87.351 95.6158 104.738 100.522 104.738 100.522L113.403 113.774Z" fill="#D3B77B"/>
        <path d="M105.84 116.31L105.675 117.28C105.498 117.247 96.3696 115.737 85.7634 114.844C85.4216 114.811 85.0798 114.789 84.7381 114.755C83.3489 114.645 81.9487 114.546 80.5375 114.469C80.1847 114.447 79.8319 114.425 79.4901 114.403C77.4504 114.303 75.4107 114.226 73.4152 114.215C73.0403 114.215 72.6655 114.204 72.3017 114.215C69.6336 114.215 67.0757 114.314 64.7384 114.557C64.3525 114.59 63.9887 114.634 63.6248 114.678C62.0703 114.877 60.626 115.13 59.3471 115.461C59.2699 115.483 59.2038 115.505 59.1266 115.516C58.7738 115.615 58.41 115.704 58.0571 115.803C56.5908 116.189 55.0583 116.564 53.4927 116.927C52.9966 117.049 52.5115 117.159 52.0153 117.269C49.6119 117.809 47.1422 118.328 44.7388 118.802C44.2316 118.901 43.7354 119 43.2393 119.088C39.0167 119.904 35.0145 120.599 31.8283 121.128C31.5526 120.841 31.4093 120.676 31.4093 120.676C31.7401 120.455 32.0598 120.246 32.3795 120.037C35.4555 119.518 39.2041 118.857 43.1511 118.096C43.6252 118.008 44.0883 117.909 44.5624 117.82C46.9658 117.346 49.4355 116.828 51.839 116.288C52.302 116.178 52.7761 116.078 53.2281 115.968C54.8268 115.604 56.3924 115.207 57.8918 114.822C58.2225 114.733 58.5533 114.645 58.884 114.557C58.9612 114.535 59.0384 114.513 59.1156 114.491C60.3063 114.171 61.6293 113.929 63.0626 113.741C63.4926 113.686 63.9336 113.631 64.3966 113.576C66.6788 113.333 69.1705 113.223 71.7725 113.201C72.2796 113.201 72.7868 113.201 73.3049 113.201C75.1241 113.212 76.9763 113.267 78.8286 113.355C79.3026 113.377 79.7877 113.399 80.2728 113.432C81.662 113.51 83.0512 113.598 84.4073 113.708C84.8373 113.741 85.2673 113.774 85.6972 113.818C96.1271 114.689 105.135 116.2 105.84 116.31Z" fill="white"/>
        <path d="M45.1908 118.251L44.7388 118.824L38.3993 126.806C38.1237 126.608 37.859 126.409 37.6055 126.211L43.2503 119.111L43.7465 118.493C43.559 118.372 43.3606 118.24 43.1621 118.118C41.7619 117.225 40.1523 116.189 38.8292 115.362C39.1159 115.13 39.3805 114.921 39.6451 114.7C40.7807 115.417 42.3683 116.431 44.5733 117.843C44.6285 117.876 44.6836 117.92 44.7388 117.953L45.1908 118.251Z" fill="white"/>
        <path d="M43.7245 130.202L53.5038 116.939L53.9117 116.387L53.2282 115.979L44.0883 110.555C43.8568 110.786 43.6252 111.029 43.3717 111.283L51.839 116.299L52.4674 116.674L52.0264 117.269L42.8645 129.695L43.7245 130.202Z" fill="white"/>
        <path d="M59.6448 114.899L59.3581 115.472L50.3837 133.278C50.0639 133.168 49.7663 133.046 49.4576 132.925L58.0792 115.814L58.3879 115.197L57.9028 114.833L47.4069 107.082C47.6384 106.84 47.8699 106.608 48.1125 106.376L59.1266 114.513L59.6448 114.899Z" fill="white"/>
        <path d="M64.9479 114.072L64.7495 114.568L56.4475 135.031C56.1167 134.965 55.797 134.887 55.4662 134.81L63.6249 114.678L63.7572 114.348L63.0516 113.752L51.1885 103.62C51.4421 103.411 51.7067 103.212 51.9823 103.003L64.3856 113.598L64.9479 114.072Z" fill="white"/>
        <path d="M62.0152 135.791L73.4262 114.226L73.757 113.598L73.3049 113.212L57.0649 99.5518C56.7562 99.7392 56.4695 99.9266 56.1829 100.103L71.7614 113.212L72.5001 113.84L72.3017 114.215L60.9457 135.692L62.0152 135.791Z" fill="white"/>
        <path d="M80.758 113.973L80.5485 114.48L71.9268 135.163C71.5409 135.24 71.1551 135.306 70.7692 135.372L79.5011 114.425L79.6004 114.193L78.8286 113.377L63.239 96.9938C63.6139 96.9056 63.9887 96.8174 64.3636 96.7402L80.2619 113.454L80.758 113.973Z" fill="white"/>
        <path d="M78.6852 133.388L85.7634 114.844L85.9949 114.237L85.6862 113.829L72.5443 95.9023C72.1473 95.9134 71.7394 95.9244 71.3535 95.9354L84.3963 113.73L84.8814 114.392L84.7381 114.766L77.4945 133.752L78.6852 133.388Z" fill="white"/>
        <path d="M114.186 110.301L106.061 117.743C106.061 117.743 83.6906 109.948 77.3732 107.258C77.0204 107.104 76.6566 106.938 76.2707 106.74H76.2597C75.7966 106.509 75.3115 106.244 74.8154 105.946C73.4372 105.13 71.9709 104.094 70.5045 102.914L69.5123 102.098C68.09 100.886 66.6788 99.5406 65.3779 98.1294C65.1243 97.8537 64.8707 97.5781 64.6281 97.2915C63.4043 95.8913 62.3018 94.4359 61.3867 92.9806C61.1993 92.6829 61.0229 92.3853 60.8575 92.0986C60.0417 90.6543 59.4243 89.221 59.0935 87.8539C59.0273 87.6003 58.9722 87.3247 58.9061 87.0491C58.8289 86.7404 58.7517 86.4206 58.6635 86.0899C58.2556 84.4251 57.7705 82.5067 57.2633 80.5002L57.0208 79.5299C56.5798 77.81 56.1277 76.046 55.6978 74.3591C55.6096 74.0284 55.5213 73.6976 55.4331 73.3779C54.507 69.7726 53.6801 66.6084 53.2722 65.0318C53.0958 64.3483 52.9966 63.9624 52.9966 63.9624C53.3053 64.0616 53.5919 64.1498 53.8786 64.227C57.7925 65.4067 60.185 65.6382 62.9854 65.7154C63.3051 65.7264 63.6359 65.7374 63.9666 65.7374C64.6833 65.7485 65.433 65.7595 66.2488 65.7815C66.5685 65.7926 66.9103 65.8036 67.2631 65.8036C68.2664 65.8367 69.3579 65.8808 70.6038 65.969C70.9345 65.991 71.2653 66.0131 71.6181 66.0461C72.9411 66.1454 74.4074 66.2887 76.0722 66.4871C76.403 66.5202 76.7338 66.5643 77.0755 66.6084C78.3324 66.7738 79.6995 66.9612 81.1879 67.1928C81.5187 67.2479 81.8605 67.303 82.2133 67.3471C83.2937 67.5125 84.4403 67.711 85.6421 67.9204C86.2044 68.0197 86.7556 68.1409 87.2849 68.2842L88.3102 68.5819C91.276 69.5301 93.933 71.1067 96.3034 73.1022L97.3178 74.0063C110.184 85.9025 114.186 110.301 114.186 110.301Z" fill="#D3B77B"/>
        <path d="M102.996 106.332L102.455 107.159C101.011 106.211 99.3905 105.064 97.6485 103.763C97.2847 103.488 96.9098 103.201 96.535 102.914C94.9694 101.724 93.3156 100.423 91.6177 99.0446C91.276 98.78 90.9452 98.5043 90.6034 98.2177C88.7732 96.7183 86.8769 95.1417 84.9696 93.521C84.6609 93.2564 84.3411 92.9918 84.0324 92.7272C82.4227 91.349 80.791 89.9378 79.1703 88.5266C78.8616 88.262 78.5639 87.9974 78.2662 87.7328C76.844 86.4869 75.4218 85.2301 74.0216 83.9842C73.7129 83.7086 73.4042 83.4329 73.0955 83.1683C71.6181 81.8563 70.1738 80.5554 68.7736 79.2875C68.4428 78.9898 68.1121 78.6921 67.7813 78.3945C66.2158 76.9832 64.7273 75.6161 63.3161 74.3262C62.9523 73.9954 62.5885 73.6647 62.2357 73.3339C58.2776 69.6956 55.1024 66.7188 53.2722 64.9989C53.0958 64.3153 52.9966 63.9294 52.9966 63.9294C53.3053 64.0287 53.5919 64.1169 53.8786 64.194C55.6977 65.914 58.9502 68.9569 63.0074 72.6834C63.3271 72.9811 63.6579 73.2788 63.9997 73.5875C65.3338 74.8113 66.7449 76.1012 68.2113 77.4353C68.5972 77.7881 68.9941 78.1409 69.391 78.4937C70.703 79.6844 72.0481 80.8972 73.4372 82.132C73.8342 82.4848 74.22 82.8376 74.6169 83.1904C75.951 84.3701 77.296 85.5608 78.6521 86.7515C79.027 87.0712 79.4019 87.402 79.7767 87.7328C81.3313 89.0999 82.8968 90.445 84.4514 91.768C84.8262 92.0877 85.2011 92.4074 85.5759 92.7272C87.3069 94.1935 89.0158 95.6268 90.6806 96.9829C91.0444 97.2805 91.4193 97.5782 91.7831 97.8759C93.7015 99.4305 95.5537 100.886 97.2957 102.22C97.6375 102.484 97.9792 102.738 98.31 102.992C99.9748 104.259 101.573 105.395 102.996 106.332Z" fill="white"/>
        <path d="M63.9556 65.7266L63.9776 73.5986V74.3262H63.3051L55.6867 74.3483C55.5985 74.0175 55.5103 73.6868 55.4221 73.367L62.2246 73.356H62.9854V72.7166L62.9633 65.7156C63.2941 65.7156 63.6248 65.7266 63.9556 65.7266Z" fill="white"/>
        <path d="M67.2521 65.7928C67.7041 68.4278 68.5862 73.7861 69.369 78.5048C69.38 78.571 69.391 78.6261 69.402 78.6922L69.4902 79.2104L68.7625 79.2876L57.2633 80.4783L57.0208 79.5081L67.7703 78.3946L68.3436 78.3394C68.2995 78.0638 68.2444 77.7661 68.1892 77.4464C67.6159 73.9845 66.6788 68.3506 66.2378 65.7708C66.5575 65.7818 66.8993 65.7818 67.2521 65.7928Z" fill="white"/>
        <path d="M71.607 66.0352L74.5948 83.2014L74.7051 83.8518L73.9995 83.9952L58.895 87.0381C58.8178 86.7294 58.7407 86.4097 58.6525 86.0789L73.0734 83.1793L73.5585 83.0801L73.3931 82.1429L70.5707 65.958C70.9235 65.9801 71.2542 66.0021 71.607 66.0352Z" fill="white"/>
        <path d="M77.0646 66.5976L79.7438 87.7329L79.8209 88.3613L79.1594 88.5267L61.3979 92.9698C61.2104 92.6722 61.034 92.3745 60.8687 92.0878L78.2554 87.7439L78.7405 87.6226L78.6302 86.7516L76.0613 66.4653C76.3921 66.5094 76.7228 66.5535 77.0646 66.5976Z" fill="white"/>
        <path d="M82.2023 67.3363L85.554 92.7272L85.6422 93.3667L84.9807 93.521L65.4 98.1185C65.1464 97.8429 64.8928 97.5673 64.6503 97.2806L84.0325 92.7272L84.5396 92.6059L84.4294 91.768L81.177 67.1709C81.5077 67.226 81.8495 67.2811 82.2023 67.3363Z" fill="white"/>
        <path d="M69.5123 102.088L90.6034 98.2178L90.7909 98.1847L90.6476 96.9829L87.2739 68.2734L88.2992 68.5711L91.7501 97.876L91.8714 98.9895L91.6178 99.0446L70.5156 102.903L69.5123 102.088Z" fill="white"/>
        <path d="M97.3178 73.9844L98.277 102.981L98.2991 103.664L97.6596 103.752L76.2707 106.718H76.2597C75.7967 106.487 75.3116 106.222 74.8154 105.924L96.535 102.903L97.2737 102.804L97.2516 102.209L96.2925 73.0803L97.3178 73.9844Z" fill="white"/>
        <path d="M107.34 120.191C107.34 120.191 89.5561 129.287 86.3367 140.554C83.1063 151.811 87.2959 154.479 84.7271 163.123C84.7271 163.123 106.259 151.954 108.839 141.922C111.419 131.9 112.852 120.698 112.852 120.698L107.34 120.191Z" fill="#BE1E2D"/>
        <path d="M113.238 111.713C113.238 111.713 118.034 102.65 126.557 101.58C135.079 100.511 139.247 103.146 146.369 101.801C146.369 101.801 144.45 111.933 134.362 114.502C124.274 117.071 114.076 115.957 114.076 115.957L113.238 111.713Z" fill="#BE1E2D"/>
        <path d="M110.504 121.337C110.504 121.337 103.723 129.893 105.135 138.074C106.557 146.254 111.154 158.018 110.967 159.892C110.967 159.892 119.996 148.062 119.732 139.066C119.467 130.069 114.605 120.224 114.605 120.224L110.504 121.337Z" fill="#BE443E"/>
        <path d="M107.229 114.336C107.229 114.336 99.9528 108.559 92.7313 108.647C85.4988 108.736 78.3214 109.133 77.8694 108.868C77.8694 108.868 84.5065 118.052 90.3168 118.427C96.1271 118.802 105.002 116.641 106.05 117.743C107.097 118.846 107.229 114.336 107.229 114.336Z" fill="#ED1C24"/>
        <path d="M106.535 120.445C106.535 120.445 96.3476 120.279 88.6961 126.31C81.0446 132.341 77.1417 137.655 73.7791 138.57C73.7791 138.57 82.07 144.336 94.2748 132.208C106.48 120.081 106.855 121.503 106.855 121.503L106.535 120.445Z" fill="#BE443E"/>
        <path d="M109.842 115.538C108.233 114.039 95.3885 99.9267 81.3314 103.774C67.2743 107.622 62.1035 115.45 54.6615 118.945C54.6615 118.945 63.195 128.515 78.0348 126.729C92.8747 124.943 108.067 119.959 108.067 119.959L109.842 115.538Z" fill="#BE1E2D"/>
        <path d="M112.069 119.75C112.069 119.75 109.17 137.28 124.528 142.781C139.886 148.283 145.002 152.109 145.002 152.109C145.002 152.109 146.148 115.88 133.105 113.796C120.052 111.712 114.087 115.957 114.087 115.957L112.069 119.75Z" fill="#BE443E"/>
        <path d="M78.7954 87.5454C78.7954 87.5454 83.2826 96.983 85.642 103.124C88.0014 109.265 106.524 113.807 106.524 113.807L110.515 111.316C110.515 111.316 104.297 93.069 100.989 92.165C97.6594 91.2499 86.8879 89.0338 78.7954 87.5454Z" fill="#BE443E"/>
        <path d="M108.133 111.448C108.133 111.448 104.219 107.666 99.9638 97.8649C95.7081 88.0635 103.282 78.2952 102.29 73.4331C102.29 73.4331 110.89 85.2962 112.069 92.1428C113.249 98.9894 112.279 110.158 112.279 110.158L108.133 111.448Z" fill="#BE1E2D"/>
        <path d="M111.055 111.15C111.055 111.15 108.045 89.7062 113.337 81.3381C118.629 72.97 130.404 70.0925 131.86 66.0242C131.86 66.0242 134.451 79.1662 133.271 86.112C132.091 93.0579 129.941 98.5704 114.991 112.065L111.055 111.15Z" fill="#BE443E"/>
        <path d="M118.4 118.34C119.418 114.541 117.163 110.636 113.364 109.618C109.565 108.6 105.659 110.854 104.641 114.654C103.623 118.453 105.878 122.358 109.678 123.376C113.477 124.394 117.382 122.14 118.4 118.34Z" fill="white"/>
        <path d="M111.761 115.836C112.003 116.619 111.562 117.446 110.779 117.688C109.997 117.931 109.17 117.49 108.927 116.707C108.685 115.924 109.126 115.097 109.908 114.855C110.691 114.623 111.518 115.053 111.761 115.836Z" fill="#D3B77B"/>
        <path d="M117.262 112.584C117.593 113.653 116.998 114.778 115.928 115.108C114.859 115.439 113.734 114.844 113.403 113.774C113.073 112.705 113.668 111.58 114.737 111.25C115.796 110.919 116.931 111.514 117.262 112.584Z" fill="#D3B77B"/>
        <path d="M116.634 117.302C116.965 118.372 116.369 119.518 115.289 119.849C114.219 120.18 113.073 119.585 112.742 118.504C112.411 117.435 113.006 116.288 114.087 115.957C115.156 115.626 116.303 116.222 116.634 117.302Z" fill="#D3B77B"/>
        <path d="M112.654 120.158C112.94 121.073 112.422 122.043 111.518 122.319C110.603 122.605 109.633 122.087 109.357 121.183C109.071 120.268 109.589 119.298 110.493 119.022C111.397 118.736 112.367 119.243 112.654 120.158Z" fill="#D3B77B"/>
        <path d="M107.714 118.846C107.902 119.463 107.56 120.125 106.943 120.312C106.325 120.5 105.664 120.158 105.476 119.541C105.289 118.923 105.631 118.262 106.248 118.074C106.866 117.876 107.527 118.229 107.714 118.846Z" fill="#D3B77B"/>
        <path d="M108.233 114.028C108.541 115.042 107.979 116.112 106.976 116.42C105.961 116.729 104.892 116.167 104.583 115.164C104.275 114.149 104.837 113.08 105.84 112.771C106.843 112.451 107.913 113.025 108.233 114.028Z" fill="#D3B77B"/>
        <path d="M112.455 110.709C112.786 111.779 112.191 112.925 111.11 113.256C110.041 113.587 108.894 112.992 108.563 111.911C108.233 110.842 108.828 109.695 109.908 109.364C110.978 109.034 112.125 109.64 112.455 110.709Z" fill="#D3B77B"/>
        <path d="M160.426 131.558C157.615 131.558 157.603 135.935 160.426 135.935C163.237 135.935 163.248 131.558 160.426 131.558Z" fill="#D3B77B"/>
        <path d="M162.41 166.276C159.599 166.276 159.588 170.653 162.41 170.653C165.222 170.653 165.222 166.276 162.41 166.276Z" fill="#D3B77B"/>
        <path d="M126.027 162.307C123.216 162.307 123.205 166.684 126.027 166.684C128.839 166.684 128.85 162.307 126.027 162.307Z" fill="#D3B77B"/>
        <path d="M115.112 178.514C112.301 178.514 112.29 182.891 115.112 182.891C117.924 182.891 117.935 178.514 115.112 178.514Z" fill="#D3B77B"/>
        <path d="M185.563 73.6758C182.752 73.6758 182.741 78.0528 185.563 78.0528C188.375 78.0528 188.375 73.6758 185.563 73.6758Z" fill="#D3B77B"/>
        <path d="M172.995 74.668C170.183 74.668 170.172 79.045 172.995 79.045C175.806 79.045 175.806 74.668 172.995 74.668Z" fill="#D3B77B"/>
        <path d="M186.225 122.627C183.413 122.627 183.402 127.004 186.225 127.004C189.036 127.004 189.036 122.627 186.225 122.627Z" fill="#D3B77B"/>
        <path d="M86.3367 170.576C83.5253 170.576 83.5143 174.953 86.3367 174.953C89.1481 174.953 89.1591 170.576 86.3367 170.576Z" fill="#D3B77B"/>
        <path d="M82.6984 186.121C79.887 186.121 79.876 190.498 82.6984 190.498C85.5098 190.498 85.5208 186.121 82.6984 186.121Z" fill="#D3B77B"/>
        <path d="M29.5241 92.1208C26.7127 92.1208 26.7016 96.4978 29.5241 96.4978C32.3465 96.4978 32.3465 92.1208 29.5241 92.1208Z" fill="#D3B77B"/>
        <path d="M50.0309 37.5461C47.2195 37.5461 47.2085 41.9231 50.0309 41.9231C52.8534 41.9231 52.8534 37.5461 50.0309 37.5461Z" fill="#D3B77B"/>
        <path d="M63.5918 52.0994C60.7804 52.0994 60.7694 56.4764 63.5918 56.4764C66.4143 56.4764 66.4143 52.0994 63.5918 52.0994Z" fill="#D3B77B"/>
        <path d="M128.42 22.3315C125.608 22.3315 125.597 26.7085 128.42 26.7085C131.231 26.7085 131.242 22.3315 128.42 22.3315Z" fill="#D3B77B"/>
        <path d="M99.9749 23.6545C97.1635 23.6545 97.1524 28.0315 99.9749 28.0315C102.786 28.0315 102.797 23.6545 99.9749 23.6545Z" fill="#D3B77B"/>
        <path d="M31.5086 56.3994C28.6972 56.3994 28.6861 60.7764 31.5086 60.7764C34.331 60.7764 34.331 56.3994 31.5086 56.3994Z" fill="#D3B77B"/>
        <path d="M22.2475 114.943C19.436 114.943 19.425 119.32 22.2475 119.32C25.0699 119.32 25.0699 114.943 22.2475 114.943Z" fill="#D3B77B"/>
        <path d="M76.5569 150.264C68.2869 150.444 60.0269 151.064 51.7569 150.364C50.9669 150.294 50.1569 150.194 49.3969 149.964C47.9969 149.544 47.3069 148.674 47.5469 147.074C48.4269 141.014 51.1569 135.654 53.7769 130.254C58.6069 120.324 64.5969 111.034 69.7769 101.294C73.0569 95.134 76.5969 89.034 77.6369 81.984C78.4169 76.684 78.4269 71.314 75.5769 66.554C73.7269 63.464 71.9069 62.974 69.1269 64.244C67.5069 64.984 65.9169 65.754 64.3769 66.654C59.9069 69.254 57.8069 73.234 57.3269 78.244C57.2669 78.864 57.5569 79.764 56.3069 79.624C55.3069 79.514 54.2369 79.784 54.1869 78.194C54.0269 72.914 56.1769 68.604 59.7869 64.944C65.5469 59.094 73.6669 57.094 80.4369 60.484C86.9369 63.744 90.2069 69.564 91.1969 76.704C92.1469 83.624 90.1769 89.994 87.6769 96.304C82.9069 108.344 75.9069 119.124 68.8469 129.874C65.5569 134.884 62.6169 140.134 58.5869 144.644C58.4469 144.794 58.3969 145.024 58.3069 145.214C58.5869 145.284 58.8769 145.414 59.1569 145.414C67.0369 145.454 74.9069 145.474 82.7869 145.494C86.8469 145.504 90.8569 146.054 94.8869 146.514C96.0169 146.644 96.5569 146.324 96.5669 145.144C96.5769 144.164 96.6669 143.184 96.7969 142.224C96.9269 141.244 96.8169 139.834 97.8869 139.594C99.4869 139.224 101.097 139.894 101.527 141.624C102.117 144.024 102.417 146.504 102.717 148.964C102.827 149.904 101.897 149.994 101.207 150.134C97.7569 150.864 94.2969 150.354 90.8369 150.294C86.0669 150.194 81.3069 150.264 76.5569 150.264Z" fill="#2E8287"/>
        <path d="M74.8903 150.264C66.6203 150.444 58.3603 151.064 50.0903 150.364C49.3003 150.294 48.4903 150.194 47.7303 149.964C46.3303 149.544 45.6403 148.674 45.8803 147.074C46.7603 141.014 49.4903 135.654 52.1103 130.254C56.9403 120.324 62.9303 111.034 68.1103 101.294C71.3903 95.134 74.9303 89.034 75.9703 81.984C76.7503 76.684 76.7603 71.314 73.9103 66.554C72.0603 63.464 70.2403 62.974 67.4603 64.244C65.8403 64.984 64.2503 65.754 62.7103 66.654C58.2403 69.254 56.1403 73.234 55.6603 78.244C55.6003 78.864 55.8903 79.764 54.6403 79.624C53.6403 79.514 52.5703 79.784 52.5203 78.194C52.3603 72.914 54.5103 68.604 58.1203 64.944C63.8803 59.094 72.0003 57.094 78.7703 60.484C85.2703 63.744 88.5403 69.564 89.5303 76.704C90.4803 83.624 88.5103 89.994 86.0103 96.304C81.2403 108.344 74.2403 119.124 67.1803 129.874C63.8903 134.884 60.9503 140.134 56.9203 144.644C56.7803 144.794 56.7303 145.024 56.6403 145.214C56.9203 145.284 57.2103 145.414 57.4903 145.414C65.3703 145.454 73.2403 145.474 81.1203 145.494C85.1803 145.504 89.1903 146.054 93.2203 146.514C94.3503 146.644 94.8903 146.324 94.9003 145.144C94.9103 144.164 95.0003 143.184 95.1303 142.224C95.2603 141.244 95.1503 139.834 96.2203 139.594C97.8203 139.224 99.4303 139.894 99.8603 141.624C100.45 144.024 100.75 146.504 101.05 148.964C101.16 149.904 100.23 149.994 99.5403 150.134C96.0903 150.864 92.6303 150.354 89.1703 150.294C84.4003 150.194 79.6403 150.264 74.8903 150.264Z" fill="white"/>
        <path d="M131.64 152.857C127.01 152.577 122.39 152.287 117.92 150.997C111.82 149.227 108.29 144.597 105.17 139.497C99.5503 130.297 99.2703 120.607 102.07 110.467C107.45 90.9374 118.37 75.2374 134.46 63.0674C139.09 59.5674 144.24 57.7374 150.18 58.5074C151.84 58.7174 152.79 59.6574 153.73 60.7974C154.03 61.1674 153.8 61.3474 153.48 61.4974C140.86 67.4874 134.17 78.6274 128.3 90.4774C127.84 91.3974 127.1 92.2274 127.14 93.3574C128.13 93.1474 129.12 92.9574 130.1 92.7174C141.39 89.9574 153.29 95.4074 158.42 105.857C160.97 111.057 161.02 116.727 160.69 122.337C160.31 128.887 158.73 135.207 155.63 141.017C151.68 148.417 145.09 151.807 136.97 152.587C135.19 152.747 133.41 152.767 131.64 152.857ZM156.05 117.967C156 116.917 156.04 115.707 155.88 114.517C154.87 106.807 151.28 100.727 144.15 97.2774C138.04 94.3174 131.8 95.8474 125.64 97.4174C125.07 97.5574 124.99 98.0674 124.81 98.5274C122.35 104.597 120.51 110.857 119.16 117.277C117.82 123.657 116.64 130.037 117.91 136.567C118.93 141.807 120.92 146.327 126.86 147.587C128.46 147.927 130.08 148.367 131.71 148.417C139.1 148.647 145.8 146.867 150.07 140.307C154.41 133.617 155.35 125.867 156.05 117.967Z" fill="#2E8287"/>
        <path d="M129.974 152.857C125.344 152.577 120.724 152.287 116.254 150.997C110.154 149.227 106.624 144.597 103.504 139.497C97.8836 130.297 97.6036 120.607 100.404 110.467C105.784 90.9374 116.704 75.2374 132.794 63.0674C137.424 59.5674 142.574 57.7374 148.514 58.5074C150.174 58.7174 151.124 59.6574 152.064 60.7974C152.364 61.1674 152.134 61.3474 151.814 61.4974C139.194 67.4874 132.504 78.6274 126.634 90.4774C126.174 91.3974 125.434 92.2274 125.474 93.3574C126.464 93.1474 127.454 92.9574 128.434 92.7174C139.724 89.9574 151.624 95.4074 156.754 105.857C159.304 111.057 159.354 116.727 159.024 122.337C158.644 128.887 157.064 135.207 153.964 141.017C150.014 148.417 143.424 151.807 135.304 152.587C133.524 152.747 131.744 152.767 129.974 152.857ZM154.384 117.967C154.334 116.917 154.374 115.707 154.214 114.517C153.204 106.807 149.614 100.727 142.484 97.2774C136.374 94.3174 130.134 95.8474 123.974 97.4174C123.404 97.5574 123.324 98.0674 123.144 98.5274C120.684 104.597 118.844 110.857 117.494 117.277C116.154 123.657 114.974 130.037 116.244 136.567C117.264 141.807 119.254 146.327 125.194 147.587C126.794 147.927 128.414 148.367 130.044 148.417C137.434 148.647 144.134 146.867 148.404 140.307C152.744 133.617 153.684 125.867 154.384 117.967Z" fill="white"/>
    </g>
    <defs>
        <clipPath id="clip0_30_1095">
            <rect width="200" height="200" fill="white"/>
        </clipPath>
    </defs>
</svg>
