<svg width="200" height="200" viewBox="0 0 200 200" fill="none" xmlns="http://www.w3.org/2000/svg">
    <g clip-path="url(#clip0_30_7643)">
        <path d="M200 0H0V200H200V0Z" fill="white"/>
        <path d="M152 165.85C142.46 169.18 132.5 171.33 122.42 172.1C111.84 172.91 101.07 172.55 90.4701 172.2C86.2901 172.07 82.0701 171.89 77.8601 171.58C76.6601 171.55 75.4801 171.44 74.2901 171.28C69.2501 170.81 64.2401 170.09 59.3501 168.95C56.0501 168.18 50.6601 167.29 49.9101 163.25C49.6201 161.67 50.9201 160.01 52.5401 159.96C52.8501 159.95 53.1701 159.97 53.5001 160C53.5001 160.52 53.7401 161.07 54.2901 161.32C58.6101 163.34 63.2401 164.04 67.7101 164.72C72.8201 165.49 78.3001 166.29 83.7901 166.93C86.9901 167.3 89.9701 167.58 92.9001 167.79V167.78C93.1801 167.83 93.5301 167.85 93.9601 167.87C94.6201 167.91 95.5401 167.95 96.6001 168C98.1301 168.07 101.06 168.18 103.51 168.18C104.12 168.18 104.66 168.17 105.12 168.16C106.4 168.14 108.31 168.04 109.33 167.98C110.03 167.94 110.66 167.9 111.11 167.87C111.38 167.85 111.63 167.84 111.84 167.8V167.81C114.72 167.6 117.7 167.31 120.96 166.93C126.46 166.28 131.93 165.46 137.04 164.68C141.5 164 146.12 163.29 150.45 161.25C151.14 160.93 151.35 160.16 151.2 159.56C151.19 159.52 151.18 159.48 151.17 159.44C152.28 159.26 153.5 159.42 154.33 160.18C154.37 160.21 154.4 160.25 154.43 160.27C156.39 162.23 153.95 165.17 152 165.85Z" fill="#D3B77B"/>
        <path d="M150.06 160.37C145.91 162.33 141.41 163.03 136.91 163.72C131.57 164.54 126.23 165.33 120.87 165.96C117.85 166.32 114.83 166.62 111.79 166.84C111.79 166.86 107.34 167.15 105.12 167.18C101.08 167.3 92.9801 166.87 92.9801 166.81C89.9501 166.6 86.9301 166.31 83.9101 165.96C78.5501 165.34 73.2001 164.56 67.8601 163.76C63.3601 163.08 58.8601 162.39 54.7001 160.44C54.5901 160.39 54.5201 160.28 54.4901 160.17C54.4701 160.08 54.4701 159.97 54.4901 159.88C55.3001 156.61 56.7901 149.89 58.7701 145.01C68.4601 152.72 80.6701 157.13 94.0201 157.13C95.3901 157.13 96.7701 157.08 98.1501 156.99C106.94 156.4 115.51 154.24 122.72 152.21C129.8 150.22 138.35 147.81 145.04 142.48C147.52 147.22 149.22 155.86 150.2 159.68C150.21 159.73 150.23 159.77 150.24 159.81C150.31 160 150.27 160.28 150.06 160.37Z" fill="#D3B77B"/>
        <path d="M159.57 115.56C158.6 119.36 157.34 123.06 155.71 126.56C155.71 126.57 155.7 126.57 155.7 126.58C153.62 131.07 150.94 135.24 147.53 138.88C147.22 139.21 146.9 139.54 146.57 139.85C146.47 139.95 146.36 140.05 146.26 140.15C145.71 140.66 145.15 141.15 144.58 141.61C143.22 142.71 141.78 143.68 140.28 144.55C140.1 144.65 139.92 144.76 139.73 144.86C135.24 147.37 130.21 149.02 125.22 150.48C124.89 150.57 124.55 150.67 124.22 150.77C123.64 150.94 123.07 151.1 122.49 151.26C114.51 153.51 106.39 155.45 98.11 156.01C91.23 156.47 84.62 155.75 78.47 154.01C78.47 154.01 78.47 154.01 78.46 154.01C78.21 153.94 77.96 153.87 77.7 153.79C77.66 153.78 77.62 153.77 77.59 153.76C73.76 152.61 70.11 151.05 66.69 149.13C66.52 149.03 66.35 148.93 66.17 148.84C63.72 147.43 61.38 145.84 59.19 144.07C57.19 142.47 55.31 140.72 53.55 138.84C53.5 138.78 53.45 138.73 53.39 138.67C53.33 138.61 53.28 138.56 53.24 138.5C51.69 136.82 50.24 135.04 48.9 133.17C48.83 133.08 48.76 132.98 48.69 132.88C46.74 130.13 45.03 127.18 43.56 124.05C43.51 123.94 43.46 123.83 43.41 123.73C42.68 122.16 42.02 120.54 41.43 118.89C41.2 118.26 40.98 117.62 40.78 116.97C40.76 116.92 40.74 116.87 40.73 116.81C40.72 116.78 40.72 116.76 40.71 116.73C40.21 115.15 39.77 113.54 39.39 111.9C39.22 111.15 39.06 110.4 38.91 109.65C38.89 109.54 38.87 109.42 38.84 109.31C38.11 105.51 37.68 101.66 37.54 97.7999C37.54 97.6999 37.53 97.5999 37.53 97.5099C36.91 78.1999 43.73 59.7699 55.8 44.8199C71.93 24.8599 100.89 24.1699 123.32 32.3199C136.53 37.1199 149.53 45.6299 156.09 58.4399C160.6 67.2599 162.39 77.2799 162.49 87.1799C162.59 96.3099 161.95 106.25 159.57 115.57C159.57 115.55 159.57 115.56 159.57 115.56Z" fill="#2E8287"/>
        <path d="M125.21 150.48C124.88 150.57 124.54 150.67 124.21 150.77C121.5 150.7 118.86 150.2 116.12 149.86C114.94 149.72 113.77 149.64 112.61 149.66C112.44 149.66 112.26 149.67 112.09 149.67C110.88 149.72 109.68 149.86 108.47 150.12C106.09 150.63 103.79 151.41 101.46 152.08C99.1401 152.75 96.8001 153.29 94.3801 153.46C91.7501 153.65 89.1201 153.55 86.4801 153.52C83.7801 153.49 81.1201 153.65 78.4701 154C78.2201 153.93 77.9701 153.86 77.7101 153.78C77.6701 153.77 77.6301 153.76 77.6001 153.75C78.0801 153.67 78.5501 153.61 79.0301 153.55C83.1001 153.05 87.1501 153.29 91.2301 153.25C93.3001 153.23 95.3801 153.14 97.4201 152.75C99.2401 152.4 101.01 151.89 102.78 151.35C105.09 150.65 107.41 149.9 109.81 149.55C112.15 149.2 114.45 149.29 116.79 149.63C119.41 150 122.04 150.56 124.7 150.51C124.86 150.5 125.03 150.49 125.21 150.48Z" fill="#CB9732"/>
        <path d="M140.27 144.55C140.09 144.65 139.91 144.76 139.72 144.86L137.52 144.8C131.9 144.64 126.27 144.48 120.65 144.32C117.94 144.24 115.21 144.14 112.5 144.34C109.74 144.54 107.07 145.09 104.42 145.9C102.05 146.63 99.7102 147.47 97.3102 148.11C97.1702 148.15 97.0302 148.19 96.8902 148.22C96.5802 148.3 96.2602 148.38 95.9502 148.45C93.8202 148.94 91.6602 149.25 89.4702 149.4C84.2502 149.75 79.0301 149.33 73.8102 149.15C71.4502 149.06 69.0702 149.03 66.7002 149.13C66.5302 149.03 66.3602 148.93 66.1802 148.84C66.9502 148.79 67.7102 148.76 68.4802 148.75C73.7202 148.68 78.9402 149.17 84.1702 149.21C86.7602 149.23 89.3702 149.16 91.9502 148.84C93.3502 148.66 94.7302 148.4 96.0902 148.07C96.4802 147.98 96.8702 147.88 97.2602 147.77C98.1202 147.54 98.9802 147.29 99.8302 147.02C102.33 146.23 104.81 145.34 107.37 144.76C109.91 144.18 112.5 143.94 115.1 143.91C120.66 143.84 126.23 144.15 131.79 144.31C134.61 144.39 137.44 144.47 140.27 144.55Z" fill="#CB9732"/>
        <path d="M155.82 126.32C155.88 126.2 155.93 126.08 155.98 125.96C154.35 125.87 152.71 125.98 151.08 126.12C150.39 126.04 149.7 125.95 149.01 125.87C148.7 125.83 148.39 125.79 148.07 125.75C144.14 125.25 140.21 124.79 136.22 125.06C134.73 125.16 133.26 125.36 131.8 125.64C129.99 125.49 128.18 125.34 126.37 125.23C121.01 124.91 115.65 124.76 110.28 124.75C99.5402 124.72 88.8101 125.31 78.1301 126.41C72.9201 126.95 67.7401 127.82 62.5101 128.22C60.9801 128.34 59.4401 128.38 57.9001 128.3C57.8101 128.3 57.7201 128.29 57.6301 128.29C56.6601 128.23 55.7001 128.12 54.7401 127.95C52.2201 127.5 49.9401 126.42 47.6301 125.34C46.2301 124.68 44.8301 124.13 43.3901 123.73C43.4401 123.84 43.4901 123.95 43.5401 124.05C45.9201 124.72 48.1001 125.98 50.3701 126.95C52.5101 127.87 54.7501 128.38 57.0701 128.58C57.1801 128.59 57.3001 128.6 57.4201 128.61C57.7101 128.63 58.0001 128.65 58.2901 128.67C58.9601 128.7 59.6301 128.71 60.3001 128.69C60.3801 128.69 60.4501 128.69 60.5201 128.69C64.4801 128.6 68.4601 127.88 72.3701 127.4C77.7001 126.75 83.0401 126.24 88.4001 125.86C90.4301 125.72 92.4601 125.59 94.4901 125.49C94.5401 125.48 94.6001 125.48 94.6501 125.48C103.28 125.04 111.93 124.98 120.57 125.3C123.95 125.43 127.32 125.63 130.69 125.89C127.57 126.58 124.54 127.66 121.63 129.02C116.88 131.25 112.4 133.84 107.31 135.24C106.42 135.49 105.52 135.7 104.62 135.89C104.44 135.93 104.27 135.96 104.09 136C101.92 136.43 99.7201 136.7 97.5101 136.85C97.4601 136.86 97.4201 136.86 97.3701 136.86C96.1301 136.94 94.8901 136.98 93.6501 136.99C93.4901 136.87 93.3301 136.74 93.1701 136.61C91.3401 135.22 89.4201 134.24 87.1401 133.89C83.4701 133.33 79.7401 134.41 76.2101 135.56C74.2601 135.29 72.3201 135 70.3701 134.72C70.3201 134.71 70.2701 134.71 70.2201 134.7C63.0701 133.67 55.9001 132.71 48.6701 132.89C48.7401 132.99 48.8101 133.09 48.8801 133.18C50.4501 133.16 52.0001 133.19 53.5301 133.25C60.9201 133.52 68.2101 134.75 75.5201 135.79C74.8901 136 74.2701 136.2 73.6501 136.4C71.3701 137.13 69.0701 137.76 66.7001 138.12C65.6901 138.28 64.6801 138.39 63.6601 138.46C63.6501 138.46 63.6501 138.46 63.6401 138.46C62.2301 138.57 60.8201 138.61 59.4101 138.63C57.3701 138.65 55.3001 138.59 53.2101 138.52C53.2601 138.58 53.3101 138.63 53.3701 138.69C53.4201 138.75 53.4701 138.8 53.5301 138.86C54.7401 138.9 55.9401 138.94 57.1301 138.96C61.7801 139.03 66.4301 138.79 70.9401 137.56C72.7301 137.08 74.5001 136.47 76.2801 135.9C77.5701 136.08 78.8501 136.25 80.1401 136.41C80.4701 136.45 80.7901 136.49 81.1201 136.53C82.5901 136.7 84.0601 136.85 85.5401 136.98C86.9201 137.09 88.2901 137.18 89.6701 137.24C89.7001 137.24 89.7301 137.24 89.7601 137.24C91.0201 137.29 92.2701 137.31 93.5301 137.3C94.9101 138.38 96.2401 139.53 97.8001 140.36C97.9901 140.46 98.1701 140.55 98.3601 140.64C99.0901 140.98 99.8401 141.26 100.62 141.48C103.94 142.44 107.56 142.41 110.98 142.34C111.07 142.34 111.17 142.34 111.26 142.33C111.34 142.33 111.41 142.33 111.48 142.33C117.09 142.21 122.69 141.89 128.28 141.4C129.28 141.31 130.28 141.2 131.28 141.09C135.18 140.64 139.09 140.08 143 140.05C143.07 140.05 143.14 140.05 143.21 140.05C143.7 140.05 144.2 140.05 144.69 140.07C145.21 140.09 145.73 140.13 146.24 140.19C146.34 140.09 146.45 139.99 146.55 139.89C141.36 139.35 136.12 140.31 130.96 140.83C129.26 141 127.55 141.15 125.84 141.29C121.96 141.6 118.06 141.81 114.17 141.94C110.19 142.07 105.99 142.33 102.05 141.49C101.09 141.28 100.14 141.01 99.2202 140.66C99.1802 140.64 99.1402 140.63 99.1002 140.61C97.4502 139.95 96.0601 138.91 94.6901 137.83C94.6601 137.81 94.6301 137.79 94.6101 137.77C94.4201 137.62 94.2201 137.47 94.0302 137.31C96.3002 137.28 98.5701 137.14 100.82 136.87C105.72 136.27 110.41 134.88 114.87 132.77C117.44 131.55 119.93 130.24 122.49 129.08C122.53 129.06 122.56 129.05 122.59 129.03C124.78 128.04 127.02 127.16 129.38 126.55C130.2 126.34 131.03 126.16 131.85 126.01C133.45 126.13 135.05 126.26 136.65 126.4C137.24 126.45 137.82 126.5 138.4 126.54C138.59 126.56 138.79 126.57 138.98 126.58C140.9 126.72 142.83 126.82 144.75 126.83C145.87 126.84 146.98 126.79 148.1 126.72C148.22 126.71 148.34 126.7 148.46 126.69C149.42 126.63 150.37 126.55 151.33 126.48C152.73 126.64 154.13 126.78 155.54 126.9C155.59 126.81 155.63 126.71 155.67 126.62C154.73 126.55 153.79 126.47 152.85 126.37C153.88 126.26 154.86 126.26 155.82 126.32ZM80.7001 136.13C80.5801 136.12 80.4601 136.1 80.3401 136.09C79.2201 135.95 78.1001 135.81 76.9901 135.66C78.5501 135.17 80.1101 134.73 81.7101 134.44C81.7601 134.43 81.8101 134.42 81.8701 134.41C82.9701 134.21 84.0901 134.09 85.2301 134.08C87.7401 134.05 90.0701 134.82 92.1301 136.23C92.4801 136.47 92.8301 136.73 93.1701 136.99C89.0001 136.98 84.8201 136.63 80.7001 136.13ZM148.73 126.3C148.57 126.31 148.41 126.32 148.25 126.33C146.35 126.43 144.44 126.47 142.53 126.4C141.35 126.36 140.18 126.3 139 126.22C138.93 126.22 138.87 126.21 138.8 126.21C136.91 126.08 135.02 125.92 133.13 125.76C137.24 125.16 141.38 125.26 145.54 125.75C146.41 125.85 147.29 125.96 148.16 126.06C148.39 126.09 148.61 126.11 148.84 126.14C149.12 126.18 149.41 126.21 149.69 126.24C149.37 126.25 149.05 126.28 148.73 126.3Z" fill="#CB9732"/>
        <path d="M159.75 114.86C159.78 114.76 159.8 114.65 159.83 114.55C145.63 116.68 130.77 114.72 116.46 114.49C115.75 114.28 115.04 114.07 114.33 113.88C109.36 112.54 104.38 112.05 99.2401 112.17C93.8001 112.29 88.3701 112.7 82.9301 112.72C77.4701 112.74 72.0101 112.52 66.5601 112.09C63.4501 111.84 60.3501 111.52 57.2501 111.13C57.1201 111.11 56.9901 111.1 56.8601 111.08C56.0901 110.98 55.3301 110.88 54.5601 110.77C50.8101 110.25 47.0701 109.65 43.2901 109.4C41.8201 109.3 40.3401 109.26 38.8501 109.31C38.8701 109.42 38.9001 109.54 38.9201 109.65C43.9101 109.55 49.0201 110.32 53.8301 111C64.5501 112.53 75.3701 113.22 86.2001 113.02C91.6301 112.92 97.0501 112.41 102.48 112.49C106.84 112.56 111.04 113.34 115.2 114.48C114.9 114.48 114.59 114.47 114.29 114.47C109.05 114.46 103.82 114.75 98.6301 115.53C98.0201 115.62 97.4201 115.72 96.8201 115.81C96.8001 115.81 96.7901 115.82 96.7701 115.82C92.2801 116.58 87.8301 117.59 83.3601 118.49C81.5501 118.86 79.7301 119.2 77.9101 119.5C76.4301 119.24 74.9401 118.97 73.4601 118.7C65.4201 117.23 57.2801 115.86 49.0901 116.81C48.0701 116.93 47.0601 117.09 46.0501 117.29C44.5401 117.03 43.0201 116.82 41.4801 116.68C41.2101 116.65 40.9401 116.64 40.6701 116.62C40.6801 116.66 40.6901 116.69 40.7001 116.72C40.7101 116.75 40.7201 116.77 40.7201 116.8C40.7401 116.85 40.7501 116.9 40.7701 116.96C42.2401 117.07 43.6801 117.25 45.1201 117.49C43.8301 117.78 42.5701 118.14 41.3201 118.58C41.3501 118.68 41.3901 118.78 41.4201 118.88C42.3401 118.56 43.2701 118.28 44.2101 118.04C44.7901 117.89 45.3701 117.76 45.9601 117.64C48.8401 118.14 51.6901 118.82 54.5701 119.47C56.6601 119.94 58.7401 120.31 60.8401 120.55C60.8601 120.55 60.8801 120.55 60.9001 120.56C63.7901 120.89 66.7101 120.99 69.6701 120.82C72.4801 120.66 75.2701 120.3 78.0401 119.84C81.9501 120.53 85.8701 121.12 89.8401 121.35C100.44 121.97 110.86 119.44 121.24 117.71C122.25 117.54 123.26 117.39 124.27 117.24C126.73 117.97 129.21 118.62 131.75 119.06C136.61 119.89 141.37 119.46 146.16 118.42C147.42 118.15 148.67 117.84 149.92 117.54C151.03 117.76 152.14 118 153.24 118.28C154.97 118.71 156.66 119.24 158.33 119.81C158.37 119.7 158.4 119.59 158.44 119.47C156.56 118.83 154.64 118.28 152.71 117.81C152.04 117.64 151.36 117.49 150.68 117.35C152.59 116.89 154.5 116.42 156.43 116.06C157.47 115.86 158.51 115.7 159.55 115.57C159.58 115.46 159.61 115.35 159.63 115.24C159.37 115.27 159.12 115.3 158.87 115.33C155.84 115.74 152.87 116.47 149.9 117.2C145.77 116.38 141.56 115.95 137.35 115.89C132.95 115.84 128.59 116.27 124.25 116.9C122.01 116.24 119.79 115.51 117.56 114.83C122.49 114.93 127.41 115.23 132.32 115.47C141.41 115.92 150.72 116.19 159.75 114.86ZM67.8501 120.56C62.5101 120.73 57.4001 119.78 52.2201 118.57C50.4601 118.16 48.7101 117.77 46.9401 117.44C50.7001 116.78 54.5601 116.69 58.3701 116.9C64.6601 117.25 70.8301 118.53 77.0201 119.63C73.9801 120.12 70.9301 120.47 67.8501 120.56ZM137.37 116.21C141.32 116.24 145.27 116.64 149.15 117.37C147.33 117.81 145.51 118.24 143.66 118.58C138.51 119.53 133.5 119.24 128.43 118.03C127.29 117.76 126.16 117.45 125.03 117.12C129.12 116.55 133.23 116.18 137.37 116.21ZM117.63 115.18C119.6 115.78 121.56 116.41 123.53 117.01C118.93 117.71 114.35 118.62 109.76 119.41C109.71 119.42 109.67 119.43 109.62 119.43C108.42 119.64 107.23 119.83 106.03 120.01C104.87 120.19 103.71 120.35 102.55 120.49C102.53 120.49 102.5 120.5 102.48 120.5C98.2901 121 94.0701 121.25 89.8501 121.02C86.1901 120.82 82.5601 120.3 78.9401 119.68C85.9601 118.47 92.8901 116.65 99.9401 115.67C105.39 114.91 110.88 114.73 116.37 114.81C116.79 114.93 117.21 115.05 117.63 115.18Z" fill="#CB9732"/>
        <path d="M146.64 136.14C145.61 134.61 144.06 133.6 142.73 132.37C141.47 131.2 140.38 129.87 139.44 128.44C139.9 128.42 140.35 128.39 140.81 128.36C141.56 128.31 143.1 128.37 142.74 127.18C142.12 125.14 141.52 123.09 140.88 121.06C140.6 120.15 140.25 119.29 139.76 118.51C140.83 118.58 141.99 118.67 142.91 118.31C143.06 118.25 143.16 118.09 143.07 117.93C141.93 115.96 140.65 114.17 139.26 112.37C138.98 112.01 137.39 109.76 137.04 111.34C137.03 111.35 137.04 111.37 137.04 111.38C137.02 111.4 137 111.41 136.99 111.44C135.72 113.56 134.61 115.76 133.65 118.03C133.57 118.21 133.66 118.42 133.87 118.42C135.07 118.43 136.27 118.44 137.47 118.45C135.67 121.44 134.47 124.73 133.93 128.2C133.9 128.38 134.04 128.5 134.21 128.51C135.32 128.53 136.43 128.53 137.54 128.5C135.9 130.93 134.29 133.39 132.74 135.88C132.63 136.06 132.78 136.25 132.96 136.27C137.33 136.65 141.71 136.76 146.09 136.59C146.18 136.59 146.24 136.55 146.28 136.49C146.48 136.61 146.8 136.38 146.64 136.14Z" fill="white"/>
        <path d="M91.7499 119.39C90.5499 117.85 89.47 116.23 88.52 114.53C89.46 114.52 90.39 114.5 91.33 114.47C91.63 114.46 91.7399 114.13 91.5599 113.91C90.6999 112.86 89.9099 111.78 89.1599 110.66C89.5799 110.67 90 110.68 90.42 110.69C90.57 110.69 90.68 110.59 90.73 110.45C91.03 109.61 90.79 108.9 90.4 108.13C89.75 106.83 88.92 105.6 88.18 104.34C88.13 104.26 88.07 104.22 88.01 104.2C87.98 104.06 87.89 103.94 87.71 103.94C87.69 103.94 87.67 103.95 87.65 103.95C87.52 103.9 87.3699 103.93 87.2799 104.09C86.6599 105.26 86.0799 106.44 85.5299 107.64C85.2899 108.17 84.41 109.49 84.58 110.11C84.76 110.74 85.79 110.57 86.23 110.58C86.32 110.58 86.42 110.58 86.52 110.59C85.57 111.68 84.68 112.81 83.83 113.99C83.68 114.2 83.89 114.48 84.11 114.48C84.91 114.5 85.71 114.52 86.51 114.52C85.56 116.15 84.6099 117.77 83.6599 119.39C83.5399 119.61 83.6999 119.88 83.9399 119.88C86.4599 119.9 88.9799 119.92 91.4999 119.94C91.8299 119.95 91.9199 119.6 91.7499 119.39Z" fill="white"/>
        <path d="M112.95 119.01C111.75 117.47 110.67 115.85 109.72 114.15C110.66 114.14 111.59 114.12 112.53 114.09C112.83 114.08 112.94 113.75 112.76 113.53C111.9 112.48 111.11 111.4 110.36 110.28C110.78 110.29 111.2 110.3 111.62 110.31C111.77 110.31 111.88 110.21 111.93 110.07C112.23 109.23 111.99 108.52 111.6 107.75C110.95 106.45 110.12 105.21 109.38 103.96C109.33 103.88 109.27 103.84 109.21 103.82C109.18 103.68 109.09 103.56 108.91 103.56C108.89 103.56 108.87 103.57 108.85 103.57C108.72 103.52 108.57 103.55 108.48 103.71C107.86 104.88 107.28 106.06 106.73 107.26C106.49 107.79 105.61 109.11 105.78 109.73C105.96 110.36 106.99 110.19 107.43 110.2C107.52 110.2 107.62 110.2 107.72 110.21C106.77 111.3 105.88 112.43 105.03 113.61C104.88 113.82 105.09 114.1 105.31 114.1C106.11 114.12 106.91 114.14 107.71 114.14C106.76 115.77 105.81 117.39 104.86 119.01C104.74 119.23 104.9 119.5 105.14 119.5C107.66 119.52 110.18 119.54 112.7 119.56C113.03 119.57 113.12 119.22 112.95 119.01Z" fill="white"/>
        <path d="M70.5 114.14C69.86 113.19 68.9 112.56 68.07 111.79C67.4 111.17 66.82 110.48 66.29 109.74C66.99 109.78 67.78 109.87 68.4 109.63C68.5 109.59 68.55 109.49 68.5 109.39C67.79 108.16 66.99 107.05 66.12 105.93C66.09 105.89 66.03 105.81 65.95 105.71C66.27 105.7 66.59 105.68 66.91 105.66C67.38 105.63 68.34 105.67 68.11 104.93C67.73 103.66 67.35 102.38 66.95 101.11C66.67 100.21 66.28 99.3701 65.59 98.7101C65.53 98.6501 65.47 98.6601 65.41 98.6901C65.36 98.6801 65.32 98.7001 65.28 98.7501C63.9 100.81 62.99 103.11 62.61 105.56C62.59 105.67 62.68 105.75 62.78 105.75C63.34 105.76 63.9 105.76 64.45 105.75C63.76 106.95 63.15 108.18 62.61 109.45C62.56 109.56 62.61 109.69 62.75 109.69C63.36 109.7 63.98 109.7 64.59 109.71C63.64 111.12 62.72 112.54 61.82 113.97C61.75 114.08 61.84 114.2 61.96 114.21C64.68 114.45 67.41 114.51 70.14 114.41C70.19 114.41 70.23 114.38 70.26 114.35C70.4 114.43 70.6 114.29 70.5 114.14Z" fill="white"/>
        <path d="M52.33 118.58C51.24 116.71 49.88 114.95 48.6 113.19C48.66 113.19 48.72 113.2 48.78 113.2C49.19 113.23 52.55 114.09 51.85 112.51C51.04 110.68 49.48 109.36 48.39 107.73C48.76 107.75 49.14 107.76 49.51 107.76C50.2 107.77 51.92 108.15 52.19 107.17C52.42 106.32 50.8 104.72 50.41 104.03C49.43 102.32 48.82 100.43 48.45 98.5C48.42 98.35 48.31 98.27 48.19 98.26C48.06 98.11 47.79 98.07 47.64 98.29C45.88 100.99 44.5 103.86 43.51 106.92C43.43 107.15 43.62 107.31 43.82 107.34C44.71 107.46 45.59 107.55 46.48 107.62C46.02 108.45 45.47 109.23 44.93 110.02C44.43 110.76 43.86 111.54 43.77 112.45C43.73 112.84 44.2 113.2 44.55 113.2C45.17 113.2 45.8 113.19 46.41 113.18C45.19 115 43.71 116.87 43.28 119.03C43.24 119.24 43.37 119.44 43.6 119.44C46.14 119.54 48.68 119.64 51.22 119.74C51.81 119.76 52.77 119.33 52.33 118.58Z" fill="white"/>
        <path d="M65.43 138.41C64.34 136.54 62.98 134.78 61.7 133.02C61.76 133.02 61.82 133.03 61.88 133.03C62.29 133.06 65.65 133.92 64.95 132.34C64.14 130.51 62.58 129.19 61.49 127.56C61.86 127.58 62.24 127.59 62.61 127.59C63.3 127.6 65.02 127.98 65.29 127C65.52 126.15 63.9 124.55 63.51 123.86C62.53 122.15 61.92 120.26 61.55 118.33C61.52 118.18 61.41 118.1 61.29 118.09C61.16 117.94 60.89 117.9 60.74 118.12C58.98 120.82 57.6 123.69 56.61 126.75C56.53 126.98 56.72 127.14 56.92 127.17C57.81 127.29 58.69 127.38 59.58 127.45C59.12 128.28 58.57 129.06 58.03 129.85C57.53 130.59 56.96 131.37 56.87 132.28C56.83 132.67 57.3 133.03 57.65 133.03C58.27 133.03 58.9 133.02 59.51 133.01C58.29 134.83 56.81 136.7 56.38 138.86C56.34 139.07 56.47 139.27 56.7 139.27C59.24 139.37 61.78 139.47 64.32 139.57C64.91 139.58 65.87 139.16 65.43 138.41Z" fill="white"/>
        <path d="M151.48 115.48C150.78 114.27 149.9 113.14 149.08 112.01C149.12 112.01 149.16 112.01 149.2 112.02C149.46 112.04 151.62 112.59 151.17 111.57C150.65 110.39 149.64 109.54 148.95 108.49C149.19 108.5 149.43 108.51 149.67 108.51C150.11 108.52 151.22 108.76 151.39 108.13C151.54 107.58 150.5 106.55 150.24 106.11C149.61 105.01 149.22 103.79 148.98 102.55C148.96 102.45 148.89 102.4 148.82 102.4C148.74 102.31 148.56 102.28 148.47 102.42C147.34 104.15 146.45 106 145.81 107.97C145.76 108.12 145.88 108.22 146.01 108.24C146.58 108.32 147.15 108.37 147.72 108.42C147.43 108.96 147.07 109.45 146.72 109.96C146.4 110.43 146.03 110.94 145.97 111.52C145.94 111.77 146.25 112 146.47 112C146.87 112 147.27 111.99 147.67 111.99C146.89 113.16 145.93 114.36 145.65 115.75C145.62 115.89 145.71 116.01 145.85 116.02C147.48 116.09 149.12 116.15 150.75 116.22C151.15 116.24 151.76 115.97 151.48 115.48Z" fill="white"/>
        <path d="M93.47 55.7598C92.58 55.9598 91.7 56.1498 90.81 56.3398C91.31 55.5698 91.7801 54.7798 92.2401 53.9898C92.4501 53.6298 91.8901 53.2998 91.6801 53.6598C91.2401 54.4098 90.79 55.1598 90.32 55.8998C90.25 54.7598 90.2 53.3598 90.67 52.7298C90.92 52.3898 90.35 52.0698 90.1101 52.3998C89.4501 53.2798 89.7401 54.7798 89.7401 55.8198C89.7401 55.9798 89.7401 56.1398 89.7401 56.2998C89.1101 55.8698 88.4401 55.5198 87.6501 55.3798C87.2401 55.3098 87.06 55.9398 87.48 56.0098C88.11 56.1198 88.67 56.3698 89.19 56.6898C87.97 56.9498 86.76 57.2098 85.54 57.4598C85.13 57.5498 85.3001 58.1798 85.7101 58.0898C86.9301 57.8398 88.1501 57.5798 89.3701 57.3198C88.8801 57.9898 88.3701 58.6398 87.8001 59.2498C87.5101 59.5598 87.97 60.0198 88.26 59.7098C88.8 59.1298 89.3 58.5198 89.76 57.8798C89.78 58.8798 89.8101 59.8798 89.8601 60.8698C89.8801 61.2898 90.53 61.2898 90.51 60.8698C90.46 59.7698 90.43 58.6698 90.41 57.5598C91.28 58.2598 92.14 59.0198 93.17 59.4398C93.56 59.5998 93.7301 58.9598 93.3401 58.8098C92.3401 58.4098 91.53 57.6998 90.7 57.0198C91.69 56.8098 92.6701 56.5898 93.6501 56.3798C94.0601 56.2998 93.88 55.6598 93.47 55.7598Z" fill="#CB9732"/>
        <path d="M115.5 55.9999L113.3 56.7598C113.79 56.0598 114.26 55.3598 114.7 54.6298C114.92 54.2698 114.36 53.9399 114.14 54.2999C113.54 55.2699 112.9 56.2098 112.22 57.1298L111.77 57.2799C111.61 56.5599 111.43 55.8499 111.21 55.1399C111.09 54.7399 110.45 54.9098 110.58 55.3098C110.77 55.9098 110.92 56.5199 111.07 57.1399C110.4 56.9299 109.71 56.7499 109.02 56.5799C108.61 56.4799 108.44 57.1098 108.85 57.2098C109.44 57.3498 110.03 57.5098 110.61 57.6798L107.52 58.7499C107.12 58.8899 107.29 59.5198 107.69 59.3798L111.3 58.1298C111.31 58.1898 111.32 58.2399 111.33 58.2999C110.7 59.0999 110.05 59.8799 109.37 60.6399C109.09 60.9499 109.55 61.4198 109.83 61.0998C110.4 60.4698 110.95 59.8298 111.48 59.1698C111.56 59.6598 111.63 60.1499 111.68 60.6399C111.72 61.0599 112.38 61.0599 112.33 60.6399C112.26 59.9199 112.15 59.1998 112.02 58.4898C112.09 58.3998 112.16 58.2998 112.23 58.2098C113.08 58.5098 113.92 58.8499 114.74 59.2199C115.12 59.3899 115.45 58.8299 115.07 58.6599C114.27 58.2999 113.47 57.9698 112.65 57.6698L115.67 56.6298C116.07 56.4998 115.9 55.8599 115.5 55.9999Z" fill="#CB9732"/>
        <path d="M131.96 58.3798L129.62 58.7698C130 58.3598 130.38 57.9298 130.74 57.4898C131.01 57.1698 130.55 56.6998 130.28 57.0298C129.76 57.6598 129.2 58.2698 128.63 58.8498C128.57 58.8198 128.51 58.7798 128.45 58.7498V56.5098C128.45 56.0898 127.8 56.0898 127.8 56.5098V58.3798C127.44 58.1698 127.07 57.9498 126.71 57.7298C126.35 57.5098 126.02 58.0798 126.38 58.2898C126.82 58.5598 127.27 58.8298 127.72 59.0898L124.98 59.5498C124.56 59.6198 124.74 60.2498 125.15 60.1798L127.71 59.7498C127.08 60.3398 126.43 60.9098 125.74 61.4398C125.41 61.6998 125.87 62.1598 126.2 61.8998C126.75 61.4698 127.27 61.0198 127.79 60.5598V61.5198C127.79 61.9398 128.44 61.9398 128.44 61.5198V59.9598C128.54 59.8598 128.64 59.7598 128.74 59.6698C129.35 60.0098 129.97 60.3398 130.6 60.6598C130.98 60.8498 131.31 60.2898 130.93 60.0998C130.5 59.8798 130.08 59.6598 129.66 59.4298L132.13 59.0198C132.55 58.9498 132.37 58.3098 131.96 58.3798Z" fill="#CB9732"/>
        <path d="M140.51 76.0498L138.17 76.4398C138.55 76.0298 138.93 75.5998 139.29 75.1598C139.56 74.8398 139.1 74.3698 138.83 74.6998C138.31 75.3298 137.75 75.9397 137.18 76.5197C137.12 76.4897 137.06 76.4498 137 76.4198V74.1797C137 73.7597 136.35 73.7597 136.35 74.1797V76.0498C135.99 75.8398 135.62 75.6197 135.26 75.3997C134.9 75.1797 134.57 75.7497 134.93 75.9597C135.37 76.2297 135.82 76.4997 136.27 76.7597L133.53 77.2198C133.11 77.2898 133.29 77.9197 133.7 77.8497L136.26 77.4198C135.63 78.0098 134.98 78.5798 134.29 79.1098C133.96 79.3698 134.42 79.8297 134.75 79.5697C135.3 79.1397 135.82 78.6897 136.34 78.2297V79.1898C136.34 79.6098 136.99 79.6098 136.99 79.1898V77.6297C137.09 77.5297 137.19 77.4297 137.29 77.3397C137.9 77.6797 138.52 78.0098 139.15 78.3298C139.53 78.5198 139.86 77.9597 139.48 77.7697C139.05 77.5497 138.63 77.3297 138.21 77.0997L140.68 76.6898C141.1 76.6098 140.92 75.9798 140.51 76.0498Z" fill="#CB9732"/>
        <path d="M121.81 77.3499C122.09 77.0399 121.63 76.5799 121.35 76.8899C120.7 77.5999 119.94 78.1499 119.15 78.6699C118.94 78.6699 118.73 78.6699 118.52 78.6699C118.52 78.1499 118.59 77.6099 119 77.3699C119.36 77.1599 119.03 76.5899 118.67 76.8099C118.18 77.0999 117.97 77.5699 117.92 78.1299C117.91 78.2399 117.91 78.3399 117.9 78.4499C117.31 78.1399 116.73 77.8399 116.74 77.8299C116.94 77.4599 116.38 77.1299 116.18 77.4999C115.85 78.0999 116.51 78.4799 117.04 78.7499C116.45 78.7899 115.86 78.8399 115.27 78.9099C114.86 78.9599 114.85 79.6199 115.27 79.5599C116.14 79.4499 117.01 79.3799 117.88 79.3399C117.88 79.3799 117.88 79.4199 117.88 79.4599C117.03 79.9799 116.04 80.5599 115.67 81.4899C115.51 81.8799 116.15 82.0499 116.3 81.6599C116.54 81.0599 117.19 80.5799 117.87 80.1599C117.87 80.5199 117.87 80.8899 117.87 81.2499C117.86 81.6699 118.52 81.6699 118.52 81.2499C118.53 80.7599 118.53 80.2699 118.54 79.7799C118.63 79.7299 118.71 79.6899 118.79 79.6399C119.39 79.9699 119.97 80.3399 120.46 80.8499C120.76 81.1499 121.22 80.6899 120.92 80.3899C120.5 79.9599 120.04 79.6199 119.54 79.3099C120.15 79.3099 120.76 79.3199 121.37 79.3599C121.79 79.3899 121.79 78.7299 121.37 78.7099C121.01 78.6899 120.66 78.6799 120.3 78.6699C120.84 78.2899 121.35 77.8599 121.81 77.3499Z" fill="#CB9732"/>
        <path d="M102.39 78.66C101.3 78.79 100.21 78.9399 99.12 79.0999C99.05 79.0199 98.99 78.94 98.92 78.86C99.06 77.97 99.13 77.06 99.13 76.14C99.13 75.72 98.4701 75.72 98.4801 76.14C98.4801 76.82 98.44 77.4999 98.36 78.17C98.05 77.77 97.74 77.3699 97.45 76.9499C97.21 76.6099 96.64 76.93 96.89 77.28C97.31 77.89 97.77 78.4699 98.24 79.0399C98.23 79.0999 98.22 79.1699 98.21 79.2299C96.89 79.4299 95.57 79.6499 94.26 79.8999C93.85 79.9799 94.02 80.61 94.43 80.53C95.47 80.34 96.51 80.16 97.56 80C96.85 80.82 96.13 81.6399 95.42 82.4599C95.14 82.7799 95.61 83.24 95.88 82.92C96.55 82.15 97.22 81.3799 97.89 80.5999C97.87 80.6799 97.85 80.7599 97.82 80.8499C97.7 81.2599 98.33 81.4299 98.45 81.0199C98.57 80.6199 98.67 80.21 98.76 79.8C98.8 79.79 98.83 79.79 98.87 79.78C99.56 80.57 100.3 81.3199 101.08 82.0199C101.39 82.2999 101.86 81.8399 101.54 81.5599C100.87 80.9599 100.24 80.3299 99.64 79.67C100.56 79.5399 101.47 79.4199 102.39 79.3099C102.8 79.2599 102.81 78.61 102.39 78.66Z" fill="#CB9732"/>
        <path d="M102.39 39.4598C101.3 39.5898 100.21 39.7398 99.12 39.8998C99.05 39.8198 98.99 39.7398 98.92 39.6598C99.06 38.7698 99.13 37.8598 99.13 36.9398C99.13 36.5198 98.4701 36.5198 98.4801 36.9398C98.4801 37.6198 98.44 38.2998 98.36 38.9698C98.05 38.5698 97.74 38.1698 97.45 37.7498C97.21 37.4098 96.64 37.7298 96.89 38.0798C97.31 38.6898 97.77 39.2698 98.24 39.8398C98.23 39.8998 98.22 39.9698 98.21 40.0298C96.89 40.2298 95.57 40.4498 94.26 40.6998C93.85 40.7798 94.02 41.4098 94.43 41.3298C95.47 41.1398 96.51 40.9598 97.56 40.7998C96.85 41.6198 96.13 42.4398 95.42 43.2598C95.14 43.5798 95.61 44.0398 95.88 43.7198C96.55 42.9498 97.22 42.1798 97.89 41.3998C97.87 41.4798 97.85 41.5598 97.82 41.6498C97.7 42.0598 98.33 42.2298 98.45 41.8198C98.57 41.4198 98.67 41.0098 98.76 40.5998C98.8 40.5898 98.83 40.5898 98.87 40.5798C99.56 41.3698 100.3 42.1198 101.08 42.8198C101.39 43.0998 101.86 42.6398 101.54 42.3598C100.87 41.7598 100.24 41.1298 99.64 40.4698C100.56 40.3398 101.47 40.2198 102.39 40.1098C102.8 40.0698 102.81 39.4098 102.39 39.4598Z" fill="#CB9732"/>
        <path d="M85.5201 39.9299L83.1801 40.3199C83.5601 39.9099 83.9401 39.4799 84.3001 39.0399C84.5701 38.7199 84.1101 38.2499 83.8401 38.5799C83.3201 39.2099 82.7601 39.8199 82.1901 40.3999C82.1301 40.3699 82.0701 40.3299 82.0101 40.2999V38.0599C82.0101 37.6399 81.3601 37.6399 81.3601 38.0599V39.9299C81.0001 39.7199 80.6301 39.4999 80.2701 39.2799C79.9101 39.0599 79.5801 39.6299 79.9401 39.8399C80.3801 40.1099 80.8301 40.3799 81.2801 40.6399L78.5401 41.0999C78.1201 41.1699 78.3001 41.7999 78.7101 41.7299L81.2701 41.2999C80.6401 41.8899 79.9901 42.4599 79.3001 42.9899C78.9701 43.2499 79.4301 43.7099 79.7601 43.4499C80.3101 43.0199 80.8301 42.5699 81.3501 42.1099V43.0699C81.3501 43.4899 82.0001 43.4899 82.0001 43.0699V41.5099C82.1001 41.4099 82.2001 41.3099 82.3001 41.2199C82.9101 41.5599 83.5301 41.8899 84.1601 42.2099C84.5401 42.3999 84.8701 41.8399 84.4901 41.6499C84.0601 41.4299 83.6401 41.2099 83.2201 40.9799L85.6901 40.5699C86.1101 40.4899 85.9401 39.8599 85.5201 39.9299Z" fill="#CB9732"/>
        <path d="M124.29 35.8599C123.2 35.9899 122.11 36.1399 121.02 36.2999C120.95 36.2199 120.89 36.1399 120.82 36.0599C120.96 35.1699 121.03 34.2599 121.03 33.3399C121.03 32.9199 120.37 32.9199 120.38 33.3399C120.38 34.0199 120.34 34.6999 120.26 35.3699C119.95 34.9699 119.64 34.5699 119.35 34.1499C119.11 33.8099 118.54 34.1299 118.79 34.4799C119.21 35.0899 119.67 35.6699 120.14 36.2399C120.13 36.2999 120.12 36.3699 120.11 36.4299C118.79 36.6299 117.47 36.8499 116.16 37.0999C115.75 37.1799 115.92 37.8099 116.33 37.7299C117.37 37.5399 118.41 37.3599 119.46 37.1999C118.75 38.0199 118.03 38.8399 117.32 39.6599C117.04 39.9799 117.51 40.4399 117.78 40.1199C118.45 39.3499 119.12 38.5799 119.79 37.7999C119.77 37.8799 119.75 37.9599 119.72 38.0499C119.6 38.4599 120.23 38.6299 120.35 38.2199C120.47 37.8199 120.57 37.4099 120.66 36.9999C120.7 36.9899 120.73 36.9899 120.77 36.9799C121.46 37.7699 122.2 38.5199 122.98 39.2199C123.29 39.4999 123.76 39.0399 123.44 38.7599C122.77 38.1599 122.14 37.5299 121.54 36.8699C122.46 36.7399 123.37 36.6199 124.29 36.5099C124.7 36.4699 124.71 35.8099 124.29 35.8599Z" fill="#CB9732"/>
        <path d="M55.35 71.15C54.8 70.84 54.24 70.55 53.68 70.28C54.19 70.08 54.72 69.9 55.25 69.75C55.65 69.63 55.48 69 55.08 69.12C54.79 69.2 54.5 69.3 54.22 69.39L54.87 68.49C55.12 68.15 54.55 67.82 54.31 68.16C53.91 68.71 53.51 69.25 53.11 69.8C53.04 69.83 52.97 69.86 52.9 69.89C52.45 69.27 51.96 68.67 51.43 68.11C51.14 67.8 50.68 68.27 50.97 68.57C51.24 68.85 51.49 69.15 51.74 69.45C51.61 69.4 51.48 69.34 51.34 69.3C50.94 69.15 50.77 69.79 51.17 69.93C51.47 70.04 51.76 70.16 52.06 70.28C51.44 70.58 50.83 70.92 50.23 71.29C49.87 71.51 50.2 72.08 50.56 71.85C51.14 71.49 51.73 71.16 52.34 70.87C52.06 71.26 51.77 71.64 51.49 72.03C51.24 72.37 51.81 72.7 52.05 72.36C52.35 71.95 52.65 71.54 52.95 71.13C53.16 71.46 53.35 71.79 53.54 72.13C53.74 72.5 54.31 72.17 54.1 71.8C53.95 71.52 53.79 71.26 53.62 70.99C54.09 71.22 54.56 71.46 55.01 71.72C55.39 71.93 55.72 71.36 55.35 71.15Z" fill="#CB9732"/>
        <path d="M93.72 93.7298C93.17 93.4198 92.61 93.1298 92.05 92.8598C92.56 92.6598 93.09 92.4798 93.62 92.3298C94.02 92.2098 93.85 91.5798 93.45 91.6998C93.16 91.7798 92.87 91.8798 92.59 91.9698L93.24 91.0698C93.49 90.7298 92.92 90.3998 92.68 90.7398C92.28 91.2898 91.88 91.8298 91.48 92.3798C91.41 92.4098 91.34 92.4398 91.27 92.4698C90.82 91.8498 90.33 91.2498 89.8 90.6898C89.51 90.3798 89.05 90.8498 89.34 91.1498C89.61 91.4298 89.86 91.7298 90.11 92.0298C89.98 91.9798 89.85 91.9198 89.71 91.8798C89.31 91.7298 89.14 92.3698 89.54 92.5098C89.84 92.6198 90.13 92.7398 90.43 92.8598C89.81 93.1598 89.2 93.4998 88.6 93.8698C88.24 94.0898 88.57 94.6598 88.93 94.4298C89.51 94.0698 90.1 93.7398 90.71 93.4498C90.43 93.8398 90.14 94.2198 89.86 94.6098C89.61 94.9498 90.18 95.2798 90.42 94.9398C90.72 94.5298 91.02 94.1198 91.32 93.7098C91.53 94.0298 91.72 94.3698 91.91 94.7098C92.11 95.0798 92.68 94.7498 92.47 94.3798C92.32 94.0998 92.16 93.8398 91.99 93.5698C92.46 93.7998 92.93 94.0398 93.38 94.2998C93.76 94.4998 94.09 93.9398 93.72 93.7298Z" fill="#CB9732"/>
        <path d="M68.6999 50.8098C68.2799 50.7598 67.8699 50.7098 67.4499 50.6698C67.8699 50.3698 68.2799 50.0498 68.6699 49.6998C68.9799 49.4098 68.5199 48.9498 68.2099 49.2398C67.6599 49.7498 67.0499 50.1898 66.4299 50.5998C66.2699 50.5898 66.1099 50.5798 65.9399 50.5698C65.9599 50.0398 65.9799 49.5198 66.0199 48.9898C66.0499 48.5698 65.3899 48.5698 65.3699 48.9898C65.3399 49.4898 65.3199 49.9898 65.2999 50.4898C64.7799 49.8698 64.2599 49.2498 63.7299 48.6198C63.4599 48.2998 62.9999 48.7598 63.2699 49.0798C63.6699 49.5498 64.0699 50.0298 64.4599 50.4998C63.8399 50.4898 63.2199 50.4898 62.5999 50.5098C62.1799 50.5198 62.1799 51.1798 62.5999 51.1598C63.4099 51.1298 64.2199 51.1398 65.0199 51.1598C65.0699 51.2198 65.1299 51.2898 65.1799 51.3498C63.9699 52.0798 62.7499 52.7898 61.7299 53.7798C61.4299 54.0698 61.8899 54.5398 62.1899 54.2398C63.0999 53.3598 64.1699 52.6898 65.2399 52.0498C65.2099 53.5998 65.2199 55.1598 65.2999 56.7098C65.3199 57.1298 65.9699 57.1298 65.9499 56.7098C65.8799 55.2098 65.8599 53.7098 65.8899 52.2098C66.3999 52.8198 66.9199 53.4298 67.4299 54.0398C67.6999 54.3598 68.1599 53.8998 67.8899 53.5798C67.3099 52.8898 66.7299 52.1998 66.1499 51.4998C66.2899 51.4098 66.4299 51.3298 66.5699 51.2398C67.2799 51.2898 67.9899 51.3598 68.6999 51.4498C69.1199 51.5198 69.1099 50.8698 68.6999 50.8098Z" fill="#CB9732"/>
        <path d="M54.63 89.58C53.91 89.52 53.2 89.46 52.48 89.4C52.56 89.35 52.63 89.3 52.71 89.26C53.07 89.04 52.74 88.48 52.38 88.7C52.08 88.88 51.79 89.06 51.5 89.25V89.24C51.53 88.94 51.55 88.63 51.56 88.32C51.56 88.06 51.29 87.94 51.09 88.03C51.03 87.82 50.96 87.61 50.9 87.4C50.79 86.99 50.16 87.17 50.27 87.57C50.37 87.95 50.49 88.33 50.62 88.7C50.51 88.89 50.39 89.08 50.28 89.26C49.52 89.22 48.76 89.11 48.16 88.72C47.8 88.49 47.48 89.06 47.83 89.28C48.55 89.74 49.33 89.78 50.16 89.85L50.55 89.88C50.25 90.09 49.95 90.3 49.66 90.53C49.33 90.78 49.66 91.35 49.99 91.09C50.2 90.93 50.4 90.78 50.61 90.63C50.47 91.23 50.28 91.81 50.03 92.39C49.87 92.77 50.43 93.11 50.59 92.72C50.91 91.97 51.15 91.22 51.31 90.44C51.47 90.79 51.63 91.13 51.81 91.46C52.01 91.83 52.57 91.5 52.37 91.13C52.17 90.75 51.99 90.37 51.82 89.98C52.76 90.06 53.69 90.13 54.63 90.21C55.05 90.27 55.05 89.61 54.63 89.58Z" fill="#CB9732"/>
        <path d="M79.45 88.2798C79.19 88.0998 78.93 87.9898 78.65 87.9198C78.88 87.7098 78.58 87.2598 78.24 87.4198C77.99 87.5298 77.74 87.6598 77.5 87.7798C77.68 87.1198 77.79 86.4398 77.84 85.7398C77.87 85.3198 77.22 85.3198 77.19 85.7398C77.14 86.3798 77.04 86.9998 76.87 87.5998C76.78 87.3998 76.7 87.1998 76.61 86.9898C76.51 86.7598 76.16 86.7998 76.05 86.9898C75.91 87.2198 75.78 87.4398 75.64 87.6698C75.15 87.6398 74.66 87.6098 74.16 87.5798C73.74 87.5598 73.74 88.2098 74.16 88.2298C74.56 88.2498 74.96 88.2798 75.36 88.2998C75.42 88.5398 75.79 88.6798 75.96 88.3998C75.97 88.3798 75.98 88.3598 76 88.3398C76.1 88.3498 76.2 88.3498 76.31 88.3598C75.9 88.5798 75.49 88.7998 75.08 89.0398C74.72 89.2498 75.05 89.8198 75.41 89.5998C75.71 89.4198 76.03 89.2598 76.34 89.0898C76.17 89.4598 75.99 89.8098 75.77 90.1598C75.55 90.5198 76.12 90.8498 76.33 90.4898C76.55 90.1198 76.75 89.7398 76.93 89.3598L77.22 90.0398C77.39 90.4298 77.95 90.0898 77.78 89.7098C77.62 89.3298 77.45 88.9498 77.29 88.5698C77.4 88.5098 77.52 88.4598 77.64 88.3998C78.17 88.4298 78.7 88.5198 79.12 88.8198C79.46 89.0898 79.79 88.5298 79.45 88.2798Z" fill="#CB9732"/>
        <path d="M145.29 54.3899C145.03 54.2099 144.77 54.0999 144.49 54.0299C144.72 53.8199 144.42 53.3699 144.08 53.5299C143.83 53.6399 143.58 53.7699 143.34 53.8899C143.52 53.2299 143.63 52.5499 143.68 51.8499C143.71 51.4299 143.06 51.4299 143.03 51.8499C142.98 52.4899 142.88 53.1099 142.71 53.7099C142.62 53.5099 142.54 53.3099 142.45 53.0999C142.35 52.8699 142 52.9099 141.89 53.0999C141.75 53.3299 141.62 53.5499 141.48 53.7799C140.99 53.7499 140.5 53.7199 140 53.6899C139.58 53.6699 139.58 54.3199 140 54.3399C140.4 54.3599 140.8 54.3899 141.2 54.4099C141.26 54.6499 141.63 54.7899 141.8 54.5099C141.81 54.4899 141.82 54.4699 141.84 54.4499C141.94 54.4599 142.04 54.4599 142.15 54.4699C141.74 54.6899 141.33 54.9099 140.92 55.1499C140.56 55.3599 140.88 55.9299 141.25 55.7099C141.55 55.5299 141.87 55.3699 142.18 55.1999C142.01 55.5699 141.83 55.9199 141.61 56.2699C141.39 56.6299 141.96 56.9599 142.17 56.5999C142.39 56.2299 142.59 55.8499 142.77 55.4699L143.06 56.1499C143.23 56.5399 143.79 56.1999 143.62 55.8199C143.46 55.4399 143.29 55.0599 143.13 54.6799C143.24 54.6199 143.36 54.5699 143.48 54.5099C144.01 54.5399 144.54 54.6299 144.96 54.9299C145.3 55.1999 145.63 54.6299 145.29 54.3899Z" fill="#CB9732"/>
        <path d="M47.63 104.74C47.12 104.6 46.61 104.45 46.09 104.31C46.31 104.22 46.53 104.12 46.76 104.03C47.15 103.87 46.98 103.24 46.59 103.4C46.34 103.5 46.09 103.61 45.84 103.71C45.99 103.02 46.14 102.33 46.29 101.64C46.38 101.23 45.75 101.05 45.66 101.47C45.58 101.86 45.49 102.24 45.41 102.63C45.3 102.28 45.2 101.93 45.11 101.58C45 101.17 44.37 101.35 44.48 101.75C44.68 102.48 44.9 103.2 45.14 103.91C45.13 103.95 45.12 103.98 45.12 104.02L42.31 103.23C41.9 103.12 41.73 103.75 42.14 103.86C42.83 104.05 43.52 104.25 44.21 104.44C43.6 104.72 43 105.01 42.41 105.31C42.03 105.5 42.37 106.07 42.74 105.87C43.47 105.5 44.21 105.15 44.96 104.81C44.86 105.25 44.77 105.7 44.67 106.14C44.58 106.55 45.21 106.73 45.3 106.31C45.39 105.9 45.48 105.49 45.56 105.08C45.69 105.45 45.83 105.82 45.97 106.19C46.12 106.58 46.75 106.41 46.6 106.02C46.47 105.68 46.34 105.34 46.22 105C46.64 105.12 47.06 105.24 47.48 105.36C47.86 105.48 48.03 104.85 47.63 104.74Z" fill="#CB9732"/>
        <path d="M159.28 82.7399C158.77 82.5999 158.26 82.4499 157.74 82.3099C157.96 82.2199 158.18 82.1199 158.41 82.0299C158.8 81.8699 158.63 81.2399 158.24 81.3999C157.99 81.4999 157.74 81.6099 157.49 81.7099C157.64 81.0199 157.79 80.3299 157.94 79.6399C158.03 79.2299 157.4 79.0499 157.31 79.4699C157.23 79.8599 157.14 80.2399 157.06 80.6299C156.95 80.2799 156.85 79.9299 156.76 79.5799C156.65 79.1699 156.02 79.3499 156.13 79.7499C156.33 80.4799 156.55 81.1999 156.79 81.9099C156.78 81.9499 156.77 81.9799 156.77 82.0199L153.96 81.2299C153.55 81.1199 153.38 81.7499 153.79 81.8599C154.48 82.0499 155.17 82.2499 155.86 82.4399C155.25 82.7199 154.65 83.0099 154.06 83.3099C153.68 83.4999 154.02 84.0699 154.39 83.8699C155.12 83.4999 155.86 83.1499 156.61 82.8099C156.51 83.2499 156.42 83.6999 156.32 84.1399C156.23 84.5499 156.86 84.7299 156.95 84.3099C157.04 83.8999 157.13 83.4899 157.22 83.0799C157.35 83.4499 157.49 83.8199 157.63 84.1899C157.78 84.5799 158.41 84.4099 158.26 84.0199C158.13 83.6799 158 83.3399 157.88 82.9999C158.3 83.1199 158.72 83.2399 159.14 83.3599C159.52 83.4799 159.69 82.8499 159.28 82.7399Z" fill="#CB9732"/>
        <path d="M131.31 89.1399C130.61 89.2599 129.92 89.3999 129.23 89.5399C129.48 89.3199 129.72 89.0999 129.98 88.8799C130.3 88.6099 129.84 88.1499 129.52 88.4199C129.3 88.6099 129.08 88.7999 128.86 88.9999C128.9 88.3899 128.89 87.7699 128.83 87.1399C128.79 86.7299 128.13 86.7199 128.18 87.1399C128.27 87.9599 128.25 88.7599 128.15 89.5599C127.67 89.2199 127.18 88.8999 126.68 88.5999C126.32 88.3799 125.99 88.9499 126.35 89.1599C126.76 89.3999 127.16 89.6599 127.55 89.9299C126.99 90.0699 126.42 90.2099 125.86 90.3699C125.45 90.4799 125.63 91.1099 126.03 90.9999C126.4 90.8999 126.78 90.7999 127.15 90.6999C126.69 91.1999 126.25 91.7099 125.83 92.2499C125.57 92.5799 126.03 93.0499 126.29 92.7099C126.79 92.0599 127.33 91.4499 127.89 90.8599C127.85 90.9999 127.81 91.1499 127.76 91.2899C127.63 91.6899 128.26 91.8599 128.39 91.4599C128.47 91.2099 128.54 90.9499 128.6 90.6999C129.25 91.2099 129.88 91.7499 130.47 92.3299C130.77 92.6299 131.23 92.1599 130.93 91.8699C130.34 91.2899 129.72 90.7499 129.07 90.2399C129.87 90.0599 130.68 89.8999 131.5 89.7599C131.9 89.6999 131.72 89.0699 131.31 89.1399Z" fill="#CB9732"/>
        <path d="M127.88 111.7C127.56 111.57 127.23 111.44 126.9 111.33C126.93 111.32 126.97 111.31 127 111.31C127.41 111.23 127.24 110.59 126.83 110.68C126.46 110.76 126.09 110.85 125.73 110.95C125.69 110.94 125.65 110.93 125.61 110.92C125.9 110.45 126.2 109.99 126.52 109.54C126.77 109.2 126.2 108.87 125.96 109.21C125.63 109.66 125.34 110.13 125.05 110.6C124.92 110.14 124.8 109.68 124.67 109.23C124.56 108.82 123.93 109 124.04 109.4L124.37 110.6C123.71 110.45 123.04 110.33 122.36 110.24C121.94 110.18 121.95 110.84 122.36 110.89C123.11 110.99 123.84 111.13 124.57 111.31C123.79 111.58 123.04 111.9 122.3 112.27C121.92 112.46 122.25 113.02 122.63 112.83C123.14 112.57 123.66 112.34 124.19 112.13C123.93 112.63 123.69 113.14 123.47 113.67C123.31 114.06 123.94 114.23 124.1 113.84C124.32 113.31 124.58 112.79 124.84 112.28C125.07 113.12 125.31 113.97 125.54 114.81C125.65 115.22 126.28 115.04 126.17 114.64C125.9 113.67 125.63 112.69 125.37 111.72C125.49 111.68 125.62 111.65 125.74 111.62C126.41 111.82 127.07 112.06 127.72 112.33C128.09 112.49 128.26 111.86 127.88 111.7Z" fill="#CB9732"/>
        <path d="M152.76 67.11C152.14 67.15 151.53 67.18 150.91 67.19C151.28 66.84 151.65 66.48 152.01 66.12C152.31 65.82 151.85 65.36 151.55 65.66C151.21 66 150.88 66.33 150.53 66.65C150.57 66.17 150.62 65.68 150.7 65.2C150.76 64.79 150.13 64.61 150.07 65.03C149.99 65.56 149.93 66.1 149.89 66.63C149.71 66.43 149.52 66.24 149.34 66.04C149.06 65.73 148.6 66.19 148.88 66.5C149.1 66.74 149.32 66.98 149.54 67.21C149.09 67.21 148.64 67.2 148.19 67.19C147.77 67.18 147.77 67.83 148.19 67.84C148.53 67.85 148.88 67.86 149.22 67.86C148.6 68.41 147.96 68.95 147.31 69.48C146.98 69.74 147.45 70.2 147.77 69.94C148.46 69.38 149.14 68.81 149.8 68.22C149.78 69.07 149.79 69.93 149.86 70.79C149.89 71.21 150.55 71.21 150.51 70.79C150.44 69.91 150.43 69.03 150.45 68.15C151.04 68.74 151.63 69.32 152.25 69.89C152.56 70.18 153.02 69.71 152.71 69.43C152.15 68.91 151.6 68.39 151.06 67.85C151.63 67.83 152.2 67.81 152.76 67.77C153.18 67.74 153.18 67.08 152.76 67.11Z" fill="#CB9732"/>
        <path d="M152.34 90.5098C151.91 90.0298 151.44 89.6298 150.91 89.2898C151.23 89.2398 151.55 89.1898 151.87 89.1398C152.29 89.0698 152.11 88.4398 151.7 88.5098C151.52 88.5398 151.35 88.5698 151.17 88.5998C151.3 88.3298 151.02 87.9598 150.73 88.1698C150.67 88.2098 150.62 88.2498 150.56 88.2998C150.58 87.8498 150.59 87.3998 150.61 86.9498C150.62 86.5298 149.97 86.5298 149.96 86.9498C149.94 87.5598 149.92 88.1698 149.9 88.7698C149.23 88.4998 148.54 88.2998 148.01 87.7498C147.72 87.4398 147.26 87.9098 147.55 88.2098C147.89 88.5698 148.29 88.7998 148.72 88.9998C148.41 89.0498 148.1 89.0998 147.78 89.1498C147.36 89.2198 147.54 89.8498 147.95 89.7798C148.22 89.7398 148.49 89.6898 148.76 89.6498C148.22 90.0698 147.69 90.4898 147.16 90.9298C146.83 91.1998 147.3 91.6598 147.62 91.3898C148.35 90.7798 149.1 90.1998 149.86 89.6298C149.85 89.9298 149.84 90.2398 149.83 90.5398C149.81 90.9598 150.47 90.9598 150.48 90.5398L150.51 89.8198C151.02 90.1298 151.47 90.5198 151.88 90.9798C152.16 91.2898 152.62 90.8198 152.34 90.5098Z" fill="#CB9732"/>
        <path d="M79.75 65.3099C79.17 64.7199 78.67 64.0799 78.25 63.3899C78.26 63.3499 78.27 63.3099 78.28 63.2699C78.72 62.9099 79.18 62.5699 79.67 62.2599C80.02 62.0299 79.69 61.4599 79.34 61.6999C79.13 61.8399 78.92 61.9799 78.71 62.1299C78.78 61.9699 78.86 61.8199 78.95 61.6599C79.16 61.2899 78.59 60.9599 78.39 61.3299C78.16 61.7399 77.97 62.1599 77.81 62.5899C77.68 62.3299 77.56 62.0699 77.46 61.7999C77.31 61.4099 76.68 61.5799 76.83 61.9699C76.99 62.3799 77.18 62.7799 77.38 63.1699C77.12 63.3999 76.86 63.6299 76.61 63.8699C76.31 64.1599 76.77 64.6299 77.07 64.3299C77.2 64.1999 77.34 64.0799 77.47 63.9599C77.42 64.2699 77.4 64.5899 77.39 64.9099C77.38 65.3299 78.03 65.3299 78.04 64.9099C78.05 64.7099 78.06 64.5099 78.08 64.3199C78.44 64.8299 78.84 65.3199 79.28 65.7699C79.58 66.0699 80.04 65.6099 79.75 65.3099Z" fill="#CB9732"/>
        <path d="M130.17 47.5698C129.75 47.4698 129.33 47.3498 128.92 47.2198C129.05 47.1998 129.19 47.1798 129.32 47.1598C129.73 47.1198 129.74 46.4598 129.32 46.5098C129.08 46.5398 128.84 46.5698 128.6 46.6198C128.62 46.4898 128.63 46.3698 128.66 46.2398C128.74 45.8298 128.11 45.6498 128.03 46.0698C127.99 46.3098 127.96 46.5398 127.93 46.7798C127.87 46.7998 127.82 46.8098 127.76 46.8298C127.21 46.6198 126.66 46.3998 126.13 46.1398C125.75 45.9598 125.42 46.5198 125.8 46.6998C126.15 46.8698 126.49 47.0198 126.85 47.1698C126.62 47.2798 126.38 47.3898 126.16 47.5198C125.79 47.7298 126.12 48.2998 126.49 48.0798C126.89 47.8498 127.31 47.6598 127.75 47.5098C127.8 47.5298 127.85 47.5498 127.9 47.5698C127.9 47.7498 127.91 47.9298 127.92 48.1098C127.95 48.5298 128.61 48.5298 128.57 48.1098C128.56 47.9998 128.56 47.8898 128.56 47.7798C129.04 47.9298 129.52 48.0698 130.01 48.1898C130.41 48.2998 130.58 47.6598 130.17 47.5698Z" fill="#CB9732"/>
        <path d="M69.3501 77.5298C68.2601 77.6598 67.1701 77.8098 66.0801 77.9698C66.0101 77.8898 65.9501 77.8098 65.8801 77.7298C66.0201 76.8398 66.0901 75.9298 66.0901 75.0098C66.0901 74.5898 65.4301 74.5898 65.4401 75.0098C65.4401 75.6898 65.4001 76.3698 65.3201 77.0398C65.0101 76.6398 64.7001 76.2398 64.4101 75.8198C64.1701 75.4798 63.6001 75.7998 63.8501 76.1498C64.2701 76.7598 64.7301 77.3398 65.2001 77.9098C65.1901 77.9698 65.1801 78.0398 65.1701 78.0998C63.8501 78.2998 62.5301 78.5198 61.2201 78.7698C60.8101 78.8498 60.9801 79.4798 61.3901 79.3998C62.4301 79.2098 63.4701 79.0298 64.5201 78.8698C63.8101 79.6898 63.0901 80.5098 62.3801 81.3298C62.1001 81.6498 62.5701 82.1098 62.8401 81.7898C63.5101 81.0198 64.1801 80.2498 64.8501 79.4698C64.8301 79.5498 64.8101 79.6298 64.7801 79.7198C64.6601 80.1298 65.2901 80.2998 65.4101 79.8898C65.5301 79.4898 65.6301 79.0798 65.7201 78.6698C65.7601 78.6598 65.7901 78.6598 65.8301 78.6498C66.5201 79.4398 67.2601 80.1898 68.0401 80.8898C68.3501 81.1698 68.8201 80.7098 68.5001 80.4298C67.8301 79.8298 67.2001 79.1998 66.6001 78.5398C67.5201 78.4098 68.4301 78.2898 69.3501 78.1798C69.7601 78.1298 69.7701 77.4798 69.3501 77.5298Z" fill="#CB9732"/>
        <path d="M91.73 32.1598C91.31 32.0598 90.89 31.9398 90.48 31.8098C90.61 31.7898 90.75 31.7699 90.88 31.7499C91.29 31.7099 91.3 31.0499 90.88 31.0999C90.64 31.1299 90.4 31.1599 90.16 31.2099C90.18 31.0799 90.19 30.9598 90.22 30.8298C90.3 30.4198 89.67 30.2398 89.59 30.6598C89.55 30.8998 89.52 31.1298 89.49 31.3698C89.43 31.3898 89.38 31.3998 89.32 31.4198C88.77 31.2098 88.22 30.9898 87.69 30.7298C87.31 30.5498 86.98 31.1098 87.36 31.2898C87.71 31.4598 88.05 31.6098 88.41 31.7598C88.18 31.8698 87.94 31.9798 87.72 32.1098C87.35 32.3198 87.68 32.8898 88.05 32.6698C88.45 32.4398 88.87 32.2499 89.31 32.0999C89.36 32.1199 89.41 32.1398 89.46 32.1598C89.46 32.3398 89.47 32.5198 89.48 32.6998C89.51 33.1198 90.17 33.1198 90.13 32.6998C90.12 32.5898 90.12 32.4798 90.12 32.3698C90.6 32.5198 91.08 32.6599 91.57 32.7799C91.97 32.8899 92.15 32.2598 91.73 32.1598Z" fill="#CB9732"/>
        <path d="M104.3 95.1599C103.98 95.3399 103.67 95.5199 103.35 95.6999C103.43 95.3099 103.52 94.9199 103.61 94.5299C103.71 94.1199 103.08 93.9499 102.98 94.3599C102.9 94.6799 102.83 94.9999 102.76 95.3299C102.66 95.1699 102.56 94.9999 102.46 94.8399C102.24 94.4799 101.68 94.8099 101.9 95.1699C102.11 95.5099 102.31 95.8499 102.52 96.1899C101.98 96.4999 101.44 96.8099 100.91 97.1099C100.54 97.3199 100.87 97.8799 101.24 97.6699C101.64 97.4399 102.04 97.2099 102.45 96.9799C102.3 97.8399 102.18 98.7099 102.08 99.5899C102.03 100.01 102.69 99.9999 102.73 99.5899C102.82 98.7599 102.94 97.9299 103.09 97.1099C103.38 97.5899 103.68 98.0799 103.97 98.5599C104.19 98.9199 104.75 98.5899 104.53 98.2299C104.16 97.6299 103.8 97.0199 103.43 96.4199C103.83 96.1899 104.23 95.9599 104.63 95.7299C104.99 95.5099 104.66 94.9499 104.3 95.1599Z" fill="#CB9732"/>
        <path d="M85.55 72.8398C85.23 73.0198 84.92 73.1998 84.6 73.3798C84.68 72.9898 84.77 72.5998 84.86 72.2098C84.96 71.7998 84.33 71.6298 84.23 72.0398C84.15 72.3598 84.08 72.6798 84.01 73.0098C83.91 72.8498 83.81 72.6798 83.71 72.5198C83.49 72.1598 82.93 72.4898 83.15 72.8498C83.36 73.1898 83.56 73.5298 83.77 73.8698C83.23 74.1798 82.69 74.4898 82.16 74.7898C81.79 74.9998 82.12 75.5598 82.49 75.3498C82.89 75.1198 83.29 74.8898 83.7 74.6598C83.55 75.5198 83.43 76.3898 83.33 77.2698C83.28 77.6898 83.94 77.6798 83.98 77.2698C84.07 76.4398 84.19 75.6098 84.34 74.7898C84.63 75.2698 84.93 75.7598 85.22 76.2398C85.44 76.5998 86 76.2698 85.78 75.9098C85.41 75.3098 85.05 74.6998 84.68 74.0998C85.08 73.8698 85.48 73.6398 85.88 73.4098C86.24 73.1998 85.91 72.6298 85.55 72.8398Z" fill="#CB9732"/>
        <path d="M97.57 109.18C97.31 109 97.05 108.89 96.77 108.82C97 108.61 96.7 108.16 96.36 108.32C96.11 108.43 95.86 108.56 95.62 108.68C95.8 108.02 95.91 107.34 95.96 106.64C95.99 106.22 95.34 106.22 95.31 106.64C95.26 107.28 95.16 107.9 94.99 108.5C94.9 108.3 94.82 108.1 94.73 107.89C94.63 107.66 94.2799 107.7 94.17 107.89C94.0299 108.12 93.9 108.34 93.76 108.57C93.27 108.54 92.78 108.51 92.28 108.48C91.86 108.46 91.86 109.11 92.28 109.13C92.68 109.15 93.08 109.18 93.48 109.2C93.54 109.44 93.91 109.58 94.08 109.3C94.09 109.28 94.1 109.26 94.12 109.24C94.22 109.25 94.32 109.25 94.43 109.26C94.02 109.48 93.61 109.7 93.2 109.94C92.84 110.15 93.16 110.72 93.53 110.5C93.83 110.32 94.15 110.16 94.46 109.99C94.29 110.36 94.11 110.71 93.89 111.06C93.67 111.42 94.24 111.75 94.45 111.39C94.67 111.02 94.87 110.64 95.05 110.26L95.34 110.94C95.51 111.33 96.07 110.99 95.9 110.61C95.74 110.23 95.57 109.85 95.41 109.47C95.52 109.41 95.64 109.36 95.76 109.3C96.29 109.33 96.82 109.42 97.24 109.72C97.59 110 97.91 109.43 97.57 109.18Z" fill="#CB9732"/>
        <path d="M45.43 80.0398C45.11 80.2198 44.8 80.3998 44.48 80.5798C44.56 80.1898 44.65 79.7998 44.74 79.4098C44.84 78.9998 44.21 78.8298 44.11 79.2398C44.03 79.5598 43.96 79.8798 43.89 80.2098C43.79 80.0498 43.69 79.8798 43.59 79.7198C43.37 79.3598 42.81 79.6898 43.03 80.0498C43.24 80.3898 43.44 80.7298 43.65 81.0698C43.11 81.3798 42.57 81.6898 42.04 81.9898C41.67 82.1998 42 82.7598 42.37 82.5498C42.77 82.3198 43.17 82.0898 43.58 81.8598C43.43 82.7198 43.31 83.5898 43.21 84.4698C43.16 84.8898 43.82 84.8798 43.86 84.4698C43.95 83.6398 44.07 82.8098 44.22 81.9898C44.51 82.4698 44.81 82.9598 45.1 83.4398C45.32 83.7998 45.88 83.4698 45.66 83.1098C45.29 82.5098 44.93 81.8998 44.56 81.2998C44.96 81.0698 45.36 80.8398 45.76 80.6098C46.12 80.3998 45.79 79.8398 45.43 80.0398Z" fill="#CB9732"/>
        <path d="M154.15 99.1797C153.54 98.9797 152.94 98.7697 152.35 98.5297C152.36 98.4497 152.36 98.3797 152.37 98.2997C152.72 98.1097 153.08 97.9197 153.45 97.7397C153.83 97.5497 153.5 96.9897 153.12 97.1797C152.89 97.2897 152.67 97.4097 152.45 97.5297C152.48 97.1597 152.52 96.7897 152.55 96.4197C152.59 95.9997 151.94 95.9997 151.9 96.4197C151.85 96.9197 151.81 97.4097 151.76 97.9097C151.63 97.9797 151.51 98.0597 151.38 98.1297C150.98 97.9497 150.58 97.7697 150.19 97.5797C149.81 97.3897 149.48 97.9597 149.86 98.1397C150.14 98.2797 150.42 98.4097 150.7 98.5397C150.09 98.9197 149.49 99.3297 148.91 99.7697C148.58 100.02 148.9 100.59 149.24 100.33C149.94 99.7997 150.68 99.3097 151.43 98.8597C151.51 98.8897 151.58 98.9297 151.66 98.9597L151.47 101C151.43 101.42 152.08 101.42 152.12 101C152.18 100.4 152.23 99.8097 152.29 99.2097C152.85 99.4297 153.41 99.6297 153.98 99.8197C154.38 99.9397 154.55 99.3097 154.15 99.1797Z" fill="#CB9732"/>
        <path d="M66.52 96.1998C65.65 96.1198 64.79 95.9898 63.94 95.8298C64.02 95.7898 64.1 95.7498 64.18 95.7098C64.56 95.5298 64.23 94.9698 63.85 95.1498C63.56 95.2898 63.27 95.4298 62.98 95.5698C62.95 95.3098 62.93 95.0498 62.91 94.7798C62.88 94.3598 62.23 94.3598 62.26 94.7798C62.27 95.0098 62.3 95.2398 62.32 95.4698C61.71 95.3198 61.1 95.1398 60.49 94.9498C60.09 94.8198 59.92 95.4498 60.32 95.5798C60.89 95.7598 61.46 95.9298 62.04 96.0698C61.46 96.3798 60.89 96.7098 60.33 97.0498C59.97 97.2698 60.3 97.8398 60.66 97.6098C61.26 97.2398 61.87 96.8898 62.48 96.5598C62.57 97.0498 62.68 97.5398 62.82 98.0198C62.94 98.4198 63.57 98.2498 63.45 97.8498C63.3 97.3398 63.19 96.8298 63.1 96.3098C64.23 96.5498 65.3699 96.7298 66.5299 96.8398C66.9399 96.8898 66.93 96.2398 66.52 96.1998Z" fill="#CB9732"/>
        <path d="M99.2101 59.04C91.9201 59.04 84.6201 59.05 77.3301 59.03C76.2101 59.03 75.9601 59.46 76.4701 60.41C77.6601 62.61 77.4201 64.97 77.2501 67.32C77.2001 68.04 76.8601 68.55 76.1001 68.5C75.0901 68.42 73.4501 68.97 73.2001 67.95C72.3901 64.66 71.5201 61.29 72.5601 57.85C72.8501 56.87 73.5201 56.51 74.5001 56.34C81.5801 55.08 88.7401 55.05 95.8901 54.77C105.31 54.4 114.74 54.02 124.16 54.86C125.97 55.02 127.98 54.87 129.02 56.93C129.11 57.11 129.4 57.19 129.21 57.46C125.56 62.64 121.08 66.99 115.99 70.74C109.04 75.86 102.1 80.98 95.1801 86.13C94.8201 86.39 94.2501 86.5 94.2001 87.09C94.6301 87.12 95.0601 87.18 95.4801 87.18C103.01 87.25 110.54 87.74 117.16 91.72C123.99 95.82 129.63 101.27 131.66 109.27C133.48 116.47 130.7 122.89 126.38 128.44C115.66 142.18 101.15 147.01 84.2001 145.37C74.3201 144.41 68.0601 137.42 67.9601 127.42C67.9301 124.89 67.5601 122.35 68.1401 119.83C68.3101 119.09 68.5001 118.26 69.4501 118.21C70.4801 118.16 71.5601 117.92 72.3301 119.06C73.1101 120.22 73.3101 121.51 73.5101 122.83C73.9501 125.73 74.2801 128.66 74.9001 131.52C76.2501 137.74 80.6001 141.03 86.9601 140.54C100.33 139.5 110 132.62 116.14 120.97C119.94 113.77 118.58 106.8 113.52 100.48C106.39 91.59 97.1201 90.06 86.6301 92.4C84.7401 92.82 82.8801 93.5 80.8601 93.25C79.4901 93.08 79.0401 92.49 79.3001 91.12C79.7701 88.64 81.7001 87.37 83.4401 85.93C93.8301 77.27 105.69 70.72 116.64 62.87C118.23 61.73 119.83 60.61 121.42 59.47C121.63 59.32 121.96 59.06 121.93 58.93C121.83 58.52 121.41 58.72 121.14 58.72C113.85 58.71 106.55 58.71 99.2601 58.71C99.2101 58.81 99.2101 58.92 99.2101 59.04Z" fill="white"/>
    </g>
    <defs>
        <clipPath id="clip0_30_7643">
            <rect width="200" height="200" fill="white"/>
        </clipPath>
    </defs>
</svg>
