<svg width="200" height="200" viewBox="0 0 200 200" fill="none" xmlns="http://www.w3.org/2000/svg">
    <g clip-path="url(#clip0_30_1460)">
        <path d="M200 0H0V200H200V0Z" fill="#BE443E"/>
        <path d="M178.11 108.5C178.11 111.88 177.89 115.2 177.48 118.46C176.33 127.46 173.66 135.99 169.71 143.77C156.83 169.19 130.45 186.61 100 186.61C74.43 186.61 51.72 174.32 37.48 155.33C31.33 147.13 26.76 137.68 24.22 127.44C24.22 127.44 24.22 127.44 24.21 127.44C23.01 122.63 22.26 117.65 22 112.53C21.94 111.24 21.9 109.94 21.9 108.64V108.51C21.9 103.25 22.42 98.0999 23.42 93.1299C25.3 83.6899 28.89 74.8699 33.83 66.9999C45.23 48.8699 63.86 35.7599 85.68 31.7199C90.33 30.8499 95.11 30.3999 100 30.3999C107.12 30.3999 114.03 31.3499 120.59 33.1499C136.76 37.5499 150.84 47.0199 161.02 59.7499C166.01 65.9899 170.07 73.0199 172.97 80.6199C174.96 85.7999 176.4 91.2399 177.24 96.8799C177.43 98.1599 177.59 99.4399 177.71 100.74C177.98 103.28 178.11 105.87 178.11 108.5Z" fill="white"/>
        <path d="M97.8101 18.71C91.5801 18.71 86.3401 23.45 85.8101 29.66C85.2101 36.69 85.6701 44.4999 90.6401 44.4999C97.0901 44.4999 95.9601 37.79 95.9601 37.79C95.9601 37.79 96.1201 44.37 101.44 44.37C106.76 44.37 107.93 36.6299 107.93 36.6299C107.93 36.6299 108.6 43.86 113.89 43.86C118.96 43.86 120.46 37.47 120.7 31.14C120.96 24.34 115.46 18.72 108.66 18.72H97.8101V18.71Z" fill="#D3B77B"/>
        <path d="M109.51 19.9899H106.23C106.23 18.1599 104.75 16.6799 102.92 16.6799C101.09 16.6799 99.61 18.1599 99.61 19.9899H96.3301C96.3301 16.3599 99.2701 13.4099 102.91 13.4099C106.56 13.3999 109.51 16.3499 109.51 19.9899Z" fill="#D3B77B"/>
        <path d="M172.98 80.61C172.52 80.69 171.93 80.79 171.25 80.91C169.37 81.24 166.67 81.69 163.3 82.24H163.29C159.25 82.9 154.25 83.6999 148.52 84.5599C144.59 85.1599 140.31 85.79 135.78 86.43C134.12 86.66 132.42 86.9 130.69 87.1299H130.68C126.86 87.66 122.88 88.18 118.8 88.71C114.77 89.22 110.65 89.72 106.47 90.2C102.9 90.61 99.2801 91.01 95.6501 91.38C93.9601 91.56 92.27 91.72 90.57 91.89C86.9 92.24 83.2201 92.57 79.5801 92.87C74.9501 93.24 70.37 93.5699 65.88 93.8099C62.56 93.9999 59.29 94.1499 56.1 94.2499C54.35 94.3099 52.6201 94.36 50.9301 94.39C48.4601 94.44 46.0501 94.45 43.7101 94.4399C38.3401 94.3999 33.33 94.18 28.81 93.76C26.91 93.58 25.11 93.37 23.41 93.12C25.08 84.72 28.11 76.81 32.25 69.61C32.75 68.72 33.28 67.84 33.82 66.99C33.92 66.99 34.03 66.98 34.14 66.98C37.31 66.89 42.41 66.75 48.81 66.55C52.67 66.42 56.99 66.27 61.67 66.1C65.26 65.98 69.06 65.83 73 65.67C74.56 65.61 76.13 65.55 77.72 65.48C80.62 65.36 83.5901 65.23 86.5901 65.09C90.5501 64.93 94.57 64.74 98.61 64.54C102.39 64.35 106.18 64.16 109.94 63.95C111.67 63.86 113.41 63.76 115.12 63.66C118.48 63.47 121.79 63.2699 125.04 63.0599C129.52 62.7699 133.85 62.4599 137.96 62.1299C142 61.8099 145.83 61.4799 149.35 61.1299C151.15 60.9399 152.86 60.77 154.49 60.58C156.86 60.31 159.05 60.02 161.02 59.74C165.16 64.91 168.65 70.63 171.39 76.76C171.95 78.02 172.48 79.31 172.98 80.61Z" fill="#D3B77B"/>
        <path d="M177.25 96.8699C99.72 113.78 40.03 110.31 21.89 108.63C21.89 109.94 21.93 111.24 21.99 112.52C28.86 113.14 41.09 113.97 57.57 113.97C86.51 113.97 128.55 111.42 177.71 100.72L177.25 96.8699Z" fill="#D3B77B"/>
        <path d="M177.48 118.45C177.27 120.1 177.01 121.73 176.7 123.34C175.31 130.55 172.94 137.4 169.71 143.76C167.11 144.39 163.83 145.15 159.95 145.98C157.7 146.47 155.27 146.98 152.65 147.51C149 148.25 144.99 149 140.7 149.76C136.98 150.41 133.05 151.06 128.93 151.69C125.64 152.19 122.22 152.67 118.72 153.13C116.62 153.41 114.48 153.67 112.31 153.93C108.04 154.43 103.64 154.88 99.15 155.28C94.3 155.7 89.35 156.05 84.32 156.3C80.08 156.51 75.79 156.66 71.47 156.72L66.17 156.76C62.11 156.76 58.04 156.67 53.98 156.5C50.19 156.35 46.4 156.12 42.63 155.8C40.92 155.66 39.21 155.5 37.5 155.32C36.37 153.82 35.29 152.27 34.27 150.68C33.67 149.74 33.08 148.77 32.51 147.79C30.78 144.83 29.25 141.75 27.92 138.56C26.42 134.98 25.19 131.26 24.23 127.43C27.26 127.71 31.36 128.04 36.39 128.36C39.22 128.54 42.33 128.71 45.7 128.86C47.7 128.95 49.8 129.03 51.98 129.11C55.77 129.24 59.8 129.33 64.06 129.39C67.88 129.44 71.87 129.46 76.03 129.42C79.78 129.4 83.66 129.33 87.64 129.22C89.99 129.16 92.37 129.07 94.79 128.97C98.49 128.82 102.26 128.63 106.11 128.39C109.47 128.18 112.88 127.94 116.35 127.65H116.36C121.24 127.26 126.2 126.78 131.23 126.22C133.27 125.99 135.31 125.75 137.37 125.48C141.23 125 145.11 124.46 149.02 123.86H149.03C152.68 123.29 156.35 122.69 160.04 122.02C165.44 121.05 170.86 119.95 176.28 118.72C176.67 118.64 177.07 118.55 177.48 118.45Z" fill="#D3B77B"/>
        <path d="M35.43 112.83C35.43 112.83 22.55 102.02 29.02 97.9999C35.5 93.9799 35.43 112.83 35.43 112.83Z" fill="#D3B77B"/>
        <path d="M35.42 111.4C35.42 111.4 23.71 122.11 29.82 124.74C35.94 127.36 35.42 111.4 35.42 111.4Z" fill="#D3B77B"/>
        <path d="M55.18 112.83C55.18 112.83 42.3 102.02 48.77 97.9999C55.24 93.9799 55.18 112.83 55.18 112.83Z" fill="#D3B77B"/>
        <path d="M55.17 111.4C55.17 111.4 43.46 122.11 49.57 124.74C55.68 127.36 55.17 111.4 55.17 111.4Z" fill="#D3B77B"/>
        <path d="M76.08 112.83C76.08 112.83 63.2 102.02 69.67 97.9999C76.14 93.9799 76.08 112.83 76.08 112.83Z" fill="#D3B77B"/>
        <path d="M76.07 111.4C76.07 111.4 64.36 122.11 70.47 124.74C76.59 127.36 76.07 111.4 76.07 111.4Z" fill="#D3B77B"/>
        <path d="M104.46 110.28C104.46 110.28 90.9 100.34 97.09 95.8998C103.29 91.4698 104.46 110.28 104.46 110.28Z" fill="#D3B77B"/>
        <path d="M104.36 108.85C104.36 108.85 93.3799 120.31 99.6499 122.53C105.92 124.75 104.36 108.85 104.36 108.85Z" fill="#D3B77B"/>
        <path d="M129.52 108.78C129.52 108.78 115.59 99.3499 121.62 94.6899C127.64 90.0199 129.52 108.78 129.52 108.78Z" fill="#D3B77B"/>
        <path d="M129.36 107.36C129.36 107.36 118.82 119.22 125.17 121.2C131.51 123.19 129.36 107.36 129.36 107.36Z" fill="#D3B77B"/>
        <path d="M149.36 104.51C149.36 104.51 134.47 96.6899 139.94 91.3799C145.42 86.0799 149.36 104.51 149.36 104.51Z" fill="#D3B77B"/>
        <path d="M149.05 103.11C149.05 103.11 139.89 116.07 146.42 117.33C152.95 118.6 149.05 103.11 149.05 103.11Z" fill="#D3B77B"/>
        <path d="M169.8 101.07C169.8 101.07 154.91 93.2499 160.38 87.9399C165.85 82.6299 169.8 101.07 169.8 101.07Z" fill="#D3B77B"/>
        <path d="M169.49 99.6699C169.49 99.6699 160.33 112.63 166.86 113.89C173.39 115.16 169.49 99.6699 169.49 99.6699Z" fill="#D3B77B"/>
        <path d="M61.6801 66.0999L54.4201 76.9199L48.8201 66.5399C52.6701 66.4199 57.0001 66.2699 61.6801 66.0999Z" fill="white"/>
        <path d="M98.6198 64.55L93.4199 73.96L86.6099 65.1C90.5599 64.94 94.5798 64.75 98.6198 64.55Z" fill="white"/>
        <path d="M137.96 62.1299L132.83 72.3699L125.03 63.0599C129.52 62.7699 133.85 62.4599 137.96 62.1299Z" fill="white"/>
        <path d="M163.28 82.24C159.24 82.9 154.24 83.6999 148.51 84.5599L153.74 75.47L163.28 82.24Z" fill="white"/>
        <path d="M118.8 88.71C114.77 89.22 110.65 89.72 106.47 90.2L111.02 82.6899L118.8 88.71Z" fill="white"/>
        <path d="M79.59 92.8699C74.96 93.2399 70.38 93.5699 65.89 93.8099L72.4 83.6799L79.59 92.8699Z" fill="white"/>
        <path d="M43.71 94.44C38.34 94.4 33.3299 94.18 28.8099 93.76L37.33 86.05L43.71 94.44Z" fill="white"/>
        <path d="M36.3701 128.36L27.9001 138.56C26.4001 134.98 25.1701 131.26 24.2101 127.43C27.2401 127.71 31.3501 128.05 36.3701 128.36Z" fill="white"/>
        <path d="M53.9601 156.5C50.1701 156.35 46.3801 156.12 42.6101 155.8L48.3201 145.92L53.9601 156.5Z" fill="white"/>
        <path d="M76.01 129.42L70.2401 138.7L64.04 129.39C67.86 129.45 71.86 129.46 76.01 129.42Z" fill="white"/>
        <path d="M99.13 155.28C94.28 155.7 89.3301 156.05 84.3 156.3L92.61 144.12L99.13 155.28Z" fill="white"/>
        <path d="M116.33 127.65L111.41 133.92L106.09 128.39C109.46 128.19 112.87 127.95 116.33 127.65Z" fill="white"/>
        <path d="M140.69 149.76C136.97 150.41 133.04 151.06 128.92 151.69L133.57 142.57L140.69 149.76Z" fill="white"/>
        <path d="M160.01 122.02L153.9 128.63L149 123.86C152.66 123.3 156.33 122.7 160.01 122.02Z" fill="white"/>
        <path d="M164.441 141.286C164.361 141.196 164.281 141.116 164.201 141.046C164.121 140.956 164.041 140.876 163.961 140.806C163.881 140.716 163.801 140.636 163.721 140.566C162.081 138.806 159.701 138.696 157.591 138.236C153.381 137.316 149.061 136.986 144.741 136.756C144.531 136.746 144.321 136.746 144.111 136.736C144.111 136.646 144.111 136.556 144.121 136.456C144.751 129.856 144.801 123.216 144.961 116.596C145.351 99.8763 146.071 83.1563 145.761 66.4263C145.691 62.5063 145.521 58.5562 142.991 55.0862C142.821 54.8562 142.651 54.6663 142.471 54.5063C142.391 54.4163 142.311 54.3362 142.231 54.2662C142.151 54.1762 142.071 54.0962 141.991 54.0262C141.911 53.9362 141.831 53.8562 141.751 53.7862C140.461 52.3662 138.801 52.7463 137.331 52.5063C136.581 52.3863 136.551 54.0162 136.141 54.8362C135.841 55.4262 135.681 56.0963 135.371 56.6863C130.501 65.9463 124.941 74.8063 119.441 83.6863C116.491 88.4463 113.471 93.1663 111.091 98.2563C110.881 98.7163 110.491 99.2963 110.921 99.7463C110.971 99.7963 111.031 99.8462 111.081 99.8862C111.101 99.9162 111.131 99.9563 111.161 99.9863C111.211 100.036 111.271 100.086 111.321 100.126C111.341 100.156 111.371 100.196 111.401 100.226C111.451 100.276 111.511 100.326 111.561 100.366C111.581 100.396 111.611 100.436 111.641 100.466C111.691 100.516 111.751 100.566 111.801 100.606C111.821 100.636 111.851 100.676 111.881 100.706C112.321 101.176 113.011 101.136 113.641 101.036C114.311 100.926 114.711 100.446 115.121 99.9763C117.931 96.7463 120.331 93.2263 122.721 89.6963C126.771 83.7063 130.641 77.6163 134.161 71.3063C133.261 84.4163 133.251 97.5162 132.761 109.216C132.621 118.846 132.651 126.976 133.011 135.106C133.061 136.196 132.761 136.576 131.691 136.706C129.531 136.946 127.371 137.276 125.231 137.676C121.791 138.316 118.361 139.026 114.931 139.766C114.241 139.916 113.151 140.026 113.271 140.946C113.301 141.176 113.421 141.326 113.591 141.426C113.651 141.536 113.731 141.616 113.831 141.666C113.891 141.776 113.971 141.856 114.071 141.906C114.131 142.016 114.211 142.096 114.311 142.146C114.581 142.656 115.491 142.526 116.071 142.556C117.621 142.646 119.191 142.716 120.741 142.586C131.491 141.716 142.231 141.456 152.971 142.846C156.881 143.356 160.831 143.726 164.791 143.186C165.661 143.066 165.711 142.906 165.191 142.146C164.951 141.826 164.701 141.536 164.441 141.286Z" fill="white"/>
        <path d="M132.751 109.216C133.261 97.0162 133.251 83.3062 134.261 69.6362C134.281 69.4162 134.471 69.0062 134.081 69.0162C133.891 69.0162 133.681 69.4362 133.531 69.6962C129.911 76.2362 125.911 82.5462 121.721 88.7362C119.331 92.2662 116.931 95.7962 114.121 99.0162C113.711 99.4862 113.311 99.9762 112.641 100.076C112.011 100.176 111.331 100.206 110.891 99.7462C110.461 99.2962 110.851 98.7163 111.061 98.2562C113.441 93.1662 116.461 88.4462 119.411 83.6862C124.911 74.7962 130.471 65.9462 135.341 56.6862C135.651 56.0962 135.811 55.4362 136.111 54.8362C136.521 54.0262 136.551 52.3862 137.301 52.5062C138.881 52.7662 140.671 52.3062 141.991 54.1162C144.531 57.5862 144.691 61.5462 144.761 65.4562C145.071 82.1862 144.351 98.9062 143.961 115.626C143.811 122.246 143.761 128.886 143.121 135.486C142.981 136.916 143.941 136.716 144.711 136.756C149.021 136.976 153.351 137.306 157.561 138.236C159.891 138.746 162.571 138.826 164.191 141.186C164.711 141.946 164.661 142.106 163.791 142.226C159.831 142.766 155.881 142.386 151.971 141.886C141.231 140.496 130.501 140.756 119.741 141.626C118.191 141.746 116.621 141.676 115.071 141.596C114.411 141.556 113.341 141.736 113.231 140.946C113.101 140.026 114.191 139.916 114.891 139.766C118.321 139.036 121.751 138.326 125.191 137.676C127.331 137.276 129.491 136.956 131.651 136.706C132.721 136.586 133.021 136.196 132.971 135.106C132.641 126.976 132.611 118.846 132.751 109.216Z" fill="#2E8287"/>
        <path d="M108.164 111.223C106.954 106.443 104.454 102.573 101.184 99.3628C101.104 99.2828 101.024 99.2028 100.944 99.1228C100.864 99.0428 100.784 98.9628 100.704 98.8828C100.624 98.8028 100.544 98.7228 100.464 98.6428C98.204 96.3728 95.554 94.4228 92.704 92.7128C86.244 88.8328 78.914 88.2728 71.564 88.1828C71.614 88.1528 71.654 88.1328 71.694 88.0928C78.624 82.9528 85.564 77.8228 92.504 72.7028C97.594 68.9528 102.084 64.6128 105.724 59.4228C105.914 59.1528 105.624 59.0628 105.534 58.8928C105.314 58.4628 105.054 58.1328 104.764 57.8728C104.684 57.7828 104.604 57.7028 104.524 57.6328C104.444 57.5428 104.364 57.4628 104.284 57.3928C104.204 57.3028 104.124 57.2228 104.044 57.1528C102.934 55.9128 101.244 56.0028 99.704 55.8628C90.284 55.0328 80.854 55.4028 71.434 55.7828C64.284 56.0628 57.124 56.0928 50.044 57.3528C49.064 57.5228 48.404 57.8828 48.114 58.8628C47.074 62.3028 47.934 65.6728 48.754 68.9628C48.804 69.1828 48.924 69.3228 49.084 69.4228C49.144 69.5228 49.224 69.6028 49.324 69.6628C49.384 69.7628 49.464 69.8428 49.564 69.9028C49.624 70.0028 49.704 70.0828 49.804 70.1428C50.234 70.8628 51.684 70.4028 52.614 70.4728C53.374 70.5328 53.714 70.0128 53.764 69.2928C53.934 66.9428 54.174 64.5828 52.984 62.3828C52.474 61.4328 52.714 61.0028 53.844 61.0028C61.134 61.0228 68.434 61.0128 75.724 61.0128C75.724 60.8928 75.724 60.7828 75.724 60.6628C82.684 60.6628 89.634 60.6628 96.594 60.6728C95.114 61.7328 93.614 62.7828 92.134 63.8528C81.184 71.7128 69.324 78.2528 58.934 86.9128C57.204 88.3528 55.274 89.6228 54.794 92.1028C54.634 92.9628 54.754 93.5128 55.204 93.8528C55.274 93.9428 55.354 94.0228 55.444 94.0928C55.514 94.1828 55.594 94.2628 55.684 94.3328C55.754 94.4228 55.834 94.5028 55.924 94.5728C56.174 94.9228 56.634 95.1128 57.324 95.2028C59.344 95.4528 61.204 94.7828 63.094 94.3528C72.354 92.2828 80.674 93.2328 87.394 99.6028C87.944 100.183 88.484 100.793 89.014 101.453C94.084 107.773 95.434 114.743 91.634 121.943C85.494 133.593 75.824 140.473 62.454 141.513C59.004 141.783 56.144 140.933 54.034 139.103C52.774 137.653 51.874 135.763 51.374 133.473C50.754 130.613 50.424 127.683 49.984 124.783C49.784 123.463 49.594 122.173 48.804 121.013C48.674 120.823 48.544 120.683 48.404 120.563C48.324 120.473 48.244 120.393 48.164 120.323C48.084 120.233 48.004 120.153 47.924 120.083C47.844 119.993 47.764 119.913 47.684 119.843C46.934 118.943 45.924 119.153 44.964 119.203C44.014 119.253 43.824 120.083 43.654 120.823C43.074 123.333 43.454 125.883 43.474 128.413C43.524 133.793 45.374 138.303 48.604 141.473C48.684 141.553 48.764 141.633 48.844 141.713C48.924 141.793 49.004 141.873 49.084 141.953C49.164 142.033 49.244 142.113 49.324 142.193C52.114 145.043 55.984 146.863 60.684 147.323C77.634 148.963 92.144 144.133 102.864 130.393C107.204 124.853 109.984 118.433 108.164 111.223Z" fill="white"/>
        <path d="M74.7539 60.033C67.4639 60.033 60.1639 60.043 52.8739 60.023C51.7539 60.023 51.5039 60.453 52.0139 61.403C53.2039 63.603 52.9639 65.9629 52.7939 68.3129C52.7439 69.0329 52.4039 69.5429 51.6439 69.4929C50.6339 69.4129 48.9939 69.9629 48.7439 68.9429C47.9339 65.6529 47.0639 62.283 48.1039 58.843C48.3939 57.863 49.0639 57.5029 50.0339 57.3329C57.1139 56.0729 64.2739 56.0429 71.4239 55.7629C80.8439 55.3929 90.2739 55.013 99.6939 55.843C101.504 56.003 103.514 55.853 104.554 57.913C104.644 58.093 104.934 58.1729 104.744 58.4429C101.094 63.6229 96.6139 67.973 91.5239 71.723C84.5739 76.843 77.6339 81.963 70.7139 87.113C70.3539 87.373 69.7839 87.4829 69.7339 88.0729C70.1639 88.1029 70.5939 88.163 71.0139 88.163C78.5439 88.233 86.0739 88.7229 92.6939 92.7029C99.5239 96.8029 105.164 102.253 107.194 110.253C109.014 117.453 106.234 123.873 101.914 129.423C91.1939 143.163 76.6839 147.993 59.7339 146.353C49.8539 145.393 43.5939 138.403 43.4939 128.403C43.4639 125.873 43.0939 123.333 43.6739 120.813C43.8439 120.073 44.0339 119.243 44.9839 119.193C46.0139 119.143 47.0939 118.903 47.8639 120.043C48.6439 121.203 48.8439 122.493 49.0439 123.813C49.4839 126.713 49.8139 129.643 50.4339 132.503C51.7839 138.723 56.1339 142.013 62.4939 141.523C75.8639 140.483 85.5339 133.603 91.6739 121.953C95.4739 114.753 94.1139 107.783 89.0539 101.463C81.9239 92.573 72.6539 91.0429 62.1639 93.3829C60.2739 93.8029 58.4139 94.483 56.3939 94.233C55.0239 94.063 54.5739 93.473 54.8339 92.103C55.3039 89.623 57.2339 88.353 58.9739 86.913C69.3639 78.253 81.2239 71.703 92.1739 63.853C93.7639 62.713 95.3639 61.5929 96.9539 60.4529C97.1639 60.3029 97.4939 60.043 97.4639 59.913C97.3639 59.503 96.9439 59.7029 96.6739 59.7029C89.3839 59.6929 82.0839 59.6929 74.7939 59.6929C74.7539 59.8029 74.7539 59.913 74.7539 60.033Z" fill="#2E8287"/>
    </g>
    <defs>
        <clipPath id="clip0_30_1460">
            <rect width="200" height="200" fill="white"/>
        </clipPath>
    </defs>
</svg>
