<svg width="200" height="200" viewBox="0 0 200 200" fill="none" xmlns="http://www.w3.org/2000/svg">
    <g clip-path="url(#clip0_30_590)">
        <mask id="mask0_30_590" style="mask-type:alpha" x="-1" y="-1" width="242" height="242">
            <rect width="240" height="240" fill="#D9D9D9" stroke="#7AAB3A"/>
        </mask>
        <g mask="url(#mask0_30_590)">
            <path d="M204.162 -4.16504H-4.16309V204.16H204.162V-4.16504Z" fill="#D3B77B"/>
            <path d="M164.07 169.891L166.903 166.724L169.143 164.224C169.59 164.62 170.257 165.162 171.08 165.745C171.861 166.297 172.788 166.891 173.788 167.443C174.986 168.099 176.288 168.693 177.59 169.078C178.465 169.339 179.34 169.505 180.184 169.526C180.569 169.536 180.955 169.526 181.33 169.474C181.371 169.464 181.402 169.464 181.444 169.453C182.715 169.266 183.777 168.672 184.725 167.63C184.829 167.516 184.934 167.391 185.038 167.266C185.173 167.099 185.298 166.932 185.423 166.745C185.486 166.662 185.548 166.578 185.6 166.484C185.819 166.151 185.84 164.568 183.486 161.193C183.371 161.026 183.246 160.849 183.111 160.672C182.444 159.756 181.663 158.797 180.777 157.787C179.413 156.224 177.788 154.547 175.903 152.766C174.569 151.506 173.122 150.183 171.538 148.819C170.882 148.256 170.226 147.694 169.559 147.141C167.559 145.464 165.559 143.871 163.653 142.392C161.528 140.735 159.518 139.246 157.799 137.996C154.435 135.538 152.154 133.996 152.102 133.965L152.831 132.882L156.341 127.663C156.508 127.778 158.164 128.892 160.705 130.715L160.83 130.809C162.466 131.986 164.455 133.444 166.632 135.1C168.559 136.569 170.622 138.183 172.726 139.913C173.965 140.923 175.226 141.975 176.465 143.048C176.986 143.496 177.496 143.944 177.986 144.381C180.382 146.506 182.507 148.537 184.35 150.454C185.965 152.141 187.361 153.735 188.527 155.245C188.777 155.568 189.006 155.881 189.235 156.193C191.454 159.235 192.767 162.005 193.162 164.505C193.423 166.12 193.298 167.609 192.798 168.974C192.579 169.557 192.298 170.13 191.944 170.661C189.954 173.703 187.298 175.734 184.194 176.619C183.579 176.797 182.944 176.932 182.288 177.015C181.361 177.14 180.434 177.161 179.517 177.109C176.59 176.932 173.778 175.953 171.372 174.765C170.174 174.182 169.08 173.547 168.122 172.932C165.924 171.516 164.434 170.224 164.07 169.891Z" fill="#BE443E"/>
            <path d="M152.102 133.965L152.831 132.882L160.695 130.715L160.82 130.809L166.622 135.1L157.799 137.996C154.435 135.538 152.154 133.996 152.102 133.965Z" fill="white"/>
            <path d="M163.653 142.392L172.726 139.902C173.965 140.912 175.226 141.965 176.465 143.037C176.986 143.485 177.496 143.933 177.986 144.371L169.559 147.141C167.57 145.475 165.559 143.871 163.653 142.392Z" fill="white"/>
            <path d="M175.903 152.766L184.34 150.443C185.954 152.131 187.35 153.724 188.517 155.235L180.778 157.787C179.413 156.224 177.788 154.547 175.903 152.766Z" fill="white"/>
            <path d="M185.413 166.755C185.475 166.672 185.538 166.589 185.59 166.495C185.809 166.162 185.829 164.578 183.475 161.203L193.152 164.505C193.412 166.12 193.287 167.609 192.787 168.974L185.413 166.755Z" fill="white"/>
            <path d="M179.517 177.109L180.173 169.536C180.559 169.547 180.944 169.536 181.319 169.484C181.361 169.474 181.392 169.474 181.434 169.464C182.705 169.276 183.767 168.682 184.715 167.641C184.819 167.526 184.923 167.401 185.027 167.276L184.205 176.62C183.59 176.797 182.955 176.932 182.298 177.015C181.361 177.14 180.434 177.161 179.517 177.109Z" fill="white"/>
            <path d="M168.122 172.922L173.778 167.443C174.976 168.099 176.278 168.693 177.58 169.078L171.361 174.755C170.174 174.172 169.08 173.536 168.122 172.922Z" fill="white"/>
            <path d="M166.893 166.735L169.132 164.235C169.58 164.63 170.247 165.172 171.07 165.755L166.893 166.735Z" fill="white"/>
            <path d="M156.914 149.006L152.664 149.235L149.31 149.412C149.341 150.006 149.341 150.87 149.279 151.881C149.216 152.839 149.102 153.933 148.904 155.058C148.664 156.402 148.31 157.797 147.8 159.058C147.446 159.901 147.029 160.693 146.518 161.37C146.289 161.683 146.029 161.974 145.758 162.224C145.727 162.245 145.706 162.276 145.675 162.297C144.727 163.162 143.602 163.63 142.185 163.714C142.029 163.724 141.873 163.735 141.706 163.735C141.498 163.735 141.279 163.724 141.06 163.714C140.956 163.714 140.852 163.703 140.737 163.693C140.342 163.651 139.092 162.672 137.925 158.724C137.863 158.526 137.81 158.318 137.748 158.11C137.456 157.016 137.186 155.808 136.956 154.475C136.592 152.433 136.311 150.11 136.092 147.527C135.936 145.694 135.821 143.735 135.748 141.642C135.717 140.777 135.696 139.902 135.675 139.048C135.623 136.434 135.633 133.861 135.675 131.455C135.717 128.757 135.811 126.257 135.904 124.122C136.102 119.955 136.321 117.205 136.331 117.143L135.029 117.028L128.759 116.497C128.738 116.695 128.571 118.695 128.405 121.82L128.394 121.976C128.28 123.997 128.175 126.455 128.103 129.205C128.04 131.621 128.009 134.257 128.03 136.986C128.04 138.59 128.082 140.235 128.134 141.881C128.155 142.569 128.186 143.246 128.228 143.912C128.384 147.121 128.634 150.058 128.988 152.693C129.29 155.016 129.665 157.11 130.113 158.964C130.207 159.36 130.3 159.735 130.404 160.11C131.394 163.745 132.738 166.516 134.436 168.391C135.529 169.599 136.769 170.443 138.154 170.911C138.748 171.109 139.363 171.245 140.008 171.307C143.633 171.661 146.883 170.859 149.518 168.995C150.05 168.62 150.55 168.214 151.018 167.755C151.695 167.109 152.299 166.391 152.831 165.641C154.529 163.245 155.528 160.433 156.112 157.808C156.403 156.506 156.591 155.256 156.716 154.12C157.018 151.475 156.935 149.496 156.914 149.006Z" fill="#BE443E"/>
            <path d="M136.342 117.111L135.04 116.997L128.415 121.788L128.405 121.945L128.113 129.173L135.915 124.101C136.113 119.924 136.342 117.174 136.342 117.111Z" fill="white"/>
            <path d="M135.686 131.423L128.05 136.944C128.061 138.548 128.103 140.194 128.155 141.84C128.175 142.527 128.207 143.204 128.248 143.871L135.696 139.027C135.633 136.413 135.644 133.84 135.686 131.423Z" fill="white"/>
            <path d="M136.102 147.506L128.998 152.641C129.3 154.964 129.675 157.058 130.123 158.912L136.967 154.464C136.613 152.412 136.321 150.1 136.102 147.506Z" fill="white"/>
            <path d="M141.071 163.714C140.967 163.714 140.862 163.703 140.748 163.693C140.352 163.651 139.102 162.672 137.935 158.724L134.436 168.359C135.529 169.568 136.769 170.411 138.154 170.88L141.071 163.714Z" fill="white"/>
            <path d="M152.852 165.599L146.529 161.37C146.3 161.683 146.039 161.974 145.768 162.224C145.737 162.245 145.716 162.276 145.685 162.297C144.737 163.162 143.612 163.63 142.196 163.714C142.039 163.724 141.883 163.735 141.717 163.735L149.539 168.953C150.07 168.578 150.57 168.172 151.039 167.714C151.716 167.057 152.32 166.349 152.852 165.599Z" fill="white"/>
            <path d="M156.737 154.068L148.914 155.047C148.675 156.391 148.32 157.787 147.81 159.047L156.143 157.756C156.424 156.464 156.612 155.204 156.737 154.068Z" fill="white"/>
            <path d="M152.664 149.225L149.31 149.402C149.341 149.995 149.341 150.86 149.279 151.87L152.664 149.225Z" fill="white"/>
            <path d="M30.1064 164.068L33.2729 166.901L35.7729 169.141C35.377 169.589 34.8354 170.255 34.2521 171.078C33.7 171.859 33.1063 172.786 32.5542 173.786C31.898 174.984 31.3043 176.286 30.9188 177.588C30.6584 178.463 30.4918 179.338 30.471 180.182C30.4605 180.567 30.4709 180.953 30.523 181.328C30.5334 181.369 30.5335 181.401 30.5439 181.442C30.7314 182.713 31.3251 183.775 32.3667 184.723C32.4813 184.827 32.6063 184.932 32.7313 185.036C32.8979 185.171 33.0646 185.296 33.2521 185.421C33.3354 185.484 33.4187 185.546 33.5125 185.598C33.8458 185.817 35.4291 185.838 38.804 183.484C38.9706 183.369 39.1477 183.244 39.3248 183.109C40.2414 182.442 41.1997 181.661 42.2101 180.776C43.7725 179.411 45.4496 177.786 47.2307 175.901C48.4911 174.567 49.814 173.12 51.1785 171.536C51.741 170.88 52.3034 170.224 52.8555 169.557C54.5325 167.557 56.1262 165.547 57.6053 163.651C59.2615 161.526 60.751 159.516 62.001 157.797C64.4592 154.433 66.0008 152.152 66.0321 152.1L67.1153 152.829L72.3339 156.339C72.2193 156.506 71.1048 158.162 69.2819 160.703L69.1882 160.828C68.0111 162.464 66.5633 164.453 64.8967 166.63C63.428 168.557 61.8135 170.62 60.0844 172.724C59.074 173.963 58.0219 175.224 56.9491 176.463C56.5012 176.984 56.0533 177.494 55.6158 177.984C53.4909 180.38 51.4597 182.505 49.5431 184.348C47.8557 185.963 46.262 187.359 44.7517 188.525C44.4288 188.775 44.1162 189.004 43.8038 189.234C40.7622 191.452 37.9915 192.765 35.4916 193.161C33.8771 193.421 32.3876 193.296 31.0231 192.796C30.4397 192.577 29.8669 192.296 29.3356 191.942C26.2941 189.952 24.2629 187.296 23.3775 184.192C23.2004 183.578 23.065 182.942 22.9817 182.286C22.8567 181.359 22.8359 180.432 22.888 179.515C23.065 176.588 24.0442 173.776 25.2316 171.37C25.8149 170.172 26.4503 169.078 27.0649 168.12C28.4815 165.922 29.7835 164.432 30.1064 164.068Z" fill="#BE443E"/>
            <path d="M66.0424 152.1L67.1257 152.829L69.2923 160.693L69.1985 160.818L64.907 166.62L62.0114 157.797C64.4592 154.443 66.0112 152.152 66.0424 152.1Z" fill="white"/>
            <path d="M57.6053 163.651L60.0948 172.724C59.0844 173.963 58.0324 175.224 56.9595 176.463C56.5116 176.984 56.0637 177.494 55.6262 177.984L52.8555 169.557C54.5325 167.568 56.1366 165.557 57.6053 163.651Z" fill="white"/>
            <path d="M47.2307 175.911L49.5535 184.348C47.8661 185.963 46.2724 187.359 44.7621 188.525L42.2101 180.786C43.7725 179.411 45.4495 177.786 47.2307 175.911Z" fill="white"/>
            <path d="M33.2416 185.411C33.3249 185.473 33.4083 185.536 33.502 185.588C33.8353 185.807 35.4186 185.827 38.7934 183.473L35.4915 193.15C33.877 193.411 32.3875 193.286 31.0229 192.786L33.2416 185.411Z" fill="white"/>
            <path d="M22.8985 179.515L30.471 180.171C30.4606 180.557 30.471 180.942 30.5231 181.317C30.5335 181.359 30.5335 181.39 30.544 181.432C30.7314 182.703 31.3252 183.765 32.3668 184.713C32.4814 184.817 32.6063 184.921 32.7313 185.025L23.388 184.202C23.2109 183.588 23.0755 182.953 22.9922 182.296C22.8672 181.359 22.8464 180.432 22.8985 179.515Z" fill="white"/>
            <path d="M27.0752 168.12L32.5541 173.776C31.8979 174.974 31.3042 176.276 30.9188 177.578L25.2419 171.359C25.8253 170.172 26.4606 169.078 27.0752 168.12Z" fill="white"/>
            <path d="M33.2729 166.901L35.7729 169.141C35.3771 169.589 34.8354 170.255 34.2521 171.078L33.2729 166.901Z" fill="white"/>
            <path d="M51.0013 156.912L50.7722 152.662L50.5951 149.308C50.0014 149.339 49.1368 149.339 48.1264 149.277C47.1682 149.214 46.0745 149.1 44.9495 148.902C43.6058 148.662 42.21 148.308 40.9496 147.798C40.1059 147.444 39.3143 147.027 38.6373 146.517C38.3248 146.287 38.0331 146.027 37.7831 145.756C37.7623 145.725 37.731 145.704 37.7102 145.673C36.8456 144.725 36.3769 143.6 36.2936 142.183C36.2832 142.027 36.2727 141.871 36.2727 141.704C36.2727 141.496 36.2832 141.277 36.2936 141.058C36.2936 140.954 36.304 140.85 36.3144 140.735C36.3561 140.34 37.3352 139.09 41.283 137.923C41.4809 137.861 41.6892 137.809 41.8975 137.746C42.9913 137.454 44.1995 137.184 45.5328 136.954C47.5744 136.59 49.8972 136.309 52.4804 136.09C54.3137 135.934 56.272 135.819 58.3656 135.746C59.2302 135.715 60.0947 135.694 60.9593 135.673C63.5738 135.621 66.1466 135.632 68.5527 135.673C71.2505 135.715 73.7505 135.809 75.8858 135.902C80.0523 136.1 82.8021 136.319 82.8646 136.329L82.9793 135.027L83.5104 128.757C83.3125 128.736 81.3126 128.569 78.1878 128.403L78.0315 128.392C76.0108 128.278 73.5526 128.173 70.8027 128.101C68.3861 128.038 65.7507 128.007 63.0217 128.028C61.4176 128.038 59.7718 128.08 58.126 128.132C57.4386 128.153 56.7616 128.184 56.0949 128.226C52.8867 128.382 49.9493 128.632 47.3139 128.986C44.9911 129.288 42.8975 129.663 41.0434 130.111C40.6476 130.205 40.2726 130.298 39.8976 130.403C36.2623 131.392 33.4916 132.736 31.6167 134.434C30.4084 135.527 29.5647 136.767 29.0959 138.152C28.898 138.746 28.7626 139.361 28.7001 140.006C28.346 143.631 29.148 146.881 31.0125 149.516C31.3875 150.048 31.7938 150.548 32.2521 151.016C32.8979 151.693 33.6166 152.298 34.3666 152.829C36.7623 154.527 39.5747 155.527 42.1996 156.11C43.5016 156.402 44.7516 156.589 45.8869 156.714C48.5327 157.016 50.5118 156.933 51.0013 156.912Z" fill="#BE443E"/>
            <path d="M82.8855 136.35L83.0001 135.048L78.2086 128.423L78.0524 128.413L70.8235 128.121L75.8962 135.923C80.0731 136.111 82.8334 136.34 82.8855 136.35Z" fill="white"/>
            <path d="M68.5735 135.684L63.0529 128.049C61.4488 128.059 59.803 128.101 58.1573 128.153C57.4698 128.174 56.7927 128.205 56.1261 128.246L60.9697 135.694C63.5842 135.642 66.157 135.642 68.5735 135.684Z" fill="white"/>
            <path d="M52.4909 136.111L47.3557 129.007C45.0329 129.309 42.9392 129.684 41.0851 130.132L45.5328 136.975C47.5848 136.611 49.9077 136.319 52.4909 136.111Z" fill="white"/>
            <path d="M36.2936 141.069C36.2936 140.965 36.304 140.86 36.3144 140.746C36.356 140.35 37.3352 139.1 41.283 137.933L31.6479 134.434C30.4396 135.527 29.5959 136.767 29.1272 138.152L36.2936 141.069Z" fill="white"/>
            <path d="M34.4083 152.85L38.6373 146.527C38.3248 146.298 38.0331 146.037 37.7831 145.767C37.7623 145.735 37.731 145.714 37.7102 145.683C36.8457 144.735 36.3769 143.61 36.2936 142.194C36.2832 142.037 36.2728 141.881 36.2728 141.715L31.0542 149.537C31.4292 150.068 31.8354 150.568 32.2937 151.037C32.9395 151.725 33.6479 152.318 34.4083 152.85Z" fill="white"/>
            <path d="M45.9286 156.735L44.9495 148.912C43.6058 148.673 42.21 148.319 40.9496 147.808L42.2412 156.141C43.5432 156.422 44.7932 156.62 45.9286 156.735Z" fill="white"/>
            <path d="M50.7722 152.662L50.5951 149.308C50.0014 149.339 49.1368 149.339 48.1265 149.277L50.7722 152.662Z" fill="white"/>
            <path d="M35.9396 30.1045L33.1064 33.271L30.8669 35.7709C30.419 35.3751 29.7523 34.8334 28.9295 34.2501C28.1482 33.6981 27.2211 33.1043 26.2212 32.5523C25.0233 31.8961 23.7213 31.3023 22.4193 30.9169C21.5443 30.6565 20.6694 30.4899 19.8257 30.469C19.4403 30.4586 19.0548 30.469 18.6798 30.5211C18.6382 30.5315 18.6069 30.5315 18.5653 30.5419C17.2945 30.7294 16.232 31.3232 15.2841 32.3648C15.18 32.4794 15.0758 32.6044 14.9716 32.7294C14.8362 32.896 14.7112 33.0627 14.5862 33.2502C14.5237 33.3335 14.4613 33.4272 14.4092 33.5106C14.1904 33.8439 14.1696 35.4272 16.5237 38.802C16.6382 38.9687 16.7633 39.1458 16.8987 39.3229C17.5653 40.2395 18.3465 41.1978 19.2319 42.2082C20.5964 43.7706 22.2214 45.4476 24.1067 47.2288C25.44 48.4892 26.8879 49.812 28.4711 51.1765C29.1274 51.739 29.7836 52.3015 30.4502 52.8536C32.4502 54.5306 34.4605 56.1243 36.3562 57.6034C38.4812 59.2596 40.4915 60.7491 42.2102 61.999C45.5746 64.4573 47.8558 65.9989 47.9078 66.0301L47.1787 67.1134L43.6684 72.332C43.5018 72.2174 41.8456 71.1028 39.3041 69.28L39.179 69.1863C37.5437 68.0092 35.5542 66.5509 33.3772 64.8948C31.4502 63.4261 29.3877 61.8115 27.2837 60.0824C26.0441 59.0721 24.7838 58.02 23.5443 56.9472C23.0235 56.4993 22.513 56.0514 22.0235 55.6139C19.6277 53.489 17.5028 51.4578 15.6591 49.5412C14.0446 47.8538 12.6488 46.2601 11.4822 44.7497C11.2322 44.4268 11.0031 44.1143 10.7739 43.8018C8.55526 40.7603 7.24279 37.9896 6.84697 35.4897C6.58657 33.8751 6.71154 32.3856 7.21152 31.0211C7.43026 30.4378 7.71151 29.8649 8.06566 29.3337C10.0552 26.2921 12.7113 24.2609 15.8154 23.3756C16.4299 23.1985 17.0653 23.0631 17.7215 22.9797C18.6486 22.8547 19.5756 22.8339 20.4922 22.886C23.4192 23.0631 26.2316 24.0422 28.6378 25.2297C29.8356 25.813 30.9293 26.4484 31.8876 27.0629C34.075 28.4899 35.5646 29.7816 35.9396 30.1045Z" fill="#BE443E"/>
            <path d="M47.8975 66.0406L47.1683 67.1239L39.304 69.2905L39.179 69.1967L33.3772 64.9052L42.1997 62.0095C45.5642 64.4678 47.8454 66.0094 47.8975 66.0406Z" fill="white"/>
            <path d="M36.3457 57.6138L27.2731 60.1033C26.0336 59.0929 24.7733 58.0409 23.5337 56.968C23.0129 56.5201 22.5025 56.0722 22.0129 55.6347L30.4397 52.864C32.4396 54.5306 34.4395 56.1347 36.3457 57.6138Z" fill="white"/>
            <path d="M24.0962 47.2289L15.6591 49.5517C14.0446 47.8643 12.6488 46.2706 11.4822 44.7602L19.2214 42.2083C20.5964 43.7707 22.2213 45.4477 24.0962 47.2289Z" fill="white"/>
            <path d="M14.5967 33.2502C14.5342 33.3335 14.4718 33.4272 14.4197 33.5106C14.2009 33.8439 14.1801 35.4272 16.5342 38.802L6.85747 35.5001C6.59707 33.8855 6.72203 32.396 7.22202 31.0315L14.5967 33.2502Z" fill="white"/>
            <path d="M20.4819 22.8965L19.8257 30.4691C19.4403 30.4587 19.0548 30.4691 18.6799 30.5212C18.6382 30.5316 18.607 30.5316 18.5653 30.542C17.2945 30.7295 16.232 31.3232 15.2842 32.3649C15.18 32.4795 15.0758 32.6044 14.9717 32.7294L15.7946 23.3861C16.4092 23.209 17.0445 23.0736 17.7007 22.9902C18.6382 22.8652 19.5653 22.8444 20.4819 22.8965Z" fill="white"/>
            <path d="M31.8772 27.0733L26.2211 32.5522C25.0232 31.896 23.7212 31.3022 22.4192 30.9168L28.6377 25.24C29.8251 25.8233 30.9189 26.4587 31.8772 27.0733Z" fill="white"/>
            <path d="M33.1064 33.271L30.8669 35.7709C30.419 35.3751 29.7523 34.8334 28.9294 34.2501L33.1064 33.271Z" fill="white"/>
            <path d="M43.0851 50.9994L47.3349 50.7702L50.689 50.5931C50.6578 49.9994 50.6577 49.1348 50.7202 48.1245C50.7827 47.1662 50.8973 46.0725 51.0952 44.9475C51.3348 43.6038 51.6889 42.208 52.1993 40.9477C52.5535 40.104 52.9702 39.3123 53.4806 38.6353C53.7097 38.3228 53.9701 38.0311 54.2409 37.7811C54.2722 37.7603 54.293 37.729 54.3243 37.7082C55.2722 36.8437 56.3971 36.3749 57.8137 36.2916C57.9699 36.2812 58.1262 36.2708 58.2929 36.2708C58.5012 36.2708 58.7199 36.2812 58.9387 36.2916C59.0428 36.2916 59.147 36.302 59.2616 36.3124C59.6574 36.3541 60.9073 37.3332 62.074 41.281C62.1365 41.4789 62.1885 41.6872 62.251 41.8955C62.5427 42.9893 62.8135 44.1975 63.0427 45.5308C63.4072 47.5724 63.6885 49.8952 63.9072 52.4785C64.0635 54.3117 64.178 56.27 64.2509 58.3637C64.2822 59.2282 64.303 60.0927 64.3239 60.9573C64.3759 63.5718 64.3655 66.1446 64.3239 68.5507C64.2822 71.2486 64.1885 73.7485 64.0947 75.8838C63.8968 80.0503 63.678 82.8002 63.6676 82.8627L64.9697 82.9773L71.2403 83.5085C71.2611 83.3106 71.4278 81.3107 71.5944 78.1858L71.6048 78.0295C71.7194 76.0088 71.8236 73.5506 71.8965 70.8007C71.959 68.3841 71.9902 65.7488 71.9694 63.0197C71.959 61.4156 71.9173 59.7698 71.8652 58.1241C71.8444 57.4366 71.8132 56.7595 71.7715 56.0929C71.6153 52.8847 71.3652 49.9473 71.0111 47.312C70.709 44.9892 70.3341 42.8955 69.8862 41.0414C69.7924 40.6456 69.6986 40.2706 69.5945 39.8956C68.6049 36.2604 67.2612 33.4896 65.5634 31.6147C64.4697 30.4064 63.2301 29.5627 61.8448 29.094C61.2511 28.8961 60.6365 28.7607 59.9907 28.6982C56.3659 28.344 53.116 29.1461 50.4807 31.0106C49.9494 31.3855 49.4495 31.7918 48.9807 32.2501C48.3037 32.8959 47.6995 33.6146 47.1683 34.3646C45.4705 36.7603 44.4705 39.5727 43.8872 42.1976C43.5955 43.4997 43.408 44.7496 43.283 45.885C42.9913 48.5307 43.0643 50.5098 43.0851 50.9994Z" fill="#BE443E"/>
            <path d="M63.6572 82.8941L64.9593 83.0086L71.584 78.2172L71.5945 78.0609L71.8861 70.832L64.0843 75.9047C63.8864 80.0817 63.6572 82.8316 63.6572 82.8941Z" fill="white"/>
            <path d="M64.3135 68.5717L71.9486 63.0511C71.9382 61.447 71.8965 59.8012 71.8445 58.1555C71.8236 57.468 71.7924 56.7909 71.7507 56.1243L64.3031 60.9678C64.3656 63.5927 64.3551 66.1656 64.3135 68.5717Z" fill="white"/>
            <path d="M63.8968 52.4888L71.0007 47.3536C70.6986 45.0308 70.3236 42.9371 69.8757 41.083L63.0322 45.5308C63.3968 47.5828 63.6781 49.9056 63.8968 52.4888Z" fill="white"/>
            <path d="M58.9282 36.2916C59.0324 36.2916 59.1365 36.302 59.2511 36.3125C59.6469 36.3541 60.8969 37.3333 62.0635 41.281L65.5634 31.646C64.4697 30.4377 63.2301 29.594 61.8448 29.1252L58.9282 36.2916Z" fill="white"/>
            <path d="M47.1475 34.4063L53.4701 38.6353C53.6993 38.3228 53.9597 38.0311 54.2305 37.7811C54.2618 37.7603 54.2826 37.7291 54.3138 37.7082C55.2617 36.8437 56.3867 36.375 57.8033 36.2916C57.9595 36.2812 58.1158 36.2708 58.2824 36.2708L50.4598 31.0522C49.9286 31.4272 49.4286 31.8335 48.9599 32.2918C48.2828 32.948 47.6787 33.6563 47.1475 34.4063Z" fill="white"/>
            <path d="M43.2622 45.9267L51.0848 44.9476C51.3244 43.6039 51.6785 42.2081 52.1889 40.9478L43.8559 42.2394C43.5747 43.5414 43.3872 44.7914 43.2622 45.9267Z" fill="white"/>
            <path d="M47.335 50.7702L50.689 50.5932C50.6578 49.9994 50.6577 49.1349 50.7202 48.1245L47.335 50.7702Z" fill="white"/>
            <path d="M169.893 35.9374L166.726 33.1041L164.226 30.8647C164.622 30.4168 165.164 29.7501 165.747 28.9272C166.299 28.146 166.893 27.219 167.445 26.219C168.101 25.0211 168.695 23.7191 169.08 22.4171C169.341 21.5421 169.507 20.6671 169.528 19.8234C169.539 19.438 169.528 19.0526 169.476 18.6776C169.466 18.636 169.466 18.6047 169.455 18.5631C169.268 17.2923 168.674 16.2298 167.632 15.2819C167.518 15.1778 167.393 15.0736 167.268 14.9694C167.101 14.834 166.934 14.709 166.747 14.584C166.664 14.5216 166.57 14.459 166.487 14.407C166.153 14.1882 164.57 14.1674 161.195 16.5215C161.028 16.636 160.851 16.761 160.674 16.8965C159.758 17.5631 158.799 18.3443 157.789 19.2297C156.227 20.5942 154.55 22.2192 152.768 24.1045C151.508 25.4378 150.185 26.8856 148.821 28.4689C148.258 29.1251 147.696 29.7814 147.144 30.448C145.467 32.4479 143.873 34.4583 142.394 36.354C140.738 38.4789 139.248 40.4893 137.998 42.208C135.54 45.5724 133.998 47.8536 133.967 47.9056L132.884 47.1765L127.665 43.6662C127.78 43.4996 128.894 41.8434 130.717 39.3018L130.811 39.1768C131.988 37.5415 133.436 35.552 135.102 33.375C136.571 31.448 138.186 29.3855 139.915 27.2815C140.925 26.0419 141.977 24.7816 143.05 23.542C143.498 23.0212 143.946 22.5108 144.383 22.0213C146.508 19.6255 148.539 17.5006 150.456 15.6569C152.143 14.0424 153.737 12.6466 155.247 11.48C155.57 11.23 155.883 11.0009 156.195 10.7717C159.237 8.55303 162.008 7.24059 164.507 6.84477C166.122 6.58436 167.612 6.70936 168.976 7.20934C169.559 7.42808 170.132 7.70932 170.663 8.06347C173.705 10.053 175.736 12.7091 176.622 15.8132C176.799 16.4277 176.934 17.0631 177.017 17.7193C177.142 18.6464 177.163 19.5734 177.111 20.4901C176.934 23.417 175.955 26.2294 174.768 28.6356C174.184 29.8334 173.549 30.9271 172.934 31.8854C171.518 34.0729 170.216 35.5728 169.893 35.9374Z" fill="#BE443E"/>
            <path d="M133.967 47.8953L132.884 47.1661L130.717 39.3019L130.811 39.1769L135.102 33.375L137.998 42.1976C135.54 45.562 133.998 47.8536 133.967 47.8953Z" fill="white"/>
            <path d="M142.394 36.354L139.904 27.2814C140.915 26.0419 141.967 24.7815 143.04 23.542C143.487 23.0212 143.935 22.5108 144.373 22.0212L147.144 30.448C145.467 32.4375 143.873 34.4478 142.394 36.354Z" fill="white"/>
            <path d="M152.768 24.0941L150.446 15.6569C152.133 14.0424 153.727 12.6466 155.237 11.48L157.789 19.2193C156.227 20.5942 154.55 22.2191 152.768 24.0941Z" fill="white"/>
            <path d="M166.757 14.5945C166.674 14.532 166.58 14.4696 166.497 14.4175C166.164 14.1987 164.58 14.1779 161.206 16.532L164.508 6.85527C166.122 6.59486 167.612 6.71986 168.976 7.21984L166.757 14.5945Z" fill="white"/>
            <path d="M177.101 20.4899L169.528 19.8337C169.539 19.4483 169.528 19.0629 169.476 18.6879C169.466 18.6463 169.466 18.615 169.455 18.5733C169.268 17.3026 168.674 16.2401 167.632 15.2922C167.518 15.1881 167.393 15.0839 167.268 14.9797L176.611 15.8026C176.788 16.4172 176.924 17.0526 177.007 17.7088C177.132 18.6358 177.163 19.5733 177.101 20.4899Z" fill="white"/>
            <path d="M172.924 31.8854L167.445 26.2294C168.101 25.0315 168.695 23.7295 169.08 22.4275L174.757 28.646C174.174 29.8334 173.538 30.9271 172.924 31.8854Z" fill="white"/>
            <path d="M166.726 33.1042L164.226 30.8647C164.622 30.4168 165.164 29.7501 165.747 28.9272L166.726 33.1042Z" fill="white"/>
            <path d="M149.008 43.0934L149.237 47.3432L149.414 50.6972C150.008 50.666 150.873 50.666 151.883 50.7285C152.841 50.791 153.935 50.9056 155.06 51.1035C156.404 51.343 157.799 51.6972 159.06 52.2076C159.903 52.5617 160.695 52.9784 161.372 53.4888C161.685 53.7179 161.976 53.9784 162.226 54.2492C162.257 54.2804 162.278 54.3013 162.299 54.3325C163.164 55.2804 163.632 56.4053 163.716 57.8219C163.726 57.9782 163.737 58.1344 163.737 58.3011C163.737 58.5094 163.726 58.7282 163.716 58.9469C163.716 59.0511 163.705 59.1552 163.695 59.2698C163.653 59.6656 162.674 60.9156 158.726 62.0822C158.528 62.1447 158.32 62.1968 158.112 62.2593C157.018 62.5509 155.81 62.8218 154.477 63.0509C152.435 63.4155 150.112 63.6967 147.529 63.9155C145.696 64.0717 143.737 64.1863 141.644 64.2592C140.779 64.2904 139.915 64.3113 139.05 64.3321C136.436 64.3842 133.863 64.3738 131.457 64.3321C128.759 64.2904 126.259 64.1967 124.124 64.1029C119.957 63.905 117.207 63.6863 117.145 63.6759L117.03 64.9779L116.499 71.2485C116.697 71.2693 118.697 71.436 121.822 71.6026L121.978 71.6131C123.999 71.7277 126.457 71.8318 129.207 71.9047C131.623 71.9672 134.259 71.9985 136.988 71.9776C138.592 71.9672 140.238 71.9256 141.883 71.8735C142.571 71.8526 143.248 71.8214 143.914 71.7797C147.123 71.6235 150.06 71.3735 152.695 71.0193C155.018 70.7173 157.112 70.3423 158.966 69.8944C159.362 69.8006 159.737 69.7069 160.112 69.6027C163.747 68.6132 166.518 67.2695 168.393 65.5716C169.601 64.4779 170.445 63.2384 170.913 61.853C171.111 61.2593 171.247 60.6447 171.309 59.9989C171.663 56.3741 170.861 53.1242 168.997 50.4889C168.622 49.9681 168.216 49.4577 167.757 48.989C167.111 48.3119 166.393 47.7078 165.643 47.1765C163.247 45.4787 160.435 44.4787 157.81 43.8954C156.508 43.6038 155.258 43.4163 154.122 43.2913C151.477 42.9892 149.498 43.0621 149.008 43.0934Z" fill="#BE443E"/>
            <path d="M117.113 63.655L116.999 64.9571L121.79 71.5818L121.947 71.5922L129.176 71.8839L124.103 64.0821C119.926 63.8946 117.176 63.6654 117.113 63.655Z" fill="white"/>
            <path d="M131.425 64.3112L136.946 71.9463C138.55 71.9359 140.196 71.8942 141.842 71.8422C142.529 71.8213 143.206 71.7901 143.873 71.7484L139.029 64.3008C136.415 64.3633 133.842 64.3633 131.425 64.3112Z" fill="white"/>
            <path d="M147.508 63.8946L152.643 70.9985C154.966 70.6964 157.06 70.3214 158.914 69.8735L154.466 63.03C152.414 63.3946 150.091 63.6863 147.508 63.8946Z" fill="white"/>
            <path d="M163.705 58.9365C163.705 59.0407 163.695 59.1448 163.685 59.2594C163.643 59.6552 162.664 60.9052 158.716 62.0718L168.351 65.5717C169.559 64.478 170.403 63.2384 170.872 61.8531L163.705 58.9365Z" fill="white"/>
            <path d="M165.601 47.1453L161.372 53.4679C161.685 53.6971 161.976 53.9575 162.226 54.2283C162.257 54.2596 162.278 54.2804 162.299 54.3117C163.164 55.2595 163.632 56.3845 163.716 57.8011C163.726 57.9573 163.737 58.1136 163.737 58.2802L168.955 50.4576C168.58 49.9368 168.174 49.4264 167.716 48.9577C167.059 48.2806 166.351 47.6869 165.601 47.1453Z" fill="white"/>
            <path d="M154.07 43.2705L155.049 51.0931C156.393 51.3327 157.789 51.6869 159.049 52.1972L157.758 43.8642C156.456 43.5726 155.206 43.3851 154.07 43.2705Z" fill="white"/>
            <path d="M149.227 47.3328L149.404 50.6868C149.998 50.6556 150.862 50.6556 151.873 50.7181L149.227 47.3328Z" fill="white"/>
            <path d="M121.072 208.285L120.832 204.045L120.645 200.702C121.238 200.671 122.092 200.577 123.092 200.4C124.04 200.233 125.113 200.004 126.207 199.691C127.519 199.316 128.863 198.806 130.061 198.16C130.863 197.723 131.602 197.223 132.217 196.639C132.498 196.369 132.759 196.098 132.988 195.796C133.009 195.765 133.029 195.733 133.05 195.702C133.811 194.671 134.144 193.504 134.082 192.088C134.071 191.931 134.061 191.775 134.05 191.608C134.029 191.4 133.998 191.181 133.957 190.963C133.946 190.858 133.925 190.754 133.894 190.65C133.811 190.254 132.707 189.129 128.655 188.4C128.457 188.359 128.238 188.327 128.019 188.296C126.905 188.119 125.676 187.994 124.332 187.9C122.259 187.765 119.926 187.723 117.343 187.796C115.509 187.848 113.551 187.942 111.468 188.098C110.603 188.161 109.739 188.234 108.885 188.306C106.291 188.536 103.739 188.827 101.343 189.129C98.6663 189.463 96.1976 189.827 94.0935 190.15C89.9791 190.796 87.2709 191.317 87.2188 191.327L86.9688 190.046L85.7605 183.88C85.9584 183.838 87.927 183.463 90.9998 182.953L91.1457 182.932C93.1352 182.598 95.5726 182.223 98.2809 181.859C100.677 181.536 103.281 181.223 105.989 180.942C107.583 180.786 109.218 180.64 110.853 180.515C111.541 180.463 112.218 180.421 112.874 180.38C116.082 180.192 119.009 180.119 121.665 180.182C123.999 180.234 126.113 180.369 127.998 180.619C128.394 180.671 128.79 180.723 129.165 180.786C132.884 181.369 135.769 182.4 137.821 183.89C139.144 184.848 140.113 185.984 140.727 187.307C140.988 187.869 141.185 188.473 141.321 189.109C142.06 192.671 141.623 195.983 140.06 198.796C139.748 199.358 139.394 199.9 138.998 200.421C138.425 201.16 137.79 201.837 137.102 202.441C134.915 204.379 132.227 205.681 129.686 206.545C128.425 206.972 127.207 207.295 126.092 207.545C123.53 208.118 121.561 208.254 121.072 208.285Z" fill="#BE443E"/>
            <path d="M87.198 191.338L86.948 190.057L90.9791 182.963L91.1249 182.942L98.26 181.869L94.0727 190.161C89.9687 190.796 87.2605 191.327 87.198 191.338Z" fill="white"/>
            <path d="M101.333 189.129L105.989 180.953C107.583 180.796 109.218 180.651 110.853 180.526C111.541 180.473 112.218 180.432 112.874 180.39L108.874 188.306C106.27 188.546 103.718 188.827 101.333 189.129Z" fill="white"/>
            <path d="M117.332 187.806L121.655 180.203C123.988 180.255 126.103 180.39 127.988 180.64L124.311 187.921C122.259 187.775 119.926 187.734 117.332 187.806Z" fill="white"/>
            <path d="M133.946 190.973C133.936 190.869 133.915 190.765 133.884 190.661C133.8 190.265 132.696 189.14 128.644 188.411L137.821 183.9C139.144 184.859 140.113 185.994 140.727 187.317L133.946 190.973Z" fill="white"/>
            <path d="M137.092 202.462L132.207 196.639C132.488 196.369 132.748 196.098 132.977 195.796C132.998 195.765 133.019 195.733 133.04 195.702C133.8 194.671 134.134 193.504 134.071 192.088C134.061 191.931 134.05 191.775 134.04 191.608L140.06 198.796C139.748 199.358 139.394 199.9 138.998 200.421C138.415 201.171 137.779 201.848 137.092 202.462Z" fill="white"/>
            <path d="M126.082 207.566L126.207 199.691C127.519 199.316 128.863 198.806 130.061 198.16L129.675 206.566C128.415 206.993 127.196 207.316 126.082 207.566Z" fill="white"/>
            <path d="M101.239 198.567L98.3954 201.733L96.1455 204.233C96.583 204.629 97.1975 205.243 97.8746 206.004C98.51 206.723 99.2079 207.577 99.8641 208.514C100.645 209.629 101.385 210.868 101.916 212.129C102.27 212.972 102.531 213.826 102.645 214.66C102.697 215.045 102.729 215.431 102.718 215.805C102.718 215.847 102.718 215.878 102.708 215.92C102.656 217.201 102.187 218.326 101.249 219.389C101.145 219.503 101.041 219.618 100.927 219.743C100.781 219.889 100.624 220.045 100.447 220.191C100.374 220.264 100.291 220.326 100.208 220.399C99.8953 220.659 98.3225 220.837 94.6977 218.868C94.5206 218.774 94.333 218.67 94.1351 218.555C93.156 217.993 92.1144 217.326 90.9998 216.545C89.302 215.358 87.4479 213.92 85.4688 212.243C84.0626 211.056 82.5939 209.754 81.0628 208.316C80.4274 207.722 79.792 207.129 79.1774 206.535C77.2921 204.723 75.4797 202.9 73.8027 201.16C71.9277 199.223 70.2195 197.39 68.782 195.806C65.9696 192.723 64.1884 190.619 64.1468 190.567L63.1468 191.411L58.3345 195.473C58.4699 195.629 59.7615 197.16 61.8447 199.483L61.9489 199.598C63.2926 201.098 64.9592 202.921 66.855 204.91C68.5216 206.67 70.3653 208.545 72.3027 210.462C73.4485 211.587 74.6359 212.722 75.8338 213.847C76.3337 214.316 76.8337 214.774 77.3337 215.222C79.719 217.378 81.969 219.274 84.0731 220.899C85.9272 222.326 87.6667 223.545 89.2916 224.534C89.6354 224.743 89.9791 224.951 90.3124 225.138C93.5831 227.013 96.4892 228.024 99.0204 228.149C100.656 228.232 102.124 227.951 103.437 227.295C103.999 227.013 104.531 226.67 105.031 226.263C107.843 223.951 109.582 221.087 110.124 217.899C110.228 217.264 110.301 216.618 110.312 215.962C110.332 215.024 110.249 214.097 110.103 213.191C109.614 210.295 108.332 207.608 106.885 205.327C106.176 204.202 105.416 203.181 104.697 202.296C103.062 200.244 101.604 198.9 101.239 198.567Z" fill="#BE443E"/>
            <path d="M64.1467 190.567L63.1468 191.411L61.8447 199.483L61.9489 199.598L66.8549 204.91L68.782 195.806C65.9696 192.723 64.1884 190.609 64.1467 190.567Z" fill="white"/>
            <path d="M225.234 104.122L224.995 99.8829L224.807 96.5392C225.401 96.508 226.255 96.4142 227.255 96.2372C228.203 96.0705 229.276 95.8413 230.369 95.5289C231.682 95.1539 233.026 94.6435 234.223 93.9977C235.025 93.5602 235.765 93.0602 236.38 92.4769C236.661 92.2061 236.921 91.9248 237.15 91.6332C237.171 91.6019 237.192 91.5707 237.213 91.5394C237.973 90.5082 238.307 89.3416 238.244 87.925C238.234 87.7688 238.223 87.6125 238.213 87.4458C238.192 87.2375 238.161 87.0188 238.119 86.8C238.109 86.6959 238.088 86.5917 238.057 86.4876C237.973 86.0917 236.869 84.9668 232.817 84.2376C232.619 84.196 232.401 84.1647 232.182 84.1335C231.067 83.9564 229.838 83.8314 228.494 83.7377C226.422 83.6022 224.088 83.5606 221.505 83.6335C219.672 83.6856 217.714 83.7793 215.63 83.9356C214.766 83.9981 213.901 84.071 213.047 84.1439C210.454 84.3731 207.902 84.6647 205.506 84.9668C202.829 85.3001 200.36 85.6647 198.256 85.9876C194.142 86.6334 191.433 87.1542 191.381 87.1646L191.131 85.8834L189.923 79.717C190.121 79.6753 192.09 79.3003 195.162 78.7899L195.308 78.7691C197.298 78.4358 199.735 78.0608 202.443 77.6962C204.839 77.3733 207.443 77.0608 210.151 76.7796C211.745 76.6233 213.38 76.4775 215.016 76.3525C215.703 76.3005 216.38 76.2588 217.037 76.2171C220.245 76.0296 223.172 75.9567 225.828 76.0192C228.161 76.0713 230.276 76.2067 232.161 76.4567C232.557 76.5088 232.953 76.5609 233.328 76.6234C237.046 77.2067 239.932 78.2379 241.984 79.7274C243.306 80.6857 244.275 81.8211 244.89 83.1439C245.15 83.7064 245.348 84.3106 245.483 84.9459C246.223 88.5083 245.785 91.8207 244.223 94.6331C243.911 95.1955 243.556 95.7372 243.161 96.258C242.588 96.9976 241.952 97.6746 241.265 98.2787C239.077 100.216 236.39 101.518 233.848 102.383C232.588 102.81 231.369 103.133 230.255 103.383C227.692 103.956 225.724 104.091 225.234 104.122Z" fill="#BE443E"/>
            <path d="M191.361 87.1749L191.111 85.8937L195.142 78.8003L195.288 78.7794L202.423 77.7065L198.235 85.9979C194.131 86.6333 191.423 87.1645 191.361 87.1749Z" fill="white"/>
            <path d="M205.402 94.404L202.558 97.5705L200.308 100.07C200.745 100.466 201.36 101.081 202.037 101.841C202.673 102.56 203.37 103.414 204.027 104.351C204.808 105.466 205.547 106.706 206.079 107.966C206.433 108.81 206.693 109.664 206.808 110.497C206.86 110.883 206.891 111.268 206.881 111.643C206.881 111.685 206.881 111.716 206.87 111.757C206.818 113.039 206.349 114.164 205.412 115.226C205.308 115.341 205.204 115.455 205.089 115.58C204.943 115.726 204.787 115.882 204.61 116.028C204.537 116.101 204.454 116.164 204.37 116.236C204.058 116.497 202.485 116.674 198.871 114.705C198.693 114.612 198.506 114.507 198.308 114.393C197.329 113.83 196.287 113.164 195.173 112.382C193.475 111.195 191.621 109.758 189.642 108.081C188.236 106.893 186.767 105.591 185.236 104.154C184.6 103.56 183.965 102.966 183.35 102.372C181.465 100.56 179.653 98.7371 177.976 96.9976C176.101 95.0602 174.392 93.2269 172.955 91.6437C170.143 88.5605 168.361 86.4564 168.32 86.4043L167.32 87.248L162.507 91.3104C162.643 91.4666 163.934 92.9978 166.018 95.3206L166.122 95.4352C167.466 96.9351 169.132 98.758 171.028 100.747C172.695 102.508 174.538 104.383 176.476 106.299C177.621 107.424 178.809 108.56 180.007 109.685C180.507 110.153 181.007 110.612 181.507 111.06C183.892 113.216 186.142 115.111 188.246 116.736C190.1 118.163 191.84 119.382 193.465 120.372C193.808 120.58 194.152 120.788 194.485 120.976C197.756 122.851 200.662 123.861 203.193 123.986C204.829 124.069 206.297 123.788 207.61 123.132C208.172 122.851 208.704 122.507 209.204 122.101C212.016 119.788 213.755 116.924 214.297 113.737C214.401 113.101 214.474 112.455 214.485 111.799C214.505 110.862 214.422 109.935 214.276 109.028C213.787 106.133 212.505 103.435 211.058 101.164C210.349 100.039 209.589 99.0184 208.87 98.133C207.224 96.081 205.766 94.7373 205.402 94.404Z" fill="#BE443E"/>
            <path d="M168.309 86.4043L167.309 87.248L166.007 95.3206L166.112 95.4352L171.018 100.747L172.945 91.6437C170.132 88.5605 168.351 86.446 168.309 86.4043Z" fill="white"/>
            <path d="M177.965 96.9873L176.465 106.299C177.611 107.424 178.798 108.56 179.996 109.685C180.496 110.153 180.996 110.612 181.496 111.06L183.34 102.373C181.455 100.55 179.642 98.7268 177.965 96.9873Z" fill="white"/>
            <path d="M189.631 108.07L188.236 116.726C190.09 118.153 191.829 119.372 193.454 120.361L195.152 112.372C193.454 111.174 191.61 109.747 189.631 108.07Z" fill="white"/>
            <path d="M204.6 116.007C204.527 116.08 204.443 116.143 204.36 116.216C204.047 116.476 202.475 116.653 198.86 114.684L203.193 123.965C204.829 124.049 206.297 123.767 207.61 123.111L204.6 116.007Z" fill="white"/>
            <path d="M16.909 104.122L16.6694 99.8829L16.4819 96.5392C17.0757 96.508 17.9298 96.4142 18.9297 96.2372C19.8776 96.0705 20.9505 95.8413 22.0442 95.5289C23.3567 95.1539 24.7003 94.6435 25.8982 93.9977C26.7003 93.5602 27.4398 93.0602 28.0544 92.4769C28.3356 92.2061 28.596 91.9248 28.8252 91.6332C28.846 91.6019 28.8669 91.5707 28.8877 91.5394C29.6481 90.5082 29.9814 89.3416 29.9189 87.925C29.9085 87.7688 29.8981 87.6125 29.8876 87.4458C29.8668 87.2375 29.8356 87.0188 29.7939 86.8C29.7835 86.6959 29.7627 86.5917 29.7314 86.4876C29.6481 86.0917 28.544 84.9668 24.492 84.2376C24.2941 84.196 24.0754 84.1647 23.8567 84.1335C22.7421 83.9564 21.513 83.8314 20.1693 83.7377C18.0964 83.6022 15.7632 83.5606 13.18 83.6335C11.3467 83.6856 9.38846 83.7793 7.30521 83.9356C6.44066 83.9981 5.57614 84.071 4.722 84.1439C2.12835 84.3731 -0.423618 84.6647 -2.81936 84.9668C-5.49634 85.3001 -7.96501 85.6647 -10.0691 85.9876C-14.1835 86.6334 -16.8917 87.1542 -16.9438 87.1646L-17.1938 85.8834L-18.4021 79.717C-18.2042 79.6753 -16.2356 79.3003 -13.1628 78.7899L-13.0169 78.7691C-11.0274 78.4358 -8.58997 78.0608 -5.88174 77.6962C-3.486 77.3733 -0.881975 77.0608 1.82625 76.7796C3.41994 76.6233 5.05527 76.4775 6.69063 76.3525C7.3781 76.3005 8.05516 76.2588 8.71138 76.2171C11.9196 76.0296 14.8466 75.9567 17.5027 76.0192C19.8359 76.0713 21.9505 76.2067 23.8358 76.4567C24.2316 76.5088 24.6274 76.5609 25.0024 76.6234C28.721 77.2067 31.6063 78.2379 33.6583 79.7274C34.9812 80.6857 35.9499 81.8211 36.5645 83.1439C36.8249 83.7064 37.0228 84.3106 37.1582 84.9459C37.8977 88.5083 37.4603 91.8207 35.8979 94.6331C35.5854 95.1955 35.2312 95.7372 34.8354 96.258C34.2625 96.9976 33.6271 97.6746 32.9396 98.2787C30.7522 100.216 28.0648 101.518 25.5232 102.383C24.2629 102.81 23.0442 103.133 21.9296 103.383C19.3672 103.956 17.3986 104.091 16.909 104.122Z" fill="#BE443E"/>
            <path d="M-2.82983 84.9668L1.8262 76.79C3.41989 76.6338 5.05522 76.488 6.69057 76.363C7.37805 76.3109 8.05511 76.2692 8.71133 76.2275L4.71152 84.1439C2.10746 84.3835 -0.444512 84.6647 -2.82983 84.9668Z" fill="white"/>
            <path d="M13.1697 83.6439L17.4924 76.04C19.8257 76.0921 21.9401 76.2275 23.8255 76.4775L20.1486 83.7585C18.0966 83.6127 15.7633 83.571 13.1697 83.6439Z" fill="white"/>
            <path d="M29.7836 86.8104C29.7732 86.7063 29.7523 86.6021 29.7211 86.4979C29.6378 86.1021 28.5336 84.9772 24.4817 84.248L33.6584 79.7378C34.9813 80.6961 35.95 81.8315 36.5646 83.1543L29.7836 86.8104Z" fill="white"/>
            <path d="M32.9292 98.2995L28.0439 92.4769C28.3252 92.206 28.5856 91.9248 28.8148 91.6331C28.8356 91.6019 28.8565 91.5706 28.8773 91.5394C29.6377 90.5082 29.971 89.3416 29.9085 87.925C29.8981 87.7687 29.8876 87.6125 29.8772 87.4458L35.8978 94.633C35.5854 95.1955 35.2312 95.7371 34.8354 96.258C34.2521 97.0079 33.6166 97.685 32.9292 98.2995Z" fill="white"/>
            <path d="M21.9192 103.403L22.0442 95.5287C23.3566 95.1538 24.7003 94.6434 25.8981 93.9976L25.5127 102.403C24.2524 102.831 23.0337 103.153 21.9192 103.403Z" fill="white"/>
            <path d="M16.6694 99.8828L16.4819 96.5391C17.0757 96.5079 17.9298 96.4141 18.9297 96.2371L16.6694 99.8828Z" fill="white"/>
            <path d="M-2.92357 94.404L-5.76719 97.5705L-8.01713 100.07C-7.57965 100.466 -6.96505 101.081 -6.288 101.841C-5.65261 102.56 -4.95475 103.414 -4.29852 104.351C-3.5173 105.466 -2.77771 106.706 -2.24649 107.966C-1.89233 108.81 -1.63192 109.664 -1.51733 110.497C-1.46526 110.883 -1.43406 111.268 -1.44448 111.643C-1.44448 111.685 -1.44442 111.716 -1.45484 111.757C-1.50692 113.039 -1.97568 114.164 -2.91314 115.226C-3.0173 115.341 -3.12146 115.455 -3.23604 115.58C-3.38187 115.726 -3.53814 115.882 -3.71521 116.028C-3.78813 116.101 -3.87144 116.164 -3.95477 116.236C-4.26725 116.497 -5.84009 116.674 -9.46494 114.705C-9.64202 114.612 -9.82955 114.507 -10.0275 114.393C-11.0066 113.83 -12.0482 113.164 -13.1628 112.382C-14.8606 111.195 -16.7147 109.758 -18.6938 108.081C-20.1 106.893 -21.5687 105.591 -23.0998 104.154C-23.7352 103.56 -24.3706 102.966 -24.9852 102.372C-26.8705 100.56 -28.6829 98.7371 -30.3599 96.9976C-32.2349 95.0602 -33.9431 93.2269 -35.3806 91.6437C-38.193 88.5605 -39.9742 86.4564 -40.0158 86.4043L-41.0158 87.248L-45.8281 91.3104C-45.6927 91.4666 -44.4011 92.9978 -42.3179 95.3206L-42.2137 95.4352C-40.87 96.9351 -39.2034 98.758 -37.3076 100.747C-35.641 102.508 -33.7973 104.383 -31.8599 106.299C-30.7141 107.424 -29.5267 108.56 -28.3288 109.685C-27.8288 110.153 -27.3289 110.612 -26.8289 111.06C-24.4436 113.216 -22.1936 115.111 -20.0791 116.736C-18.225 118.163 -16.4855 119.382 -14.8606 120.372C-14.5168 120.58 -14.1731 120.788 -13.8398 120.976C-10.5691 122.851 -7.66296 123.861 -5.13181 123.986C-3.49646 124.069 -2.02777 123.788 -0.715328 123.132C-0.152851 122.851 0.37841 122.507 0.878391 122.101C3.69078 119.788 5.41989 116.924 5.97195 113.737C6.07612 113.101 6.14902 112.455 6.15944 111.799C6.18027 110.862 6.09693 109.935 5.9511 109.028C5.46154 106.133 4.18031 103.435 2.73245 101.164C2.02415 100.039 1.26378 99.0184 0.545063 98.133C-1.1007 96.081 -2.559 94.7373 -2.92357 94.404Z" fill="#BE443E"/>
            <path d="M5.94081 109.018L-1.52763 110.497C-1.47555 110.883 -1.44429 111.268 -1.45471 111.643C-1.45471 111.685 -1.45472 111.716 -1.46514 111.758C-1.51722 113.039 -1.98597 114.164 -2.92344 115.226C-3.0276 115.341 -3.13176 115.455 -3.24634 115.58L5.97209 113.737C6.07625 113.101 6.14916 112.455 6.15957 111.799C6.16999 110.851 6.09705 109.924 5.94081 109.018Z" fill="white"/>
            <path d="M0.534746 98.1121L-4.30884 104.341C-3.52762 105.456 -2.78803 106.695 -2.2568 107.955L2.72213 101.143C2.00341 100.029 1.25347 99.0079 0.534746 98.1121Z" fill="white"/>
            <path d="M101.239 -9.75862L98.3954 -6.59207L96.1455 -4.09217C96.583 -3.69635 97.1975 -3.0818 97.8746 -2.32141C98.51 -1.60269 99.2079 -0.748558 99.8641 0.188904C100.645 1.30344 101.385 2.54298 101.916 3.80335C102.27 4.64706 102.531 5.5012 102.645 6.3345C102.697 6.7199 102.729 7.1053 102.718 7.48028C102.718 7.52195 102.718 7.5532 102.708 7.59486C102.656 8.87606 102.187 10.001 101.249 11.0635C101.145 11.1781 101.041 11.2926 100.927 11.4176C100.781 11.5635 100.624 11.7197 100.447 11.8655C100.374 11.9384 100.291 12.0009 100.208 12.0739C99.8953 12.3343 98.3225 12.5113 94.6977 10.5427C94.5206 10.4489 94.333 10.3448 94.1351 10.2302C93.156 9.66771 92.1144 9.00106 90.9998 8.21984C89.302 7.03239 87.4479 5.59494 85.4688 3.91792C84.0626 2.73047 82.5939 1.42844 81.0628 -0.00899887C80.4274 -0.602726 79.792 -1.19645 79.1774 -1.79018C77.2921 -3.60261 75.4797 -5.42546 73.8027 -7.16497C71.9277 -9.10239 70.2195 -10.9357 68.782 -12.5189C65.9696 -15.6021 64.1884 -17.7062 64.1468 -17.7583L63.1468 -16.9146L58.3345 -12.8522C58.4699 -12.696 59.7615 -11.1648 61.8447 -8.84199L61.9489 -8.72741C63.2926 -7.22747 64.9592 -5.40462 66.855 -3.41512C68.5216 -1.65477 70.3653 0.220156 72.3027 2.13675C73.4485 3.2617 74.6359 4.39707 75.8338 5.52203C76.3337 5.99076 76.8337 6.44908 77.3337 6.89698C79.719 9.05314 81.969 10.9489 84.0731 12.5738C85.9272 14.0009 87.6667 15.2196 89.2916 16.2091C89.6354 16.4174 89.9791 16.6258 90.3124 16.8133C93.5831 18.6882 96.4892 19.6986 99.0204 19.8236C100.656 19.9069 102.124 19.6256 103.437 18.9694C103.999 18.6882 104.531 18.3444 105.031 17.9382C107.843 15.6258 109.582 12.7613 110.124 9.57395C110.228 8.93856 110.301 8.29275 110.312 7.63653C110.332 6.69907 110.249 5.77202 110.103 4.86581C109.614 1.97009 108.332 -0.727724 106.885 -2.99847C106.176 -4.12342 105.416 -5.14421 104.697 -6.02959C103.062 -8.0816 101.604 -9.4253 101.239 -9.75862Z" fill="#BE443E"/>
            <path d="M73.8027 -7.17529L72.3027 2.13684C73.4485 3.2618 74.6359 4.39717 75.8338 5.52213C76.3338 5.99086 76.8338 6.44917 77.3337 6.89707L79.1774 -1.79008C77.2921 -3.61293 75.4797 -5.43578 73.8027 -7.17529Z" fill="white"/>
            <path d="M85.4687 3.90747L84.073 12.5634C85.9271 13.9904 87.6666 15.2091 89.2916 16.1986L90.9894 8.20938C89.2916 7.01151 87.4478 5.58449 85.4687 3.90747Z" fill="white"/>
            <path d="M100.437 11.8446C100.364 11.9175 100.281 11.98 100.197 12.0529C99.8849 12.3133 98.3121 12.4904 94.6873 10.5217L99.0204 19.8026C100.656 19.8859 102.124 19.6047 103.437 18.9485L100.437 11.8446Z" fill="white"/>
            <path d="M110.103 4.85547L102.635 6.33458C102.687 6.71998 102.718 7.10538 102.708 7.48036C102.708 7.52203 102.708 7.55328 102.697 7.59494C102.645 8.87614 102.177 10.0011 101.239 11.0636C101.135 11.1781 101.031 11.2927 100.916 11.4177L110.135 9.57403C110.239 8.93864 110.312 8.29283 110.322 7.63661C110.332 6.68873 110.26 5.76168 110.103 4.85547Z" fill="white"/>
            <path d="M104.697 -6.05054L99.8536 0.178388C100.635 1.29293 101.374 2.53246 101.906 3.79283L106.885 -3.0194C106.166 -4.13394 105.416 -5.15474 104.697 -6.05054Z" fill="white"/>
            <path d="M208.287 183.098L204.048 183.338L200.704 183.525C200.673 182.932 200.579 182.078 200.402 181.078C200.235 180.13 200.006 179.057 199.694 177.963C199.319 176.651 198.808 175.307 198.162 174.109C197.725 173.307 197.225 172.568 196.642 171.953C196.371 171.672 196.09 171.411 195.798 171.182C195.767 171.161 195.735 171.141 195.704 171.12C194.673 170.359 193.506 170.026 192.09 170.088C191.933 170.099 191.777 170.109 191.61 170.12C191.402 170.141 191.183 170.172 190.965 170.213C190.861 170.224 190.756 170.245 190.652 170.276C190.256 170.359 189.131 171.463 188.402 175.515C188.361 175.713 188.329 175.932 188.298 176.151C188.121 177.265 187.996 178.494 187.902 179.838C187.767 181.911 187.725 184.244 187.798 186.827C187.85 188.661 187.944 190.619 188.1 192.702C188.163 193.567 188.236 194.431 188.309 195.285C188.538 197.879 188.829 200.431 189.131 202.827C189.465 205.504 189.829 207.972 190.152 210.076C190.798 214.191 191.319 216.899 191.329 216.951L190.048 217.201L183.882 218.409C183.84 218.212 183.465 216.243 182.955 213.17L182.934 213.024C182.6 211.035 182.225 208.597 181.861 205.889C181.538 203.493 181.225 200.889 180.944 198.181C180.788 196.587 180.642 194.952 180.517 193.317C180.465 192.629 180.423 191.952 180.382 191.296C180.194 188.098 180.121 185.161 180.184 182.505C180.236 180.171 180.371 178.057 180.621 176.172C180.673 175.776 180.725 175.38 180.788 175.005C181.371 171.286 182.403 168.401 183.892 166.349C184.85 165.026 185.986 164.057 187.309 163.443C187.871 163.182 188.475 162.985 189.111 162.849C192.673 162.11 195.985 162.547 198.798 164.11C199.36 164.422 199.902 164.776 200.423 165.172C201.162 165.745 201.839 166.38 202.443 167.068C204.381 169.255 205.683 171.943 206.547 174.484C206.974 175.744 207.297 176.963 207.547 178.078C208.12 180.63 208.256 182.609 208.287 183.098Z" fill="#BE443E"/>
            <path d="M189.131 202.837L180.955 198.181C180.798 196.587 180.653 194.952 180.528 193.317C180.476 192.629 180.434 191.952 180.392 191.296L188.309 195.296C188.538 197.889 188.829 200.441 189.131 202.837Z" fill="white"/>
            <path d="M187.809 186.827L180.205 182.505C180.257 180.171 180.392 178.057 180.642 176.172L187.923 179.849C187.767 181.911 187.736 184.244 187.809 186.827Z" fill="white"/>
            <path d="M190.975 170.224C190.871 170.234 190.767 170.255 190.663 170.286C190.267 170.37 189.142 171.474 188.413 175.526L183.902 166.349C184.861 165.026 185.996 164.057 187.319 163.443L190.975 170.224Z" fill="white"/>
            <path d="M202.454 167.068L196.631 171.953C196.36 171.672 196.079 171.411 195.787 171.182C195.756 171.161 195.725 171.141 195.694 171.12C194.662 170.359 193.496 170.026 192.079 170.088C191.923 170.099 191.767 170.109 191.6 170.12L198.787 164.099C199.35 164.412 199.891 164.766 200.412 165.162C201.173 165.745 201.85 166.38 202.454 167.068Z" fill="white"/>
            <path d="M207.558 178.088L199.683 177.963C199.308 176.651 198.798 175.307 198.152 174.109L206.558 174.495C206.995 175.744 207.318 176.974 207.558 178.088Z" fill="white"/>
            <path d="M198.569 202.921L201.735 205.764L204.235 208.014C204.631 207.577 205.245 206.962 206.006 206.285C206.724 205.65 207.579 204.952 208.516 204.296C209.631 203.514 210.87 202.775 212.131 202.244C212.974 201.889 213.828 201.629 214.662 201.514C215.047 201.462 215.432 201.431 215.807 201.441C215.849 201.441 215.88 201.442 215.922 201.452C217.203 201.504 218.328 201.973 219.391 202.91C219.505 203.014 219.62 203.119 219.745 203.233C219.891 203.379 220.047 203.535 220.193 203.712C220.266 203.785 220.328 203.868 220.401 203.952C220.661 204.264 220.838 205.837 218.87 209.452C218.776 209.629 218.672 209.816 218.557 210.014C217.995 210.993 217.328 212.035 216.547 213.149C215.36 214.847 213.922 216.701 212.245 218.68C211.058 220.087 209.756 221.555 208.318 223.086C207.724 223.722 207.131 224.357 206.537 224.972C204.725 226.857 202.902 228.67 201.162 230.347C199.225 232.222 197.392 233.93 195.808 235.367C192.725 238.18 190.621 239.961 190.569 240.002L191.413 241.002L195.475 245.815C195.631 245.679 197.162 244.388 199.485 242.304L199.6 242.2C201.1 240.857 202.923 239.19 204.912 237.294C206.672 235.628 208.547 233.784 210.464 231.847C211.589 230.701 212.724 229.513 213.849 228.315C214.318 227.815 214.776 227.315 215.224 226.816C217.38 224.43 219.276 222.18 220.901 220.076C222.328 218.222 223.547 216.483 224.536 214.858C224.745 214.514 224.953 214.17 225.14 213.837C227.015 210.566 228.026 207.66 228.151 205.129C228.234 203.494 227.953 202.025 227.297 200.712C227.015 200.15 226.672 199.619 226.265 199.119C223.953 196.306 221.088 194.567 217.901 194.025C217.266 193.911 216.62 193.848 215.964 193.838C215.026 193.817 214.099 193.9 213.193 194.046C210.297 194.536 207.61 195.817 205.329 197.265C204.204 197.973 203.183 198.733 202.298 199.452C200.246 201.108 198.902 202.566 198.569 202.921Z" fill="#BE443E"/>
            <path d="M-9.75643 202.921L-6.58991 205.764L-4.08998 208.014C-3.69416 207.577 -3.07959 206.962 -2.3192 206.285C-1.60048 205.65 -0.746378 204.952 0.191086 204.296C1.30563 203.514 2.54519 202.775 3.80556 202.244C4.64928 201.889 5.5034 201.629 6.3367 201.514C6.7221 201.462 7.10748 201.431 7.48247 201.441C7.52413 201.441 7.55543 201.442 7.59709 201.452C8.87829 201.504 10.0032 201.973 11.0657 202.91C11.1802 203.014 11.2948 203.119 11.4198 203.233C11.5657 203.379 11.7219 203.535 11.8677 203.712C11.9406 203.785 12.0032 203.868 12.0761 203.952C12.3365 204.264 12.5135 205.837 10.5448 209.452C10.4511 209.629 10.347 209.816 10.2324 210.014C9.66989 210.993 9.00326 212.035 8.22204 213.149C7.03459 214.847 5.59714 216.701 3.92012 218.68C2.73267 220.087 1.43062 221.555 -0.0068264 223.086C-0.600552 223.722 -1.19424 224.357 -1.78796 224.972C-3.60039 226.857 -5.42327 228.67 -7.16279 230.347C-9.10021 232.222 -10.9334 233.93 -12.5167 235.367C-15.5999 238.18 -17.704 239.961 -17.7561 240.002L-16.9124 241.002L-12.85 245.815C-12.6938 245.679 -11.1626 244.388 -8.83979 242.304L-8.72523 242.2C-7.22529 240.857 -5.4024 239.19 -3.4129 237.294C-1.65255 235.628 0.22233 233.784 2.13892 231.847C3.26388 230.701 4.39925 229.513 5.5242 228.315C5.99294 227.815 6.45126 227.315 6.89916 226.816C9.05532 224.43 10.9511 222.18 12.576 220.076C14.0031 218.222 15.2217 216.483 16.2113 214.858C16.4196 214.514 16.628 214.17 16.8155 213.837C18.6904 210.566 19.7008 207.66 19.8258 205.129C19.9091 203.494 19.6278 202.025 18.9716 200.712C18.6904 200.15 18.3467 199.619 17.9404 199.119C15.628 196.306 12.7635 194.567 9.57614 194.025C8.94075 193.911 8.29496 193.848 7.63873 193.838C6.70127 193.817 5.77419 193.9 4.86798 194.046C1.97226 194.536 -0.715126 195.817 -2.99629 197.265C-4.12124 197.973 -5.14201 198.733 -6.02739 199.452C-8.07939 201.108 -9.42311 202.566 -9.75643 202.921Z" fill="#BE443E"/>
            <path d="M4.84717 194.067L6.32626 201.535C6.71166 201.483 7.09704 201.452 7.47202 201.462C7.51369 201.462 7.54498 201.462 7.58665 201.473C8.86785 201.525 9.99276 201.994 11.0552 202.931C11.1698 203.035 11.2844 203.139 11.4094 203.254L9.5657 194.036C8.93031 193.921 8.28451 193.859 7.62829 193.848C6.68041 193.827 5.75338 193.911 4.84717 194.067Z" fill="white"/>
            <path d="M-6.04834 199.462L0.180561 204.306C1.2951 203.525 2.53467 202.785 3.79504 202.254L-3.01717 197.275C-4.14213 197.994 -5.15254 198.744 -6.04834 199.462Z" fill="white"/>
            <path d="M104.124 78.9358L99.8849 79.1753L96.5413 79.3628C96.51 78.7691 96.4163 77.915 96.2392 76.915C96.0726 75.9671 95.8434 74.8943 95.5309 73.8005C95.1559 72.4881 94.6455 71.1444 93.9997 69.9465C93.5622 69.1445 93.0623 68.4049 92.479 67.7904C92.2081 67.5091 91.9269 67.2487 91.6353 67.0196C91.604 66.9987 91.5727 66.9779 91.5415 66.9571C90.5103 66.1967 89.3437 65.8634 87.9271 65.9259C87.7708 65.9363 87.6146 65.9467 87.4479 65.9571C87.2396 65.9779 87.0208 66.0092 86.8021 66.0509C86.6979 66.0613 86.5938 66.0821 86.4896 66.1134C86.0938 66.1967 84.9688 67.3008 84.2397 71.3527C84.198 71.5506 84.1668 71.7694 84.1355 71.9881C83.9585 73.1027 83.8335 74.3318 83.7397 75.6755C83.6043 77.7483 83.5627 80.0816 83.6356 82.6648C83.6877 84.4981 83.7814 86.4563 83.9376 88.5396C84.0001 89.4041 84.073 90.2687 84.146 91.1228C84.3751 93.7164 84.6668 96.2684 84.9688 98.6642C85.3021 101.341 85.6667 103.81 85.9896 105.914C86.6354 110.028 87.1562 112.737 87.1666 112.789L85.8855 113.039L79.7191 114.247C79.6774 114.049 79.3024 112.08 78.792 109.007L78.7711 108.862C78.4378 106.872 78.0629 104.435 77.6983 101.727C77.3754 99.3308 77.0629 96.7267 76.7817 94.0185C76.6254 92.4248 76.4796 90.7895 76.3546 89.1541C76.3025 88.4666 76.2608 87.7896 76.2191 87.1334C76.0317 83.9356 75.9588 80.9982 76.0213 78.342C76.0734 76.0088 76.2088 73.8943 76.4588 72.0089C76.5108 71.6131 76.5629 71.2173 76.6254 70.8423C77.2087 67.1237 78.24 64.2384 79.7295 62.1864C80.6878 60.8636 81.8231 59.8949 83.146 59.2803C83.7085 59.0199 84.3126 58.822 84.948 58.6866C88.5103 57.947 91.8227 58.3845 94.6351 59.9469C95.1976 60.2594 95.7393 60.6136 96.2601 61.0094C96.9996 61.5823 97.6767 62.2177 98.2808 62.9051C100.218 65.0926 101.52 67.78 102.385 70.3215C102.812 71.5819 103.135 72.8006 103.385 73.9151C103.958 76.4671 104.093 78.4462 104.124 78.9358Z" fill="#BE443E"/>
            <path d="M87.1771 112.799L85.8959 113.049L78.8024 109.018L78.7816 108.872L77.7087 101.737L86 105.924C86.6354 110.039 87.1562 112.736 87.1771 112.799Z" fill="white"/>
            <path d="M84.9689 98.6745L76.7921 94.0184C76.6359 92.4248 76.49 90.7894 76.365 89.1541C76.3129 88.4666 76.2713 87.7895 76.2296 87.1333L84.146 91.1331C84.3752 93.7268 84.6668 96.2788 84.9689 98.6745Z" fill="white"/>
            <path d="M83.646 82.6649L76.0421 78.3421C76.0942 76.0089 76.2296 73.8944 76.4796 72.009L83.7606 75.686C83.6044 77.7484 83.5731 80.0816 83.646 82.6649Z" fill="white"/>
            <path d="M86.8125 66.0612C86.7084 66.0717 86.6042 66.0925 86.5001 66.1237C86.1043 66.2071 84.9793 67.3112 84.2501 71.3631L79.7399 62.1864C80.6982 60.8635 81.8336 59.8948 83.1564 59.2803L86.8125 66.0612Z" fill="white"/>
            <path d="M98.2912 62.9052L92.4686 67.7904C92.1977 67.5092 91.9165 67.2487 91.6249 67.0196C91.5936 66.9987 91.5623 66.9779 91.5311 66.9571C90.4999 66.1967 89.3333 65.8634 87.9167 65.9259C87.7604 65.9363 87.6042 65.9467 87.4375 65.9571L94.6247 59.9365C95.1872 60.249 95.7289 60.6032 96.2497 60.999C97.0101 61.5823 97.6871 62.2177 98.2912 62.9052Z" fill="white"/>
            <path d="M103.395 73.9256L95.5205 73.8005C95.1456 72.4881 94.6352 71.1444 93.9894 69.9465L102.395 70.3319C102.833 71.5819 103.156 72.811 103.395 73.9256Z" fill="white"/>
            <path d="M99.8849 79.1649L96.5413 79.3524C96.5101 78.7586 96.4163 77.9045 96.2393 76.9045L99.8849 79.1649Z" fill="white"/>
            <path d="M94.4059 98.758L97.5724 101.602L100.072 103.852C100.468 103.414 101.083 102.8 101.843 102.122C102.562 101.487 103.416 100.789 104.353 100.133C105.468 99.3517 106.708 98.6122 107.968 98.081C108.812 97.7268 109.666 97.4664 110.499 97.3518C110.884 97.2997 111.27 97.2685 111.645 97.2789C111.686 97.2789 111.718 97.2789 111.759 97.2893C113.041 97.3414 114.166 97.8101 115.228 98.7476C115.343 98.8518 115.457 98.9559 115.582 99.0705C115.728 99.2163 115.884 99.3726 116.03 99.5496C116.103 99.6226 116.166 99.7059 116.238 99.7892C116.499 100.102 116.676 101.675 114.707 105.299C114.613 105.477 114.509 105.664 114.395 105.862C113.832 106.841 113.166 107.883 112.384 108.997C111.197 110.695 109.759 112.549 108.082 114.528C106.895 115.934 105.593 117.403 104.156 118.934C103.562 119.57 102.968 120.205 102.374 120.82C100.562 122.705 98.7391 124.517 96.9996 126.194C95.0621 128.069 93.2289 129.778 91.6457 131.215C88.5624 134.027 86.4583 135.809 86.4062 135.85L87.25 136.85L91.3123 141.663C91.4686 141.527 92.9997 140.236 95.3226 138.152L95.4371 138.048C96.9371 136.704 98.76 135.038 100.749 133.142C102.51 131.475 104.385 129.632 106.301 127.694C107.426 126.549 108.562 125.361 109.687 124.163C110.155 123.663 110.614 123.163 111.062 122.663C113.218 120.278 115.113 118.028 116.738 115.914C118.165 114.06 119.384 112.32 120.374 110.695C120.582 110.351 120.79 110.008 120.978 109.674C122.853 106.404 123.863 103.497 123.988 100.966C124.071 99.3309 123.79 97.8622 123.134 96.5498C122.853 95.9873 122.509 95.4561 122.103 94.9561C119.79 92.1437 116.926 90.4146 113.738 89.8625C113.103 89.7584 112.457 89.6855 111.801 89.675C110.864 89.6542 109.937 89.7375 109.03 89.8834C106.135 90.3729 103.447 91.6541 101.166 93.102C100.041 93.8103 99.0203 94.5707 98.135 95.2894C96.083 96.9456 94.7392 98.4039 94.4059 98.758Z" fill="#BE443E"/>
            <path d="M86.4062 135.861L87.25 136.861L95.3226 138.163L95.4371 138.059L100.749 133.153L91.6457 131.226C88.552 134.028 86.4479 135.819 86.4062 135.861Z" fill="white"/>
            <path d="M96.9891 126.205L106.301 127.705C107.426 126.559 108.562 125.372 109.687 124.174C110.155 123.674 110.614 123.174 111.062 122.674L102.374 120.83C100.552 122.705 98.7287 124.528 96.9891 126.205Z" fill="white"/>
            <path d="M108.062 114.528L116.718 115.924C118.145 114.07 119.363 112.33 120.353 110.705L112.364 109.008C111.176 110.705 109.739 112.549 108.062 114.528Z" fill="white"/>
            <path d="M116.009 99.5704C116.082 99.6434 116.145 99.7267 116.218 99.81C116.478 100.123 116.655 101.695 114.686 105.32L123.967 100.987C124.051 99.3517 123.769 97.883 123.113 96.5706L116.009 99.5704Z" fill="white"/>
            <path d="M109.01 89.9043L110.489 97.3727C110.874 97.3207 111.259 97.2894 111.634 97.2998C111.676 97.2998 111.707 97.2998 111.749 97.3102C113.03 97.3623 114.155 97.831 115.218 98.7685C115.332 98.8727 115.447 98.9768 115.572 99.0914L113.728 89.873C113.093 89.7689 112.447 89.6959 111.791 89.6855C110.843 89.6647 109.916 89.748 109.01 89.9043Z" fill="white"/>
            <path d="M98.1141 95.2997L104.343 100.143C105.458 99.3621 106.697 98.6225 107.958 98.0913L101.145 93.1123C100.02 93.831 99.0099 94.581 98.1141 95.2997Z" fill="white"/>
            <path d="M97.5725 101.612L100.072 103.862C100.468 103.424 101.083 102.81 101.843 102.133L97.5725 101.612Z" fill="white"/>
            <path d="M208.287 -25.2268L204.048 -24.9873L200.704 -24.7998C200.673 -25.3935 200.579 -26.2476 200.402 -27.2476C200.235 -28.1955 200.006 -29.2683 199.694 -30.362C199.319 -31.6745 198.808 -33.0182 198.162 -34.2161C197.725 -35.0181 197.225 -35.7577 196.642 -36.3722C196.371 -36.6535 196.09 -36.9139 195.798 -37.143C195.767 -37.1639 195.735 -37.1847 195.704 -37.2055C194.673 -37.9659 193.506 -38.2992 192.09 -38.2367C191.933 -38.2263 191.777 -38.2159 191.61 -38.2055C191.402 -38.1847 191.183 -38.1534 190.965 -38.1117C190.861 -38.1013 190.756 -38.0805 190.652 -38.0492C190.256 -37.9659 189.131 -36.8618 188.402 -32.8099C188.361 -32.612 188.329 -32.3932 188.298 -32.1745C188.121 -31.0599 187.996 -29.8308 187.902 -28.4871C187.767 -26.4143 187.725 -24.081 187.798 -21.4978C187.85 -19.6645 187.944 -17.7063 188.1 -15.623C188.163 -14.7585 188.236 -13.8939 188.309 -13.0398C188.538 -10.4462 188.829 -7.89418 189.131 -5.49844C189.465 -2.82146 189.829 -0.352814 190.152 1.75127C190.798 5.86569 191.319 8.57393 191.329 8.626L190.048 8.87599L183.882 10.0843C183.84 9.88636 183.465 7.91769 182.955 4.8449L182.934 4.69907C182.6 2.70957 182.225 0.272163 181.861 -2.43606C181.538 -4.8318 181.225 -7.43587 180.944 -10.1441C180.788 -11.7378 180.642 -13.3731 180.517 -15.0085C180.465 -15.696 180.423 -16.373 180.382 -17.0292C180.194 -20.227 180.121 -23.1644 180.184 -25.8206C180.236 -28.1538 180.371 -30.2683 180.621 -32.1536C180.673 -32.5495 180.725 -32.9453 180.788 -33.3203C181.371 -37.0389 182.403 -39.9242 183.892 -41.9762C184.85 -43.299 185.986 -44.2677 187.309 -44.8823C187.871 -45.1427 188.475 -45.3406 189.111 -45.476C192.673 -46.2156 195.985 -45.7781 198.798 -44.2157C199.36 -43.9032 199.902 -43.549 200.423 -43.1532C201.162 -42.5803 201.839 -41.9449 202.443 -41.2575C204.381 -39.07 205.683 -36.3826 206.547 -33.8411C206.974 -32.5807 207.297 -31.362 207.547 -30.2475C208.12 -27.6955 208.256 -25.7164 208.287 -25.2268Z" fill="#BE443E"/>
            <path d="M191.34 8.63628L190.059 8.88627L182.965 4.85518L182.944 4.70935L181.871 -2.42578L190.163 1.76155C190.798 5.87597 191.319 8.57378 191.34 8.63628Z" fill="white"/>
            <path d="M198.569 -5.40482L201.735 -2.56119L204.235 -0.311274C204.631 -0.748756 205.245 -1.36332 206.006 -2.04038C206.724 -2.67577 207.579 -3.37365 208.516 -4.02988C209.631 -4.8111 210.87 -5.55065 212.131 -6.08188C212.974 -6.43603 213.828 -6.69644 214.662 -6.81102C215.047 -6.8631 215.432 -6.89434 215.807 -6.88393C215.849 -6.88393 215.88 -6.88393 215.922 -6.87352C217.203 -6.82144 218.328 -6.3527 219.391 -5.41524C219.505 -5.31108 219.62 -5.20692 219.745 -5.09234C219.891 -4.94651 220.047 -4.79026 220.193 -4.61318C220.266 -4.54027 220.328 -4.45695 220.401 -4.37362C220.661 -4.06113 220.838 -2.48827 218.87 1.12617C218.776 1.30324 218.672 1.49074 218.557 1.68865C217.995 2.66777 217.328 3.7094 216.547 4.82394C215.36 6.52179 213.922 8.37588 212.245 10.355C211.058 11.7612 209.756 13.2299 208.318 14.7611C207.724 15.3964 207.131 16.0318 206.537 16.6464C204.725 18.5317 202.902 20.3442 201.162 22.0212C199.225 23.8961 197.392 25.6044 195.808 27.0418C192.725 29.8542 190.621 31.6354 190.569 31.677L191.413 32.677L195.475 37.4893C195.631 37.3539 197.162 36.0623 199.485 33.979L199.6 33.8749C201.1 32.5312 202.923 30.8646 204.912 28.9688C206.672 27.3022 208.547 25.4585 210.464 23.5211C211.589 22.3753 212.724 21.1879 213.849 19.99C214.318 19.49 214.776 18.9901 215.224 18.4901C217.38 16.1047 219.276 13.8548 220.901 11.7508C222.328 9.89666 223.547 8.15714 224.536 6.53221C224.745 6.18847 224.953 5.84473 225.14 5.51141C227.015 2.24071 228.026 -0.665431 228.151 -3.19658C228.234 -4.83193 227.953 -6.30062 227.297 -7.61307C227.015 -8.17555 226.672 -8.70678 226.265 -9.20676C223.953 -12.0191 221.088 -13.7587 217.901 -14.3003C217.266 -14.4045 216.62 -14.4774 215.964 -14.4878C215.026 -14.5086 214.099 -14.4253 213.193 -14.2795C210.297 -13.7899 207.61 -12.5087 205.329 -11.0608C204.204 -10.3525 203.183 -9.59216 202.298 -8.87344C200.246 -7.21725 198.902 -5.75898 198.569 -5.40482Z" fill="#BE443E"/>
            <path d="M190.569 31.698L191.413 32.6979L199.485 34L199.6 33.8958L204.912 28.9897L195.808 27.0627C192.715 29.8647 190.611 31.6563 190.569 31.698Z" fill="white"/>
            <path d="M-9.75643 -5.40482L-6.58991 -2.56119L-4.08998 -0.311274C-3.69416 -0.748756 -3.07959 -1.36332 -2.3192 -2.04038C-1.60048 -2.67577 -0.746378 -3.37365 0.191086 -4.02988C1.30563 -4.8111 2.54519 -5.55065 3.80556 -6.08188C4.64928 -6.43603 5.5034 -6.69644 6.3367 -6.81102C6.7221 -6.8631 7.10748 -6.89434 7.48247 -6.88393C7.52413 -6.88393 7.55543 -6.88393 7.59709 -6.87352C8.87829 -6.82144 10.0032 -6.3527 11.0657 -5.41524C11.1802 -5.31108 11.2948 -5.20692 11.4198 -5.09234C11.5657 -4.94651 11.7219 -4.79026 11.8677 -4.61318C11.9406 -4.54027 12.0032 -4.45695 12.0761 -4.37362C12.3365 -4.06113 12.5135 -2.48827 10.5448 1.12617C10.4511 1.30324 10.347 1.49074 10.2324 1.68865C9.66989 2.66777 9.00326 3.7094 8.22204 4.82394C7.03459 6.52179 5.59714 8.37588 3.92012 10.355C2.73267 11.7612 1.43062 13.2299 -0.0068264 14.7611C-0.600552 15.3964 -1.19424 16.0318 -1.78796 16.6464C-3.60039 18.5317 -5.42327 20.3442 -7.16279 22.0212C-9.10021 23.8961 -10.9334 25.6044 -12.5167 27.0418C-15.5999 29.8542 -17.704 31.6354 -17.7561 31.677L-16.9124 32.677L-12.85 37.4893C-12.6938 37.3539 -11.1626 36.0623 -8.83979 33.979L-8.72523 33.8749C-7.22529 32.5312 -5.4024 30.8646 -3.4129 28.9688C-1.65255 27.3022 0.22233 25.4585 2.13892 23.5211C3.26388 22.3753 4.39925 21.1879 5.5242 19.99C5.99294 19.49 6.45126 18.9901 6.89916 18.4901C9.05532 16.1047 10.9511 13.8548 12.576 11.7508C14.0031 9.89666 15.2217 8.15714 16.2113 6.53221C16.4196 6.18847 16.628 5.84473 16.8155 5.51141C18.6904 2.24071 19.7008 -0.665431 19.8258 -3.19658C19.9091 -4.83193 19.6278 -6.30062 18.9716 -7.61307C18.6904 -8.17555 18.3467 -8.70678 17.9404 -9.20676C15.628 -12.0191 12.7635 -13.7587 9.57614 -14.3003C8.94075 -14.4045 8.29496 -14.4774 7.63873 -14.4878C6.70127 -14.5086 5.77419 -14.4253 4.86798 -14.2795C1.97226 -13.7899 -0.715126 -12.5087 -2.99629 -11.0608C-4.12124 -10.3525 -5.14201 -9.59216 -6.02739 -8.87344C-8.07939 -7.21725 -9.42311 -5.75898 -9.75643 -5.40482Z" fill="#BE443E"/>
            <path d="M-7.1731 22.042L2.13904 23.542C3.264 22.3962 4.39937 21.2087 5.52432 20.0109C5.99305 19.5109 6.45138 19.0109 6.89928 18.5109L-1.78785 16.6672C-3.61069 18.5422 -5.43358 20.365 -7.1731 22.042Z" fill="white"/>
            <path d="M3.89917 10.3653L12.5551 11.7611C13.9821 9.90703 15.2009 8.16752 16.1904 6.54258L8.20109 4.84473C7.01364 6.54258 5.57619 8.38626 3.89917 10.3653Z" fill="white"/>
            <path d="M11.847 -4.59224C11.9199 -4.51933 11.9824 -4.43599 12.0553 -4.35266C12.3157 -4.04018 12.4928 -2.46732 10.5242 1.14712L19.805 -3.18605C19.8884 -4.8214 19.6071 -6.29009 18.9509 -7.60254L11.847 -4.59224Z" fill="white"/>
            <path d="M130.804 89.5431C131.003 104.969 130.147 120.371 129.655 135.784C129.585 137.883 129.561 139.983 129.643 142.082C129.749 144.664 129.772 147.188 128.647 149.629C128.248 150.502 128.084 151.563 128.096 152.542C128.119 154.689 127.205 155.868 125.072 155.833C123.419 155.809 121.754 155.691 120.125 155.432C119.257 155.29 118.601 154.642 118.249 153.71C115.436 146.139 115.26 138.119 114.275 130.241C113.595 124.84 113.044 119.415 112.986 113.955C112.974 112.528 111.919 112.752 111.098 112.74C103.021 112.611 94.9446 112.54 86.8678 112.387C82.5891 112.304 78.3104 111.974 74.1371 110.995C68.4634 109.674 68.2173 107.28 70.5618 102.799C74.0082 96.1945 78.7676 90.4158 83.2573 84.4956C88.8138 77.1485 93.7841 69.3296 100.079 62.5957C104.885 57.442 110.172 52.7365 115.236 47.8306C115.576 47.5004 115.905 47.1584 116.162 46.781C118.589 43.3256 122.141 43.3374 124.943 46.5687C128.166 50.2953 128.483 54.9183 128.952 59.3997C129.995 69.4003 130.558 79.4599 130.804 89.5431ZM111.567 108.07C112.435 108.176 112.775 107.94 112.739 106.95C112.634 103.601 112.634 100.251 112.634 96.9021C112.622 84.0475 113.208 71.2283 114.299 58.4209C114.345 57.9373 114.721 57.159 114.193 56.9939C113.607 56.8052 113.396 57.6661 113.068 58.0907C108.484 63.9401 104.44 70.1787 100.302 76.3347C93.913 85.84 87.3719 95.2392 80.8425 104.65C80.0805 105.747 80.3267 105.947 81.5107 106.042C91.5217 106.785 101.626 106.195 111.567 108.07Z" fill="white"/>
            <path d="M128.304 89.5431C128.503 104.969 127.647 120.371 127.155 135.784C127.085 137.883 127.061 139.983 127.143 142.082C127.249 144.664 127.272 147.188 126.147 149.629C125.748 150.502 125.584 151.563 125.596 152.542C125.619 154.689 124.705 155.868 122.572 155.833C120.919 155.809 119.254 155.691 117.625 155.432C116.757 155.29 116.101 154.642 115.749 153.71C112.936 146.139 112.76 138.119 111.775 130.241C111.095 124.84 110.544 119.415 110.486 113.955C110.474 112.528 109.419 112.752 108.598 112.74C100.521 112.611 92.4446 112.54 84.3678 112.387C80.0891 112.304 75.8104 111.974 71.6371 110.995C65.9634 109.674 65.7173 107.28 68.0618 102.799C71.5082 96.1945 76.2676 90.4158 80.7573 84.4956C86.3138 77.1485 91.2841 69.3296 97.5791 62.5957C102.385 57.442 107.672 52.7365 112.736 47.8306C113.076 47.5004 113.405 47.1584 113.662 46.781C116.089 43.3256 119.641 43.3374 122.443 46.5687C125.666 50.2953 125.983 54.9183 126.452 59.3997C127.495 69.4003 128.058 79.4599 128.304 89.5431ZM109.067 108.07C109.935 108.176 110.275 107.94 110.239 106.95C110.134 103.601 110.134 100.251 110.134 96.9021C110.122 84.0475 110.708 71.2283 111.799 58.4209C111.845 57.9373 112.221 57.159 111.693 56.9939C111.107 56.8052 110.896 57.6661 110.568 58.0907C105.984 63.9401 101.94 70.1787 97.8018 76.3347C91.413 85.84 84.8719 95.2392 78.3425 104.65C77.5805 105.747 77.8267 105.947 79.0107 106.042C89.0217 106.785 99.1265 106.195 109.067 108.07Z" fill="#2E8287"/>
        </g>
    </g>
    <defs>
        <clipPath id="clip0_30_590">
            <rect width="200" height="200" fill="white"/>
        </clipPath>
    </defs>
</svg>
