<svg width="200" height="200" viewBox="0 0 200 200" fill="none" xmlns="http://www.w3.org/2000/svg">
    <g clip-path="url(#clip0_30_1521)">
        <path d="M200 0.410156H0V200.41H200V0.410156Z" fill="#2E8287"/>
        <path d="M100.24 50.8333C106.694 50.9685 113.399 50.4172 119.999 51.8837C121.667 52.2581 123.346 52.6221 124.993 53.0902C126.224 53.4334 126.829 54.4422 127.162 55.5967C128.174 59.0393 127.308 62.4091 126.61 65.7477C126.328 67.1205 124.941 66.5797 123.992 66.5693C123.033 66.5589 121.917 66.5485 121.761 65.2172C121.459 62.5547 120.917 59.8921 121.386 57.2088C121.584 56.0647 121.229 55.7839 120.114 55.8255C109.416 56.2103 98.7071 56.5952 87.9987 56.8656C84.7142 56.9488 81.4192 56.7512 78.1348 56.6056C77.0399 56.5535 76.821 56.8864 76.9669 57.9472C78.1035 66.4965 78.6665 75.077 77.5404 83.6782C77.311 85.4463 77.7177 85.8415 79.4486 85.1551C91.8462 80.2668 103.722 81.9933 114.358 89.4193C123.638 95.8989 128.591 105.384 129.8 116.752C130.488 123.18 129.414 129.212 126.328 134.859C123.231 140.528 118.289 144.043 112.241 145.884C101.877 149.035 91.377 150.918 80.4183 149.545C73.2341 148.64 71.0861 145.53 70.179 138.78C69.7306 135.473 70.252 132.041 70.3667 128.671C70.3875 128.172 70.5439 127.673 70.6899 127.184C71.0131 126.081 71.8994 125.624 72.9213 125.634C74.0265 125.645 74.1725 126.674 74.2455 127.465C74.6939 132.758 76.3205 137.782 77.6343 142.878C78.4684 146.102 79.1774 146.695 82.5453 146.882C88.9475 147.236 94.8491 145.385 100.355 142.327C110.865 136.503 115.859 126.185 114.452 113.673C113.743 107.36 112.21 101.297 108.488 96.0237C104.504 90.3762 98.7384 87.36 92.1068 86.2992C88.7806 85.7687 85.4962 87.4744 82.2117 88.2337C80.5434 88.6185 78.4684 88.6601 77.3527 89.6898C76.0077 90.9378 74.7877 90.7818 73.3592 90.7402C72.0767 90.6986 71.4615 90.0122 71.2738 88.7745C70.2728 82.2117 69.9392 75.6282 70.5335 69.003C70.8568 65.4044 71.0132 61.8058 71.2947 58.2072C71.6283 53.891 72.9108 52.6741 77.2589 52.2269C84.8184 51.4261 92.4197 51.0621 100.24 50.8333Z" fill="white"/>
        <path d="M29.9801 15.1399L26.6201 27.0699L14.4501 30.5199L22.8 35.5999L20.0101 48.9299L29.1801 39.2099L39.6801 47.5299L35.9301 34.7299L44.6501 29.0299L34.2301 26.9199L29.9801 15.1399Z" fill="#D3B77B"/>
        <path d="M29.2601 77.8599L24.9101 90.4699L12.4801 91.7299L21.0101 98.6099L19.6201 110.73L30.2101 100.8L39.6501 109.63L37.3401 97.0099L46.6301 92.0499L34.0801 89.5999L29.2601 77.8599Z" fill="#BE443E"/>
        <path d="M29.92 139.73L26 149.28L12.76 150.88L22.19 156.94L20.52 172.31L29.28 161.57L37.1 171.81L35.51 157.34L46.94 151.86L32.82 148.7L29.92 139.73Z" fill="#D3B77B"/>
        <path d="M31.2601 41.94C31.2601 42.88 30.5001 43.64 29.5601 43.64C28.6201 43.64 27.8601 42.88 27.8601 41.94C27.8601 41 28.6201 40.24 29.5601 40.24C30.4901 40.24 31.2601 41 31.2601 41.94Z" fill="white"/>
        <path d="M30.9601 45.0499C30.9601 45.8299 30.3301 46.4599 29.5501 46.4599C28.7701 46.4599 28.1401 45.8299 28.1401 45.0499C28.1401 44.2699 28.7701 43.6399 29.5501 43.6399C30.3301 43.6499 30.9601 44.2799 30.9601 45.0499Z" fill="white"/>
        <path d="M31.2601 48.16C31.2601 49.1 30.5001 49.86 29.5601 49.86C28.6201 49.86 27.8601 49.1 27.8601 48.16C27.8601 47.22 28.6201 46.46 29.5601 46.46C30.4901 46.46 31.2601 47.22 31.2601 48.16Z" fill="white"/>
        <path d="M30.9601 51.2799C30.9601 52.0599 30.3301 52.6899 29.5501 52.6899C28.7701 52.6899 28.1401 52.0599 28.1401 51.2799C28.1401 50.4999 28.7701 49.8699 29.5501 49.8699C30.3301 49.8699 30.9601 50.4999 30.9601 51.2799Z" fill="white"/>
        <path d="M31.2601 54.39C31.2601 55.33 30.5001 56.09 29.5601 56.09C28.6201 56.09 27.8601 55.33 27.8601 54.39C27.8601 53.45 28.6201 52.69 29.5601 52.69C30.4901 52.68 31.2601 53.45 31.2601 54.39Z" fill="white"/>
        <path d="M30.9601 57.5001C30.9601 58.2801 30.3301 58.9101 29.5501 58.9101C28.7701 58.9101 28.1401 58.2801 28.1401 57.5001C28.1401 56.7201 28.7701 56.0901 29.5501 56.0901C30.3301 56.0901 30.9601 56.7201 30.9601 57.5001Z" fill="white"/>
        <path d="M31.2601 60.6099C31.2601 61.5499 30.5001 62.3099 29.5601 62.3099C28.6201 62.3099 27.8601 61.5499 27.8601 60.6099C27.8601 59.6699 28.6201 58.9099 29.5601 58.9099C30.4901 58.9099 31.2601 59.6699 31.2601 60.6099Z" fill="white"/>
        <path d="M30.9601 63.7201C30.9601 64.5001 30.3301 65.1301 29.5501 65.1301C28.7701 65.1301 28.1401 64.5001 28.1401 63.7201C28.1401 62.9401 28.7701 62.3101 29.5501 62.3101C30.3301 62.3101 30.9601 62.9401 30.9601 63.7201Z" fill="white"/>
        <path d="M31.2601 66.8299C31.2601 67.7699 30.5001 68.5299 29.5601 68.5299C28.6201 68.5299 27.8601 67.7699 27.8601 66.8299C27.8601 65.8899 28.6201 65.1299 29.5601 65.1299C30.4901 65.1299 31.2601 65.8899 31.2601 66.8299Z" fill="white"/>
        <path d="M30.9601 69.94C30.9601 70.72 30.3301 71.35 29.5501 71.35C28.7701 71.35 28.1401 70.72 28.1401 69.94C28.1401 69.16 28.7701 68.53 29.5501 68.53C30.3301 68.54 30.9601 69.17 30.9601 69.94Z" fill="white"/>
        <path d="M31.2601 73.06C31.2601 74 30.5001 74.76 29.5601 74.76C28.6201 74.76 27.8601 74 27.8601 73.06C27.8601 72.12 28.6201 71.36 29.5601 71.36C30.4901 71.35 31.2601 72.11 31.2601 73.06Z" fill="white"/>
        <path d="M30.9601 76.17C30.9601 76.95 30.3301 77.58 29.5501 77.58C28.7701 77.58 28.1401 76.95 28.1401 76.17C28.1401 75.39 28.7701 74.76 29.5501 74.76C30.3301 74.76 30.9601 75.39 30.9601 76.17Z" fill="white"/>
        <path d="M31.3799 1.28989C31.3799 2.06989 30.75 2.69988 29.97 2.69988C29.19 2.69988 28.5599 2.06989 28.5599 1.28989C28.5599 0.509887 29.19 -0.120117 29.97 -0.120117C30.75 -0.120117 31.3799 0.509887 31.3799 1.28989Z" fill="white"/>
        <path d="M31.68 4.39981C31.68 5.33981 30.92 6.0998 29.98 6.0998C29.04 6.0998 28.28 5.33981 28.28 4.39981C28.28 3.45981 29.04 2.6998 29.98 2.6998C30.92 2.6898 31.68 3.45981 31.68 4.39981Z" fill="white"/>
        <path d="M31.3799 7.50986C31.3799 8.28986 30.75 8.91985 29.97 8.91985C29.19 8.91985 28.5599 8.28986 28.5599 7.50986C28.5599 6.72986 29.19 6.09985 29.97 6.09985C30.75 6.09985 31.3799 6.72986 31.3799 7.50986Z" fill="white"/>
        <path d="M31.68 10.6199C31.68 11.5599 30.92 12.3199 29.98 12.3199C29.04 12.3199 28.28 11.5599 28.28 10.6199C28.28 9.67993 29.04 8.91992 29.98 8.91992C30.92 8.91992 31.68 9.67993 31.68 10.6199Z" fill="white"/>
        <path d="M31.3799 13.7298C31.3799 14.5098 30.75 15.1398 29.97 15.1398C29.19 15.1398 28.5599 14.5098 28.5599 13.7298C28.5599 12.9498 29.19 12.3198 29.97 12.3198C30.75 12.3298 31.3799 12.9598 31.3799 13.7298Z" fill="white"/>
        <path d="M31.55 103.82C31.55 104.76 30.79 105.52 29.85 105.52C28.91 105.52 28.15 104.76 28.15 103.82C28.15 102.88 28.91 102.12 29.85 102.12C30.79 102.12 31.55 102.88 31.55 103.82Z" fill="white"/>
        <path d="M31.2601 106.93C31.2601 107.71 30.6301 108.34 29.8501 108.34C29.0701 108.34 28.4401 107.71 28.4401 106.93C28.4401 106.15 29.0701 105.52 29.8501 105.52C30.6301 105.52 31.2601 106.15 31.2601 106.93Z" fill="white"/>
        <path d="M31.55 110.04C31.55 110.98 30.79 111.74 29.85 111.74C28.91 111.74 28.15 110.98 28.15 110.04C28.15 109.1 28.91 108.34 29.85 108.34C30.79 108.34 31.55 109.1 31.55 110.04Z" fill="white"/>
        <path d="M31.2601 113.15C31.2601 113.93 30.6301 114.56 29.8501 114.56C29.0701 114.56 28.4401 113.93 28.4401 113.15C28.4401 112.37 29.0701 111.74 29.8501 111.74C30.6301 111.75 31.2601 112.38 31.2601 113.15Z" fill="white"/>
        <path d="M31.55 116.27C31.55 117.21 30.79 117.97 29.85 117.97C28.91 117.97 28.15 117.21 28.15 116.27C28.15 115.33 28.91 114.57 29.85 114.57C30.79 114.56 31.55 115.32 31.55 116.27Z" fill="white"/>
        <path d="M31.2601 119.38C31.2601 120.16 30.6301 120.79 29.8501 120.79C29.0701 120.79 28.4401 120.16 28.4401 119.38C28.4401 118.6 29.0701 117.97 29.8501 117.97C30.6301 117.97 31.2601 118.6 31.2601 119.38Z" fill="white"/>
        <path d="M31.55 122.49C31.55 123.43 30.79 124.19 29.85 124.19C28.91 124.19 28.15 123.43 28.15 122.49C28.15 121.55 28.91 120.79 29.85 120.79C30.79 120.78 31.55 121.55 31.55 122.49Z" fill="white"/>
        <path d="M31.2601 125.6C31.2601 126.38 30.6301 127.01 29.8501 127.01C29.0701 127.01 28.4401 126.38 28.4401 125.6C28.4401 124.82 29.0701 124.19 29.8501 124.19C30.6301 124.19 31.2601 124.82 31.2601 125.6Z" fill="white"/>
        <path d="M31.55 128.71C31.55 129.65 30.79 130.41 29.85 130.41C28.91 130.41 28.15 129.65 28.15 128.71C28.15 127.77 28.91 127.01 29.85 127.01C30.79 127.01 31.55 127.77 31.55 128.71Z" fill="white"/>
        <path d="M31.2601 131.82C31.2601 132.6 30.6301 133.23 29.8501 133.23C29.0701 133.23 28.4401 132.6 28.4401 131.82C28.4401 131.04 29.0701 130.41 29.8501 130.41C30.6301 130.42 31.2601 131.05 31.2601 131.82Z" fill="white"/>
        <path d="M31.55 134.94C31.55 135.88 30.79 136.64 29.85 136.64C28.91 136.64 28.15 135.88 28.15 134.94C28.15 134 28.91 133.24 29.85 133.24C30.79 133.23 31.55 133.99 31.55 134.94Z" fill="white"/>
        <path d="M31.2601 138.05C31.2601 138.83 30.6301 139.46 29.8501 139.46C29.0701 139.46 28.4401 138.83 28.4401 138.05C28.4401 137.27 29.0701 136.64 29.8501 136.64C30.6301 136.64 31.2601 137.27 31.2601 138.05Z" fill="white"/>
        <path d="M170.57 -20.49L167.21 -8.56999L155.04 -5.11999L163.39 -0.0399895L160.6 13.29L169.77 3.58001L180.27 11.89L176.52 -0.909992L185.24 -6.60999L174.82 -8.70999L170.57 -20.49Z" fill="#D3B77B"/>
        <path d="M169.85 42.23L165.5 54.84L153.07 56.1L161.6 62.97L160.21 75.09L170.8 65.17L180.24 73.99L177.93 61.38L187.22 56.41L174.67 53.97L169.85 42.23Z" fill="#D3B77B"/>
        <path d="M170.51 104.1L166.59 113.64L153.35 115.25L162.78 121.3L161.11 136.68L169.87 125.93L177.69 136.17L176.1 121.7L187.53 116.22L173.41 113.06L170.51 104.1Z" fill="#BE443E"/>
        <path d="M171.85 6.30996C171.85 7.24996 171.09 8.00996 170.15 8.00996C169.21 8.00996 168.45 7.24996 168.45 6.30996C168.45 5.36996 169.21 4.60996 170.15 4.60996C171.08 4.59996 171.85 5.36996 171.85 6.30996Z" fill="white"/>
        <path d="M171.55 9.42001C171.55 10.2 170.92 10.83 170.14 10.83C169.36 10.83 168.73 10.2 168.73 9.42001C168.73 8.64001 169.36 8.01001 170.14 8.01001C170.92 8.01001 171.55 8.64001 171.55 9.42001Z" fill="white"/>
        <path d="M171.85 12.5299C171.85 13.4699 171.09 14.2299 170.15 14.2299C169.21 14.2299 168.45 13.4699 168.45 12.5299C168.45 11.5899 169.21 10.8299 170.15 10.8299C171.08 10.8199 171.85 11.5899 171.85 12.5299Z" fill="white"/>
        <path d="M171.55 15.64C171.55 16.42 170.92 17.05 170.14 17.05C169.36 17.05 168.73 16.42 168.73 15.64C168.73 14.86 169.36 14.23 170.14 14.23C170.92 14.23 171.55 14.86 171.55 15.64Z" fill="white"/>
        <path d="M171.85 18.75C171.85 19.69 171.09 20.45 170.15 20.45C169.21 20.45 168.45 19.69 168.45 18.75C168.45 17.81 169.21 17.05 170.15 17.05C171.08 17.05 171.85 17.81 171.85 18.75Z" fill="white"/>
        <path d="M171.55 21.86C171.55 22.64 170.92 23.27 170.14 23.27C169.36 23.27 168.73 22.64 168.73 21.86C168.73 21.08 169.36 20.45 170.14 20.45C170.92 20.46 171.55 21.09 171.55 21.86Z" fill="white"/>
        <path d="M171.85 24.9799C171.85 25.9199 171.09 26.6799 170.15 26.6799C169.21 26.6799 168.45 25.9199 168.45 24.9799C168.45 24.0399 169.21 23.2799 170.15 23.2799C171.08 23.2699 171.85 24.0299 171.85 24.9799Z" fill="white"/>
        <path d="M171.55 28.0899C171.55 28.8699 170.92 29.4999 170.14 29.4999C169.36 29.4999 168.73 28.8699 168.73 28.0899C168.73 27.3099 169.36 26.6799 170.14 26.6799C170.92 26.6799 171.55 27.3099 171.55 28.0899Z" fill="white"/>
        <path d="M171.85 31.1998C171.85 32.1398 171.09 32.8999 170.15 32.8999C169.21 32.8999 168.45 32.1398 168.45 31.1998C168.45 30.2598 169.21 29.4999 170.15 29.4999C171.08 29.4899 171.85 30.2598 171.85 31.1998Z" fill="white"/>
        <path d="M171.55 34.3099C171.55 35.0899 170.92 35.7199 170.14 35.7199C169.36 35.7199 168.73 35.0899 168.73 34.3099C168.73 33.5299 169.36 32.8999 170.14 32.8999C170.92 32.8999 171.55 33.5299 171.55 34.3099Z" fill="white"/>
        <path d="M171.85 37.42C171.85 38.36 171.09 39.12 170.15 39.12C169.21 39.12 168.45 38.36 168.45 37.42C168.45 36.48 169.21 35.72 170.15 35.72C171.08 35.72 171.85 36.48 171.85 37.42Z" fill="white"/>
        <path d="M171.55 40.5299C171.55 41.3099 170.92 41.9399 170.14 41.9399C169.36 41.9399 168.73 41.3099 168.73 40.5299C168.73 39.7499 169.36 39.1199 170.14 39.1199C170.92 39.1299 171.55 39.7599 171.55 40.5299Z" fill="white"/>
        <path d="M172.15 68.1898C172.15 69.1298 171.39 69.8898 170.45 69.8898C169.51 69.8898 168.75 69.1298 168.75 68.1898C168.75 67.2498 169.51 66.4898 170.45 66.4898C171.38 66.4798 172.15 67.2398 172.15 68.1898Z" fill="white"/>
        <path d="M171.85 71.2999C171.85 72.0799 171.22 72.7099 170.44 72.7099C169.66 72.7099 169.03 72.0799 169.03 71.2999C169.03 70.5199 169.66 69.8899 170.44 69.8899C171.22 69.8899 171.85 70.5199 171.85 71.2999Z" fill="white"/>
        <path d="M172.15 74.4098C172.15 75.3498 171.39 76.1098 170.45 76.1098C169.51 76.1098 168.75 75.3498 168.75 74.4098C168.75 73.4698 169.51 72.7098 170.45 72.7098C171.38 72.6998 172.15 73.4698 172.15 74.4098Z" fill="white"/>
        <path d="M171.85 77.5199C171.85 78.2999 171.22 78.9299 170.44 78.9299C169.66 78.9299 169.03 78.2999 169.03 77.5199C169.03 76.7399 169.66 76.1099 170.44 76.1099C171.22 76.1099 171.85 76.7399 171.85 77.5199Z" fill="white"/>
        <path d="M172.15 80.6299C172.15 81.5699 171.39 82.3299 170.45 82.3299C169.51 82.3299 168.75 81.5699 168.75 80.6299C168.75 79.6899 169.51 78.9299 170.45 78.9299C171.38 78.9299 172.15 79.6899 172.15 80.6299Z" fill="white"/>
        <path d="M171.85 83.7398C171.85 84.5198 171.22 85.1498 170.44 85.1498C169.66 85.1498 169.03 84.5198 169.03 83.7398C169.03 82.9598 169.66 82.3298 170.44 82.3298C171.22 82.3398 171.85 82.9698 171.85 83.7398Z" fill="white"/>
        <path d="M172.15 86.8598C172.15 87.7998 171.39 88.5598 170.45 88.5598C169.51 88.5598 168.75 87.7998 168.75 86.8598C168.75 85.9198 169.51 85.1598 170.45 85.1598C171.38 85.1498 172.15 85.9098 172.15 86.8598Z" fill="white"/>
        <path d="M171.85 89.9698C171.85 90.7498 171.22 91.3798 170.44 91.3798C169.66 91.3798 169.03 90.7498 169.03 89.9698C169.03 89.1898 169.66 88.5598 170.44 88.5598C171.22 88.5598 171.85 89.1898 171.85 89.9698Z" fill="white"/>
        <path d="M172.15 93.0797C172.15 94.0197 171.39 94.7797 170.45 94.7797C169.51 94.7797 168.75 94.0197 168.75 93.0797C168.75 92.1397 169.51 91.3797 170.45 91.3797C171.38 91.3697 172.15 92.1397 172.15 93.0797Z" fill="white"/>
        <path d="M171.85 96.1898C171.85 96.9698 171.22 97.5998 170.44 97.5998C169.66 97.5998 169.03 96.9698 169.03 96.1898C169.03 95.4098 169.66 94.7798 170.44 94.7798C171.22 94.7798 171.85 95.4098 171.85 96.1898Z" fill="white"/>
        <path d="M172.15 99.2999C172.15 100.24 171.39 101 170.45 101C169.51 101 168.75 100.24 168.75 99.2999C168.75 98.3599 169.51 97.5999 170.45 97.5999C171.38 97.5999 172.15 98.3599 172.15 99.2999Z" fill="white"/>
        <path d="M171.85 102.41C171.85 103.19 171.22 103.82 170.44 103.82C169.66 103.82 169.03 103.19 169.03 102.41C169.03 101.63 169.66 101 170.44 101C171.22 101.01 171.85 101.64 171.85 102.41Z" fill="white"/>
        <path d="M138.53 -4.80005L140.93 2.16995L147.8 2.85995L143.09 6.65996L143.86 13.35L138.01 7.86996L132.8 12.74L134.07 5.77995L128.95 3.03996L135.87 1.68996L138.53 -4.80005Z" fill="#BE443E"/>
        <path d="M138.17 29.3599L140.33 34.6299L147.64 35.5199L142.44 38.8599L143.36 47.3499L138.52 41.4199L134.21 47.0699L135.08 39.0799L128.77 36.0599L136.57 34.3099L138.17 29.3599Z" fill="#D3B77B"/>
        <path d="M138.279 10.4571C138.798 10.4336 139.199 9.99411 139.176 9.47548C139.152 8.95685 138.713 8.55548 138.194 8.579C137.675 8.60252 137.274 9.04202 137.298 9.56064C137.321 10.0793 137.761 10.4806 138.279 10.4571Z" fill="white"/>
        <path d="M137.43 11.25C137.43 11.68 137.78 12.03 138.21 12.03C138.64 12.03 138.99 11.68 138.99 11.25C138.99 10.82 138.64 10.47 138.21 10.47C137.78 10.48 137.43 10.82 137.43 11.25Z" fill="white"/>
        <path d="M137.27 12.97C137.27 13.49 137.69 13.91 138.21 13.91C138.73 13.91 139.15 13.49 139.15 12.97C139.15 12.45 138.73 12.03 138.21 12.03C137.69 12.03 137.27 12.45 137.27 12.97Z" fill="white"/>
        <path d="M137.43 14.6899C137.43 15.1199 137.78 15.4699 138.21 15.4699C138.64 15.4699 138.99 15.1199 138.99 14.6899C138.99 14.2599 138.64 13.9099 138.21 13.9099C137.78 13.9099 137.43 14.2599 137.43 14.6899Z" fill="white"/>
        <path d="M137.27 16.41C137.27 16.93 137.69 17.35 138.21 17.35C138.73 17.35 139.15 16.93 139.15 16.41C139.15 15.89 138.73 15.47 138.21 15.47C137.69 15.47 137.27 15.89 137.27 16.41Z" fill="white"/>
        <path d="M137.43 18.1199C137.43 18.5499 137.78 18.8998 138.21 18.8998C138.64 18.8998 138.99 18.5499 138.99 18.1199C138.99 17.6899 138.64 17.3398 138.21 17.3398C137.78 17.3498 137.43 17.6999 137.43 18.1199Z" fill="white"/>
        <path d="M137.27 19.8399C137.27 20.3599 137.69 20.7799 138.21 20.7799C138.73 20.7799 139.15 20.3599 139.15 19.8399C139.15 19.3199 138.73 18.8999 138.21 18.8999C137.69 18.8999 137.27 19.3199 137.27 19.8399Z" fill="white"/>
        <path d="M137.43 21.56C137.43 21.99 137.78 22.34 138.21 22.34C138.64 22.34 138.99 21.99 138.99 21.56C138.99 21.13 138.64 20.78 138.21 20.78C137.78 20.78 137.43 21.13 137.43 21.56Z" fill="white"/>
        <path d="M137.27 23.2798C137.27 23.7998 137.69 24.2198 138.21 24.2198C138.73 24.2198 139.15 23.7998 139.15 23.2798C139.15 22.7598 138.73 22.3398 138.21 22.3398C137.69 22.3398 137.27 22.7598 137.27 23.2798Z" fill="white"/>
        <path d="M137.43 25C137.43 25.43 137.78 25.78 138.21 25.78C138.64 25.78 138.99 25.43 138.99 25C138.99 24.57 138.64 24.22 138.21 24.22C137.78 24.22 137.43 24.57 137.43 25Z" fill="white"/>
        <path d="M137.27 26.71C137.27 27.23 137.69 27.65 138.21 27.65C138.73 27.65 139.15 27.23 139.15 26.71C139.15 26.19 138.73 25.77 138.21 25.77C137.69 25.77 137.27 26.19 137.27 26.71Z" fill="white"/>
        <path d="M137.43 28.4299C137.43 28.8599 137.78 29.2099 138.21 29.2099C138.64 29.2099 138.99 28.8599 138.99 28.4299C138.99 27.9999 138.64 27.6499 138.21 27.6499C137.78 27.6499 137.43 27.9999 137.43 28.4299Z" fill="white"/>
        <path d="M63.2399 -4.7998L65.6399 2.1702L72.4999 2.8602L67.7899 6.6602L68.5599 13.3502L62.7099 7.8702L57.4999 12.7402L58.7799 5.7802L53.6499 3.0402L60.5799 1.6902L63.2399 -4.7998Z" fill="#BE443E"/>
        <path d="M62.8699 29.3601L65.04 34.6301L72.34 35.5201L67.14 38.8601L68.0599 47.3501L63.22 41.4201L58.91 47.0701L59.79 39.0801L53.48 36.0601L61.27 34.3101L62.8699 29.3601Z" fill="white"/>
        <path d="M62.9774 10.4593C63.496 10.4358 63.8973 9.99631 63.8738 9.47768C63.8503 8.95905 63.4108 8.55768 62.8922 8.5812C62.3736 8.60471 61.9722 9.04421 61.9957 9.56284C62.0192 10.0815 62.4587 10.4828 62.9774 10.4593Z" fill="white"/>
        <path d="M62.1299 11.25C62.1299 11.68 62.4799 12.03 62.9099 12.03C63.3399 12.03 63.6899 11.68 63.6899 11.25C63.6899 10.82 63.3399 10.47 62.9099 10.47C62.4799 10.47 62.1299 10.82 62.1299 11.25Z" fill="white"/>
        <path d="M61.97 12.97C61.97 13.49 62.39 13.91 62.91 13.91C63.43 13.91 63.85 13.49 63.85 12.97C63.85 12.45 63.43 12.03 62.91 12.03C62.39 12.03 61.97 12.45 61.97 12.97Z" fill="white"/>
        <path d="M62.1299 14.6902C62.1299 15.1202 62.4799 15.4702 62.9099 15.4702C63.3399 15.4702 63.6899 15.1202 63.6899 14.6902C63.6899 14.2602 63.3399 13.9102 62.9099 13.9102C62.4799 13.9102 62.1299 14.2602 62.1299 14.6902Z" fill="white"/>
        <path d="M61.97 16.41C61.97 16.93 62.39 17.35 62.91 17.35C63.43 17.35 63.85 16.93 63.85 16.41C63.85 15.89 63.43 15.47 62.91 15.47C62.39 15.47 61.97 15.89 61.97 16.41Z" fill="white"/>
        <path d="M62.1299 18.1201C62.1299 18.5501 62.4799 18.9001 62.9099 18.9001C63.3399 18.9001 63.6899 18.5501 63.6899 18.1201C63.6899 17.6901 63.3399 17.3401 62.9099 17.3401C62.4799 17.3401 62.1299 17.7001 62.1299 18.1201Z" fill="white"/>
        <path d="M61.97 19.8401C61.97 20.3601 62.39 20.7801 62.91 20.7801C63.43 20.7801 63.85 20.3601 63.85 19.8401C63.85 19.3201 63.43 18.9001 62.91 18.9001C62.39 18.9001 61.97 19.3201 61.97 19.8401Z" fill="white"/>
        <path d="M62.1299 21.56C62.1299 21.99 62.4799 22.34 62.9099 22.34C63.3399 22.34 63.6899 21.99 63.6899 21.56C63.6899 21.13 63.3399 20.78 62.9099 20.78C62.4799 20.78 62.1299 21.13 62.1299 21.56Z" fill="white"/>
        <path d="M61.97 23.2801C61.97 23.8001 62.39 24.2201 62.91 24.2201C63.43 24.2201 63.85 23.8001 63.85 23.2801C63.85 22.7601 63.43 22.3401 62.91 22.3401C62.39 22.3401 61.97 22.7601 61.97 23.2801Z" fill="white"/>
        <path d="M62.1299 25C62.1299 25.43 62.4799 25.78 62.9099 25.78C63.3399 25.78 63.6899 25.43 63.6899 25C63.6899 24.57 63.3399 24.22 62.9099 24.22C62.4799 24.22 62.1299 24.57 62.1299 25Z" fill="white"/>
        <path d="M61.97 26.71C61.97 27.23 62.39 27.65 62.91 27.65C63.43 27.65 63.85 27.23 63.85 26.71C63.85 26.19 63.43 25.77 62.91 25.77C62.39 25.77 61.97 26.19 61.97 26.71Z" fill="white"/>
        <path d="M62.1299 28.4301C62.1299 28.8601 62.4799 29.2101 62.9099 29.2101C63.3399 29.2101 63.6899 28.8601 63.6899 28.4301C63.6899 28.0001 63.3399 27.6501 62.9099 27.6501C62.4799 27.6501 62.1299 28.0001 62.1299 28.4301Z" fill="white"/>
        <path d="M101.11 12.3999L103.27 17.6699L110.58 18.5499L105.37 21.8899L106.3 30.3799L101.46 24.4499L97.14 30.0999L98.02 22.1199L91.71 19.0899L99.5099 17.3499L101.11 12.3999Z" fill="#BE443E"/>
        <path d="M100.21 -0.559998C100.21 -0.0399976 100.63 0.379997 101.15 0.379997C101.67 0.379997 102.09 -0.0399976 102.09 -0.559998C102.09 -1.08 101.67 -1.5 101.15 -1.5C100.63 -1.5 100.21 -1.08 100.21 -0.559998Z" fill="white"/>
        <path d="M100.37 1.15989C100.37 1.58989 100.72 1.93989 101.15 1.93989C101.58 1.93989 101.93 1.58989 101.93 1.15989C101.93 0.729889 101.58 0.379883 101.15 0.379883C100.72 0.379883 100.37 0.729889 100.37 1.15989Z" fill="white"/>
        <path d="M100.21 2.87994C100.21 3.39994 100.63 3.81994 101.15 3.81994C101.67 3.81994 102.09 3.39994 102.09 2.87994C102.09 2.35994 101.67 1.93994 101.15 1.93994C100.63 1.93994 100.21 2.35994 100.21 2.87994Z" fill="white"/>
        <path d="M100.37 4.59982C100.37 5.02982 100.72 5.37982 101.15 5.37982C101.58 5.37982 101.93 5.02982 101.93 4.59982C101.93 4.16982 101.58 3.81982 101.15 3.81982C100.72 3.81982 100.37 4.16982 100.37 4.59982Z" fill="white"/>
        <path d="M100.21 6.30987C100.21 6.82987 100.63 7.24987 101.15 7.24987C101.67 7.24987 102.09 6.82987 102.09 6.30987C102.09 5.78987 101.67 5.36987 101.15 5.36987C100.63 5.36987 100.21 5.78987 100.21 6.30987Z" fill="white"/>
        <path d="M100.37 8.03C100.37 8.46 100.72 8.81 101.15 8.81C101.58 8.81 101.93 8.46 101.93 8.03C101.93 7.6 101.58 7.25 101.15 7.25C100.72 7.25 100.37 7.6 100.37 8.03Z" fill="white"/>
        <path d="M100.21 9.74982C100.21 10.2698 100.63 10.6898 101.15 10.6898C101.67 10.6898 102.09 10.2698 102.09 9.74982C102.09 9.22982 101.67 8.80981 101.15 8.80981C100.63 8.80981 100.21 9.22982 100.21 9.74982Z" fill="white"/>
        <path d="M100.37 11.4699C100.37 11.8999 100.72 12.2499 101.15 12.2499C101.58 12.2499 101.93 11.8999 101.93 11.4699C101.93 11.0399 101.58 10.6899 101.15 10.6899C100.72 10.6899 100.37 11.0399 100.37 11.4699Z" fill="white"/>
    </g>
    <defs>
        <clipPath id="clip0_30_1521">
            <rect width="200" height="200" fill="white"/>
        </clipPath>
    </defs>
</svg>
