<svg width="200" height="200" viewBox="0 0 200 200" fill="none" xmlns="http://www.w3.org/2000/svg">
    <g clip-path="url(#clip0_30_3971)">
        <path d="M200 0H0V200H200V0Z" fill="#BE443E"/>
        <path d="M67.1201 129.75C68.1401 135.06 66.3901 138.91 63.9101 141.62L61.2701 143.96C58.0701 146.29 54.8101 147.21 54.8101 147.21C54.8101 147.21 66.2501 159.78 70.7601 170.66C71.1501 171.61 71.4901 172.54 71.7701 173.45C73.2501 178.33 72.8701 182.58 68.7701 184.75C63.9101 187.32 59.5001 185.94 55.8501 183.11C55.1001 182.53 54.3901 181.9 53.7101 181.22C48.3501 175.88 45.0701 168.07 45.0701 168.07C45.0701 168.07 48.1401 178.49 47.5901 187.19C47.5301 188.09 47.4401 188.98 47.3001 189.84C46.5701 194.25 44.5901 197.8 40.3501 198.6C35.7301 199.48 32.4501 196.7 30.1201 192.2C29.7501 191.49 29.4101 190.74 29.0901 189.95C24.0001 177.48 24.4501 156.18 24.4501 156.18C24.4501 156.18 18.4601 159.68 12.5601 159.77C11.9401 159.78 11.3101 159.75 10.7001 159.68C7.3601 159.28 4.2701 157.52 2.5701 153.1C0.610098 148 2.7301 144.19 6.2501 141.41C6.8601 140.93 7.5101 140.48 8.1901 140.06C14.4701 136.16 23.1201 134.77 23.1201 134.77C22.2901 134.57 16.3301 131.59 14.1201 123.78C11.7601 115.43 14.3101 106.11 23.2601 102.64C32.9701 98.88 41.5501 103.93 44.2101 111.92C46.8901 118.89 43.2001 126.29 43.2001 126.29C43.2001 126.29 48.7601 123.73 54.5501 122.99C55.5301 122.86 56.5101 122.79 57.4801 122.79C61.9901 122.78 66.0901 124.38 67.1201 129.75Z" fill="#D3B77B"/>
        <path d="M47.5901 187.19C47.5301 188.09 47.4401 188.98 47.3001 189.84C45.0001 189.14 38.1001 187.69 30.1101 192.2C29.7401 191.49 29.4001 190.74 29.0801 189.95C32.5001 187.62 38.8701 184.77 47.5901 187.19Z" fill="white"/>
        <path d="M71.7701 173.45C69.5601 173.54 62.4801 174.52 55.8501 183.11C55.1001 182.53 54.3901 181.9 53.7101 181.22C55.8001 177.92 60.6401 172.59 70.7601 170.66C71.1601 171.6 71.4901 172.53 71.7701 173.45Z" fill="white"/>
        <path d="M63.9102 141.62C62.5902 139.88 57.7402 132.83 57.4702 122.79C56.5002 122.79 55.5202 122.86 54.5402 122.99C54.7802 126.21 55.9602 137.03 61.2802 143.97L63.9102 141.62Z" fill="white"/>
        <path d="M12.5401 159.76C11.9201 159.77 11.2901 159.74 10.6801 159.67C12.6501 153.46 7.8201 144.2 6.2301 141.4C6.8401 140.92 7.4901 140.47 8.1701 140.05C13.7101 147.63 12.9201 157 12.5401 159.76Z" fill="white"/>
        <path d="M35.8601 136.21C36.3401 137.45 35.7201 138.84 34.4801 139.32C33.2401 139.8 31.8501 139.18 31.3701 137.94C30.8901 136.7 31.5101 135.31 32.7501 134.83C33.9901 134.35 35.3801 134.97 35.8601 136.21Z" fill="#2E8287"/>
        <path d="M37.7801 117.6C38.1301 118.52 37.6701 119.55 36.7601 119.9C35.8401 120.25 34.8101 119.79 34.4601 118.88C34.1101 117.96 34.5701 116.93 35.4801 116.58C36.3901 116.23 37.4201 116.69 37.7801 117.6Z" fill="#BE443E"/>
        <path d="M23.9001 123.34C24.2501 124.26 23.7901 125.29 22.8801 125.64C21.9601 125.99 20.9301 125.53 20.5801 124.62C20.2301 123.7 20.6901 122.67 21.6001 122.32C22.5201 121.97 23.5501 122.43 23.9001 123.34Z" fill="#BE443E"/>
        <path d="M39.6101 147.17C40.0901 148.41 39.4701 149.8 38.2301 150.28C36.9901 150.76 35.6001 150.14 35.1201 148.9C34.6401 147.66 35.2601 146.27 36.5001 145.79C37.7401 145.31 39.1401 145.93 39.6101 147.17Z" fill="#2E8287"/>
        <path d="M43.89 158.31C44.37 159.55 43.75 160.94 42.51 161.42C41.27 161.9 39.88 161.28 39.4 160.04C38.92 158.8 39.54 157.41 40.78 156.93C42.03 156.45 43.42 157.07 43.89 158.31Z" fill="#2E8287"/>
        <path d="M38.2301 112.82C36.9501 111.29 35.4701 110.67 33.5501 111.39C31.7201 112.08 31.5001 113.93 31.7201 115.71C31.7801 116.2 32.5501 116.13 32.4901 115.63C32.3301 114.29 32.3801 112.74 33.8301 112.11C35.3401 111.45 36.6301 112.09 37.6201 113.28C37.9201 113.65 38.5501 113.2 38.2301 112.82Z" fill="#2E8287"/>
        <path d="M18.2501 119.53C18.1801 117.54 18.8801 116.09 20.8001 115.35C22.6301 114.64 24.0201 115.88 25.0401 117.35C25.3201 117.76 24.7001 118.21 24.4201 117.8C23.6501 116.69 22.5801 115.57 21.0701 116.06C19.5101 116.57 18.9701 117.9 19.0201 119.45C19.0401 119.95 18.2701 120.03 18.2501 119.53Z" fill="#2E8287"/>
        <path d="M33.2101 122.31C33.6201 123.97 33.2001 126.29 31.1701 126.63C29.5801 126.9 28.1501 125.77 27.7001 124.32C27.5001 123.69 26.5401 124.06 26.7401 124.69C27.4101 126.82 29.7601 128.23 31.9701 127.52C34.2901 126.77 34.6701 123.95 34.1701 121.94C34.0101 121.3 33.0501 121.68 33.2101 122.31Z" fill="white"/>
        <path d="M128.31 32.51C127.29 37.82 129.04 41.67 131.52 44.38L134.16 46.72C137.36 49.05 140.62 49.97 140.62 49.97C140.62 49.97 129.18 62.54 124.67 73.42C124.28 74.37 123.94 75.3 123.66 76.21C122.18 81.09 122.56 85.34 126.66 87.51C131.52 90.08 135.93 88.7 139.58 85.87C140.33 85.29 141.04 84.66 141.72 83.98C147.08 78.64 150.36 70.83 150.36 70.83C150.36 70.83 147.29 81.25 147.84 89.95C147.9 90.85 147.99 91.74 148.13 92.6C148.86 97.01 150.84 100.56 155.08 101.36C159.7 102.24 162.98 99.46 165.31 94.96C165.68 94.25 166.02 93.5 166.34 92.71C171.43 80.24 170.98 58.94 170.98 58.94C170.98 58.94 176.97 62.44 182.87 62.53C183.49 62.54 184.11 62.51 184.73 62.44C188.07 62.04 191.16 60.28 192.86 55.86C194.82 50.76 192.7 46.95 189.18 44.17C188.57 43.69 187.92 43.24 187.24 42.82C180.96 38.92 172.31 37.53 172.31 37.53C173.14 37.33 179.1 34.35 181.31 26.54C183.67 18.19 181.12 8.87003 172.17 5.40003C162.46 1.64003 153.88 6.69003 151.22 14.68C148.54 21.65 152.23 29.05 152.23 29.05C152.23 29.05 146.67 26.49 140.88 25.75C139.9 25.62 138.92 25.55 137.95 25.55C133.44 25.54 129.35 27.15 128.31 32.51Z" fill="#D3B77B"/>
        <path d="M147.85 89.95C147.91 90.85 148 91.74 148.14 92.6C150.44 91.9 157.34 90.45 165.33 94.96C165.7 94.25 166.04 93.5 166.36 92.71C162.94 90.38 156.56 87.54 147.85 89.95Z" fill="white"/>
        <path d="M123.66 76.2099C125.87 76.2999 132.95 77.2799 139.58 85.8699C140.33 85.2899 141.04 84.66 141.72 83.9799C139.63 80.6799 134.79 75.3499 124.67 73.4199C124.28 74.3599 123.94 75.2999 123.66 76.2099Z" fill="white"/>
        <path d="M134.16 46.7301C139.47 39.7901 140.66 28.9701 140.9 25.7501C139.92 25.6201 138.94 25.55 137.97 25.55C137.69 35.59 132.84 42.6501 131.53 44.3801L134.16 46.7301Z" fill="white"/>
        <path d="M182.9 62.5301C183.52 62.5401 184.14 62.5101 184.76 62.4401C182.79 56.2301 187.62 46.97 189.21 44.17C188.6 43.69 187.95 43.2401 187.27 42.8201C181.72 50.3901 182.51 59.7601 182.9 62.5301Z" fill="white"/>
        <path d="M159.57 38.97C159.09 40.21 159.71 41.6 160.95 42.08C162.19 42.56 163.58 41.9399 164.06 40.6999C164.54 39.4599 163.92 38.07 162.68 37.59C161.44 37.11 160.05 37.73 159.57 38.97Z" fill="#2E8287"/>
        <path d="M157.66 20.3699C157.31 21.2899 157.77 22.3199 158.68 22.6699C159.6 23.0199 160.63 22.5599 160.98 21.6499C161.33 20.7299 160.87 19.6999 159.96 19.3499C159.04 18.9899 158.01 19.4499 157.66 20.3699Z" fill="#BE443E"/>
        <path d="M171.53 26.1099C171.18 27.0299 171.64 28.0599 172.55 28.4099C173.47 28.7599 174.5 28.2999 174.85 27.3899C175.2 26.4699 174.74 25.4399 173.83 25.0899C172.91 24.7299 171.88 25.1899 171.53 26.1099Z" fill="#BE443E"/>
        <path d="M155.82 49.9299C155.34 51.1699 155.96 52.5599 157.2 53.0399C158.44 53.5199 159.83 52.8999 160.31 51.6599C160.79 50.4199 160.17 49.0299 158.93 48.5499C157.69 48.0699 156.3 48.6899 155.82 49.9299Z" fill="#2E8287"/>
        <path d="M151.54 61.0801C151.06 62.3201 151.68 63.7101 152.92 64.1901C154.16 64.6701 155.55 64.0501 156.03 62.8101C156.51 61.5701 155.89 60.1801 154.65 59.7001C153.41 59.2201 152.01 59.8401 151.54 61.0801Z" fill="#2E8287"/>
        <path d="M157.21 15.5801C158.49 14.0501 159.97 13.4302 161.89 14.1502C163.72 14.8402 163.94 16.6902 163.72 18.4702C163.66 18.9602 162.89 18.8901 162.95 18.3901C163.11 17.0501 163.06 15.5002 161.61 14.8702C160.1 14.2102 158.81 14.8502 157.82 16.0402C157.51 16.4202 156.89 15.9601 157.21 15.5801Z" fill="#2E8287"/>
        <path d="M177.18 22.3001C177.25 20.3101 176.55 18.8601 174.63 18.1201C172.8 17.4101 171.41 18.6501 170.39 20.1201C170.11 20.5301 170.73 20.9801 171.01 20.5701C171.78 19.4601 172.85 18.3401 174.36 18.8301C175.92 19.3401 176.46 20.6701 176.41 22.2201C176.4 22.7201 177.16 22.7901 177.18 22.3001Z" fill="#2E8287"/>
        <path d="M162.23 25.0801C161.82 26.7401 162.24 29.0601 164.27 29.4001C165.86 29.6701 167.29 28.5401 167.74 27.0901C167.94 26.4601 168.9 26.8301 168.7 27.4601C168.03 29.5901 165.68 31.0001 163.47 30.2901C161.15 29.5401 160.77 26.7201 161.27 24.7101C161.42 24.0701 162.38 24.4401 162.23 25.0801Z" fill="white"/>
        <path d="M101.06 147.27C96.43 146.99 91.81 146.7 87.34 145.41C81.24 143.64 77.71 139.01 74.59 133.91C68.97 124.71 68.69 115.02 71.49 104.88C76.87 85.35 87.79 69.6501 103.88 57.4801C108.51 53.9801 113.66 52.15 119.6 52.92C121.26 53.13 122.21 54.07 123.15 55.21C123.45 55.58 123.22 55.76 122.9 55.91C110.28 61.9 103.59 73.04 97.72 84.89C97.26 85.81 96.52 86.64 96.55 87.77C97.54 87.56 98.53 87.37 99.51 87.13C110.8 84.37 122.7 89.82 127.83 100.27C130.38 105.47 130.43 111.14 130.1 116.75C129.72 123.3 128.14 129.62 125.04 135.43C121.09 142.83 114.5 146.22 106.38 147C104.62 147.16 102.84 147.18 101.06 147.27ZM125.47 112.38C125.42 111.33 125.46 110.12 125.3 108.93C124.29 101.22 120.7 95.14 113.57 91.69C107.46 88.73 101.22 90.26 95.06 91.83C94.49 91.97 94.41 92.48 94.23 92.94C91.77 99.01 89.93 105.27 88.58 111.69C87.24 118.07 86.06 124.45 87.33 130.98C88.35 136.22 90.34 140.74 96.28 142C97.88 142.34 99.5 142.78 101.13 142.83C108.52 143.06 115.22 141.28 119.49 134.72C123.83 128.03 124.77 120.28 125.47 112.38Z" fill="white"/>
        <path d="M180.49 78.44L182.59 74.28L184.19 78.44L187.85 78.74L185.19 81.11L186.52 84.04L182.95 82.34L177.59 85.01L179.66 80.28L177.39 78.91L180.49 78.44Z" fill="white"/>
        <path d="M67.62 52.7301L69.73 48.5701L71.32 52.7301L74.99 53.0301L72.32 55.4001L73.66 58.33L70.09 56.6301L64.72 59.3L66.79 54.5701L64.52 53.2L67.62 52.7301Z" fill="white"/>
        <path d="M84.14 187.12L85.32 184.11L83.35 183.04C83.35 183.04 85.52 182.58 85.59 182.58C85.66 182.58 87.62 178.84 87.62 178.84L88.92 182.77L91.11 182.98L89.28 183.97L90.21 187.35L86.98 185.67L84.14 187.12Z" fill="white"/>
        <path d="M130.33 12.1799L131.83 6.91992L134.25 11.3499L138.63 11.2499L135.45 14.4899L137.18 18.5699L132.85 16.9199L128.58 19.9599L129.42 14.7099L126.07 12.9099L130.33 12.1799Z" fill="white"/>
        <path d="M58.1101 99.9301L59.8701 96.1301L62.1401 99.9301H65.8501L62.9201 101.9L64.2701 105.92L60.5401 103.66L55.5701 106.92L57.1401 102.21L54.5701 100.36L58.1101 99.9301Z" fill="white"/>
        <path d="M129.39 151.85L131.15 148.05L133.42 151.85H137.13L134.21 153.82L135.56 157.84L131.82 155.58L126.86 158.83L128.42 154.13L125.86 152.28L129.39 151.85Z" fill="white"/>
        <path d="M11.27 181.72L13.15 177.3L14.85 181.96L18.34 182.75L15.42 184.52L16.55 188.3L13.4 186.12L8.77003 188.9L9.92003 184.06L7.28003 182.4L11.27 181.72Z" fill="white"/>
        <path d="M79.65 160.36L78.04 164.91L82.88 161.89L85.08 164.91L84.39 160.69L87.23 159.04L83.83 157.99L82.19 153.44L80.27 157.67L76.52 157.95L79.65 160.36Z" fill="white"/>
        <path d="M24.95 145.44L27.05 141.28L28.65 145.44L32.31 145.74L29.65 148.11L30.98 151.04L27.41 149.34L22.05 152L24.11 147.28L21.85 145.91L24.95 145.44Z" fill="white"/>
        <path d="M144 113.95L146.1 109.78L147.7 113.95L151.36 114.25L148.7 116.62L150.03 119.55L146.46 117.85L141.1 120.51L143.16 115.78L140.9 114.42L144 113.95Z" fill="white"/>
        <path d="M98.65 167.15L99.83 164.14L97.86 163.07C97.86 163.07 100.03 162.61 100.1 162.61C100.17 162.61 102.13 158.87 102.13 158.87L103.43 162.8L105.62 163.01L103.79 164L104.72 167.38L101.49 165.7L98.65 167.15Z" fill="white"/>
        <path d="M58.92 81.6201L60.1 78.6101L58.13 77.5401C58.13 77.5401 60.3 77.0801 60.37 77.0801C60.44 77.0801 62.4 73.3401 62.4 73.3401L63.7 77.2701L65.89 77.4801L64.06 78.4701L64.99 81.8501L61.76 80.1701L58.92 81.6201Z" fill="white"/>
        <path d="M170.1 110.51L171.28 107.5L169.31 106.43C169.31 106.43 171.48 105.97 171.55 105.97C171.62 105.97 173.58 102.23 173.58 102.23L174.88 106.16L177.07 106.37L175.24 107.36L176.17 110.74L172.94 109.06L170.1 110.51Z" fill="white"/>
        <path d="M145.83 135.81L147.33 130.55L149.75 134.98L154.13 134.88L150.95 138.12L152.68 142.2L148.35 140.55L144.08 143.59L144.92 138.34L141.56 136.54L145.83 135.81Z" fill="white"/>
        <path d="M100.03 44.6201L101.79 40.8201L104.06 44.6201H107.77L104.84 46.5901L106.19 50.61L102.45 48.3501L97.49 51.61L99.06 46.9001L96.49 45.05L100.03 44.6201Z" fill="white"/>
        <path d="M31.15 82.17L33.03 77.75L34.73 82.42L38.23 83.2L35.3 84.97L36.43 88.76L33.28 86.57L28.65 89.36L29.8 84.51L27.16 82.85L31.15 82.17Z" fill="white"/>
        <path d="M6.70996 101.05L7.17996 97.6499L9.21996 100.55L11.79 100.43L10.1 102.2L11.59 104.61L9.00996 103.69L6.32996 106.48L6.20996 102.92L4.07996 102.27L6.70996 101.05Z" fill="white"/>
        <path d="M186.98 31.66L185.36 36.21L190.2 33.19L192.4 36.21L191.72 31.99L194.56 30.34L191.15 29.29L189.52 24.74L187.59 28.97L183.85 29.25L186.98 31.66Z" fill="white"/>
    </g>
    <defs>
        <clipPath id="clip0_30_3971">
            <rect width="200" height="200" fill="white"/>
        </clipPath>
    </defs>
</svg>
