<svg width="200" height="200" viewBox="0 0 200 200" fill="none" xmlns="http://www.w3.org/2000/svg">
    <g clip-path="url(#clip0_30_7059)">
        <path d="M200 0H0V200H200V0Z" fill="white"/>
        <path d="M200 0H0V200H200V0Z" fill="white"/>
        <path d="M137.29 160.65V160.7L136.23 182.03C136.23 182.03 87.62 191.23 71.3 181.79C71.3 181.79 69.3999 172.88 67.2199 159.17C59.9099 113.37 49.34 13.97 95.24 13.97C135.72 13.97 134.66 95.99 134.66 95.99C134.66 95.99 139.2 80.79 147.53 83.79C170.08 91.92 137.29 160.65 137.29 160.65Z" fill="#D3B77B"/>
        <path d="M82.96 65.2599C83.07 64.0399 81.1699 64.0499 81.0599 65.2599C80.6599 69.6699 80.53 74.0799 80.68 78.5099C80.72 79.7299 82.62 79.7299 82.58 78.5099C82.43 74.0799 82.55 69.6699 82.96 65.2599Z" fill="white"/>
        <path d="M95.2499 46.9C94.3299 42.21 92.8399 37.28 92.7599 32.49C92.7399 31.27 90.8399 31.26 90.8599 32.49C90.9499 37.46 92.4699 42.54 93.4199 47.4C93.6499 48.6 95.4799 48.1 95.2499 46.9Z" fill="white"/>
        <path d="M114.17 46.4401C112.96 41.9301 112.03 37.3701 111.36 32.7401C111.19 31.5301 109.36 32.0501 109.53 33.2501C110.2 37.8701 111.13 42.4301 112.34 46.9501C112.65 48.1201 114.49 47.6201 114.17 46.4401Z" fill="white"/>
        <path d="M101.31 63.4498V76.5399C101.31 77.7599 103.21 77.7599 103.21 76.5399V63.4498C103.21 62.2198 101.31 62.2198 101.31 63.4498Z" fill="white"/>
        <path d="M89.7899 84.68C89.9899 87.73 90.2399 90.75 90.9099 93.74C91.1799 94.93 92.9599 94.27 92.6999 93.1C92.0699 90.28 91.8699 87.41 91.6899 84.53C91.5999 83.31 89.7099 83.46 89.7899 84.68Z" fill="white"/>
        <path d="M98.46 21.4799C98.5 24.5399 98.6 27.5699 99.12 30.5899C99.33 31.7899 101.14 31.2299 100.94 30.0399C100.45 27.1999 100.4 24.3099 100.36 21.4299C100.34 20.1999 98.44 20.2499 98.46 21.4799Z" fill="white"/>
        <path d="M137.29 132.01C137.33 135.07 137.43 138.1 137.95 141.12C138.16 142.32 139.97 141.76 139.77 140.57C139.28 137.73 139.23 134.84 139.19 131.96C139.18 130.74 137.28 130.79 137.29 132.01Z" fill="white"/>
        <path d="M78.77 33.0101C77.74 38.9901 76.8299 44.9901 76.0299 51.0001C75.8699 52.2101 77.77 52.2001 77.93 51.0001C78.71 45.1501 79.5999 39.3301 80.5999 33.5101C80.7999 32.3201 78.97 31.8101 78.77 33.0101Z" fill="white"/>
        <path d="M68.9399 69.1699C67.4799 73.9399 66.5899 78.7899 66.2399 83.7699C66.1499 84.9899 68.0499 84.9799 68.1399 83.7699C68.4799 78.9599 69.3599 74.28 70.7699 69.68C71.1299 68.5 69.2899 67.9999 68.9399 69.1699Z" fill="white"/>
        <path d="M69.98 101.16V113.61C69.98 114.83 71.88 114.83 71.88 113.61V101.16C71.88 99.9399 69.98 99.9399 69.98 101.16Z" fill="white"/>
        <path d="M118.19 111.15C118.09 109.94 116.19 109.93 116.29 111.15C116.62 115.35 116.72 119.55 116.57 123.76C116.53 124.98 118.43 124.98 118.47 123.76C118.62 119.55 118.53 115.35 118.19 111.15Z" fill="white"/>
        <path d="M118.19 144.5C118.09 143.29 116.19 143.28 116.29 144.5C116.62 148.7 116.72 152.9 116.57 157.11C116.53 158.33 118.43 158.33 118.47 157.11C118.62 152.9 118.53 148.7 118.19 144.5Z" fill="white"/>
        <path d="M130.03 121.31C129.05 117.24 128.33 113.14 127.87 108.98C127.74 107.78 125.84 107.76 125.97 108.98C126.44 113.31 127.18 117.58 128.2 121.81C128.49 123.01 130.32 122.5 130.03 121.31Z" fill="white"/>
        <path d="M143.43 102.33C143.2 101.13 141.37 101.64 141.6 102.84C142.55 107.83 143.17 112.85 143.45 117.92C143.52 119.14 145.42 119.14 145.35 117.92C145.05 112.67 144.41 107.49 143.43 102.33Z" fill="white"/>
        <path d="M127.61 134.2C127.58 138.3 127.45 142.39 127.22 146.48C127.15 147.7 129.05 147.7 129.12 146.48C129.35 142.39 129.48 138.29 129.51 134.2C129.52 132.97 127.62 132.97 127.61 134.2Z" fill="white"/>
        <path d="M107.4 133.4C107.01 137.67 106.39 141.89 105.54 146.09C105.3 147.28 107.13 147.79 107.37 146.6C108.25 142.24 108.89 137.84 109.3 133.41C109.41 132.19 107.51 132.2 107.4 133.4Z" fill="white"/>
        <path d="M96.3199 143.09V155.54C96.3199 156.76 98.2199 156.76 98.2199 155.54V143.09C98.2199 141.87 96.3199 141.87 96.3199 143.09Z" fill="white"/>
        <path d="M76.32 126.37C76.43 125.15 74.53 125.16 74.42 126.37C73.8 133.06 73.56 139.76 73.71 146.48C73.74 147.7 75.64 147.71 75.61 146.48C75.47 139.76 75.71 133.06 76.32 126.37Z" fill="white"/>
        <path d="M137.29 160.7L136.23 182.03C136.23 182.03 133.81 182.49 129.87 183.1C127.64 183.44 124.92 183.83 121.88 184.22C118.82 184.6 115.41 184.99 111.86 185.3C108.66 185.57 105.32 185.8 101.97 185.93C98.3599 186.08 94.7299 186.1 91.2499 185.97C87.3899 185.82 83.7 185.48 80.39 184.85C76.83 184.18 73.7099 183.19 71.2899 181.79C71.2899 181.79 69.39 172.88 67.21 159.17C69.84 159.32 73.69 159.54 78.3 159.78C81.88 159.96 85.9299 160.15 90.2199 160.33C93.5799 160.47 97.09 160.6 100.64 160.72C104.19 160.83 107.79 160.93 111.33 161C114.94 161.06 118.49 161.11 121.87 161.11C125.04 161.12 128.06 161.08 130.85 160.99C133.18 160.92 135.35 160.83 137.29 160.7Z" fill="#2E8287"/>
        <path d="M124.56 79.7099C124.34 78.5099 122.51 79.0199 122.73 80.2199C123.52 84.5799 123.95 88.9499 124.05 93.3799C124.08 94.5999 125.98 94.6099 125.95 93.3799C125.85 88.7799 125.39 84.2299 124.56 79.7099Z" fill="white"/>
        <path d="M91.2499 185.96C87.3899 185.81 83.7 185.47 80.39 184.84L78.3099 159.77C81.8899 159.95 85.9399 160.14 90.2299 160.32L91.2499 185.96Z" fill="#BE443E"/>
        <path d="M111.86 185.29C108.66 185.56 105.32 185.79 101.97 185.92C101.61 178.95 100.99 167.03 100.65 160.71C104.2 160.82 107.8 160.92 111.34 160.99L111.86 185.29Z" fill="#BE443E"/>
        <path d="M130.87 160.98L129.88 183.09C127.65 183.43 124.93 183.82 121.89 184.21V161.09C125.05 161.1 128.07 161.06 130.87 160.98Z" fill="#BE443E"/>
        <path d="M85.78 57.1699C81.09 57.1999 77.03 57.4499 73.01 56.8199C72.44 56.7299 71.51 56.9799 71.61 55.8699C71.7 54.9699 72 54.2399 73.11 54.1799C78.52 53.8399 83.93 53.4199 89.35 53.1299C97.48 52.6999 105.63 52.8499 113.77 52.9399C117.07 52.9699 120.5 53.1299 122.41 56.5499C123.92 59.2399 123.61 62.1899 123.1 65.0199C121.55 73.6299 118.55 81.8299 115.57 90.0199C114.61 92.6499 113.65 95.2799 112.58 97.8699C112.13 98.9599 112.5 99.1599 113.48 99.2299C117.25 99.4899 121.02 99.7899 124.78 100.1C125.39 100.15 126.02 100.3 126.58 100.54C127.51 100.94 128.43 101.77 128.4 102.63C128.37 103.35 127.05 103.22 126.31 103.32C120.97 104 115.72 105.3 110.33 105.58C109.57 105.62 109.26 106.06 109.02 106.68C104.91 117.41 99.89 127.73 94.52 137.86C92.88 140.95 90.38 143.62 88.03 146.28C86.82 147.65 84.84 147.18 83.36 146.68C82.03 146.23 82.72 144.76 82.84 143.71C83.78 135.79 87.59 128.86 90.51 121.62C92.42 116.88 94.32 112.13 96.25 107.39C96.67 106.36 96.12 106.42 95.38 106.43C90.18 106.5 84.99 107.03 79.79 106.59C79.39 106.56 78.99 106.52 78.6 106.46C77.73 106.32 76.3 106.94 76.16 105.68C75.98 104.07 76.35 102.38 78.39 101.86C84.89 100.2 91.54 99.6799 98.21 99.3799C99.11 99.3399 99.64 99.1599 100.03 98.2499C104.36 88.2099 108.76 78.1999 113.11 68.1599C114.24 65.5499 115.42 62.9399 116.27 60.2399C117.2 57.2899 116.52 56.5699 113.42 56.5499C103.99 56.4699 94.56 56.6799 85.78 57.1699Z" fill="#BE443E"/>
    </g>
    <defs>
        <clipPath id="clip0_30_7059">
            <rect width="200" height="200" fill="white"/>
        </clipPath>
    </defs>
</svg>
